<svg width="20" height="20" viewBox="0 0 20 20" fill="none" xmlns="http://www.w3.org/2000/svg">
<g id="feedback">
<path id="Vector" d="M16.6624 1.6665H3.33744C2.42078 1.6665 1.67078 2.4165 1.67078 3.33317V18.3332L4.99578 14.9998H16.6624C17.5791 14.9998 18.3291 14.2498 18.3291 13.3332V3.33317C18.3291 2.4165 17.5791 1.6665 16.6624 1.6665ZM10.8291 11.6665H9.16244V9.99984H10.8291V11.6665ZM10.8291 7.49984C10.8291 7.95817 10.4541 8.33317 9.99578 8.33317C9.53744 8.33317 9.16244 7.95817 9.16244 7.49984V5.83317C9.16244 5.37484 9.53744 4.99984 9.99578 4.99984C10.4541 4.99984 10.8291 5.37484 10.8291 5.83317V7.49984Z" fill="#6C757D"/>
</g>
</svg>
