<?xml version="1.0" encoding="utf-8"?>
<!-- Generator: Adobe Illustrator 26.0.3, SVG Export Plug-In . SVG Version: 6.00 Build 0)  -->
<svg version="1.1" id="Layer_1" xmlns="http://www.w3.org/2000/svg" xmlns:xlink="http://www.w3.org/1999/xlink" x="0px" y="0px"
	 viewBox="0 0 35 35" style="enable-background:new 0 0 35 35;" xml:space="preserve">
<style type="text/css">
	.st0{fill:url(#SVGID_1_);}
	.st1{fill:url(#SVGID_00000057828671380382408650000005607661998219959696_);}
	.st2{fill:url(#SVGID_00000028303268609702855050000013898598157951208084_);}
	.st3{fill:url(#SVGID_00000003822199570293915660000005606677031552887695_);}
	.st4{fill:url(#SVGID_00000078730628884670671650000007083002927919728305_);}
	.st5{opacity:0.17;fill:url(#SVGID_00000132086284644405201100000016974796717514272168_);}
	.st6{fill:#FFFFFF;}
</style>
<g>
	<g>
		<linearGradient id="SVGID_1_" gradientUnits="userSpaceOnUse" x1="28.8854" y1="6.1146" x2="6.4033" y2="28.5967">
			<stop  offset="0" style="stop-color:#41E0D7"/>
			<stop  offset="1" style="stop-color:#6D47CF"/>
		</linearGradient>
		<path class="st0" d="M27,5.1H8C6.4,5.1,5.1,6.4,5.1,8V27c0,0.3,0.1,0.7,0.2,1c0.7-3,2.9-5.5,5.7-6.6c-1.6-1.1-2.7-2.9-2.7-5
			c0-3.4,2.7-6.1,6.1-6.1c3.4,0,6.1,2.7,6.1,6.1c0,2.1-1.1,4-2.7,5c2.2,0.9,4,2.5,5,4.6l2.1-7.4c0.2-0.5,0.7-0.9,1.3-0.7
			c0.5,0.2,0.9,0.7,0.7,1.3l-3.1,10.8H27c1.6,0,2.9-1.3,2.9-2.9V8C29.9,6.4,28.6,5.1,27,5.1z"/>
		
			<linearGradient id="SVGID_00000088813413540190013430000009310505594693055158_" gradientUnits="userSpaceOnUse" x1="21.2615" y1="-1.5093" x2="-1.2206" y2="20.9728">
			<stop  offset="0" style="stop-color:#41E0D7"/>
			<stop  offset="1" style="stop-color:#6D47CF"/>
		</linearGradient>
		<path style="fill:url(#SVGID_00000088813413540190013430000009310505594693055158_);" d="M17.9,0.4c0-0.2-0.2-0.4-0.4-0.4
			s-0.4,0.2-0.4,0.4v3.8h0.9V0.4z"/>
		
			<linearGradient id="SVGID_00000165941809853943154910000009232200865114424504_" gradientUnits="userSpaceOnUse" x1="36.5093" y1="13.7385" x2="14.0272" y2="36.2206">
			<stop  offset="0" style="stop-color:#41E0D7"/>
			<stop  offset="1" style="stop-color:#6D47CF"/>
		</linearGradient>
		<path style="fill:url(#SVGID_00000165941809853943154910000009232200865114424504_);" d="M17.1,34.6c0,0.2,0.2,0.4,0.4,0.4
			s0.4-0.2,0.4-0.4v-3.8h-0.9V34.6z"/>
		
			<linearGradient id="SVGID_00000119829524543758759750000000176111611801748395_" gradientUnits="userSpaceOnUse" x1="36.5093" y1="13.7385" x2="14.0272" y2="36.2206">
			<stop  offset="0" style="stop-color:#41E0D7"/>
			<stop  offset="1" style="stop-color:#6D47CF"/>
		</linearGradient>
		<path style="fill:url(#SVGID_00000119829524543758759750000000176111611801748395_);" d="M34.6,17.1h-3.8v0.9h3.8
			c0.2,0,0.4-0.2,0.4-0.4S34.8,17.1,34.6,17.1z"/>
		
			<linearGradient id="SVGID_00000091709425033407938190000018165036864360396184_" gradientUnits="userSpaceOnUse" x1="21.2615" y1="-1.5093" x2="-1.2206" y2="20.9728">
			<stop  offset="0" style="stop-color:#41E0D7"/>
			<stop  offset="1" style="stop-color:#6D47CF"/>
		</linearGradient>
		<path style="fill:url(#SVGID_00000091709425033407938190000018165036864360396184_);" d="M0,17.5c0,0.2,0.2,0.4,0.4,0.4h3.8v-0.9
			H0.4C0.2,17.1,0,17.3,0,17.5z"/>
	</g>
	
		<linearGradient id="SVGID_00000150792423461626696610000000165782992308533159_" gradientUnits="userSpaceOnUse" x1="32.0724" y1="-4.0523" x2="14.1945" y2="25.6052">
		<stop  offset="0" style="stop-color:#41E0D7"/>
		<stop  offset="1" style="stop-color:#6D47CF"/>
	</linearGradient>
	<path style="opacity:0.17;fill:url(#SVGID_00000150792423461626696610000000165782992308533159_);" d="M26.7,17.5
		c-0.6-0.2-1.1,0.2-1.3,0.7l-2.2,7.6c-1.1-2.1-2.9-3.8-5.1-4.7c1.7-1.1,2.8-3,2.8-5.2c0-3.4-2.8-6.2-6.2-6.2c-3.4,0-6.2,2.8-6.2,6.2
		c0,2.2,1.1,4.1,2.8,5.2c-2.9,1.1-5.1,3.7-5.9,6.8c0.4,1.2,1.5,2,2.8,2h16.2l3.2-11.1C27.6,18.2,27.3,17.6,26.7,17.5z"/>
	<path class="st6" d="M26.2,17.8c-0.5-0.2-1.1,0.2-1.3,0.7l-2.1,7.4c-1-2.1-2.8-3.7-5-4.6c1.6-1.1,2.7-2.9,2.7-5
		c0-3.4-2.7-6.1-6.1-6.1c-3.4,0-6.1,2.7-6.1,6.1c0,2.1,1.1,4,2.7,5c-2.9,1.1-5,3.6-5.7,6.6c0.4,1.1,1.5,1.9,2.7,1.9h15.8L26.9,19
		C27.1,18.5,26.8,17.9,26.2,17.8z"/>
</g>
</svg>
