<?xml version="1.0" encoding="utf-8"?>
<!-- Generator: Adobe Illustrator 26.0.3, SVG Export Plug-In . SVG Version: 6.00 Build 0)  -->
<svg version="1.1" id="Layer_1" xmlns="http://www.w3.org/2000/svg" xmlns:xlink="http://www.w3.org/1999/xlink" x="0px" y="0px"
	 viewBox="0 0 78.1 35" style="enable-background:new 0 0 78.1 35;" xml:space="preserve">
<style type="text/css">
	.st0{fill:url(#SVGID_1_);}
	.st1{fill:url(#SVGID_00000160893692182767899730000017186070785813927343_);}
	.st2{fill:url(#SVGID_00000039821062090095918460000010203173952869741496_);}
	.st3{fill:url(#SVGID_00000180332702620702039770000010391531197067641513_);}
	.st4{fill:url(#SVGID_00000029763792338485131740000012679345089197601446_);}
	.st5{opacity:0.17;fill:url(#SVGID_00000110472797222423767910000017185693046602780599_);}
	.st6{fill:#FFFFFF;}
	.st7{fill:#1F153A;}
</style>
<g>
	<g>
		<g>
			<linearGradient id="SVGID_1_" gradientUnits="userSpaceOnUse" x1="28.8854" y1="6.1146" x2="6.4033" y2="28.5967">
				<stop  offset="0" style="stop-color:#41E0D7"/>
				<stop  offset="1" style="stop-color:#6D47CF"/>
			</linearGradient>
			<path class="st0" d="M27,5.1H8C6.4,5.1,5.1,6.4,5.1,8V27c0,0.3,0.1,0.7,0.2,1c0.7-3,2.9-5.5,5.7-6.6c-1.6-1.1-2.7-2.9-2.7-5
				c0-3.4,2.7-6.1,6.1-6.1c3.4,0,6.1,2.7,6.1,6.1c0,2.1-1.1,4-2.7,5c2.2,0.9,4,2.5,5,4.6l2.1-7.4c0.2-0.5,0.7-0.9,1.3-0.7
				c0.5,0.2,0.9,0.7,0.7,1.3l-3.1,10.8H27c1.6,0,2.9-1.3,2.9-2.9V8C29.9,6.4,28.6,5.1,27,5.1z"/>
			
				<linearGradient id="SVGID_00000112625956544148457050000013056504462723054218_" gradientUnits="userSpaceOnUse" x1="21.2615" y1="-1.5093" x2="-1.2206" y2="20.9728">
				<stop  offset="0" style="stop-color:#41E0D7"/>
				<stop  offset="1" style="stop-color:#6D47CF"/>
			</linearGradient>
			<path style="fill:url(#SVGID_00000112625956544148457050000013056504462723054218_);" d="M17.9,0.4c0-0.2-0.2-0.4-0.4-0.4
				s-0.4,0.2-0.4,0.4v3.8h0.9V0.4z"/>
			
				<linearGradient id="SVGID_00000059293741651019693170000011166653780874375321_" gradientUnits="userSpaceOnUse" x1="36.5093" y1="13.7385" x2="14.0272" y2="36.2206">
				<stop  offset="0" style="stop-color:#41E0D7"/>
				<stop  offset="1" style="stop-color:#6D47CF"/>
			</linearGradient>
			<path style="fill:url(#SVGID_00000059293741651019693170000011166653780874375321_);" d="M17.1,34.6c0,0.2,0.2,0.4,0.4,0.4
				s0.4-0.2,0.4-0.4v-3.8h-0.9V34.6z"/>
			
				<linearGradient id="SVGID_00000154412252970453892150000005245352110011077761_" gradientUnits="userSpaceOnUse" x1="36.5093" y1="13.7385" x2="14.0272" y2="36.2206">
				<stop  offset="0" style="stop-color:#41E0D7"/>
				<stop  offset="1" style="stop-color:#6D47CF"/>
			</linearGradient>
			<path style="fill:url(#SVGID_00000154412252970453892150000005245352110011077761_);" d="M34.6,17.1h-3.8v0.9h3.8
				c0.2,0,0.4-0.2,0.4-0.4S34.8,17.1,34.6,17.1z"/>
			
				<linearGradient id="SVGID_00000062912840422248079210000010563417799884681663_" gradientUnits="userSpaceOnUse" x1="21.2615" y1="-1.5093" x2="-1.2206" y2="20.9728">
				<stop  offset="0" style="stop-color:#41E0D7"/>
				<stop  offset="1" style="stop-color:#6D47CF"/>
			</linearGradient>
			<path style="fill:url(#SVGID_00000062912840422248079210000010563417799884681663_);" d="M0,17.5c0,0.2,0.2,0.4,0.4,0.4h3.8v-0.9
				H0.4C0.2,17.1,0,17.3,0,17.5z"/>
		</g>
		
			<linearGradient id="SVGID_00000158734370732572220950000017669474242027563396_" gradientUnits="userSpaceOnUse" x1="32.0724" y1="-4.0523" x2="14.1945" y2="25.6052">
			<stop  offset="0" style="stop-color:#41E0D7"/>
			<stop  offset="1" style="stop-color:#6D47CF"/>
		</linearGradient>
		<path style="opacity:0.17;fill:url(#SVGID_00000158734370732572220950000017669474242027563396_);" d="M26.7,17.5
			c-0.6-0.2-1.1,0.2-1.3,0.7l-2.2,7.6c-1.1-2.1-2.9-3.8-5.1-4.7c1.7-1.1,2.8-3,2.8-5.2c0-3.4-2.8-6.2-6.2-6.2
			c-3.4,0-6.2,2.8-6.2,6.2c0,2.2,1.1,4.1,2.8,5.2c-2.9,1.1-5.1,3.7-5.9,6.8c0.4,1.2,1.5,2,2.8,2h16.2l3.2-11.1
			C27.6,18.2,27.3,17.6,26.7,17.5z"/>
		<path class="st6" d="M26.2,17.8c-0.5-0.2-1.1,0.2-1.3,0.7l-2.1,7.4c-1-2.1-2.8-3.7-5-4.6c1.6-1.1,2.7-2.9,2.7-5
			c0-3.4-2.7-6.1-6.1-6.1c-3.4,0-6.1,2.7-6.1,6.1c0,2.1,1.1,4,2.7,5c-2.9,1.1-5,3.6-5.7,6.6c0.4,1.1,1.5,1.9,2.7,1.9h15.8L26.9,19
			C27.1,18.5,26.8,17.9,26.2,17.8z"/>
	</g>
	<g>
		<path class="st7" d="M39.6,11.6V6.9h-1.7v-1h4.5v1h-1.7v4.7H39.6z"/>
		<path class="st7" d="M44.2,11.6h-1.1V7.5h1v0.6c0.2-0.3,0.3-0.5,0.5-0.5c0.1-0.1,0.3-0.1,0.5-0.1c0.2,0,0.5,0.1,0.7,0.2l-0.3,0.9
			c-0.2-0.1-0.3-0.2-0.5-0.2c-0.2,0-0.3,0-0.4,0.1c-0.1,0.1-0.2,0.2-0.2,0.5c-0.1,0.2-0.1,0.7-0.1,1.4V11.6z"/>
		<path class="st7" d="M47,8.7l-1-0.2c0.1-0.4,0.3-0.7,0.6-0.9c0.3-0.2,0.7-0.3,1.2-0.3c0.5,0,0.8,0.1,1.1,0.2
			c0.2,0.1,0.4,0.3,0.5,0.4c0.1,0.2,0.1,0.5,0.1,1l0,1.3c0,0.4,0,0.6,0.1,0.8c0,0.2,0.1,0.4,0.2,0.6h-1.1c0-0.1-0.1-0.2-0.1-0.3
			c0-0.1,0-0.1,0-0.1c-0.2,0.2-0.4,0.3-0.6,0.4c-0.2,0.1-0.4,0.1-0.7,0.1c-0.4,0-0.8-0.1-1-0.3c-0.2-0.2-0.4-0.5-0.4-0.9
			c0-0.2,0.1-0.4,0.2-0.6c0.1-0.2,0.3-0.3,0.5-0.4c0.2-0.1,0.5-0.2,0.9-0.3c0.5-0.1,0.9-0.2,1.1-0.3V8.8c0-0.2-0.1-0.4-0.2-0.4
			c-0.1-0.1-0.3-0.1-0.6-0.1c-0.2,0-0.3,0-0.5,0.1S47.1,8.6,47,8.7z M48.5,9.6c-0.1,0-0.4,0.1-0.7,0.2c-0.3,0.1-0.5,0.1-0.6,0.2
			c-0.1,0.1-0.2,0.2-0.2,0.4c0,0.2,0.1,0.3,0.2,0.4c0.1,0.1,0.3,0.2,0.4,0.2c0.2,0,0.4-0.1,0.6-0.2c0.1-0.1,0.2-0.2,0.3-0.4
			c0-0.1,0-0.3,0-0.5V9.6z"/>
		<path class="st7" d="M50.6,6.9v-1h1.1v1H50.6z M50.6,11.6V7.5h1.1v4.1H50.6z"/>
		<path class="st7" d="M56.6,11.6h-1.1V9.5c0-0.4,0-0.7-0.1-0.9c0-0.1-0.1-0.2-0.2-0.3c-0.1-0.1-0.2-0.1-0.4-0.1
			c-0.2,0-0.4,0.1-0.5,0.2C54.2,8.5,54,8.6,54,8.8c-0.1,0.2-0.1,0.5-0.1,0.9v1.9h-1.1V7.5h1v0.6c0.4-0.5,0.8-0.7,1.4-0.7
			c0.2,0,0.5,0,0.7,0.1c0.2,0.1,0.3,0.2,0.4,0.3c0.1,0.1,0.2,0.3,0.2,0.5c0,0.2,0.1,0.4,0.1,0.7V11.6z"/>
		<path class="st7" d="M57.7,6.9v-1h1.1v1H57.7z M57.7,11.6V7.5h1.1v4.1H57.7z"/>
		<path class="st7" d="M63.6,11.6h-1.1V9.5c0-0.4,0-0.7-0.1-0.9c0-0.1-0.1-0.2-0.2-0.3c-0.1-0.1-0.2-0.1-0.4-0.1
			c-0.2,0-0.4,0.1-0.5,0.2c-0.2,0.1-0.3,0.2-0.3,0.4C61,9,60.9,9.3,60.9,9.7v1.9h-1.1V7.5h1v0.6c0.4-0.5,0.8-0.7,1.4-0.7
			c0.2,0,0.5,0,0.7,0.1c0.2,0.1,0.3,0.2,0.4,0.3c0.1,0.1,0.2,0.3,0.2,0.5c0,0.2,0.1,0.4,0.1,0.7V11.6z"/>
		<path class="st7" d="M64.6,11.9l1.2,0.2c0,0.1,0.1,0.2,0.1,0.3c0.1,0.1,0.3,0.1,0.5,0.1c0.3,0,0.5,0,0.6-0.1
			c0.1-0.1,0.2-0.1,0.2-0.3c0-0.1,0.1-0.3,0.1-0.5v-0.6c-0.3,0.4-0.7,0.7-1.2,0.7c-0.5,0-1-0.2-1.3-0.7c-0.3-0.4-0.4-0.8-0.4-1.4
			c0-0.7,0.2-1.2,0.5-1.6c0.3-0.4,0.7-0.5,1.2-0.5c0.5,0,0.9,0.2,1.3,0.7V7.5h1v3.7c0,0.5,0,0.8-0.1,1.1c-0.1,0.2-0.2,0.4-0.3,0.6
			c-0.1,0.1-0.3,0.2-0.6,0.3c-0.2,0.1-0.5,0.1-0.9,0.1c-0.7,0-1.2-0.1-1.5-0.4c-0.3-0.2-0.4-0.5-0.4-0.9
			C64.6,12,64.6,11.9,64.6,11.9z M65.6,9.5c0,0.4,0.1,0.8,0.3,1c0.2,0.2,0.4,0.3,0.6,0.3c0.3,0,0.5-0.1,0.7-0.3
			c0.2-0.2,0.3-0.5,0.3-0.9c0-0.4-0.1-0.7-0.3-0.9c-0.2-0.2-0.4-0.3-0.7-0.3c-0.3,0-0.5,0.1-0.6,0.3C65.7,8.7,65.6,9,65.6,9.5z"/>
		<path class="st7" d="M38.3,20.4v-5.7H40l1,3.9l1-3.9h1.7v5.7h-1.1v-4.5l-1.1,4.5h-1.1l-1.1-4.5v4.5H38.3z"/>
		<path class="st7" d="M44.7,18.2c0-0.4,0.1-0.7,0.3-1c0.2-0.3,0.4-0.6,0.8-0.8c0.3-0.2,0.7-0.3,1.1-0.3c0.6,0,1.1,0.2,1.5,0.6
			c0.4,0.4,0.6,0.9,0.6,1.5c0,0.6-0.2,1.1-0.6,1.5s-0.9,0.6-1.5,0.6c-0.4,0-0.7-0.1-1.1-0.3c-0.3-0.2-0.6-0.4-0.8-0.7
			C44.7,19.1,44.7,18.7,44.7,18.2z M45.8,18.3c0,0.4,0.1,0.7,0.3,0.9c0.2,0.2,0.4,0.3,0.7,0.3c0.3,0,0.5-0.1,0.7-0.3
			c0.2-0.2,0.3-0.5,0.3-0.9c0-0.4-0.1-0.7-0.3-0.9c-0.2-0.2-0.4-0.3-0.7-0.3c-0.3,0-0.5,0.1-0.7,0.3C45.9,17.6,45.8,17.9,45.8,18.3z
			"/>
		<path class="st7" d="M53.5,20.4h-1.1v-2.1c0-0.4,0-0.7-0.1-0.9c0-0.1-0.1-0.2-0.2-0.3C52,17,51.9,17,51.7,17
			c-0.2,0-0.4,0.1-0.5,0.2c-0.2,0.1-0.3,0.2-0.3,0.4c-0.1,0.2-0.1,0.5-0.1,0.9v1.9h-1.1v-4.1h1v0.6c0.4-0.5,0.8-0.7,1.4-0.7
			c0.2,0,0.5,0,0.7,0.1c0.2,0.1,0.3,0.2,0.4,0.3c0.1,0.1,0.2,0.3,0.2,0.5c0,0.2,0.1,0.4,0.1,0.7V20.4z"/>
		<path class="st7" d="M54.6,15.7v-1h1.1v1H54.6z M54.6,20.4v-4.1h1.1v4.1H54.6z"/>
		<path class="st7" d="M58.7,16.3v0.9h-0.7v1.7c0,0.3,0,0.5,0,0.6c0,0.1,0,0.1,0.1,0.1c0.1,0,0.1,0.1,0.2,0.1c0.1,0,0.2,0,0.4-0.1
			l0.1,0.8c-0.3,0.1-0.5,0.2-0.9,0.2c-0.2,0-0.4,0-0.5-0.1c-0.2-0.1-0.3-0.2-0.3-0.3c-0.1-0.1-0.1-0.2-0.2-0.4c0-0.1,0-0.4,0-0.8
			v-1.8h-0.5v-0.9h0.5v-0.8l1.1-0.6v1.4H58.7z"/>
		<path class="st7" d="M59.2,18.2c0-0.4,0.1-0.7,0.3-1c0.2-0.3,0.4-0.6,0.8-0.8c0.3-0.2,0.7-0.3,1.1-0.3c0.6,0,1.1,0.2,1.5,0.6
			s0.6,0.9,0.6,1.5c0,0.6-0.2,1.1-0.6,1.5c-0.4,0.4-0.9,0.6-1.5,0.6c-0.4,0-0.7-0.1-1.1-0.3c-0.3-0.2-0.6-0.4-0.8-0.7
			C59.3,19.1,59.2,18.7,59.2,18.2z M60.3,18.3c0,0.4,0.1,0.7,0.3,0.9s0.4,0.3,0.7,0.3c0.3,0,0.5-0.1,0.7-0.3
			c0.2-0.2,0.3-0.5,0.3-0.9c0-0.4-0.1-0.7-0.3-0.9c-0.2-0.2-0.4-0.3-0.7-0.3c-0.3,0-0.5,0.1-0.7,0.3C60.4,17.6,60.3,17.9,60.3,18.3z
			"/>
		<path class="st7" d="M65.3,20.4h-1.1v-4.1h1v0.6c0.2-0.3,0.3-0.5,0.5-0.5c0.1-0.1,0.3-0.1,0.5-0.1c0.2,0,0.5,0.1,0.7,0.2l-0.3,0.9
			c-0.2-0.1-0.3-0.2-0.5-0.2c-0.2,0-0.3,0-0.4,0.1c-0.1,0.1-0.2,0.2-0.2,0.5s-0.1,0.7-0.1,1.4V20.4z"/>
		<path class="st7" d="M67.3,15.7v-1h1.1v1H67.3z M67.3,20.4v-4.1h1.1v4.1H67.3z"/>
		<path class="st7" d="M73.3,20.4h-1.1v-2.1c0-0.4,0-0.7-0.1-0.9c0-0.1-0.1-0.2-0.2-0.3C71.8,17,71.7,17,71.5,17
			c-0.2,0-0.4,0.1-0.5,0.2c-0.2,0.1-0.3,0.2-0.3,0.4c-0.1,0.2-0.1,0.5-0.1,0.9v1.9h-1.1v-4.1h1v0.6c0.4-0.5,0.8-0.7,1.4-0.7
			c0.2,0,0.5,0,0.7,0.1c0.2,0.1,0.3,0.2,0.4,0.3c0.1,0.1,0.2,0.3,0.2,0.5c0,0.2,0.1,0.4,0.1,0.7V20.4z"/>
		<path class="st7" d="M74.3,20.6l1.2,0.2c0,0.1,0.1,0.2,0.1,0.3c0.1,0.1,0.3,0.1,0.5,0.1c0.3,0,0.5,0,0.6-0.1
			c0.1-0.1,0.2-0.1,0.2-0.3c0-0.1,0.1-0.3,0.1-0.5v-0.6c-0.3,0.4-0.7,0.7-1.2,0.7c-0.5,0-1-0.2-1.3-0.7c-0.3-0.4-0.4-0.8-0.4-1.4
			c0-0.7,0.2-1.2,0.5-1.6c0.3-0.4,0.7-0.5,1.2-0.5c0.5,0,0.9,0.2,1.3,0.7v-0.6h1v3.7c0,0.5,0,0.8-0.1,1.1c-0.1,0.2-0.2,0.4-0.3,0.6
			c-0.1,0.1-0.3,0.2-0.6,0.3C76.9,22,76.6,22,76.2,22c-0.7,0-1.2-0.1-1.5-0.4c-0.3-0.2-0.4-0.5-0.4-0.9
			C74.3,20.7,74.3,20.7,74.3,20.6z M75.3,18.2c0,0.4,0.1,0.8,0.3,1c0.2,0.2,0.4,0.3,0.6,0.3c0.3,0,0.5-0.1,0.7-0.3s0.3-0.5,0.3-0.9
			c0-0.4-0.1-0.7-0.3-0.9c-0.2-0.2-0.4-0.3-0.7-0.3c-0.3,0-0.5,0.1-0.6,0.3C75.3,17.5,75.3,17.8,75.3,18.2z"/>
		<path class="st7" d="M38,27.3l1.1-0.1c0.1,0.4,0.2,0.7,0.4,0.8s0.5,0.3,0.8,0.3c0.4,0,0.6-0.1,0.8-0.2c0.2-0.2,0.3-0.3,0.3-0.6
			c0-0.1,0-0.2-0.1-0.3S41.2,27,41,26.9c-0.1,0-0.4-0.1-0.9-0.2c-0.6-0.2-1-0.3-1.3-0.6c-0.3-0.3-0.5-0.7-0.5-1.1
			c0-0.3,0.1-0.6,0.2-0.8c0.2-0.3,0.4-0.4,0.7-0.6c0.3-0.1,0.7-0.2,1.1-0.2c0.7,0,1.2,0.2,1.6,0.5c0.4,0.3,0.5,0.7,0.6,1.3l-1.1,0
			c0-0.3-0.2-0.5-0.3-0.6c-0.2-0.1-0.4-0.2-0.7-0.2c-0.3,0-0.6,0.1-0.8,0.2c-0.1,0.1-0.2,0.2-0.2,0.4c0,0.1,0.1,0.2,0.2,0.3
			c0.1,0.1,0.5,0.2,1,0.4c0.6,0.1,1,0.3,1.2,0.4c0.3,0.1,0.5,0.3,0.6,0.6s0.2,0.5,0.2,0.9c0,0.3-0.1,0.6-0.3,0.9
			c-0.2,0.3-0.4,0.5-0.8,0.6c-0.3,0.1-0.7,0.2-1.2,0.2c-0.7,0-1.3-0.2-1.7-0.5C38.3,28.4,38.1,27.9,38,27.3z"/>
		<path class="st7" d="M43.1,25h1.2l1,2.9l1-2.9h1.1l-1.4,4l-0.3,0.7c-0.1,0.2-0.2,0.4-0.3,0.5c-0.1,0.1-0.2,0.2-0.3,0.3
			c-0.1,0.1-0.2,0.1-0.4,0.2c-0.2,0-0.3,0.1-0.6,0.1c-0.2,0-0.4,0-0.6-0.1l-0.1-0.8c0.2,0,0.3,0,0.5,0c0.3,0,0.4-0.1,0.6-0.2
			c0.1-0.1,0.2-0.3,0.3-0.6L43.1,25z"/>
		<path class="st7" d="M47.6,28l1.1-0.2c0,0.2,0.1,0.4,0.3,0.5c0.1,0.1,0.3,0.2,0.6,0.2c0.3,0,0.5-0.1,0.6-0.2
			c0.1-0.1,0.1-0.2,0.1-0.3c0-0.1,0-0.1-0.1-0.2c-0.1-0.1-0.2-0.1-0.4-0.2c-0.9-0.2-1.4-0.4-1.7-0.5c-0.3-0.2-0.5-0.5-0.5-0.9
			c0-0.4,0.1-0.7,0.4-0.9c0.3-0.2,0.7-0.4,1.3-0.4c0.6,0,1,0.1,1.3,0.3c0.3,0.2,0.5,0.5,0.6,0.8l-1,0.2c0-0.2-0.1-0.3-0.2-0.4
			c-0.1-0.1-0.3-0.1-0.5-0.1c-0.3,0-0.5,0-0.6,0.1c-0.1,0.1-0.1,0.1-0.1,0.2c0,0.1,0,0.1,0.1,0.2c0.1,0.1,0.4,0.2,1,0.3
			c0.6,0.1,1,0.3,1.2,0.5c0.2,0.2,0.3,0.5,0.3,0.8c0,0.4-0.2,0.7-0.5,1c-0.3,0.3-0.8,0.4-1.4,0.4c-0.6,0-1-0.1-1.3-0.3
			C47.9,28.7,47.7,28.4,47.6,28z"/>
		<path class="st7" d="M54.3,25v0.9h-0.7v1.7c0,0.3,0,0.5,0,0.6c0,0.1,0,0.1,0.1,0.1c0.1,0,0.1,0.1,0.2,0.1c0.1,0,0.2,0,0.4-0.1
			l0.1,0.8c-0.3,0.1-0.5,0.2-0.9,0.2c-0.2,0-0.4,0-0.5-0.1c-0.2-0.1-0.3-0.2-0.3-0.3c-0.1-0.1-0.1-0.2-0.2-0.4c0-0.1,0-0.4,0-0.8
			v-1.8h-0.5V25h0.5v-0.8l1.1-0.6V25H54.3z"/>
		<path class="st7" d="M57.4,27.8l1.1,0.2c-0.1,0.4-0.4,0.7-0.7,0.9c-0.3,0.2-0.7,0.3-1.1,0.3c-0.7,0-1.2-0.2-1.6-0.7
			c-0.3-0.4-0.4-0.8-0.4-1.4c0-0.7,0.2-1.2,0.5-1.6c0.4-0.4,0.8-0.6,1.4-0.6c0.6,0,1.1,0.2,1.4,0.6c0.4,0.4,0.5,1,0.5,1.8h-2.7
			c0,0.3,0.1,0.6,0.3,0.8c0.2,0.2,0.4,0.3,0.6,0.3c0.2,0,0.3,0,0.4-0.1C57.3,28.2,57.4,28,57.4,27.8z M57.5,26.7
			c0-0.3-0.1-0.5-0.2-0.7c-0.2-0.2-0.3-0.2-0.6-0.2c-0.2,0-0.4,0.1-0.6,0.3c-0.2,0.2-0.2,0.4-0.2,0.7H57.5z"/>
		<path class="st7" d="M59.4,25h1v0.6c0.4-0.4,0.8-0.6,1.3-0.6c0.3,0,0.5,0.1,0.7,0.2c0.2,0.1,0.4,0.3,0.5,0.5
			c0.2-0.2,0.4-0.4,0.6-0.5c0.2-0.1,0.4-0.2,0.7-0.2c0.3,0,0.6,0.1,0.8,0.2c0.2,0.1,0.4,0.3,0.5,0.5c0.1,0.2,0.1,0.5,0.1,0.8v2.6
			h-1.1v-2.3c0-0.4,0-0.7-0.1-0.8c-0.1-0.2-0.3-0.2-0.5-0.2c-0.2,0-0.3,0-0.4,0.1c-0.1,0.1-0.2,0.2-0.3,0.4
			c-0.1,0.2-0.1,0.5-0.1,0.8v2h-1.1v-2.2c0-0.4,0-0.7-0.1-0.8c0-0.1-0.1-0.2-0.2-0.3c-0.1-0.1-0.2-0.1-0.3-0.1c-0.2,0-0.3,0-0.5,0.1
			c-0.1,0.1-0.2,0.2-0.3,0.4c-0.1,0.2-0.1,0.5-0.1,0.8v2h-1.1V25z"/>
	</g>
</g>
</svg>
