<?xml version="1.0" encoding="utf-8"?>
<!-- Generator: Adobe Illustrator 26.0.3, SVG Export Plug-In . SVG Version: 6.00 Build 0)  -->
<svg version="1.1" id="Layer_1" xmlns="http://www.w3.org/2000/svg" xmlns:xlink="http://www.w3.org/1999/xlink" x="0px" y="0px"
	 viewBox="0 0 82.6 35" style="enable-background:new 0 0 82.6 35;" xml:space="preserve">
<style type="text/css">
	.st0{fill:#FFFFFF;}
	.st1{fill:url(#SVGID_1_);}
	.st2{fill:url(#SVGID_00000003089280897474538160000018374679093588034750_);}
	.st3{fill:url(#SVGID_00000155856095472335388160000006043170369577570493_);}
	.st4{fill:url(#SVGID_00000000904924605190225370000010866154183279468725_);}
	.st5{fill:url(#SVGID_00000117665795137280672270000002640445791283923121_);}
	.st6{fill:#1F153A;}
</style>
<g>
	<circle class="st0" cx="15.6" cy="15.6" r="15.6"/>
	<g>
		<linearGradient id="SVGID_1_" gradientUnits="userSpaceOnUse" x1="3.9149" y1="5.3381" x2="31.7411" y2="33.1643">
			<stop  offset="0" style="stop-color:#41E0D7"/>
			<stop  offset="1" style="stop-color:#6D47CF"/>
		</linearGradient>
		<path class="st1" d="M32.9,30.8l-3.4-3.4c-0.9-0.9-2.5-0.9-3.5,0v0c-0.9,0.9-0.9,2.5,0,3.5l3.4,3.4c0.9,0.9,2.5,0.9,3.5,0v0
			C33.8,33.3,33.8,31.8,32.9,30.8z"/>
		
			<linearGradient id="SVGID_00000167357099684640976950000010246762216038763931_" gradientUnits="userSpaceOnUse" x1="4.6267" y1="4.6262" x2="32.453" y2="32.4525">
			<stop  offset="0" style="stop-color:#41E0D7"/>
			<stop  offset="1" style="stop-color:#6D47CF"/>
		</linearGradient>
		<path style="fill:url(#SVGID_00000167357099684640976950000010246762216038763931_);" d="M31.2,15.6C31.2,7,24.2,0,15.6,0
			C7,0,0,7,0,15.6c0,2.2,0.5,4.3,1.3,6.2v-0.3c0-1.7,1-3.2,2.3-3.9c-1.3-0.8-2.2-2.3-2.2-3.9c0-2.6,2.1-4.7,4.7-4.7
			C6.5,8.9,6.8,9,7,9c1-1.7,2.9-2.8,5-2.8h7.1c3.2,0,5.8,2.6,5.8,5.8v7.1c0,3.2-2.6,5.8-5.8,5.8H12c-0.6,0-1.1-0.1-1.6-0.2v-4.4
			l5.2-0.5c0.6-0.1,1-0.6,1-1.1c0-0.6-0.5-1.2-1.2-1.2h-5.1H6.2h0H6.1v0c-2.3,0.1-4.2,1.9-4.2,4.2v1.3c2.7,4.8,7.8,8.1,13.6,8.1
			C24.2,31.2,31.2,24.2,31.2,15.6z"/>
		
			<linearGradient id="SVGID_00000121981736243591392570000018167160813470776981_" gradientUnits="userSpaceOnUse" x1="1.0573" y1="8.1957" x2="28.8835" y2="36.0219">
			<stop  offset="0" style="stop-color:#41E0D7"/>
			<stop  offset="1" style="stop-color:#6D47CF"/>
		</linearGradient>
		<circle style="fill:url(#SVGID_00000121981736243591392570000018167160813470776981_);" cx="6.2" cy="13.3" r="4.2"/>
		
			<linearGradient id="SVGID_00000091001304338739144840000018003397256734118039_" gradientUnits="userSpaceOnUse" x1="8.3765" y1="0.8765" x2="36.2027" y2="28.7027">
			<stop  offset="0" style="stop-color:#41E0D7"/>
			<stop  offset="1" style="stop-color:#6D47CF"/>
		</linearGradient>
		<path style="fill:url(#SVGID_00000091001304338739144840000018003397256734118039_);" d="M21.2,9.7c-1.1,0-2.2,0-3.3,0
			c-1.1,0-2.2,0-3.3,0c-0.3,0-0.6,0.2-0.7,0.5c-0.2,0.5,0.2,0.9,0.7,0.9c2,0,4,0,6,0c0.2,0,0.4,0,0.6,0c0.3,0,0.5-0.2,0.6-0.4
			C22,10.1,21.7,9.7,21.2,9.7z"/>
		
			<linearGradient id="SVGID_00000016073207451731296460000000217366297257431440_" gradientUnits="userSpaceOnUse" x1="7.5544" y1="1.6986" x2="35.3806" y2="29.5248">
			<stop  offset="0" style="stop-color:#41E0D7"/>
			<stop  offset="1" style="stop-color:#6D47CF"/>
		</linearGradient>
		<path style="fill:url(#SVGID_00000016073207451731296460000000217366297257431440_);" d="M18,13c-0.2,0-0.3,0-0.5,0.1
			c-0.3,0.2-0.4,0.5-0.3,0.8c0.1,0.3,0.4,0.5,0.7,0.5c1.1,0,2.2,0,3.3,0c0.1,0,0.3,0,0.4-0.1c0.3-0.1,0.4-0.5,0.3-0.8
			c-0.1-0.3-0.3-0.5-0.7-0.5c-0.6,0-1.1,0-1.7,0c0,0,0,0,0,0C19,13,18.5,13,18,13z"/>
	</g>
	<g>
		<path class="st6" d="M41.4,3.6h-2.1v5.9h-1.1V3.6h-2.1V2.7h5.3V3.6z"/>
		<path class="st6" d="M44.4,5.5l-0.5,0c-0.2,0-0.4,0-0.6,0.1C43.2,5.7,43.1,5.8,43,6v3.5h-1.1V4.5h1l0.1,0.7
			c0.1-0.3,0.3-0.5,0.5-0.6c0.2-0.1,0.4-0.2,0.7-0.2c0.1,0,0.1,0,0.2,0c0.1,0,0.1,0,0.2,0L44.4,5.5z"/>
		<path class="st6" d="M48.2,9.5c0-0.1-0.1-0.3-0.1-0.4c0-0.1,0-0.2-0.1-0.4c-0.2,0.2-0.4,0.4-0.6,0.6c-0.3,0.2-0.5,0.2-0.9,0.2
			c-0.5,0-0.9-0.1-1.2-0.4C45.1,8.9,45,8.6,45,8.1c0-0.5,0.2-0.9,0.6-1.1c0.4-0.3,0.9-0.4,1.6-0.4h0.9V6.1c0-0.3-0.1-0.5-0.2-0.6
			c-0.2-0.1-0.4-0.2-0.7-0.2c-0.3,0-0.5,0.1-0.6,0.2c-0.2,0.1-0.2,0.3-0.2,0.5l-1.1,0l0,0c0-0.4,0.2-0.8,0.5-1.1
			c0.4-0.3,0.9-0.5,1.5-0.5c0.6,0,1.1,0.1,1.4,0.4c0.4,0.3,0.5,0.7,0.5,1.3v2.2c0,0.2,0,0.4,0,0.6s0.1,0.4,0.1,0.6H48.2z M46.9,8.7
			c0.3,0,0.5-0.1,0.8-0.2C47.9,8.4,48,8.2,48.1,8V7.3h-0.9c-0.3,0-0.6,0.1-0.8,0.2c-0.2,0.2-0.3,0.4-0.3,0.6c0,0.2,0.1,0.3,0.2,0.5
			C46.4,8.7,46.6,8.7,46.9,8.7z"/>
		<path class="st6" d="M51.6,3.2h-1.1v-1h1.1V3.2z M51.6,9.5h-1.1V4.5h1.1V9.5z"/>
		<path class="st6" d="M53.9,4.5L54,5.2c0.2-0.3,0.4-0.5,0.6-0.6c0.3-0.1,0.5-0.2,0.8-0.2c0.5,0,0.9,0.2,1.2,0.5
			c0.3,0.3,0.4,0.8,0.4,1.5v3.1H56V6.4c0-0.4-0.1-0.7-0.2-0.8c-0.2-0.2-0.4-0.2-0.7-0.2c-0.2,0-0.5,0-0.6,0.1
			c-0.2,0.1-0.3,0.2-0.4,0.4v3.7h-1.1V4.5H53.9z"/>
		<path class="st6" d="M59.5,3.2h-1.1v-1h1.1V3.2z M59.5,9.5h-1.1V4.5h1.1V9.5z"/>
		<path class="st6" d="M61.8,4.5l0.1,0.7c0.2-0.3,0.4-0.5,0.6-0.6c0.3-0.1,0.5-0.2,0.8-0.2c0.5,0,0.9,0.2,1.2,0.5
			C64.9,5.2,65,5.7,65,6.4v3.1h-1.1V6.4c0-0.4-0.1-0.7-0.2-0.8c-0.2-0.2-0.4-0.2-0.7-0.2c-0.2,0-0.5,0-0.6,0.1
			c-0.2,0.1-0.3,0.2-0.4,0.4v3.7h-1.1V4.5H61.8z"/>
		<path class="st6" d="M66,7.1c0-0.8,0.2-1.5,0.5-2c0.3-0.5,0.8-0.7,1.5-0.7c0.3,0,0.6,0.1,0.8,0.2c0.2,0.1,0.4,0.3,0.6,0.6l0.1-0.7
			h0.9v5.1c0,0.7-0.2,1.2-0.6,1.5c-0.4,0.4-1,0.5-1.7,0.5c-0.2,0-0.5,0-0.8-0.1c-0.3-0.1-0.5-0.2-0.8-0.3l0.2-0.9
			c0.2,0.1,0.4,0.2,0.6,0.2c0.2,0.1,0.5,0.1,0.7,0.1c0.4,0,0.7-0.1,0.9-0.3c0.2-0.2,0.3-0.4,0.3-0.8V9c-0.2,0.2-0.3,0.4-0.6,0.5
			c-0.2,0.1-0.5,0.2-0.7,0.2c-0.6,0-1.1-0.2-1.4-0.7C66.2,8.5,66,7.9,66,7.1L66,7.1z M67.2,7.2c0,0.5,0.1,0.8,0.3,1.1
			c0.2,0.3,0.5,0.4,0.9,0.4c0.2,0,0.4-0.1,0.6-0.2c0.2-0.1,0.3-0.2,0.4-0.4V5.9c-0.1-0.2-0.2-0.3-0.4-0.4c-0.2-0.1-0.4-0.2-0.6-0.2
			c-0.4,0-0.7,0.2-0.9,0.5C67.2,6.1,67.2,6.5,67.2,7.2L67.2,7.2z"/>
		<path class="st6" d="M40.1,18.6L40.1,18.6l2-5.2h1.4v6.8h-1.1v-4.9l0,0l-1.9,4.9h-0.8l-1.9-5l0,0v5h-1.1v-6.8h1.5L40.1,18.6z"/>
		<path class="st6" d="M44.6,17.5c0-0.8,0.2-1.4,0.6-1.9c0.4-0.5,1-0.7,1.7-0.7c0.7,0,1.3,0.2,1.7,0.7c0.4,0.5,0.6,1.1,0.6,1.9v0.1
			c0,0.8-0.2,1.4-0.6,1.9c-0.4,0.5-1,0.7-1.7,0.7c-0.7,0-1.3-0.2-1.7-0.7C44.8,19,44.6,18.4,44.6,17.5L44.6,17.5z M45.8,17.6
			c0,0.5,0.1,0.9,0.3,1.2c0.2,0.3,0.5,0.5,0.9,0.5c0.4,0,0.7-0.2,0.9-0.5c0.2-0.3,0.3-0.7,0.3-1.2v-0.1c0-0.5-0.1-0.9-0.3-1.2
			c-0.2-0.3-0.5-0.5-0.9-0.5c-0.4,0-0.7,0.2-0.9,0.5C45.9,16.7,45.8,17.1,45.8,17.6L45.8,17.6z"/>
		<path class="st6" d="M51.3,15.1l0.1,0.7c0.2-0.3,0.4-0.5,0.6-0.6c0.3-0.1,0.5-0.2,0.8-0.2c0.5,0,0.9,0.2,1.2,0.5
			c0.3,0.3,0.4,0.8,0.4,1.5v3.1h-1.1V17c0-0.4-0.1-0.7-0.2-0.8c-0.2-0.2-0.4-0.2-0.7-0.2c-0.2,0-0.5,0-0.6,0.1
			c-0.2,0.1-0.3,0.2-0.4,0.4v3.7h-1.1v-5.1H51.3z"/>
		<path class="st6" d="M56.9,13.8h-1.1v-1h1.1V13.8z M56.9,20.1h-1.1v-5.1h1.1V20.1z"/>
		<path class="st6" d="M59.6,13.8v1.2h0.9v0.8h-0.9v2.8c0,0.2,0,0.4,0.1,0.4c0.1,0.1,0.2,0.1,0.4,0.1c0.1,0,0.1,0,0.2,0
			c0.1,0,0.1,0,0.2,0l0.1,0.8c-0.1,0.1-0.2,0.1-0.3,0.1c-0.1,0-0.3,0-0.4,0c-0.4,0-0.7-0.1-1-0.4c-0.2-0.2-0.4-0.6-0.4-1.2v-2.8
			h-0.8v-0.8h0.8v-1.2H59.6z"/>
		<path class="st6" d="M61.2,17.5c0-0.8,0.2-1.4,0.6-1.9c0.4-0.5,1-0.7,1.7-0.7c0.7,0,1.3,0.2,1.7,0.7c0.4,0.5,0.6,1.1,0.6,1.9v0.1
			c0,0.8-0.2,1.4-0.6,1.9c-0.4,0.5-1,0.7-1.7,0.7c-0.7,0-1.3-0.2-1.7-0.7C61.4,19,61.2,18.4,61.2,17.5L61.2,17.5z M62.4,17.6
			c0,0.5,0.1,0.9,0.3,1.2c0.2,0.3,0.5,0.5,0.9,0.5c0.4,0,0.7-0.2,0.9-0.5c0.2-0.3,0.3-0.7,0.3-1.2v-0.1c0-0.5-0.1-0.9-0.3-1.2
			c-0.2-0.3-0.5-0.5-0.9-0.5c-0.4,0-0.7,0.2-0.9,0.5C62.5,16.7,62.4,17.1,62.4,17.6L62.4,17.6z"/>
		<path class="st6" d="M69.4,16.1l-0.5,0c-0.2,0-0.4,0-0.6,0.1c-0.1,0.1-0.3,0.2-0.3,0.4v3.5h-1.1v-5.1h1l0.1,0.7
			c0.1-0.3,0.3-0.5,0.5-0.6c0.2-0.1,0.4-0.2,0.7-0.2c0.1,0,0.1,0,0.2,0c0.1,0,0.1,0,0.2,0L69.4,16.1z"/>
		<path class="st6" d="M71.4,13.8h-1.1v-1h1.1V13.8z M71.4,20.1h-1.1v-5.1h1.1V20.1z"/>
		<path class="st6" d="M73.7,15.1l0.1,0.7c0.2-0.3,0.4-0.5,0.6-0.6c0.3-0.1,0.5-0.2,0.8-0.2c0.5,0,0.9,0.2,1.2,0.5
			c0.3,0.3,0.4,0.8,0.4,1.5v3.1h-1.1V17c0-0.4-0.1-0.7-0.2-0.8c-0.2-0.2-0.4-0.2-0.7-0.2c-0.2,0-0.5,0-0.6,0.1
			c-0.2,0.1-0.3,0.2-0.4,0.4v3.7h-1.1v-5.1H73.7z"/>
		<path class="st6" d="M77.9,17.7c0-0.8,0.2-1.5,0.5-2c0.3-0.5,0.8-0.7,1.5-0.7c0.3,0,0.6,0.1,0.8,0.2c0.2,0.1,0.4,0.3,0.6,0.6
			l0.1-0.7h0.9v5.1c0,0.7-0.2,1.2-0.6,1.5c-0.4,0.4-1,0.5-1.7,0.5c-0.2,0-0.5,0-0.8-0.1c-0.3-0.1-0.5-0.2-0.8-0.3l0.2-0.9
			c0.2,0.1,0.4,0.2,0.6,0.2c0.2,0.1,0.5,0.1,0.7,0.1c0.4,0,0.7-0.1,0.9-0.3c0.2-0.2,0.3-0.4,0.3-0.8v-0.5c-0.2,0.2-0.3,0.4-0.6,0.5
			c-0.2,0.1-0.5,0.2-0.7,0.2c-0.6,0-1.1-0.2-1.4-0.7C78.1,19.1,77.9,18.5,77.9,17.7L77.9,17.7z M79.1,17.8c0,0.5,0.1,0.8,0.3,1.1
			c0.2,0.3,0.5,0.4,0.9,0.4c0.2,0,0.4-0.1,0.6-0.2c0.2-0.1,0.3-0.2,0.4-0.4v-2.2c-0.1-0.2-0.2-0.3-0.4-0.4c-0.2-0.1-0.4-0.2-0.6-0.2
			c-0.4,0-0.7,0.2-0.9,0.5C79.2,16.7,79.1,17.1,79.1,17.8L79.1,17.8z"/>
		<path class="st6" d="M40.2,29c0-0.3-0.1-0.5-0.3-0.7s-0.6-0.3-1.1-0.5c-0.7-0.2-1.3-0.5-1.7-0.8c-0.4-0.3-0.6-0.8-0.6-1.3
			c0-0.5,0.2-1,0.7-1.4c0.4-0.4,1-0.5,1.7-0.5c0.7,0,1.3,0.2,1.8,0.6c0.4,0.4,0.7,0.9,0.6,1.5l0,0h-1.1c0-0.4-0.1-0.6-0.4-0.9
			c-0.2-0.2-0.6-0.3-1-0.3c-0.4,0-0.7,0.1-0.9,0.3c-0.2,0.2-0.3,0.4-0.3,0.7c0,0.3,0.1,0.5,0.3,0.6c0.2,0.2,0.6,0.3,1.1,0.5
			c0.7,0.2,1.3,0.5,1.6,0.8c0.4,0.3,0.6,0.8,0.6,1.3c0,0.6-0.2,1-0.7,1.4c-0.4,0.3-1,0.5-1.7,0.5c-0.7,0-1.3-0.2-1.8-0.6
			c-0.5-0.4-0.8-0.9-0.7-1.6l0,0h1.1c0,0.4,0.1,0.7,0.4,0.9c0.3,0.2,0.6,0.3,1,0.3c0.4,0,0.7-0.1,0.9-0.3
			C40.1,29.5,40.2,29.3,40.2,29z"/>
		<path class="st6" d="M44.1,28.7l0.1,0.5h0l1.1-3.5h1.2l-2.1,5.8c-0.1,0.4-0.3,0.7-0.6,0.9c-0.2,0.2-0.6,0.4-1,0.4
			c-0.1,0-0.2,0-0.3,0c-0.1,0-0.2,0-0.3-0.1l0.1-0.9c0,0,0.1,0,0.2,0c0.1,0,0.1,0,0.2,0c0.2,0,0.4-0.1,0.5-0.2
			c0.1-0.1,0.2-0.3,0.3-0.5l0.2-0.5l-1.8-5h1.2L44.1,28.7z"/>
		<path class="st6" d="M50.1,29.3c0-0.2-0.1-0.3-0.2-0.4c-0.1-0.1-0.4-0.2-0.8-0.3c-0.6-0.1-1-0.3-1.4-0.5s-0.5-0.6-0.5-1
			c0-0.4,0.2-0.8,0.5-1.1c0.4-0.3,0.8-0.5,1.4-0.5c0.6,0,1.1,0.2,1.5,0.5c0.4,0.3,0.5,0.7,0.5,1.1l0,0H50c0-0.2-0.1-0.4-0.2-0.5
			c-0.2-0.2-0.4-0.2-0.6-0.2c-0.3,0-0.5,0.1-0.6,0.2c-0.1,0.1-0.2,0.3-0.2,0.5c0,0.2,0.1,0.3,0.2,0.4s0.4,0.2,0.8,0.3
			c0.6,0.1,1.1,0.3,1.4,0.5c0.3,0.2,0.5,0.6,0.5,1c0,0.5-0.2,0.8-0.6,1.1c-0.4,0.3-0.9,0.4-1.5,0.4c-0.7,0-1.2-0.2-1.6-0.5
			c-0.4-0.3-0.6-0.7-0.5-1.2l0,0h1.1c0,0.3,0.1,0.5,0.3,0.6c0.2,0.1,0.4,0.2,0.7,0.2c0.3,0,0.5-0.1,0.7-0.2
			C50,29.7,50.1,29.5,50.1,29.3z"/>
		<path class="st6" d="M53.7,24.4v1.2h0.9v0.8h-0.9v2.8c0,0.2,0,0.4,0.1,0.4c0.1,0.1,0.2,0.1,0.4,0.1c0.1,0,0.1,0,0.2,0
			c0.1,0,0.1,0,0.2,0l0.1,0.8c-0.1,0.1-0.2,0.1-0.3,0.1c-0.1,0-0.3,0-0.4,0c-0.4,0-0.7-0.1-1-0.4c-0.2-0.2-0.4-0.6-0.4-1.2v-2.8
			h-0.8v-0.8h0.8v-1.2H53.7z"/>
		<path class="st6" d="M57.7,30.8c-0.7,0-1.3-0.2-1.7-0.7c-0.4-0.5-0.6-1.1-0.6-1.8v-0.2c0-0.7,0.2-1.4,0.6-1.8
			c0.4-0.5,1-0.7,1.6-0.7c0.7,0,1.2,0.2,1.5,0.6s0.5,1,0.5,1.7v0.6h-3.1l0,0c0,0.4,0.1,0.8,0.3,1c0.2,0.3,0.5,0.4,0.9,0.4
			c0.3,0,0.6,0,0.8-0.1c0.2-0.1,0.4-0.2,0.6-0.3l0.4,0.7c-0.2,0.2-0.4,0.3-0.8,0.4C58.4,30.8,58.1,30.8,57.7,30.8z M57.5,26.5
			c-0.3,0-0.5,0.1-0.7,0.3c-0.2,0.2-0.3,0.5-0.3,0.8l0,0h2v-0.1c0-0.3-0.1-0.6-0.2-0.8C58.1,26.6,57.9,26.5,57.5,26.5z"/>
		<path class="st6" d="M61.6,25.7l0.1,0.7c0.2-0.2,0.4-0.4,0.6-0.6c0.2-0.1,0.5-0.2,0.9-0.2c0.3,0,0.6,0.1,0.9,0.2
			c0.2,0.1,0.4,0.4,0.5,0.7c0.2-0.3,0.4-0.5,0.6-0.7c0.3-0.2,0.6-0.2,0.9-0.2c0.5,0,0.9,0.2,1.2,0.5c0.3,0.4,0.4,0.9,0.4,1.6v3h-1.1
			v-3c0-0.4-0.1-0.8-0.2-0.9c-0.1-0.2-0.4-0.3-0.7-0.3c-0.2,0-0.4,0.1-0.6,0.2c-0.2,0.1-0.3,0.3-0.4,0.5c0,0,0,0.1,0,0.1
			c0,0,0,0.1,0,0.1v3.3h-1.1v-3c0-0.4-0.1-0.7-0.2-0.9c-0.2-0.2-0.4-0.3-0.7-0.3c-0.2,0-0.4,0-0.6,0.1c-0.2,0.1-0.3,0.2-0.4,0.4v3.7
			h-1.1v-5.1H61.6z"/>
	</g>
</g>
</svg>
