<svg xmlns="http://www.w3.org/2000/svg" xmlns:xlink="http://www.w3.org/1999/xlink" viewBox="0 0 163.5 92"><defs><style>.cls-1{fill:url(#linear-gradient);}.cls-2{fill:#fff;}.cls-3{fill:url(#linear-gradient-2);}.cls-4{fill:url(#linear-gradient-3);}</style><linearGradient id="linear-gradient" x1="99.93" y1="1.17" x2="63.69" y2="85.4" gradientUnits="userSpaceOnUse"><stop offset="0" stop-color="#41e0d7"/><stop offset="1" stop-color="#6d47cf"/></linearGradient><linearGradient id="linear-gradient-2" x1="44.95" y1="-22.48" x2="8.71" y2="61.75" xlink:href="#linear-gradient"/><linearGradient id="linear-gradient-3" x1="152.13" y1="23.62" x2="115.89" y2="107.86" xlink:href="#linear-gradient"/></defs><g id="Layer_2" data-name="Layer 2"><g id="Layer_1-2" data-name="Layer 1"><path class="cls-1" d="M80.64,0a46,46,0,1,0,46,46A46,46,0,0,0,80.64,0ZM97.46,15.45C85.22,8.86,74.52,7.8,65.51,8.89a40.52,40.52,0,0,1,54.23,31.05C115,31.23,108.91,21.62,97.46,15.45Z"/><path class="cls-2" d="M80.51,57.15h.2l8-23.06a17.33,17.33,0,0,1,16.37-11.63h0V69.54h0a9.44,9.44,0,0,1-9.44-9.44V37.4l-.2,0L83.84,69.54h-6.4L65.8,37.3l-.19,0V60.1a9.44,9.44,0,0,1-9.44,9.44h0V22.46h0A17.37,17.37,0,0,1,72.59,34.17Z"/><path class="cls-3" d="M9,17.05A9,9,0,0,0,0,26H16.31V63.34A11.61,11.61,0,0,0,27.92,75h0V26H36.7A48.48,48.48,0,0,1,42,17.05Z"/><path class="cls-4" d="M158.49,48.29q-5-4.36-14.56-7.06-6.24-2.11-8.79-4a5.77,5.77,0,0,1-2.55-4.83,6.75,6.75,0,0,1,2.35-5.29A9.71,9.71,0,0,1,141.58,25q4.74,0,7.36,2.33c.18.15.34.32.5.48A18.38,18.38,0,0,0,162.79,34h0l.08-.24a15.2,15.2,0,0,0-5.67-12.73q-5.86-4.85-15.49-4.85-9.06,0-14.91,4.52A15.77,15.77,0,0,0,123.62,24a48,48,0,0,1,5.32,22c0,1.34-.07,2.65-.18,4a8.28,8.28,0,0,1,7.46-1.52L145.68,51a8.29,8.29,0,0,1,5.67,10.23h0a8.3,8.3,0,0,1-10.23,5.67l-9.45-2.55a8.26,8.26,0,0,1-4.93-3.92,48.69,48.69,0,0,1-3.38,8.08,15.15,15.15,0,0,0,2.93,2.63,27.39,27.39,0,0,0,16,4.66q9.54,0,15.35-4.3a13.8,13.8,0,0,0,5.81-11.73A14.44,14.44,0,0,0,158.49,48.29Z"/></g></g></svg>