<svg width="14" height="14" viewBox="0 0 14 14" fill="none" xmlns="http://www.w3.org/2000/svg">
<g id="ri:linkedin-fill">
<path id="Vector" d="M4.25917 3.20839C4.25902 3.4957 4.14475 3.7712 3.94148 3.97426C3.73822 4.17732 3.46261 4.29132 3.17529 4.29118C2.88797 4.29104 2.61248 4.17676 2.40942 3.97349C2.20635 3.77023 2.09236 3.49462 2.0925 3.2073C2.09264 2.91999 2.20692 2.64449 2.41018 2.44143C2.61345 2.23837 2.88906 2.12437 3.17637 2.12451C3.46369 2.12466 3.73918 2.23893 3.94225 2.4422C4.14531 2.64546 4.25931 2.92107 4.25917 3.20839ZM4.29167 5.09339H2.125V11.8751H4.29167V5.09339ZM7.715 5.09339H5.55917V11.8751H7.69333V8.3163C7.69333 6.3338 10.2771 6.14964 10.2771 8.3163V11.8751H12.4167V7.57964C12.4167 4.23755 8.5925 4.36214 7.69333 6.00339L7.715 5.09339Z" fill="#581C87"/>
</g>
</svg>
