<svg width="231" height="48" viewBox="0 0 231 48" fill="none" xmlns="http://www.w3.org/2000/svg">
<path d="M17.4019 44.0915C15.5956 44.9319 13.5285 45.4863 9.39623 46.5952C4.95875 47.7871 2.73132 48.3686 2.30052 47.7485C1.323 46.3421 6.31878 40.1544 12.8311 36.3235C19.9094 32.1584 26.6709 30.5202 27.9324 32.6665C29.1031 34.6544 23.6495 41.186 17.4019 44.0915Z" fill="#BA94D0"/>
<path d="M17.6354 39.5021C9.4772 41.9769 0.138599 39.2143 0.00143662 37.0081C-0.0429961 36.2895 0.903615 35.8393 2.52638 34.7768C10.1166 29.8061 9.89835 25.2566 14.3938 24.2984C21.843 22.7104 28.6084 24.8258 29.5029 29.0237C30.3355 32.9319 23.3267 37.7751 17.6354 39.5021Z" fill="#7B419A"/>
<path d="M8.75487 22.5034C7.75996 18.6126 8.52111 14.9981 10.0164 7.88694C10.9591 3.4031 11.4595 1.14476 12.8832 0.397126C16.9595 -1.74724 27.0322 5.06063 30.5115 14.3587C34.2399 24.3193 32.3912 34.2162 26.3831 36.4649C20.4619 38.6808 10.8645 30.7563 8.75487 22.5034Z" fill="#A977C0"/>
<path d="M6.96596 30.835C4.93944 28.3738 4.13965 25.3891 2.53814 19.4177C1.09117 14.0143 0.366728 11.3117 1.47561 9.77776C4.19954 6.01257 15.8776 7.35135 22.8458 13.8772C30.2642 20.8241 32.7215 30.2516 28.3362 34.9325C23.9064 39.6636 12.0719 37.0363 6.96596 30.835Z" fill="#58187B"/>
<path d="M46.8668 15.982H44.7804V9.36369C44.8728 9.33687 45.0084 9.30706 45.1872 9.27428C45.3661 9.24149 45.5553 9.2251 45.7535 9.2251C46.138 9.2251 46.4197 9.29514 46.5985 9.43373C46.7773 9.57233 46.8668 9.8212 46.8668 10.1789V15.982ZM44.7804 13.836H46.8668V21.3886C46.7744 21.4155 46.6417 21.4482 46.4689 21.4885C46.296 21.5287 46.1112 21.5481 45.913 21.5481C45.5151 21.5481 45.2275 21.4721 45.0486 21.3201C44.8698 21.1681 44.7804 20.9192 44.7804 20.5749V13.836ZM53.6251 16.1802H45.8936V14.4708H53.6251V16.1802ZM54.5789 15.982H52.4716V9.36369C52.564 9.33687 52.7026 9.30706 52.8889 9.27428C53.0737 9.24149 53.26 9.2251 53.4448 9.2251C53.8293 9.2251 54.1139 9.29812 54.2987 9.44417C54.4835 9.59021 54.5774 9.84207 54.5774 10.1997V15.982H54.5789ZM52.4716 13.836H54.5789V21.3886C54.4731 21.4155 54.333 21.4482 54.1616 21.4885C53.9887 21.5287 53.8039 21.5481 53.6057 21.5481C53.2078 21.5481 52.9202 21.4721 52.7414 21.3201C52.5626 21.1681 52.4731 20.9192 52.4731 20.5749V13.836H52.4716Z" fill="#58187B"/>
<path d="M59.9245 16.9356L57.8768 16.9163V10.4768C57.8768 10.1326 57.9797 9.85689 58.1853 9.65272C58.391 9.44707 58.6592 9.34424 58.9901 9.34424C59.1883 9.34424 59.3775 9.36361 59.5564 9.40385C59.7352 9.44409 59.8574 9.48283 59.9245 9.52307V16.9356ZM57.8783 13.7763H59.9259V21.2693C59.8589 21.2961 59.7367 21.3319 59.5578 21.3781C59.379 21.4243 59.1898 21.4482 58.9915 21.4482C58.6607 21.4482 58.3925 21.3423 58.1868 21.1307C57.9811 20.9191 57.8783 20.6464 57.8783 20.3156V13.7763ZM58.9915 11.0536V9.34424H65.5904C65.6426 9.42322 65.6933 9.53648 65.7395 9.68253C65.7857 9.82857 65.8095 9.98803 65.8095 10.1594C65.8095 10.4381 65.7424 10.6557 65.6113 10.8151C65.4787 10.9746 65.2939 11.0536 65.0554 11.0536H58.9915ZM58.9915 16.0817V14.3918H64.9943C65.0465 14.4707 65.0972 14.584 65.1434 14.7301C65.1896 14.8761 65.2134 15.0356 65.2134 15.2069C65.2134 15.4856 65.1463 15.7002 65.0152 15.8522C64.8826 16.0042 64.6978 16.0802 64.4593 16.0802H58.9915V16.0817ZM58.9915 21.4482V19.7388H65.6888C65.7409 19.8178 65.7916 19.9311 65.8378 20.0771C65.884 20.2232 65.9079 20.3826 65.9079 20.554C65.9079 20.8327 65.8408 21.0503 65.7097 21.2097C65.577 21.3692 65.3922 21.4482 65.1538 21.4482H58.9915Z" fill="#58187B"/>
<path d="M72.6244 17.0143H68.5098V10.2977C68.5098 10.0592 68.5724 9.88041 68.6991 9.76118C68.8243 9.64196 69.0001 9.54212 69.2252 9.46313C69.6231 9.34391 70.1059 9.25449 70.6767 9.19488C71.2459 9.13527 71.8167 9.10547 72.386 9.10547C74.0819 9.10547 75.3546 9.45717 76.2026 10.1591C77.0505 10.861 77.4752 11.8282 77.4752 13.0606C77.4752 13.8549 77.283 14.5509 76.8985 15.147C76.514 15.7431 75.9641 16.2036 75.2488 16.5285C74.532 16.8533 73.6587 17.0143 72.6244 17.0143ZM68.5113 16.3586H70.5977V21.3867C70.5053 21.4136 70.3727 21.4463 70.1998 21.4866C70.0269 21.5268 69.8421 21.5462 69.6439 21.5462C69.246 21.5462 68.9584 21.4702 68.7796 21.3182C68.6007 21.1662 68.5113 20.9173 68.5113 20.573V16.3586ZM70.5768 15.3452H72.544C73.4188 15.3452 74.1073 15.153 74.611 14.7685C75.1147 14.384 75.3665 13.8207 75.3665 13.0785C75.3665 12.3364 75.1087 11.773 74.5916 11.3886C74.0745 11.0041 73.3189 10.8118 72.3264 10.8118C72.0209 10.8118 71.7169 10.8252 71.4129 10.8521C71.1074 10.8789 70.8302 10.9191 70.5783 10.9713V15.3452H70.5768ZM72.4858 16.4391L74.1549 15.843C74.5126 16.2796 74.8762 16.7371 75.2473 17.214C75.6184 17.6909 75.979 18.1514 76.3307 18.5955C76.6809 19.0396 76.9924 19.4434 77.2651 19.807C77.5364 20.1722 77.7524 20.4598 77.9104 20.6714C77.8314 20.9501 77.6824 21.1721 77.4633 21.3376C77.2443 21.503 77.0088 21.5864 76.7584 21.5864C76.441 21.5864 76.1921 21.5104 76.0133 21.3584C75.8345 21.2064 75.6527 21.0037 75.4664 20.7519L72.4858 16.4391Z" fill="#58187B"/>
<path d="M88.1858 17.2542H84.2903V10.2977C84.2903 10.0592 84.3529 9.88041 84.4795 9.76118C84.6047 9.64196 84.7806 9.54212 85.0056 9.46313C85.4035 9.34391 85.8864 9.25449 86.4571 9.19488C87.0264 9.13527 87.5629 9.10547 88.0666 9.10547C89.7894 9.10547 91.0605 9.47058 91.8832 10.1978C92.7043 10.9266 93.1156 11.9072 93.1156 13.1396C93.1156 13.9742 92.9293 14.6999 92.5598 15.3154C92.1887 15.9309 91.6388 16.4092 90.91 16.746C90.1798 17.0843 89.2722 17.2542 88.1858 17.2542ZM84.2903 16.299H86.3767V21.3867C86.2843 21.4136 86.1516 21.4463 85.9788 21.4866C85.8059 21.5268 85.6211 21.5462 85.4229 21.5462C85.025 21.5462 84.7374 21.4702 84.5585 21.3182C84.3797 21.1662 84.2903 20.9173 84.2903 20.573V16.299ZM86.3588 15.5643H88.0472C88.9742 15.5643 89.6999 15.3631 90.223 14.9577C90.7461 14.5539 91.0084 13.9548 91.0084 13.159C91.0084 12.3513 90.7595 11.7581 90.2633 11.3796C89.767 11.0026 89.0472 10.8133 88.1069 10.8133C87.7894 10.8133 87.4809 10.8267 87.1829 10.8535C86.8848 10.8804 86.6091 10.9132 86.3588 10.9534V15.5643Z" fill="#58187B"/>
<path d="M106.769 15.3856C106.769 16.7641 106.512 17.9236 105.994 18.8639C105.477 19.8043 104.775 20.5136 103.887 20.9905C102.999 21.4674 101.992 21.7058 100.866 21.7058C99.7532 21.7058 98.7503 21.4674 97.8561 20.9905C96.962 20.5136 96.2556 19.8043 95.74 18.8639C95.2228 17.9236 94.965 16.7641 94.965 15.3856C94.965 14.0071 95.2303 12.8492 95.7593 11.9074C96.2899 10.967 96.9978 10.2576 97.8859 9.78076C98.7741 9.30387 99.7667 9.06543 100.866 9.06543C101.98 9.06543 102.98 9.30387 103.868 9.78076C104.756 10.2576 105.461 10.967 105.984 11.9074C106.507 12.8477 106.769 14.0071 106.769 15.3856ZM104.623 15.3856C104.623 13.9013 104.282 12.7658 103.6 11.9774C102.917 11.1891 102.007 10.7941 100.866 10.7941C99.7398 10.7941 98.8323 11.1891 98.1438 11.9774C97.4553 12.7658 97.111 13.9028 97.111 15.3856C97.111 16.8699 97.4523 18.0055 98.1348 18.7939C98.8174 19.5822 99.7279 19.9771 100.868 19.9771C102.021 19.9771 102.935 19.5837 103.61 18.7939C104.285 18.0055 104.623 16.8699 104.623 15.3856Z" fill="#58187B"/>
<path d="M114.838 12.3439C114.943 12.2783 115.095 12.2217 115.295 12.1755C115.493 12.1293 115.699 12.1054 115.911 12.1054C116.241 12.1054 116.523 12.1591 116.756 12.2649C116.987 12.3707 117.13 12.5227 117.183 12.7224C117.487 13.624 117.76 14.4541 117.998 15.2171C118.237 15.9786 118.468 16.7148 118.694 17.4227C118.919 18.1321 119.144 18.8697 119.371 19.6387H119.45C119.675 18.4733 119.894 17.3437 120.106 16.2499C120.317 15.1575 120.52 14.0577 120.712 12.9504C120.904 11.8447 121.086 10.6748 121.259 9.44235C121.524 9.30971 121.822 9.24414 122.153 9.24414C122.457 9.24414 122.709 9.31418 122.909 9.45278C123.109 9.59137 123.207 9.80746 123.207 10.0981C123.207 10.3633 123.174 10.7508 123.107 11.2605C123.04 11.7701 122.948 12.3662 122.828 13.0488C122.709 13.7313 122.571 14.4466 122.411 15.1948C122.252 15.9429 122.086 16.6895 121.915 17.4302C121.742 18.1723 121.568 18.8638 121.389 19.5076C121.21 20.1499 121.042 20.6968 120.882 21.1469C120.736 21.2393 120.538 21.3227 120.286 21.3957C120.034 21.4688 119.763 21.5045 119.471 21.5045C119.1 21.5045 118.785 21.4479 118.527 21.3361C118.27 21.2244 118.1 21.0753 118.021 20.8891C117.861 20.4524 117.666 19.8921 117.435 19.2095C117.203 18.527 116.961 17.7789 116.709 16.9637C116.457 16.1485 116.213 15.3378 115.975 14.5286C115.763 15.3229 115.531 16.1455 115.279 16.9935C115.027 17.8415 114.782 18.6298 114.544 19.3586C114.306 20.0873 114.094 20.6834 113.908 21.1469C113.788 21.2393 113.61 21.3227 113.371 21.3957C113.133 21.4688 112.861 21.5045 112.556 21.5045C112.198 21.5045 111.884 21.4449 111.613 21.3257C111.341 21.2065 111.166 21.0604 111.087 20.8891C110.954 20.5582 110.794 20.0709 110.61 19.4286C110.423 18.7863 110.228 18.0441 110.024 17.2021C109.818 16.3616 109.617 15.4898 109.417 14.5882C109.219 13.6866 109.036 12.8133 108.871 11.9654C108.705 11.1174 108.575 10.3618 108.483 9.70016C108.589 9.58094 108.744 9.47513 108.95 9.38274C109.155 9.29034 109.377 9.24414 109.616 9.24414C109.92 9.24414 110.163 9.31418 110.341 9.45278C110.52 9.59137 110.637 9.82683 110.689 10.1577C110.873 11.1114 111.043 11.9967 111.195 12.8103C111.347 13.6255 111.496 14.4005 111.642 15.1352C111.788 15.8699 111.938 16.606 112.09 17.3407C112.242 18.0754 112.404 18.8414 112.577 19.6357H112.677C112.836 19.0531 112.994 18.5002 113.154 17.9756C113.313 17.4525 113.474 16.919 113.641 16.375C113.806 15.8326 113.985 15.235 114.177 14.5867C114.364 13.9415 114.586 13.1933 114.838 12.3439Z" fill="#58187B"/>
<path d="M127.717 16.9356L125.669 16.9163V10.4768C125.669 10.1326 125.772 9.85689 125.977 9.65272C126.183 9.44707 126.451 9.34424 126.782 9.34424C126.98 9.34424 127.17 9.36361 127.348 9.40385C127.527 9.44409 127.649 9.48283 127.717 9.52307V16.9356ZM125.67 13.7763H127.718V21.2693C127.651 21.2961 127.529 21.3319 127.35 21.3781C127.171 21.4243 126.982 21.4482 126.784 21.4482C126.453 21.4482 126.185 21.3423 125.979 21.1307C125.773 20.9191 125.67 20.6464 125.67 20.3156V13.7763ZM126.782 11.0536V9.34424H133.381C133.433 9.42322 133.484 9.53648 133.53 9.68253C133.576 9.82857 133.6 9.98803 133.6 10.1594C133.6 10.4381 133.533 10.6557 133.402 10.8151C133.269 10.9746 133.084 11.0536 132.846 11.0536H126.782ZM126.782 16.0817V14.3918H132.785C132.837 14.4707 132.888 14.584 132.934 14.7301C132.98 14.8761 133.004 15.0356 133.004 15.2069C133.004 15.4856 132.937 15.7002 132.806 15.8522C132.673 16.0042 132.488 16.0802 132.25 16.0802H126.782V16.0817ZM126.782 21.4482V19.7388H133.479C133.532 19.8178 133.582 19.9311 133.628 20.0771C133.675 20.2232 133.698 20.3826 133.698 20.554C133.698 20.8327 133.631 21.0503 133.5 21.2097C133.368 21.3692 133.183 21.4482 132.944 21.4482H126.782Z" fill="#58187B"/>
<path d="M140.417 17.0143H136.302V10.2977C136.302 10.0592 136.364 9.88041 136.491 9.76118C136.616 9.64196 136.792 9.54212 137.017 9.46313C137.415 9.34391 137.898 9.25449 138.469 9.19488C139.038 9.13527 139.609 9.10547 140.178 9.10547C141.874 9.10547 143.147 9.45717 143.995 10.1591C144.843 10.861 145.267 11.8282 145.267 13.0606C145.267 13.8549 145.075 14.5509 144.691 15.147C144.306 15.7431 143.756 16.2036 143.041 16.5285C142.324 16.8533 141.449 17.0143 140.417 17.0143ZM136.302 16.3586H138.388V21.3867C138.296 21.4136 138.163 21.4463 137.99 21.4866C137.817 21.5268 137.633 21.5462 137.434 21.5462C137.037 21.5462 136.749 21.4702 136.57 21.3182C136.391 21.1662 136.302 20.9173 136.302 20.573V16.3586ZM138.369 15.3452H140.336C141.211 15.3452 141.899 15.153 142.403 14.7685C142.907 14.384 143.159 13.8207 143.159 13.0785C143.159 12.3364 142.901 11.773 142.384 11.3886C141.867 11.0041 141.111 10.8118 140.118 10.8118C139.813 10.8118 139.509 10.8252 139.205 10.8521C138.899 10.8789 138.622 10.9191 138.37 10.9713V15.3452H138.369ZM140.278 16.4391L141.947 15.843C142.305 16.2796 142.668 16.7371 143.039 17.214C143.41 17.6909 143.771 18.1514 144.123 18.5955C144.473 19.0396 144.784 19.4434 145.057 19.807C145.328 20.1722 145.544 20.4598 145.702 20.6714C145.623 20.9501 145.474 21.1721 145.255 21.3376C145.036 21.503 144.801 21.5864 144.55 21.5864C144.233 21.5864 143.984 21.5104 143.805 21.3584C143.627 21.2064 143.445 21.0037 143.258 20.7519L140.278 16.4391Z" fill="#58187B"/>
<path d="M51.0259 30.3316V31.245H48.6807V38.9346H47.5575V31.245H45.2001V30.3316H51.0259ZM53.5317 33.2692C53.7292 32.8825 54.0089 32.5821 54.371 32.3682C54.7413 32.1542 55.1897 32.0473 55.7164 32.0473V33.2075H55.4201C54.1612 33.2075 53.5317 33.8905 53.5317 35.2564V38.9346H52.4085V32.1707H53.5317V33.2692ZM56.5933 35.5279C56.5933 34.8367 56.7332 34.2319 57.0129 33.7135C57.2927 33.1869 57.6753 32.7796 58.1608 32.4916C58.6545 32.2036 59.2017 32.0596 59.8024 32.0596C60.3949 32.0596 60.9092 32.1871 61.3453 32.4422C61.7814 32.6973 62.1064 33.0182 62.3204 33.405V32.1707H63.4559V38.9346H62.3204V37.6756C62.0982 38.0706 61.7649 38.3997 61.3206 38.663C60.8845 38.9181 60.3743 39.0457 59.7901 39.0457C59.1894 39.0457 58.6463 38.8975 58.1608 38.6013C57.6753 38.3051 57.2927 37.8895 57.0129 37.3547C56.7332 36.8198 56.5933 36.2109 56.5933 35.5279ZM62.3204 35.5403C62.3204 35.0301 62.2175 34.5858 62.0118 34.2073C61.8061 33.8287 61.5263 33.5407 61.1725 33.3433C60.8269 33.1375 60.4443 33.0347 60.0246 33.0347C59.6049 33.0347 59.2223 33.1334 58.8767 33.3309C58.5311 33.5284 58.2555 33.8164 58.0497 34.1949C57.844 34.5734 57.7412 35.0178 57.7412 35.5279C57.7412 36.0463 57.844 36.4989 58.0497 36.8857C58.2555 37.2642 58.5311 37.5563 58.8767 37.762C59.2223 37.9595 59.6049 38.0582 60.0246 38.0582C60.4443 38.0582 60.8269 37.9595 61.1725 37.762C61.5263 37.5563 61.8061 37.2642 62.0118 36.8857C62.2175 36.4989 62.3204 36.0505 62.3204 35.5403ZM65.9341 31.0722C65.7202 31.0722 65.5392 30.9981 65.391 30.85C65.2429 30.7019 65.1689 30.5209 65.1689 30.3069C65.1689 30.093 65.2429 29.9119 65.391 29.7638C65.5392 29.6157 65.7202 29.5417 65.9341 29.5417C66.1398 29.5417 66.3126 29.6157 66.4525 29.7638C66.6006 29.9119 66.6747 30.093 66.6747 30.3069C66.6747 30.5209 66.6006 30.7019 66.4525 30.85C66.3126 30.9981 66.1398 31.0722 65.9341 31.0722ZM66.4772 32.1707V38.9346H65.354V32.1707H66.4772ZM71.6871 32.0473C72.5099 32.0473 73.1764 32.2982 73.6866 32.8002C74.1968 33.2939 74.4519 34.0098 74.4519 34.9478V38.9346H73.341V35.1083C73.341 34.4335 73.1723 33.9193 72.8349 33.5654C72.4976 33.2034 72.0368 33.0223 71.4525 33.0223C70.8601 33.0223 70.3869 33.2075 70.0331 33.5778C69.6875 33.9481 69.5147 34.487 69.5147 35.1947V38.9346H68.3915V32.1707H69.5147V33.1334C69.7369 32.7878 70.0372 32.5204 70.4157 32.3311C70.8025 32.1419 71.2263 32.0473 71.6871 32.0473ZM76.8667 31.0722C76.6528 31.0722 76.4717 30.9981 76.3236 30.85C76.1755 30.7019 76.1015 30.5209 76.1015 30.3069C76.1015 30.093 76.1755 29.9119 76.3236 29.7638C76.4717 29.6157 76.6528 29.5417 76.8667 29.5417C77.0724 29.5417 77.2452 29.6157 77.3851 29.7638C77.5332 29.9119 77.6073 30.093 77.6073 30.3069C77.6073 30.5209 77.5332 30.7019 77.3851 30.85C77.2452 30.9981 77.0724 31.0722 76.8667 31.0722ZM77.4098 32.1707V38.9346H76.2866V32.1707H77.4098ZM82.6196 32.0473C83.4425 32.0473 84.109 32.2982 84.6192 32.8002C85.1294 33.2939 85.3844 34.0098 85.3844 34.9478V38.9346H84.2736V35.1083C84.2736 34.4335 84.1049 33.9193 83.7675 33.5654C83.4302 33.2034 82.9694 33.0223 82.3851 33.0223C81.7927 33.0223 81.3195 33.2075 80.9657 33.5778C80.6201 33.9481 80.4473 34.487 80.4473 35.1947V38.9346H79.3241V32.1707H80.4473V33.1334C80.6695 32.7878 80.9698 32.5204 81.3483 32.3311C81.7351 32.1419 82.1588 32.0473 82.6196 32.0473ZM90.0087 32.0596C90.5929 32.0596 91.1031 32.1871 91.5392 32.4422C91.9835 32.6973 92.3127 33.0182 92.5266 33.405V32.1707H93.6622V39.0827C93.6622 39.6998 93.5305 40.247 93.2672 40.7243C93.0039 41.2098 92.6254 41.5883 92.1316 41.8598C91.6462 42.1314 91.0784 42.2671 90.4283 42.2671C89.5396 42.2671 88.7991 42.0573 88.2066 41.6377C87.6142 41.218 87.2644 40.6461 87.1575 39.922H88.2683C88.3918 40.3334 88.6468 40.6626 89.0336 40.9094C89.4203 41.1645 89.8852 41.2921 90.4283 41.2921C91.0455 41.2921 91.5474 41.0987 91.9342 40.7119C92.3291 40.3252 92.5266 39.7821 92.5266 39.0827V37.6633C92.3044 38.0582 91.9753 38.3874 91.5392 38.6507C91.1031 38.914 90.5929 39.0457 90.0087 39.0457C89.408 39.0457 88.8608 38.8975 88.3671 38.6013C87.8816 38.3051 87.499 37.8895 87.2192 37.3547C86.9394 36.8198 86.7995 36.2109 86.7995 35.5279C86.7995 34.8367 86.9394 34.2319 87.2192 33.7135C87.499 33.1869 87.8816 32.7796 88.3671 32.4916C88.8608 32.2036 89.408 32.0596 90.0087 32.0596ZM92.5266 35.5403C92.5266 35.0301 92.4238 34.5858 92.218 34.2073C92.0123 33.8287 91.7326 33.5407 91.3787 33.3433C91.0331 33.1375 90.6505 33.0347 90.2308 33.0347C89.8112 33.0347 89.4286 33.1334 89.083 33.3309C88.7374 33.5284 88.4617 33.8164 88.256 34.1949C88.0503 34.5734 87.9474 35.0178 87.9474 35.5279C87.9474 36.0463 88.0503 36.4989 88.256 36.8857C88.4617 37.2642 88.7374 37.5563 89.083 37.762C89.4286 37.9595 89.8112 38.0582 90.2308 38.0582C90.6505 38.0582 91.0331 37.9595 91.3787 37.762C91.7326 37.5563 92.0123 37.2642 92.218 36.8857C92.4238 36.4989 92.5266 36.0505 92.5266 35.5403ZM107.577 30.3933V38.9346H106.454V32.5657L103.615 38.9346H102.825L99.9741 32.5533V38.9346H98.8509V30.3933H100.06L103.22 37.4534L106.38 30.3933H107.577ZM109.062 35.5279C109.062 34.8367 109.202 34.2319 109.482 33.7135C109.762 33.1869 110.145 32.7796 110.63 32.4916C111.124 32.2036 111.671 32.0596 112.272 32.0596C112.864 32.0596 113.378 32.1871 113.814 32.4422C114.251 32.6973 114.576 33.0182 114.79 33.405V32.1707H115.925V38.9346H114.79V37.6756C114.567 38.0706 114.234 38.3997 113.79 38.663C113.354 38.9181 112.844 39.0457 112.259 39.0457C111.659 39.0457 111.116 38.8975 110.63 38.6013C110.145 38.3051 109.762 37.8895 109.482 37.3547C109.202 36.8198 109.062 36.2109 109.062 35.5279ZM114.79 35.5403C114.79 35.0301 114.687 34.5858 114.481 34.2073C114.275 33.8287 113.996 33.5407 113.642 33.3433C113.296 33.1375 112.913 33.0347 112.494 33.0347C112.074 33.0347 111.692 33.1334 111.346 33.3309C111 33.5284 110.725 33.8164 110.519 34.1949C110.313 34.5734 110.21 35.0178 110.21 35.5279C110.21 36.0463 110.313 36.4989 110.519 36.8857C110.725 37.2642 111 37.5563 111.346 37.762C111.692 37.9595 112.074 38.0582 112.494 38.0582C112.913 38.0582 113.296 37.9595 113.642 37.762C113.996 37.5563 114.275 37.2642 114.481 36.8857C114.687 36.4989 114.79 36.0505 114.79 35.5403ZM121.119 32.0473C121.942 32.0473 122.608 32.2982 123.118 32.8002C123.628 33.2939 123.884 34.0098 123.884 34.9478V38.9346H122.773V35.1083C122.773 34.4335 122.604 33.9193 122.267 33.5654C121.929 33.2034 121.468 33.0223 120.884 33.0223C120.292 33.0223 119.819 33.2075 119.465 33.5778C119.119 33.9481 118.946 34.487 118.946 35.1947V38.9346H117.823V32.1707H118.946V33.1334C119.169 32.7878 119.469 32.5204 119.847 32.3311C120.234 32.1419 120.658 32.0473 121.119 32.0473ZM125.299 35.5279C125.299 34.8367 125.439 34.2319 125.718 33.7135C125.998 33.1869 126.381 32.7796 126.866 32.4916C127.36 32.2036 127.907 32.0596 128.508 32.0596C129.1 32.0596 129.615 32.1871 130.051 32.4422C130.487 32.6973 130.812 33.0182 131.026 33.405V32.1707H132.161V38.9346H131.026V37.6756C130.804 38.0706 130.47 38.3997 130.026 38.663C129.59 38.9181 129.08 39.0457 128.495 39.0457C127.895 39.0457 127.352 38.8975 126.866 38.6013C126.381 38.3051 125.998 37.8895 125.718 37.3547C125.439 36.8198 125.299 36.2109 125.299 35.5279ZM131.026 35.5403C131.026 35.0301 130.923 34.5858 130.717 34.2073C130.511 33.8287 130.232 33.5407 129.878 33.3433C129.532 33.1375 129.15 33.0347 128.73 33.0347C128.31 33.0347 127.928 33.1334 127.582 33.3309C127.236 33.5284 126.961 33.8164 126.755 34.1949C126.549 34.5734 126.447 35.0178 126.447 35.5279C126.447 36.0463 126.549 36.4989 126.755 36.8857C126.961 37.2642 127.236 37.5563 127.582 37.762C127.928 37.9595 128.31 38.0582 128.73 38.0582C129.15 38.0582 129.532 37.9595 129.878 37.762C130.232 37.5563 130.511 37.2642 130.717 36.8857C130.923 36.4989 131.026 36.0505 131.026 35.5403ZM136.849 32.0596C137.433 32.0596 137.943 32.1871 138.379 32.4422C138.824 32.6973 139.153 33.0182 139.367 33.405V32.1707H140.502V39.0827C140.502 39.6998 140.371 40.247 140.107 40.7243C139.844 41.2098 139.466 41.5883 138.972 41.8598C138.486 42.1314 137.919 42.2671 137.269 42.2671C136.38 42.2671 135.639 42.0573 135.047 41.6377C134.454 41.218 134.105 40.6461 133.998 39.922H135.109C135.232 40.3334 135.487 40.6626 135.874 40.9094C136.261 41.1645 136.725 41.2921 137.269 41.2921C137.886 41.2921 138.388 41.0987 138.774 40.7119C139.169 40.3252 139.367 39.7821 139.367 39.0827V37.6633C139.145 38.0582 138.815 38.3874 138.379 38.6507C137.943 38.914 137.433 39.0457 136.849 39.0457C136.248 39.0457 135.701 38.8975 135.207 38.6013C134.722 38.3051 134.339 37.8895 134.059 37.3547C133.78 36.8198 133.64 36.2109 133.64 35.5279C133.64 34.8367 133.78 34.2319 134.059 33.7135C134.339 33.1869 134.722 32.7796 135.207 32.4916C135.701 32.2036 136.248 32.0596 136.849 32.0596ZM139.367 35.5403C139.367 35.0301 139.264 34.5858 139.058 34.2073C138.853 33.8287 138.573 33.5407 138.219 33.3433C137.873 33.1375 137.491 33.0347 137.071 33.0347C136.651 33.0347 136.269 33.1334 135.923 33.3309C135.578 33.5284 135.302 33.8164 135.096 34.1949C134.89 34.5734 134.788 35.0178 134.788 35.5279C134.788 36.0463 134.89 36.4989 135.096 36.8857C135.302 37.2642 135.578 37.5563 135.923 37.762C136.269 37.9595 136.651 38.0582 137.071 38.0582C137.491 38.0582 137.873 37.9595 138.219 37.762C138.573 37.5563 138.853 37.2642 139.058 36.8857C139.264 36.4989 139.367 36.0505 139.367 35.5403ZM148.572 35.2934C148.572 35.5074 148.56 35.7337 148.535 35.9723H143.129C143.17 36.6388 143.396 37.1613 143.808 37.5398C144.227 37.9101 144.733 38.0953 145.326 38.0953C145.811 38.0953 146.214 37.9842 146.535 37.762C146.864 37.5316 147.095 37.2271 147.227 36.8486H148.436C148.255 37.4987 147.893 38.0294 147.35 38.4409C146.807 38.8441 146.132 39.0457 145.326 39.0457C144.684 39.0457 144.108 38.9017 143.598 38.6137C143.096 38.3257 142.701 37.9183 142.413 37.3917C142.125 36.8569 141.981 36.2397 141.981 35.5403C141.981 34.8409 142.121 34.2278 142.4 33.7012C142.68 33.1746 143.071 32.7714 143.573 32.4916C144.083 32.2036 144.667 32.0596 145.326 32.0596C145.968 32.0596 146.535 32.1995 147.029 32.4793C147.523 32.759 147.901 33.1458 148.165 33.6395C148.436 34.125 148.572 34.6763 148.572 35.2934ZM147.412 35.0589C147.412 34.631 147.317 34.2649 147.128 33.9604C146.939 33.6477 146.679 33.4132 146.35 33.2569C146.029 33.0923 145.671 33.01 145.276 33.01C144.709 33.01 144.223 33.191 143.82 33.5531C143.425 33.9151 143.199 34.4171 143.141 35.0589H147.412ZM158.188 32.0473C158.715 32.0473 159.184 32.1583 159.595 32.3805C160.007 32.5945 160.332 32.9195 160.571 33.3556C160.809 33.7917 160.929 34.3225 160.929 34.9478V38.9346H159.818V35.1083C159.818 34.4335 159.649 33.9193 159.312 33.5654C158.982 33.2034 158.534 33.0223 157.966 33.0223C157.382 33.0223 156.917 33.2116 156.571 33.5901C156.226 33.9604 156.053 34.4994 156.053 35.207V38.9346H154.942V35.1083C154.942 34.4335 154.774 33.9193 154.436 33.5654C154.107 33.2034 153.659 33.0223 153.091 33.0223C152.507 33.0223 152.042 33.2116 151.696 33.5901C151.35 33.9604 151.178 34.4994 151.178 35.207V38.9346H150.054V32.1707H151.178V33.1458C151.4 32.7919 151.696 32.5204 152.066 32.3311C152.445 32.1419 152.86 32.0473 153.313 32.0473C153.881 32.0473 154.383 32.1748 154.819 32.4299C155.255 32.685 155.58 33.0594 155.794 33.5531C155.983 33.0758 156.296 32.7055 156.732 32.4422C157.168 32.1789 157.654 32.0473 158.188 32.0473ZM168.942 35.2934C168.942 35.5074 168.93 35.7337 168.905 35.9723H163.499C163.54 36.6388 163.767 37.1613 164.178 37.5398C164.598 37.9101 165.104 38.0953 165.696 38.0953C166.182 38.0953 166.585 37.9842 166.906 37.762C167.235 37.5316 167.465 37.2271 167.597 36.8486H168.807C168.626 37.4987 168.264 38.0294 167.72 38.4409C167.177 38.8441 166.503 39.0457 165.696 39.0457C165.054 39.0457 164.478 38.9017 163.968 38.6137C163.466 38.3257 163.071 37.9183 162.783 37.3917C162.495 36.8569 162.351 36.2397 162.351 35.5403C162.351 34.8409 162.491 34.2278 162.771 33.7012C163.051 33.1746 163.442 32.7714 163.944 32.4916C164.454 32.2036 165.038 32.0596 165.696 32.0596C166.338 32.0596 166.906 32.1995 167.4 32.4793C167.893 32.759 168.272 33.1458 168.535 33.6395C168.807 34.125 168.942 34.6763 168.942 35.2934ZM167.782 35.0589C167.782 34.631 167.688 34.2649 167.498 33.9604C167.309 33.6477 167.05 33.4132 166.721 33.2569C166.4 33.0923 166.042 33.01 165.647 33.01C165.079 33.01 164.594 33.191 164.19 33.5531C163.795 33.9151 163.569 34.4171 163.512 35.0589H167.782ZM173.721 32.0473C174.543 32.0473 175.21 32.2982 175.72 32.8002C176.23 33.2939 176.485 34.0098 176.485 34.9478V38.9346H175.374V35.1083C175.374 34.4335 175.206 33.9193 174.868 33.5654C174.531 33.2034 174.07 33.0223 173.486 33.0223C172.894 33.0223 172.42 33.2075 172.067 33.5778C171.721 33.9481 171.548 34.487 171.548 35.1947V38.9346H170.425V32.1707H171.548V33.1334C171.77 32.7878 172.071 32.5204 172.449 32.3311C172.836 32.1419 173.26 32.0473 173.721 32.0473ZM179.69 33.0964V37.0831C179.69 37.4123 179.76 37.6468 179.9 37.7867C180.04 37.9183 180.283 37.9842 180.628 37.9842H181.455V38.9346H180.443C179.818 38.9346 179.349 38.7906 179.036 38.5026C178.723 38.2146 178.567 37.7414 178.567 37.0831V33.0964H177.691V32.1707H178.567V30.4674H179.69V32.1707H181.455V33.0964H179.69ZM188.834 39.021C188.267 39.021 187.757 38.9222 187.304 38.7247C186.86 38.519 186.51 38.2393 186.255 37.8854C186 37.5234 185.868 37.1078 185.86 36.6388H187.057C187.098 37.042 187.263 37.3835 187.551 37.6633C187.847 37.9348 188.275 38.0706 188.834 38.0706C189.369 38.0706 189.789 37.9389 190.093 37.6756C190.406 37.4041 190.562 37.0585 190.562 36.6388C190.562 36.3097 190.472 36.0422 190.291 35.8365C190.11 35.6308 189.884 35.4745 189.612 35.3675C189.341 35.2605 188.974 35.1453 188.514 35.0219C187.946 34.8738 187.489 34.7257 187.143 34.5775C186.806 34.4294 186.514 34.199 186.267 33.8863C186.029 33.5654 185.909 33.1375 185.909 32.6027C185.909 32.1337 186.029 31.7181 186.267 31.3561C186.506 30.994 186.839 30.7142 187.267 30.5167C187.703 30.3193 188.201 30.2205 188.76 30.2205C189.567 30.2205 190.225 30.4221 190.735 30.8253C191.254 31.2285 191.546 31.7634 191.612 32.4299H190.377C190.336 32.1007 190.163 31.8127 189.859 31.5659C189.554 31.3108 189.151 31.1833 188.649 31.1833C188.18 31.1833 187.798 31.3067 187.501 31.5535C187.205 31.7922 187.057 32.1295 187.057 32.5657C187.057 32.8783 187.143 33.1334 187.316 33.3309C187.497 33.5284 187.715 33.6806 187.97 33.7876C188.234 33.8863 188.6 34.0015 189.069 34.1332C189.637 34.2895 190.093 34.4459 190.439 34.6022C190.785 34.7503 191.081 34.9849 191.328 35.3058C191.575 35.6185 191.698 36.0463 191.698 36.5894C191.698 37.0091 191.587 37.4041 191.365 37.7743C191.143 38.1446 190.813 38.445 190.377 38.6754C189.941 38.9058 189.427 39.021 188.834 39.021ZM199.177 32.1707L195.104 42.119H193.943L195.276 38.8605L192.549 32.1707H193.795L195.918 37.6509L198.016 32.1707H199.177ZM202.7 39.0457C202.182 39.0457 201.717 38.9593 201.306 38.7865C200.894 38.6054 200.569 38.3586 200.33 38.0459C200.092 37.725 199.96 37.3588 199.936 36.9474H201.096C201.129 37.2847 201.285 37.5604 201.565 37.7743C201.853 37.9883 202.227 38.0953 202.688 38.0953C203.116 38.0953 203.453 38.0006 203.7 37.8114C203.947 37.6221 204.07 37.3835 204.07 37.0955C204.07 36.7993 203.939 36.5812 203.675 36.4413C203.412 36.2932 203.005 36.1492 202.453 36.0093C201.952 35.8777 201.54 35.746 201.219 35.6143C200.906 35.4745 200.635 35.2729 200.405 35.0095C200.182 34.738 200.071 34.3842 200.071 33.9481C200.071 33.6025 200.174 33.2857 200.38 32.9977C200.586 32.7097 200.878 32.4834 201.256 32.3188C201.635 32.146 202.067 32.0596 202.552 32.0596C203.301 32.0596 203.906 32.2489 204.367 32.6274C204.827 33.0059 205.074 33.5243 205.107 34.1826H203.984C203.959 33.8287 203.815 33.5449 203.552 33.3309C203.297 33.117 202.951 33.01 202.515 33.01C202.112 33.01 201.791 33.0964 201.552 33.2692C201.314 33.442 201.194 33.6683 201.194 33.9481C201.194 34.1702 201.264 34.3554 201.404 34.5035C201.552 34.6434 201.733 34.7586 201.947 34.8491C202.17 34.9314 202.474 35.026 202.861 35.133C203.346 35.2646 203.741 35.3963 204.046 35.5279C204.35 35.6514 204.609 35.8406 204.823 36.0957C205.045 36.3508 205.161 36.6841 205.169 37.0955C205.169 37.4658 205.066 37.799 204.86 38.0953C204.655 38.3915 204.362 38.626 203.984 38.7988C203.614 38.9634 203.186 39.0457 202.7 39.0457ZM208.125 33.0964V37.0831C208.125 37.4123 208.194 37.6468 208.334 37.7867C208.474 37.9183 208.717 37.9842 209.063 37.9842H209.89V38.9346H208.877C208.252 38.9346 207.783 38.7906 207.47 38.5026C207.158 38.2146 207.001 37.7414 207.001 37.0831V33.0964H206.125V32.1707H207.001V30.4674H208.125V32.1707H209.89V33.0964H208.125ZM217.422 35.2934C217.422 35.5074 217.41 35.7337 217.385 35.9723H211.979C212.02 36.6388 212.246 37.1613 212.658 37.5398C213.077 37.9101 213.583 38.0953 214.176 38.0953C214.661 38.0953 215.064 37.9842 215.385 37.762C215.714 37.5316 215.945 37.2271 216.076 36.8486H217.286C217.105 37.4987 216.743 38.0294 216.2 38.4409C215.657 38.8441 214.982 39.0457 214.176 39.0457C213.534 39.0457 212.958 38.9017 212.448 38.6137C211.946 38.3257 211.551 37.9183 211.263 37.3917C210.975 36.8569 210.831 36.2397 210.831 35.5403C210.831 34.8409 210.971 34.2278 211.25 33.7012C211.53 33.1746 211.921 32.7714 212.423 32.4916C212.933 32.2036 213.517 32.0596 214.176 32.0596C214.818 32.0596 215.385 32.1995 215.879 32.4793C216.373 32.759 216.751 33.1458 217.015 33.6395C217.286 34.125 217.422 34.6763 217.422 35.2934ZM216.262 35.0589C216.262 34.631 216.167 34.2649 215.978 33.9604C215.788 33.6477 215.529 33.4132 215.2 33.2569C214.879 33.0923 214.521 33.01 214.126 33.01C213.559 33.01 213.073 33.191 212.67 33.5531C212.275 33.9151 212.049 34.4171 211.991 35.0589H216.262ZM227.038 32.0473C227.565 32.0473 228.034 32.1583 228.445 32.3805C228.857 32.5945 229.182 32.9195 229.421 33.3556C229.659 33.7917 229.779 34.3225 229.779 34.9478V38.9346H228.668V35.1083C228.668 34.4335 228.499 33.9193 228.162 33.5654C227.832 33.2034 227.384 33.0223 226.816 33.0223C226.232 33.0223 225.767 33.2116 225.421 33.5901C225.076 33.9604 224.903 34.4994 224.903 35.207V38.9346H223.792V35.1083C223.792 34.4335 223.624 33.9193 223.286 33.5654C222.957 33.2034 222.509 33.0223 221.941 33.0223C221.357 33.0223 220.892 33.2116 220.546 33.5901C220.2 33.9604 220.028 34.4994 220.028 35.207V38.9346H218.904V32.1707H220.028V33.1458C220.25 32.7919 220.546 32.5204 220.916 32.3311C221.295 32.1419 221.71 32.0473 222.163 32.0473C222.731 32.0473 223.233 32.1748 223.669 32.4299C224.105 32.685 224.43 33.0594 224.644 33.5531C224.833 33.0758 225.146 32.7055 225.582 32.4422C226.018 32.1789 226.504 32.0473 227.038 32.0473Z" fill="#525252"/>
</svg>
