<svg width="12" height="10" viewBox="0 0 12 10" fill="none" xmlns="http://www.w3.org/2000/svg">
<path id="Vector" d="M11.5 1.56909C11.0955 1.74483 10.6553 1.87131 10.2018 1.92057C10.6726 1.6389 11.0251 1.19391 11.1933 0.669088C10.7516 0.933748 10.2676 1.11933 9.76295 1.21761C9.55202 0.990514 9.29692 0.8096 9.01354 0.68614C8.73015 0.562679 8.42455 0.499319 8.11579 0.500006C6.86654 0.500006 5.86186 1.51983 5.86186 2.77131C5.86186 2.94705 5.88301 3.12279 5.91738 3.29187C4.04681 3.19335 2.3785 2.29335 1.26938 0.91539C1.06729 1.26303 0.961381 1.65886 0.962685 2.06169C0.962685 2.84986 1.36059 3.54483 1.96737 3.95355C1.60979 3.93937 1.26058 3.84039 0.948143 3.66465V3.69261C0.948143 4.7963 1.72281 5.71095 2.75526 5.9213C2.5614 5.97202 2.36199 5.99796 2.1617 5.99852C2.01496 5.99852 1.87616 5.98388 1.73603 5.96391C2.02157 6.86391 2.85308 7.5176 3.84323 7.53891C3.06856 8.15 2.09825 8.50947 1.04465 8.50947C0.855606 8.50947 0.681108 8.50281 0.5 8.48151C1.4994 9.12722 2.68519 9.5 3.9622 9.5C8.10786 9.5 10.3763 6.04113 10.3763 3.03891C10.3763 2.94039 10.3763 2.84187 10.3697 2.74335C10.8086 2.41983 11.1933 2.01909 11.5 1.56909Z" fill="#581C87"/>
</svg>
