<svg width="33" height="48" viewBox="0 0 33 48" fill="none" xmlns="http://www.w3.org/2000/svg">
<g id="Group">
<path id="Vector" d="M17.4019 44.0915C15.5956 44.9319 13.5285 45.4863 9.39623 46.5952C4.95875 47.7871 2.73132 48.3686 2.30052 47.7485C1.323 46.3421 6.31878 40.1544 12.8311 36.3235C19.9094 32.1584 26.6709 30.5202 27.9324 32.6665C29.1031 34.6544 23.6495 41.186 17.4019 44.0915Z" fill="#BA94D0"/>
<path id="Vector_2" d="M17.6354 39.5021C9.4772 41.9769 0.138599 39.2143 0.00143662 37.0081C-0.0429961 36.2895 0.903615 35.8393 2.52638 34.7768C10.1166 29.8061 9.89835 25.2566 14.3938 24.2984C21.843 22.7104 28.6084 24.8258 29.5029 29.0237C30.3355 32.9319 23.3267 37.7751 17.6354 39.5021Z" fill="#7B419A"/>
<path id="Vector_3" d="M8.75487 22.5034C7.75996 18.6126 8.52111 14.9981 10.0164 7.88694C10.9591 3.4031 11.4595 1.14476 12.8832 0.397126C16.9595 -1.74724 27.0322 5.06063 30.5115 14.3587C34.2399 24.3193 32.3912 34.2162 26.3831 36.4649C20.4619 38.6808 10.8645 30.7563 8.75487 22.5034Z" fill="#A977C0"/>
<path id="Vector_4" d="M6.96596 30.835C4.93944 28.3738 4.13965 25.3891 2.53814 19.4177C1.09117 14.0143 0.366728 11.3117 1.47561 9.77776C4.19954 6.01257 15.8776 7.35135 22.8458 13.8772C30.2642 20.8241 32.7215 30.2516 28.3362 34.9325C23.9064 39.6636 12.0719 37.0363 6.96596 30.835Z" fill="#58187B"/>
</g>
</svg>
