<svg width="237" height="68" viewBox="0 0 237 68" fill="none" xmlns="http://www.w3.org/2000/svg">
<path d="M24.6526 62.4633C22.0937 63.6538 19.1654 64.4392 13.3114 66.0101C7.02493 67.6987 3.86941 68.5224 3.25911 67.6439C1.87429 65.6516 8.95164 56.8859 18.1774 51.459C28.205 45.5586 37.7838 43.2379 39.5709 46.2784C41.2294 49.0945 33.5034 58.3473 24.6526 62.4633Z" fill="#BA94D0"/>
<path d="M24.9836 55.9589C13.4261 59.4646 0.196434 55.5511 0.00212167 52.4258C-0.0608246 51.4077 1.2802 50.7701 3.57911 49.2649C14.332 42.2233 14.0227 35.7784 20.3912 34.4209C30.9443 32.1714 40.5286 35.1681 41.7957 41.1149C42.9753 46.6513 33.0462 53.5123 24.9836 55.9589Z" fill="#7B419A"/>
<path d="M12.4027 31.879C10.9933 26.3672 12.0716 21.2468 14.1898 11.173C15.5254 4.82109 16.2342 1.62187 18.2512 0.562761C24.0259 -2.47499 38.2955 7.16919 43.2245 20.341C48.5065 34.4515 45.8874 48.4717 37.376 51.6572C28.9877 54.7962 15.3913 43.5702 12.4027 31.879Z" fill="#A977C0"/>
<path d="M9.86854 43.6791C6.99764 40.1925 5.8646 35.9643 3.5958 27.5051C1.54594 19.8505 0.519644 16.0218 2.09056 13.8489C5.94945 8.51504 22.4934 10.4116 32.365 19.6562C42.8743 29.4974 46.3555 42.8526 40.143 49.4837C33.8675 56.1859 17.1019 52.4639 9.86854 43.6791Z" fill="#58187B"/>
<path d="M60.2979 21.6H63.5999V31.948C63.4612 32 63.2446 32.0433 62.9499 32.078C62.6726 32.13 62.3779 32.156 62.0659 32.156C61.4419 32.156 60.9912 32.0433 60.7139 31.818C60.4366 31.5753 60.2979 31.1767 60.2979 30.622V21.6ZM63.5999 25.37H60.2979V16.218C60.4539 16.1833 60.6706 16.14 60.9479 16.088C61.2426 16.036 61.5372 16.01 61.8319 16.01C62.4559 16.01 62.9066 16.1227 63.1839 16.348C63.4612 16.556 63.5999 16.9547 63.5999 17.544V25.37ZM70.2299 21.6H73.5059V31.948C73.3672 32 73.1506 32.0433 72.8559 32.078C72.5786 32.13 72.2926 32.156 71.9979 32.156C71.3566 32.156 70.8972 32.0433 70.6199 31.818C70.3599 31.5753 70.2299 31.1767 70.2299 30.622V21.6ZM73.5059 25.37H70.2299V16.218C70.3686 16.1833 70.5766 16.14 70.8539 16.088C71.1486 16.036 71.4432 16.01 71.7379 16.01C72.3619 16.01 72.8126 16.1227 73.0899 16.348C73.3672 16.5733 73.5059 16.9807 73.5059 17.57V25.37ZM72.0499 25.37H61.9099V22.744H72.0499V25.37ZM77.5381 21.548H80.7621V31.818C80.6408 31.8527 80.4415 31.896 80.1641 31.948C79.8868 32 79.6008 32.026 79.3061 32.026C78.7688 32.026 78.3355 31.87 78.0061 31.558C77.6941 31.2287 77.5381 30.804 77.5381 30.284V21.548ZM80.7621 26.644L77.5381 26.618V17.96C77.5381 17.4227 77.6941 16.998 78.0061 16.686C78.3355 16.374 78.7688 16.218 79.3061 16.218C79.6008 16.218 79.8868 16.244 80.1641 16.296C80.4415 16.348 80.6408 16.3913 80.7621 16.426V26.644ZM79.3061 25.24V22.64H87.1321C87.2188 22.7613 87.2968 22.9347 87.3661 23.16C87.4528 23.3853 87.4961 23.628 87.4961 23.888C87.4961 24.3387 87.3921 24.6767 87.1841 24.902C86.9761 25.1273 86.6901 25.24 86.3261 25.24H79.3061ZM79.3061 32.026V29.4H88.0421C88.1115 29.5213 88.1808 29.6947 88.2501 29.92C88.3368 30.1453 88.3801 30.3967 88.3801 30.674C88.3801 31.1247 88.2761 31.4627 88.0681 31.688C87.8601 31.9133 87.5741 32.026 87.2101 32.026H79.3061ZM79.3061 18.87V16.218H87.9121C87.9988 16.3393 88.0768 16.5127 88.1461 16.738C88.2155 16.9633 88.2501 17.206 88.2501 17.466C88.2501 17.9167 88.1461 18.2633 87.9381 18.506C87.7475 18.7487 87.4615 18.87 87.0801 18.87H79.3061ZM94.8298 23.862H96.9878C98.0104 23.862 98.8251 23.6367 99.4318 23.186C100.038 22.7353 100.342 22.068 100.342 21.184C100.342 20.3173 100.038 19.6587 99.4318 19.208C98.8251 18.7573 97.9324 18.532 96.7538 18.532C96.4071 18.532 96.0691 18.5493 95.7398 18.584C95.4104 18.6013 95.1071 18.636 94.8298 18.688V23.862ZM97.2218 26.436H91.5538V17.518C91.5538 17.206 91.6404 16.9633 91.8138 16.79C92.0044 16.6167 92.2471 16.478 92.5418 16.374C93.0964 16.2007 93.7464 16.0707 94.4918 15.984C95.2544 15.8973 96.0258 15.854 96.8058 15.854C99.0938 15.854 100.801 16.3307 101.928 17.284C103.072 18.22 103.644 19.5113 103.644 21.158C103.644 22.198 103.375 23.1167 102.838 23.914C102.318 24.7113 101.581 25.3353 100.628 25.786C99.6744 26.2193 98.5391 26.436 97.2218 26.436ZM96.7798 25.604L99.5878 24.798C100.021 25.37 100.463 25.9507 100.914 26.54C101.382 27.112 101.824 27.6753 102.24 28.23C102.673 28.7673 103.054 29.2613 103.384 29.712C103.73 30.1627 103.999 30.5353 104.19 30.83C104.068 31.2633 103.834 31.6013 103.488 31.844C103.158 32.0867 102.794 32.208 102.396 32.208C101.876 32.208 101.468 32.0953 101.174 31.87C100.896 31.6273 100.628 31.3067 100.368 30.908L96.7798 25.604ZM91.5538 25.292H94.8558V31.948C94.7171 32 94.5004 32.0433 94.2058 32.078C93.9284 32.13 93.6338 32.156 93.3218 32.156C92.6978 32.156 92.2471 32.0433 91.9698 31.818C91.6924 31.5753 91.5538 31.1767 91.5538 30.622V25.292ZM115.599 24.096H117.523C118.581 24.096 119.413 23.862 120.019 23.394C120.626 22.9087 120.929 22.2067 120.929 21.288C120.929 20.352 120.635 19.6587 120.045 19.208C119.473 18.7573 118.65 18.532 117.575 18.532C117.194 18.532 116.839 18.5493 116.509 18.584C116.18 18.6013 115.877 18.636 115.599 18.688V24.096ZM117.705 26.722H112.323V17.518C112.323 17.206 112.41 16.9633 112.583 16.79C112.774 16.6167 113.017 16.478 113.311 16.374C113.866 16.2007 114.525 16.0707 115.287 15.984C116.05 15.8973 116.761 15.854 117.419 15.854C119.707 15.854 121.415 16.3393 122.541 17.31C123.685 18.2807 124.257 19.598 124.257 21.262C124.257 22.3713 124.006 23.3333 123.503 24.148C123.001 24.9627 122.264 25.5953 121.293 26.046C120.323 26.4967 119.127 26.722 117.705 26.722ZM112.323 25.24H115.625V31.948C115.487 32 115.27 32.0433 114.975 32.078C114.698 32.13 114.403 32.156 114.091 32.156C113.467 32.156 113.017 32.0433 112.739 31.818C112.462 31.5753 112.323 31.1767 112.323 30.622V25.24ZM142.151 24.096C142.151 25.8987 141.804 27.424 141.111 28.672C140.435 29.9027 139.499 30.83 138.303 31.454C137.124 32.078 135.781 32.39 134.273 32.39C132.782 32.39 131.439 32.078 130.243 31.454C129.064 30.83 128.128 29.9027 127.435 28.672C126.759 27.424 126.421 25.8987 126.421 24.096C126.421 22.2933 126.768 20.7767 127.461 19.546C128.172 18.3153 129.116 17.388 130.295 16.764C131.491 16.1227 132.817 15.802 134.273 15.802C135.764 15.802 137.098 16.1227 138.277 16.764C139.473 17.388 140.418 18.3153 141.111 19.546C141.804 20.7767 142.151 22.2933 142.151 24.096ZM138.797 24.096C138.797 22.276 138.381 20.8893 137.549 19.936C136.734 18.9827 135.642 18.506 134.273 18.506C132.938 18.506 131.855 18.9827 131.023 19.936C130.208 20.8893 129.801 22.276 129.801 24.096C129.801 25.9333 130.208 27.3287 131.023 28.282C131.838 29.2353 132.93 29.712 134.299 29.712C135.668 29.712 136.76 29.2353 137.575 28.282C138.39 27.3287 138.797 25.9333 138.797 24.096ZM152.506 20.118C152.68 20.0313 152.914 19.9533 153.208 19.884C153.52 19.7973 153.832 19.754 154.144 19.754C154.682 19.754 155.124 19.832 155.47 19.988C155.834 20.144 156.051 20.3867 156.12 20.716C156.484 21.8253 156.805 22.848 157.082 23.784C157.377 24.7027 157.654 25.5953 157.914 26.462C158.174 27.3287 158.434 28.23 158.694 29.166H158.798C159.076 27.6753 159.327 26.2453 159.552 24.876C159.795 23.4893 160.02 22.1113 160.228 20.742C160.454 19.3727 160.662 17.9427 160.852 16.452C161.303 16.2093 161.788 16.088 162.308 16.088C162.794 16.088 163.192 16.192 163.504 16.4C163.834 16.608 163.998 16.946 163.998 17.414C163.998 17.778 163.955 18.298 163.868 18.974C163.782 19.65 163.66 20.4387 163.504 21.34C163.366 22.224 163.192 23.1513 162.984 24.122C162.794 25.0753 162.586 26.0287 162.36 26.982C162.152 27.918 161.936 28.7847 161.71 29.582C161.502 30.362 161.294 31.0207 161.086 31.558C160.878 31.714 160.566 31.8527 160.15 31.974C159.752 32.078 159.318 32.13 158.85 32.13C158.278 32.13 157.784 32.052 157.368 31.896C156.97 31.7227 156.718 31.4887 156.614 31.194C156.406 30.6567 156.172 29.9893 155.912 29.192C155.652 28.3947 155.384 27.528 155.106 26.592C154.829 25.6387 154.552 24.6767 154.274 23.706C154.032 24.6593 153.763 25.6387 153.468 26.644C153.191 27.632 152.922 28.5593 152.662 29.426C152.402 30.2753 152.168 30.986 151.96 31.558C151.77 31.714 151.484 31.8527 151.102 31.974C150.721 32.078 150.296 32.13 149.828 32.13C149.274 32.13 148.771 32.0433 148.32 31.87C147.887 31.6967 147.601 31.4713 147.462 31.194C147.289 30.778 147.081 30.1627 146.838 29.348C146.613 28.516 146.37 27.5627 146.11 26.488C145.85 25.396 145.59 24.2693 145.33 23.108C145.088 21.9467 144.862 20.82 144.654 19.728C144.464 18.636 144.308 17.6567 144.186 16.79C144.377 16.6167 144.628 16.4607 144.94 16.322C145.252 16.166 145.59 16.088 145.954 16.088C146.44 16.088 146.83 16.2007 147.124 16.426C147.419 16.634 147.61 16.9893 147.696 17.492C147.956 18.896 148.182 20.1527 148.372 21.262C148.563 22.354 148.736 23.3507 148.892 24.252C149.066 25.1533 149.222 26.0027 149.36 26.8C149.516 27.58 149.69 28.3687 149.88 29.166H149.984C150.192 28.438 150.383 27.7447 150.556 27.086C150.747 26.4273 150.938 25.76 151.128 25.084C151.336 24.408 151.553 23.6713 151.778 22.874C152.004 22.0767 152.246 21.158 152.506 20.118ZM166.989 21.548H170.213V31.818C170.092 31.8527 169.893 31.896 169.615 31.948C169.338 32 169.052 32.026 168.757 32.026C168.22 32.026 167.787 31.87 167.457 31.558C167.145 31.2287 166.989 30.804 166.989 30.284V21.548ZM170.213 26.644L166.989 26.618V17.96C166.989 17.4227 167.145 16.998 167.457 16.686C167.787 16.374 168.22 16.218 168.757 16.218C169.052 16.218 169.338 16.244 169.615 16.296C169.893 16.348 170.092 16.3913 170.213 16.426V26.644ZM168.757 25.24V22.64H176.583C176.67 22.7613 176.748 22.9347 176.817 23.16C176.904 23.3853 176.947 23.628 176.947 23.888C176.947 24.3387 176.843 24.6767 176.635 24.902C176.427 25.1273 176.141 25.24 175.777 25.24H168.757ZM168.757 32.026V29.4H177.493C177.563 29.5213 177.632 29.6947 177.701 29.92C177.788 30.1453 177.831 30.3967 177.831 30.674C177.831 31.1247 177.727 31.4627 177.519 31.688C177.311 31.9133 177.025 32.026 176.661 32.026H168.757ZM168.757 18.87V16.218H177.363C177.45 16.3393 177.528 16.5127 177.597 16.738C177.667 16.9633 177.701 17.206 177.701 17.466C177.701 17.9167 177.597 18.2633 177.389 18.506C177.199 18.7487 176.913 18.87 176.531 18.87H168.757ZM184.281 23.862H186.439C187.462 23.862 188.276 23.6367 188.883 23.186C189.49 22.7353 189.793 22.068 189.793 21.184C189.793 20.3173 189.49 19.6587 188.883 19.208C188.276 18.7573 187.384 18.532 186.205 18.532C185.858 18.532 185.52 18.5493 185.191 18.584C184.862 18.6013 184.558 18.636 184.281 18.688V23.862ZM186.673 26.436H181.005V17.518C181.005 17.206 181.092 16.9633 181.265 16.79C181.456 16.6167 181.698 16.478 181.993 16.374C182.548 16.2007 183.198 16.0707 183.943 15.984C184.706 15.8973 185.477 15.854 186.257 15.854C188.545 15.854 190.252 16.3307 191.379 17.284C192.523 18.22 193.095 19.5113 193.095 21.158C193.095 22.198 192.826 23.1167 192.289 23.914C191.769 24.7113 191.032 25.3353 190.079 25.786C189.126 26.2193 187.99 26.436 186.673 26.436ZM186.231 25.604L189.039 24.798C189.472 25.37 189.914 25.9507 190.365 26.54C190.833 27.112 191.275 27.6753 191.691 28.23C192.124 28.7673 192.506 29.2613 192.835 29.712C193.182 30.1627 193.45 30.5353 193.641 30.83C193.52 31.2633 193.286 31.6013 192.939 31.844C192.61 32.0867 192.246 32.208 191.847 32.208C191.327 32.208 190.92 32.0953 190.625 31.87C190.348 31.6273 190.079 31.3067 189.819 30.908L186.231 25.604ZM181.005 25.292H184.307V31.948C184.168 32 183.952 32.0433 183.657 32.078C183.38 32.13 183.085 32.156 182.773 32.156C182.149 32.156 181.698 32.0433 181.421 31.818C181.144 31.5753 181.005 31.1767 181.005 30.622V25.292Z" fill="#58187B"/>
<path d="M61.9499 44.454L61.8799 43.488H65.1419C65.1699 43.5253 65.1979 43.586 65.2259 43.67C65.2539 43.754 65.2679 43.8427 65.2679 43.936C65.2679 44.0853 65.2306 44.2113 65.1559 44.314C65.0812 44.4073 64.9739 44.454 64.8339 44.454H61.9499ZM61.9779 43.488L62.0479 44.454H58.7719C58.7439 44.4073 58.7159 44.342 58.6879 44.258C58.6599 44.174 58.6459 44.0853 58.6459 43.992C58.6459 43.8333 58.6832 43.712 58.7579 43.628C58.8326 43.5347 58.9399 43.488 59.0799 43.488H61.9779ZM61.3899 44.076H62.5239V51.972C62.4772 51.9907 62.4026 52.0093 62.2999 52.028C62.2066 52.056 62.1086 52.07 62.0059 52.07C61.8006 52.07 61.6466 52.028 61.5439 51.944C61.4412 51.86 61.3899 51.7293 61.3899 51.552V44.076ZM67.2335 46.736V48.948H66.1135V46.82C66.1135 46.6053 66.1508 46.4373 66.2255 46.316C66.3095 46.1853 66.4448 46.0593 66.6315 45.938C66.8741 45.7793 67.2055 45.644 67.6255 45.532C68.0455 45.4107 68.5121 45.35 69.0255 45.35C69.7721 45.35 70.1455 45.5367 70.1455 45.91C70.1455 46.0033 70.1315 46.092 70.1035 46.176C70.0755 46.2507 70.0381 46.316 69.9915 46.372C69.8981 46.3533 69.7768 46.3347 69.6275 46.316C69.4781 46.2973 69.3288 46.288 69.1795 46.288C68.7501 46.288 68.3721 46.3347 68.0455 46.428C67.7188 46.512 67.4481 46.6147 67.2335 46.736ZM66.1135 48.304L67.2335 48.472V51.972C67.1868 51.9907 67.1168 52.0093 67.0235 52.028C66.9301 52.056 66.8275 52.07 66.7155 52.07C66.5195 52.07 66.3701 52.0327 66.2675 51.958C66.1648 51.874 66.1135 51.7433 66.1135 51.566V48.304ZM73.7008 51.272C74.0928 51.272 74.4148 51.2347 74.6668 51.16C74.9282 51.076 75.1148 50.9967 75.2268 50.922V48.892L73.4908 49.074C73.0055 49.1113 72.6462 49.2187 72.4128 49.396C72.1795 49.5733 72.0628 49.83 72.0628 50.166C72.0628 50.5113 72.1982 50.782 72.4688 50.978C72.7488 51.174 73.1595 51.272 73.7008 51.272ZM73.6868 45.35C74.4988 45.35 75.1428 45.532 75.6188 45.896C76.0948 46.26 76.3328 46.834 76.3328 47.618V50.936C76.3328 51.1413 76.2908 51.3 76.2068 51.412C76.1322 51.5147 76.0155 51.6127 75.8568 51.706C75.6328 51.8273 75.3342 51.9393 74.9608 52.042C74.5875 52.1447 74.1675 52.196 73.7008 52.196C72.8235 52.196 72.1422 52.0233 71.6568 51.678C71.1808 51.3327 70.9428 50.8333 70.9428 50.18C70.9428 49.5733 71.1435 49.1113 71.5448 48.794C71.9555 48.4673 72.5202 48.2713 73.2388 48.206L75.2268 48.01V47.618C75.2268 47.1513 75.0868 46.8107 74.8068 46.596C74.5268 46.3813 74.1488 46.274 73.6728 46.274C73.2902 46.274 72.9215 46.33 72.5668 46.442C72.2215 46.554 71.9135 46.68 71.6428 46.82C71.5682 46.7547 71.4982 46.68 71.4328 46.596C71.3768 46.5027 71.3488 46.4093 71.3488 46.316C71.3488 46.0733 71.4842 45.8867 71.7548 45.756C72.0068 45.6253 72.2962 45.5273 72.6228 45.462C72.9588 45.3873 73.3135 45.35 73.6868 45.35ZM78.2791 43.488C78.2791 43.292 78.3491 43.1287 78.4891 42.998C78.6291 42.858 78.8018 42.788 79.0071 42.788C79.2218 42.788 79.3945 42.858 79.5251 42.998C79.6558 43.1287 79.7211 43.292 79.7211 43.488C79.7211 43.684 79.6558 43.852 79.5251 43.992C79.3945 44.1227 79.2218 44.188 79.0071 44.188C78.8018 44.188 78.6291 44.1227 78.4891 43.992C78.3491 43.852 78.2791 43.684 78.2791 43.488ZM78.4471 48.304H79.5671V51.972C79.5205 51.9907 79.4505 52.0093 79.3571 52.028C79.2638 52.056 79.1611 52.07 79.0491 52.07C78.8531 52.07 78.7038 52.0327 78.6011 51.958C78.4985 51.874 78.4471 51.7433 78.4471 51.566V48.304ZM79.5671 48.85H78.4471V45.56C78.4938 45.5413 78.5638 45.5227 78.6571 45.504C78.7598 45.476 78.8671 45.462 78.9791 45.462C79.1751 45.462 79.3198 45.504 79.4131 45.588C79.5158 45.6627 79.5671 45.7933 79.5671 45.98V48.85ZM87.3541 47.73V49.158H86.2341V47.786C86.2341 47.2633 86.0848 46.8807 85.7861 46.638C85.4968 46.3953 85.1048 46.274 84.6101 46.274C84.2368 46.274 83.9054 46.3207 83.6161 46.414C83.3268 46.5073 83.0794 46.6147 82.8741 46.736V49.158H81.7541V46.792C81.7541 46.596 81.7914 46.4373 81.8661 46.316C81.9501 46.1853 82.0901 46.0593 82.2861 45.938C82.5288 45.798 82.8508 45.6673 83.2521 45.546C83.6534 45.4153 84.1061 45.35 84.6101 45.35C85.4594 45.35 86.1268 45.546 86.6121 45.938C87.1068 46.3207 87.3541 46.918 87.3541 47.73ZM81.7541 48.388H82.8741V51.972C82.8274 51.9907 82.7574 52.0093 82.6641 52.028C82.5708 52.056 82.4681 52.07 82.3561 52.07C82.1601 52.07 82.0108 52.0327 81.9081 51.958C81.8054 51.874 81.7541 51.7433 81.7541 51.566V48.388ZM86.2341 48.388H87.3541V51.972C87.3074 51.9907 87.2328 52.0093 87.1301 52.028C87.0368 52.056 86.9388 52.07 86.8361 52.07C86.6308 52.07 86.4768 52.0327 86.3741 51.958C86.2808 51.874 86.2341 51.7433 86.2341 51.566V48.388ZM89.3534 43.488C89.3534 43.292 89.4234 43.1287 89.5634 42.998C89.7034 42.858 89.876 42.788 90.0814 42.788C90.296 42.788 90.4687 42.858 90.5994 42.998C90.73 43.1287 90.7954 43.292 90.7954 43.488C90.7954 43.684 90.73 43.852 90.5994 43.992C90.4687 44.1227 90.296 44.188 90.0814 44.188C89.876 44.188 89.7034 44.1227 89.5634 43.992C89.4234 43.852 89.3534 43.684 89.3534 43.488ZM89.5214 48.304H90.6414V51.972C90.5947 51.9907 90.5247 52.0093 90.4314 52.028C90.338 52.056 90.2354 52.07 90.1234 52.07C89.9274 52.07 89.778 52.0327 89.6754 51.958C89.5727 51.874 89.5214 51.7433 89.5214 51.566V48.304ZM90.6414 48.85H89.5214V45.56C89.568 45.5413 89.638 45.5227 89.7314 45.504C89.834 45.476 89.9414 45.462 90.0534 45.462C90.2494 45.462 90.394 45.504 90.4874 45.588C90.59 45.6627 90.6414 45.7933 90.6414 45.98V48.85ZM98.4283 47.73V49.158H97.3083V47.786C97.3083 47.2633 97.159 46.8807 96.8603 46.638C96.571 46.3953 96.179 46.274 95.6843 46.274C95.311 46.274 94.9797 46.3207 94.6903 46.414C94.401 46.5073 94.1537 46.6147 93.9483 46.736V49.158H92.8283V46.792C92.8283 46.596 92.8657 46.4373 92.9403 46.316C93.0243 46.1853 93.1643 46.0593 93.3603 45.938C93.603 45.798 93.925 45.6673 94.3263 45.546C94.7277 45.4153 95.1803 45.35 95.6843 45.35C96.5337 45.35 97.201 45.546 97.6863 45.938C98.181 46.3207 98.4283 46.918 98.4283 47.73ZM92.8283 48.388H93.9483V51.972C93.9017 51.9907 93.8317 52.0093 93.7383 52.028C93.645 52.056 93.5423 52.07 93.4303 52.07C93.2343 52.07 93.085 52.0327 92.9823 51.958C92.8797 51.874 92.8283 51.7433 92.8283 51.566V48.388ZM97.3083 48.388H98.4283V51.972C98.3817 51.9907 98.307 52.0093 98.2043 52.028C98.111 52.056 98.013 52.07 97.9103 52.07C97.705 52.07 97.551 52.0327 97.4483 51.958C97.355 51.874 97.3083 51.7433 97.3083 51.566V48.388ZM103.214 51.804C102.672 51.804 102.173 51.7013 101.716 51.496C101.258 51.2813 100.89 50.936 100.61 50.46C100.33 49.984 100.19 49.354 100.19 48.57C100.19 47.8607 100.325 47.268 100.596 46.792C100.876 46.316 101.258 45.9567 101.744 45.714C102.229 45.4713 102.784 45.35 103.41 45.35C103.839 45.35 104.231 45.406 104.586 45.518C104.95 45.6207 105.253 45.7513 105.496 45.91C105.636 46.0033 105.748 46.1107 105.832 46.232C105.925 46.344 105.972 46.484 105.972 46.652V50.978H104.852V46.666C104.693 46.5633 104.492 46.4747 104.25 46.4C104.016 46.316 103.736 46.274 103.41 46.274C102.784 46.274 102.28 46.4653 101.898 46.848C101.515 47.2307 101.324 47.8 101.324 48.556C101.324 49.396 101.515 49.9933 101.898 50.348C102.29 50.7027 102.77 50.88 103.34 50.88C103.75 50.88 104.082 50.81 104.334 50.67C104.586 50.53 104.786 50.376 104.936 50.208L104.992 51.202C104.852 51.3513 104.628 51.4913 104.32 51.622C104.021 51.7433 103.652 51.804 103.214 51.804ZM104.852 52.21V50.74H105.972V52.28C105.972 52.896 105.836 53.3907 105.566 53.764C105.304 54.1373 104.94 54.408 104.474 54.576C104.016 54.744 103.498 54.828 102.92 54.828C102.453 54.828 102.052 54.7767 101.716 54.674C101.38 54.5713 101.151 54.4873 101.03 54.422C100.75 54.2633 100.61 54.0627 100.61 53.82C100.61 53.6893 100.638 53.5773 100.694 53.484C100.759 53.4 100.838 53.3347 100.932 53.288C101.128 53.4373 101.403 53.5727 101.758 53.694C102.122 53.8247 102.509 53.89 102.92 53.89C103.545 53.89 104.021 53.7547 104.348 53.484C104.684 53.2133 104.852 52.7887 104.852 52.21ZM115.888 49.788C115.823 49.8347 115.734 49.8767 115.622 49.914C115.519 49.9513 115.403 49.97 115.272 49.97C115.123 49.97 114.987 49.9467 114.866 49.9C114.754 49.8533 114.675 49.7787 114.628 49.676C114.133 48.6307 113.699 47.674 113.326 46.806C112.962 45.938 112.668 45.2193 112.444 44.65H112.388C112.36 45.35 112.327 46.0033 112.29 46.61C112.262 47.2167 112.229 47.8047 112.192 48.374C112.155 48.934 112.117 49.5127 112.08 50.11C112.052 50.698 112.015 51.328 111.968 52C111.912 52.0187 111.837 52.0373 111.744 52.056C111.66 52.0747 111.567 52.084 111.464 52.084C111.259 52.084 111.114 52.042 111.03 51.958C110.946 51.8647 110.904 51.7433 110.904 51.594C110.904 51.482 110.913 51.2253 110.932 50.824C110.96 50.4133 110.988 49.914 111.016 49.326C111.053 48.738 111.095 48.1127 111.142 47.45C111.189 46.778 111.235 46.12 111.282 45.476C111.338 44.8227 111.389 44.2347 111.436 43.712C111.511 43.6467 111.618 43.586 111.758 43.53C111.898 43.474 112.057 43.446 112.234 43.446C112.449 43.446 112.631 43.488 112.78 43.572C112.929 43.656 113.046 43.7867 113.13 43.964C113.373 44.44 113.615 44.958 113.858 45.518C114.101 46.078 114.339 46.638 114.572 47.198C114.805 47.758 115.029 48.2853 115.244 48.78H115.3C115.711 47.7907 116.117 46.8387 116.518 45.924C116.929 45.0093 117.274 44.23 117.554 43.586C117.638 43.5393 117.745 43.5067 117.876 43.488C118.007 43.46 118.128 43.446 118.24 43.446C118.455 43.446 118.623 43.4833 118.744 43.558C118.875 43.6233 118.959 43.7353 118.996 43.894C119.033 44.0527 119.075 44.3233 119.122 44.706C119.169 45.0887 119.215 45.5413 119.262 46.064C119.309 46.5773 119.351 47.1187 119.388 47.688C119.435 48.2573 119.477 48.8173 119.514 49.368C119.551 49.9187 119.584 50.418 119.612 50.866C119.649 51.3047 119.673 51.6547 119.682 51.916C119.598 51.972 119.509 52.014 119.416 52.042C119.323 52.07 119.215 52.084 119.094 52.084C118.954 52.084 118.828 52.0513 118.716 51.986C118.613 51.9113 118.553 51.7807 118.534 51.594C118.478 50.6887 118.422 49.7973 118.366 48.92C118.319 48.0333 118.277 47.2213 118.24 46.484C118.203 45.7467 118.17 45.1447 118.142 44.678H118.086C117.881 45.1913 117.601 45.854 117.246 46.666C116.891 47.4687 116.439 48.5093 115.888 49.788ZM124.082 51.272C124.474 51.272 124.796 51.2347 125.048 51.16C125.309 51.076 125.496 50.9967 125.608 50.922V48.892L123.872 49.074C123.386 49.1113 123.027 49.2187 122.794 49.396C122.56 49.5733 122.444 49.83 122.444 50.166C122.444 50.5113 122.579 50.782 122.85 50.978C123.13 51.174 123.54 51.272 124.082 51.272ZM124.068 45.35C124.88 45.35 125.524 45.532 126 45.896C126.476 46.26 126.714 46.834 126.714 47.618V50.936C126.714 51.1413 126.672 51.3 126.588 51.412C126.513 51.5147 126.396 51.6127 126.238 51.706C126.014 51.8273 125.715 51.9393 125.342 52.042C124.968 52.1447 124.548 52.196 124.082 52.196C123.204 52.196 122.523 52.0233 122.038 51.678C121.562 51.3327 121.324 50.8333 121.324 50.18C121.324 49.5733 121.524 49.1113 121.926 48.794C122.336 48.4673 122.901 48.2713 123.62 48.206L125.608 48.01V47.618C125.608 47.1513 125.468 46.8107 125.188 46.596C124.908 46.3813 124.53 46.274 124.054 46.274C123.671 46.274 123.302 46.33 122.948 46.442C122.602 46.554 122.294 46.68 122.024 46.82C121.949 46.7547 121.879 46.68 121.814 46.596C121.758 46.5027 121.73 46.4093 121.73 46.316C121.73 46.0733 121.865 45.8867 122.136 45.756C122.388 45.6253 122.677 45.5273 123.004 45.462C123.34 45.3873 123.694 45.35 124.068 45.35ZM134.358 47.73V49.158H133.238V47.786C133.238 47.2633 133.089 46.8807 132.79 46.638C132.501 46.3953 132.109 46.274 131.614 46.274C131.241 46.274 130.909 46.3207 130.62 46.414C130.331 46.5073 130.083 46.6147 129.878 46.736V49.158H128.758V46.792C128.758 46.596 128.795 46.4373 128.87 46.316C128.954 46.1853 129.094 46.0593 129.29 45.938C129.533 45.798 129.855 45.6673 130.256 45.546C130.657 45.4153 131.11 45.35 131.614 45.35C132.463 45.35 133.131 45.546 133.616 45.938C134.111 46.3207 134.358 46.918 134.358 47.73ZM128.758 48.388H129.878V51.972C129.831 51.9907 129.761 52.0093 129.668 52.028C129.575 52.056 129.472 52.07 129.36 52.07C129.164 52.07 129.015 52.0327 128.912 51.958C128.809 51.874 128.758 51.7433 128.758 51.566V48.388ZM133.238 48.388H134.358V51.972C134.311 51.9907 134.237 52.0093 134.134 52.028C134.041 52.056 133.943 52.07 133.84 52.07C133.635 52.07 133.481 52.0327 133.378 51.958C133.285 51.874 133.238 51.7433 133.238 51.566V48.388ZM138.765 51.272C139.157 51.272 139.479 51.2347 139.731 51.16C139.993 51.076 140.179 50.9967 140.291 50.922V48.892L138.555 49.074C138.07 49.1113 137.711 49.2187 137.477 49.396C137.244 49.5733 137.127 49.83 137.127 50.166C137.127 50.5113 137.263 50.782 137.533 50.978C137.813 51.174 138.224 51.272 138.765 51.272ZM138.751 45.35C139.563 45.35 140.207 45.532 140.683 45.896C141.159 46.26 141.397 46.834 141.397 47.618V50.936C141.397 51.1413 141.355 51.3 141.271 51.412C141.197 51.5147 141.08 51.6127 140.921 51.706C140.697 51.8273 140.399 51.9393 140.025 52.042C139.652 52.1447 139.232 52.196 138.765 52.196C137.888 52.196 137.207 52.0233 136.721 51.678C136.245 51.3327 136.007 50.8333 136.007 50.18C136.007 49.5733 136.208 49.1113 136.609 48.794C137.02 48.4673 137.585 48.2713 138.303 48.206L140.291 48.01V47.618C140.291 47.1513 140.151 46.8107 139.871 46.596C139.591 46.3813 139.213 46.274 138.737 46.274C138.355 46.274 137.986 46.33 137.631 46.442C137.286 46.554 136.978 46.68 136.707 46.82C136.633 46.7547 136.563 46.68 136.497 46.596C136.441 46.5027 136.413 46.4093 136.413 46.316C136.413 46.0733 136.549 45.8867 136.819 45.756C137.071 45.6253 137.361 45.5273 137.687 45.462C138.023 45.3873 138.378 45.35 138.751 45.35ZM146.13 51.804C145.588 51.804 145.089 51.7013 144.632 51.496C144.174 51.2813 143.806 50.936 143.526 50.46C143.246 49.984 143.106 49.354 143.106 48.57C143.106 47.8607 143.241 47.268 143.512 46.792C143.792 46.316 144.174 45.9567 144.66 45.714C145.145 45.4713 145.7 45.35 146.326 45.35C146.755 45.35 147.147 45.406 147.502 45.518C147.866 45.6207 148.169 45.7513 148.412 45.91C148.552 46.0033 148.664 46.1107 148.748 46.232C148.841 46.344 148.888 46.484 148.888 46.652V50.978H147.768V46.666C147.609 46.5633 147.408 46.4747 147.166 46.4C146.932 46.316 146.652 46.274 146.326 46.274C145.7 46.274 145.196 46.4653 144.814 46.848C144.431 47.2307 144.24 47.8 144.24 48.556C144.24 49.396 144.431 49.9933 144.814 50.348C145.206 50.7027 145.686 50.88 146.256 50.88C146.666 50.88 146.998 50.81 147.25 50.67C147.502 50.53 147.702 50.376 147.852 50.208L147.908 51.202C147.768 51.3513 147.544 51.4913 147.236 51.622C146.937 51.7433 146.568 51.804 146.13 51.804ZM147.768 52.21V50.74H148.888V52.28C148.888 52.896 148.752 53.3907 148.482 53.764C148.22 54.1373 147.856 54.408 147.39 54.576C146.932 54.744 146.414 54.828 145.836 54.828C145.369 54.828 144.968 54.7767 144.632 54.674C144.296 54.5713 144.067 54.4873 143.946 54.422C143.666 54.2633 143.526 54.0627 143.526 53.82C143.526 53.6893 143.554 53.5773 143.61 53.484C143.675 53.4 143.754 53.3347 143.848 53.288C144.044 53.4373 144.319 53.5727 144.674 53.694C145.038 53.8247 145.425 53.89 145.836 53.89C146.461 53.89 146.937 53.7547 147.264 53.484C147.6 53.2133 147.768 52.7887 147.768 52.21ZM151.367 49.48L151.311 48.598L155.539 48.024C155.502 47.5107 155.324 47.0907 155.007 46.764C154.69 46.428 154.251 46.26 153.691 46.26C153.112 46.26 152.632 46.47 152.249 46.89C151.876 47.3007 151.689 47.8933 151.689 48.668V48.976C151.754 49.7227 151.997 50.292 152.417 50.684C152.846 51.0667 153.43 51.258 154.167 51.258C154.559 51.258 154.914 51.1927 155.231 51.062C155.548 50.9313 155.8 50.7913 155.987 50.642C156.09 50.7073 156.169 50.7867 156.225 50.88C156.29 50.964 156.323 51.062 156.323 51.174C156.323 51.3513 156.22 51.5193 156.015 51.678C155.819 51.8273 155.553 51.9487 155.217 52.042C154.89 52.1353 154.522 52.182 154.111 52.182C153.392 52.182 152.767 52.0513 152.235 51.79C151.712 51.5287 151.306 51.1413 151.017 50.628C150.737 50.1053 150.597 49.4707 150.597 48.724C150.597 48.192 150.672 47.7207 150.821 47.31C150.98 46.89 151.194 46.5353 151.465 46.246C151.745 45.9567 152.076 45.7373 152.459 45.588C152.842 45.4293 153.257 45.35 153.705 45.35C154.274 45.35 154.774 45.4713 155.203 45.714C155.642 45.9567 155.982 46.2973 156.225 46.736C156.477 47.1653 156.603 47.66 156.603 48.22C156.603 48.4253 156.556 48.5747 156.463 48.668C156.37 48.752 156.239 48.8033 156.071 48.822L151.367 49.48ZM163.443 47.52V49.13H162.323V47.604C162.323 47.1467 162.188 46.8107 161.917 46.596C161.656 46.3813 161.306 46.274 160.867 46.274C160.578 46.274 160.298 46.3207 160.027 46.414C159.756 46.5073 159.528 46.6147 159.341 46.736V49.13H158.221V46.792C158.221 46.6053 158.258 46.4467 158.333 46.316C158.417 46.1853 158.557 46.0593 158.753 45.938C159.005 45.7793 159.322 45.644 159.705 45.532C160.097 45.4107 160.489 45.35 160.881 45.35C161.357 45.35 161.777 45.4247 162.141 45.574C162.505 45.714 162.776 45.91 162.953 46.162C163.009 46.218 163.056 46.2693 163.093 46.316C163.13 46.3627 163.168 46.4233 163.205 46.498C163.27 46.61 163.326 46.7547 163.373 46.932C163.42 47.1093 163.443 47.3053 163.443 47.52ZM167.545 47.548V49.13H166.425V47.604C166.425 47.1467 166.294 46.8107 166.033 46.596C165.772 46.3813 165.422 46.274 164.983 46.274C164.656 46.274 164.339 46.344 164.031 46.484C163.732 46.6147 163.462 46.806 163.219 47.058L162.771 46.246C163.014 46.0033 163.331 45.7933 163.723 45.616C164.115 45.4387 164.563 45.35 165.067 45.35C165.571 45.35 166.005 45.4293 166.369 45.588C166.742 45.7467 167.032 45.9893 167.237 46.316C167.442 46.6427 167.545 47.0533 167.545 47.548ZM158.221 48.388H159.341V51.972C159.294 51.9907 159.224 52.0093 159.131 52.028C159.038 52.056 158.935 52.07 158.823 52.07C158.627 52.07 158.478 52.0327 158.375 51.958C158.272 51.874 158.221 51.7433 158.221 51.566V48.388ZM162.323 48.388H163.443V51.972C163.396 51.9907 163.322 52.0093 163.219 52.028C163.126 52.056 163.028 52.07 162.925 52.07C162.72 52.07 162.566 52.0327 162.463 51.958C162.37 51.874 162.323 51.7433 162.323 51.566V48.388ZM166.425 48.388H167.545V51.972C167.498 51.9907 167.424 52.0093 167.321 52.028C167.228 52.056 167.13 52.07 167.027 52.07C166.822 52.07 166.668 52.0327 166.565 51.958C166.472 51.874 166.425 51.7433 166.425 51.566V48.388ZM170.057 49.48L170.001 48.598L174.229 48.024C174.191 47.5107 174.014 47.0907 173.697 46.764C173.379 46.428 172.941 46.26 172.381 46.26C171.802 46.26 171.321 46.47 170.939 46.89C170.565 47.3007 170.379 47.8933 170.379 48.668V48.976C170.444 49.7227 170.687 50.292 171.107 50.684C171.536 51.0667 172.119 51.258 172.857 51.258C173.249 51.258 173.603 51.1927 173.921 51.062C174.238 50.9313 174.49 50.7913 174.677 50.642C174.779 50.7073 174.859 50.7867 174.915 50.88C174.98 50.964 175.013 51.062 175.013 51.174C175.013 51.3513 174.91 51.5193 174.705 51.678C174.509 51.8273 174.243 51.9487 173.907 52.042C173.58 52.1353 173.211 52.182 172.801 52.182C172.082 52.182 171.457 52.0513 170.925 51.79C170.402 51.5287 169.996 51.1413 169.707 50.628C169.427 50.1053 169.287 49.4707 169.287 48.724C169.287 48.192 169.361 47.7207 169.511 47.31C169.669 46.89 169.884 46.5353 170.155 46.246C170.435 45.9567 170.766 45.7373 171.149 45.588C171.531 45.4293 171.947 45.35 172.395 45.35C172.964 45.35 173.463 45.4713 173.893 45.714C174.331 45.9567 174.672 46.2973 174.915 46.736C175.167 47.1653 175.293 47.66 175.293 48.22C175.293 48.4253 175.246 48.5747 175.153 48.668C175.059 48.752 174.929 48.8033 174.761 48.822L170.057 49.48ZM182.51 47.73V49.158H181.39V47.786C181.39 47.2633 181.241 46.8807 180.942 46.638C180.653 46.3953 180.261 46.274 179.766 46.274C179.393 46.274 179.062 46.3207 178.772 46.414C178.483 46.5073 178.236 46.6147 178.03 46.736V49.158H176.91V46.792C176.91 46.596 176.948 46.4373 177.022 46.316C177.106 46.1853 177.246 46.0593 177.442 45.938C177.685 45.798 178.007 45.6673 178.408 45.546C178.81 45.4153 179.262 45.35 179.766 45.35C180.616 45.35 181.283 45.546 181.768 45.938C182.263 46.3207 182.51 46.918 182.51 47.73ZM176.91 48.388H178.03V51.972C177.984 51.9907 177.914 52.0093 177.82 52.028C177.727 52.056 177.624 52.07 177.512 52.07C177.316 52.07 177.167 52.0327 177.064 51.958C176.962 51.874 176.91 51.7433 176.91 51.566V48.388ZM181.39 48.388H182.51V51.972C182.464 51.9907 182.389 52.0093 182.286 52.028C182.193 52.056 182.095 52.07 181.992 52.07C181.787 52.07 181.633 52.0327 181.53 51.958C181.437 51.874 181.39 51.7433 181.39 51.566V48.388ZM184.622 48.304H185.742V50.236C185.742 50.6093 185.849 50.8753 186.064 51.034C186.278 51.1833 186.572 51.258 186.946 51.258C187.104 51.258 187.282 51.23 187.478 51.174C187.674 51.118 187.837 51.0527 187.968 50.978C188.024 51.034 188.075 51.104 188.122 51.188C188.168 51.272 188.192 51.37 188.192 51.482C188.192 51.6873 188.07 51.8553 187.828 51.986C187.585 52.1167 187.249 52.182 186.82 52.182C186.166 52.182 185.634 52.0373 185.224 51.748C184.822 51.4587 184.622 50.978 184.622 50.306V48.304ZM185.196 46.596V45.672H188.038C188.066 45.7093 188.094 45.77 188.122 45.854C188.15 45.938 188.164 46.0267 188.164 46.12C188.164 46.2693 188.126 46.386 188.052 46.47C187.977 46.554 187.874 46.596 187.744 46.596H185.196ZM185.742 48.724H184.622V43.656C184.668 43.6373 184.738 43.6187 184.832 43.6C184.934 43.572 185.042 43.558 185.154 43.558C185.35 43.558 185.494 43.6 185.588 43.684C185.69 43.7587 185.742 43.8847 185.742 44.062V48.724ZM195.167 51.23C195.793 51.23 196.264 51.09 196.581 50.81C196.908 50.5207 197.071 50.152 197.071 49.704C197.071 49.3213 196.945 49.0087 196.693 48.766C196.451 48.514 196.063 48.3087 195.531 48.15L194.313 47.786C193.921 47.6647 193.581 47.5107 193.291 47.324C193.002 47.128 192.778 46.89 192.619 46.61C192.47 46.3207 192.395 45.9847 192.395 45.602C192.395 44.8833 192.657 44.3233 193.179 43.922C193.702 43.5113 194.397 43.306 195.265 43.306C195.769 43.306 196.217 43.362 196.609 43.474C197.011 43.5767 197.323 43.712 197.547 43.88C197.781 44.048 197.897 44.2253 197.897 44.412C197.897 44.5333 197.865 44.6453 197.799 44.748C197.734 44.8413 197.65 44.916 197.547 44.972C197.314 44.7853 196.997 44.622 196.595 44.482C196.203 44.342 195.774 44.272 195.307 44.272C194.766 44.272 194.337 44.3933 194.019 44.636C193.702 44.8693 193.543 45.1913 193.543 45.602C193.543 45.9287 193.655 46.1947 193.879 46.4C194.113 46.6053 194.486 46.7827 194.999 46.932L195.853 47.184C196.591 47.3893 197.169 47.688 197.589 48.08C198.019 48.472 198.233 49.0133 198.233 49.704C198.233 50.4413 197.963 51.0387 197.421 51.496C196.889 51.9533 196.138 52.182 195.167 52.182C194.598 52.182 194.099 52.1213 193.669 52C193.249 51.8693 192.918 51.7107 192.675 51.524C192.442 51.328 192.325 51.1367 192.325 50.95C192.325 50.7913 192.372 50.6607 192.465 50.558C192.568 50.446 192.685 50.3667 192.815 50.32C193.03 50.5253 193.333 50.7307 193.725 50.936C194.117 51.132 194.598 51.23 195.167 51.23ZM201.017 50.558C200.859 50.2593 200.667 49.858 200.443 49.354C200.219 48.8407 199.986 48.2713 199.743 47.646C199.51 47.0113 199.286 46.3673 199.071 45.714C199.137 45.6207 199.221 45.546 199.323 45.49C199.435 45.434 199.552 45.406 199.673 45.406C199.832 45.406 199.963 45.448 200.065 45.532C200.168 45.616 200.252 45.756 200.317 45.952C200.597 46.736 200.891 47.5153 201.199 48.29C201.507 49.0647 201.848 49.8673 202.221 50.698H202.277C202.473 50.306 202.679 49.816 202.893 49.228C203.108 48.64 203.313 48.0193 203.509 47.366C203.705 46.7127 203.869 46.0967 203.999 45.518C204.065 45.49 204.135 45.4667 204.209 45.448C204.293 45.42 204.382 45.406 204.475 45.406C204.634 45.406 204.765 45.448 204.867 45.532C204.97 45.6067 205.021 45.7233 205.021 45.882C205.021 46.0313 204.979 46.2833 204.895 46.638C204.811 46.9833 204.695 47.3893 204.545 47.856C204.405 48.3133 204.237 48.8033 204.041 49.326C203.855 49.8393 203.649 50.348 203.425 50.852C203.211 51.3467 202.991 51.7947 202.767 52.196C202.338 52.9893 201.946 53.596 201.591 54.016C201.237 54.4453 200.91 54.66 200.611 54.66C200.397 54.66 200.229 54.604 200.107 54.492C199.995 54.38 199.925 54.2493 199.897 54.1C200.103 53.9227 200.331 53.6847 200.583 53.386C200.845 53.0967 201.092 52.7793 201.325 52.434C201.568 52.098 201.764 51.776 201.913 51.468C201.755 51.4213 201.605 51.3373 201.465 51.216C201.335 51.0947 201.185 50.8753 201.017 50.558ZM211.115 50.278C211.115 50.8753 210.896 51.342 210.457 51.678C210.018 52.014 209.384 52.182 208.553 52.182C207.844 52.182 207.265 52.0747 206.817 51.86C206.369 51.636 206.145 51.3933 206.145 51.132C206.145 51.02 206.173 50.9127 206.229 50.81C206.294 50.698 206.388 50.6093 206.509 50.544C206.761 50.7213 207.055 50.8847 207.391 51.034C207.727 51.1833 208.11 51.258 208.539 51.258C209.51 51.258 209.995 50.9313 209.995 50.278C209.995 50.0073 209.911 49.788 209.743 49.62C209.584 49.4427 209.346 49.3167 209.029 49.242L207.867 48.934C207.298 48.794 206.882 48.5793 206.621 48.29C206.36 47.9913 206.229 47.6227 206.229 47.184C206.229 46.6893 206.43 46.26 206.831 45.896C207.232 45.532 207.844 45.35 208.665 45.35C209.104 45.35 209.486 45.3967 209.813 45.49C210.14 45.574 210.392 45.6907 210.569 45.84C210.756 45.98 210.849 46.134 210.849 46.302C210.849 46.4233 210.816 46.5307 210.751 46.624C210.695 46.7173 210.616 46.7873 210.513 46.834C210.401 46.7593 210.256 46.68 210.079 46.596C209.911 46.5027 209.71 46.428 209.477 46.372C209.244 46.3067 208.987 46.274 208.707 46.274C208.296 46.274 207.965 46.3533 207.713 46.512C207.461 46.6707 207.335 46.8947 207.335 47.184C207.335 47.3893 207.405 47.5713 207.545 47.73C207.694 47.8793 207.928 47.9913 208.245 48.066L209.211 48.304C209.846 48.4533 210.322 48.6913 210.639 49.018C210.956 49.3353 211.115 49.7553 211.115 50.278ZM212.827 48.304H213.947V50.236C213.947 50.6093 214.054 50.8753 214.269 51.034C214.483 51.1833 214.777 51.258 215.151 51.258C215.309 51.258 215.487 51.23 215.683 51.174C215.879 51.118 216.042 51.0527 216.173 50.978C216.229 51.034 216.28 51.104 216.327 51.188C216.373 51.272 216.397 51.37 216.397 51.482C216.397 51.6873 216.275 51.8553 216.033 51.986C215.79 52.1167 215.454 52.182 215.025 52.182C214.371 52.182 213.839 52.0373 213.429 51.748C213.027 51.4587 212.827 50.978 212.827 50.306V48.304ZM213.401 46.596V45.672H216.243C216.271 45.7093 216.299 45.77 216.327 45.854C216.355 45.938 216.369 46.0267 216.369 46.12C216.369 46.2693 216.331 46.386 216.257 46.47C216.182 46.554 216.079 46.596 215.949 46.596H213.401ZM213.947 48.724H212.827V43.656C212.873 43.6373 212.943 43.6187 213.037 43.6C213.139 43.572 213.247 43.558 213.359 43.558C213.555 43.558 213.699 43.6 213.793 43.684C213.895 43.7587 213.947 43.8847 213.947 44.062V48.724ZM218.223 49.48L218.167 48.598L222.395 48.024C222.357 47.5107 222.18 47.0907 221.863 46.764C221.545 46.428 221.107 46.26 220.547 46.26C219.968 46.26 219.487 46.47 219.105 46.89C218.731 47.3007 218.545 47.8933 218.545 48.668V48.976C218.61 49.7227 218.853 50.292 219.273 50.684C219.702 51.0667 220.285 51.258 221.023 51.258C221.415 51.258 221.769 51.1927 222.087 51.062C222.404 50.9313 222.656 50.7913 222.843 50.642C222.945 50.7073 223.025 50.7867 223.081 50.88C223.146 50.964 223.179 51.062 223.179 51.174C223.179 51.3513 223.076 51.5193 222.871 51.678C222.675 51.8273 222.409 51.9487 222.073 52.042C221.746 52.1353 221.377 52.182 220.967 52.182C220.248 52.182 219.623 52.0513 219.091 51.79C218.568 51.5287 218.162 51.1413 217.873 50.628C217.593 50.1053 217.453 49.4707 217.453 48.724C217.453 48.192 217.527 47.7207 217.677 47.31C217.835 46.89 218.05 46.5353 218.321 46.246C218.601 45.9567 218.932 45.7373 219.315 45.588C219.697 45.4293 220.113 45.35 220.561 45.35C221.13 45.35 221.629 45.4713 222.059 45.714C222.497 45.9567 222.838 46.2973 223.081 46.736C223.333 47.1653 223.459 47.66 223.459 48.22C223.459 48.4253 223.412 48.5747 223.319 48.668C223.225 48.752 223.095 48.8033 222.927 48.822L218.223 49.48ZM230.298 47.52V49.13H229.178V47.604C229.178 47.1467 229.043 46.8107 228.772 46.596C228.511 46.3813 228.161 46.274 227.722 46.274C227.433 46.274 227.153 46.3207 226.882 46.414C226.612 46.5073 226.383 46.6147 226.196 46.736V49.13H225.076V46.792C225.076 46.6053 225.114 46.4467 225.188 46.316C225.272 46.1853 225.412 46.0593 225.608 45.938C225.86 45.7793 226.178 45.644 226.56 45.532C226.952 45.4107 227.344 45.35 227.736 45.35C228.212 45.35 228.632 45.4247 228.996 45.574C229.36 45.714 229.631 45.91 229.808 46.162C229.864 46.218 229.911 46.2693 229.948 46.316C229.986 46.3627 230.023 46.4233 230.06 46.498C230.126 46.61 230.182 46.7547 230.228 46.932C230.275 47.1093 230.298 47.3053 230.298 47.52ZM234.4 47.548V49.13H233.28V47.604C233.28 47.1467 233.15 46.8107 232.888 46.596C232.627 46.3813 232.277 46.274 231.838 46.274C231.512 46.274 231.194 46.344 230.886 46.484C230.588 46.6147 230.317 46.806 230.074 47.058L229.626 46.246C229.869 46.0033 230.186 45.7933 230.578 45.616C230.97 45.4387 231.418 45.35 231.922 45.35C232.426 45.35 232.86 45.4293 233.224 45.588C233.598 45.7467 233.887 45.9893 234.092 46.316C234.298 46.6427 234.4 47.0533 234.4 47.548ZM225.076 48.388H226.196V51.972C226.15 51.9907 226.08 52.0093 225.986 52.028C225.893 52.056 225.79 52.07 225.678 52.07C225.482 52.07 225.333 52.0327 225.23 51.958C225.128 51.874 225.076 51.7433 225.076 51.566V48.388ZM229.178 48.388H230.298V51.972C230.252 51.9907 230.177 52.0093 230.074 52.028C229.981 52.056 229.883 52.07 229.78 52.07C229.575 52.07 229.421 52.0327 229.318 51.958C229.225 51.874 229.178 51.7433 229.178 51.566V48.388ZM233.28 48.388H234.4V51.972C234.354 51.9907 234.279 52.0093 234.176 52.028C234.083 52.056 233.985 52.07 233.882 52.07C233.677 52.07 233.523 52.0327 233.42 51.958C233.327 51.874 233.28 51.7433 233.28 51.566V48.388Z" fill="#0A0A0A"/>
</svg>
