<?xml version="1.0" encoding="utf-8"?>
<!-- Generator: Adobe Illustrator 26.0.3, SVG Export Plug-In . SVG Version: 6.00 Build 0)  -->
<svg version="1.1" id="Layer_1" xmlns="http://www.w3.org/2000/svg" xmlns:xlink="http://www.w3.org/1999/xlink" x="0px" y="0px"
	 viewBox="0 0 500 500" style="enable-background:new 0 0 500 500;" xml:space="preserve">
<style type="text/css">
	.st0{fill:#E0E0E0;}
	.st1{fill:#F5F5F5;}
	.st2{fill:#EBEBEB;}
	.st3{fill:#FAFAFA;}
	.st4{fill:#FFFFFF;}
	.st5{fill:#263238;}
	.st6{fill:#455A64;}
	.st7{fill:#FFBF9D;}
	.st8{fill:#FF9A6C;}
	.st9{fill:#407BFF;}
	.st10{opacity:0.3;}
</style>
<g id="freepik--background-complete--inject-134">
	<path class="st0" d="M356.7,225.4c0,0,0-0.1,0-0.2v-0.6c0-0.5,0-1.3,0-2.3c0-2,0-4.8-0.1-8.4l0.1,0.1l-43.4,0.1
		c0.1-0.1-0.2,0.2,0.2-0.2l0,0v5.8c0,1.9,0,3.8,0,5.6l-0.2-0.2l30.9,0.1l9.1,0.1h2.5h0.6C356.6,225.3,356.7,225.3,356.7,225.4
		l-0.1-0.1H356h-2.4l-9.2,0.2l-31.1,0.1h-0.2v-0.2c0-1.8,0-3.7,0-5.6v-5.8l0,0l0.2-0.2l43.4,0.1h0.2v0.1c0,3.6-0.1,6.5-0.1,8.5
		c0,1,0,1.7,0,2.2c0,0.2,0,0.4,0,0.6C356.8,225.3,356.7,225.3,356.7,225.4z"/>
	<path class="st0" d="M440.2,105.3c0-0.1,0-0.1,0-0.2c0-0.2,0-0.3,0-0.6c0-0.5,0-1.3,0-2.3c0-2,0-4.8-0.1-8.4l0.1,0.1L396.9,94
		c0.1-0.1-0.2,0.2,0.2-0.2l0,0v11.5l-0.2-0.2l30.9,0.1l9.1,0.1h2.5h0.6L440.2,105.3c0,0-0.1,0-0.1-0.1h-0.6H437l-9.1,0.1l-31.1,0.1
		h-0.2V93.8l0,0c0.4-0.4,0.1-0.1,0.2-0.2l43.4,0.1h0.1v0.1c0,3.6-0.1,6.5-0.1,8.5c0,1,0,1.7,0,2.2c0,0.2,0,0.4,0,0.6
		C440.3,105.2,440.3,105.2,440.2,105.3z"/>
	<path class="st0" d="M489.7,277.3c0-0.1,0-0.1,0-0.2v-0.6c0-0.5,0-1.3,0-2.3c0-2,0-4.8-0.1-8.4l0.1,0.1l-43.4,0.1l0.2-0.2l0,0v11.5
		l-0.2-0.2l30.9,0.1l9.1,0.1h2.5h0.6L489.7,277.3c0.1-0.1,0-0.1-0.1-0.1h-0.6h-2.4l-9.1,0.1l-31.1,0.1h-0.2v-11.5l0,0l0.2-0.2
		l43.4,0.1h0.1v0.1c0,3.6-0.1,6.5-0.1,8.5c0,1,0,1.7,0,2.2v0.6C489.7,277.2,489.7,277.2,489.7,277.3z"/>
	<path class="st0" d="M495.6,265.8c0-0.1,0-0.1,0-0.2c0-0.2,0-0.4,0-0.6c0-0.6,0-1.3,0-2.3c0-2,0-4.9-0.1-8.4l0.2,0.2l-26.1,0.1
		c-0.2,0.2,0.3-0.3,0.2-0.2l0,0v5.9c0,1.9,0,3.8,0,5.6l-0.2-0.2l18.7,0.1l5.4,0.1h1.5L495.6,265.8c-0.1,0-0.2,0-0.4-0.1h-1.4
		l-5.4,0.1l-18.8,0.1h-0.3v-0.2c0-1.8,0-3.6,0-5.6v-5.9l0,0c-0.1,0.1,0.4-0.4,0.2-0.2l26.1,0.1h0.2v0.2c0,3.6-0.1,6.4-0.1,8.5
		c0,1,0,1.7,0,2.3C495.7,265.3,495.6,265.5,495.6,265.8z"/>
	<path class="st1" d="M196.7,406.3l-9.8,4.2l0.7-58.2c0.3-7-2.9-9.9-4.6-11.9c-15.8-18-39.4-4.9-39.6,13.3l-0.6,52l-9.6-0.1
		l0.9-54.4c0.1-6.1,4.8-16.8,9.6-20.6c26.6-21.1,53.8,0.7,53.5,23.7L196.7,406.3z"/>
	<path class="st0" d="M196.7,406.3v-1c0-0.7,0-1.7,0-3c0-2.7,0.1-6.6,0.1-11.6c0-5,0.1-11.2,0.2-18.3c0-3.6,0.1-7.4,0.1-11.4
		c0-4,0.4-8.3-0.5-12.7c-0.8-4.6-2.7-9-5.5-12.8c-0.4-0.5-0.7-1-1.1-1.5c-0.4-0.5-0.8-0.9-1.2-1.4c-0.8-0.9-1.7-1.8-2.7-2.6
		c-0.5-0.4-1-0.8-1.5-1.2c-0.5-0.4-1-0.8-1.6-1.1c-1.1-0.7-2.2-1.4-3.4-1.9c-2.4-1.2-4.9-2.1-7.5-2.7l-2-0.3l-1-0.2l-1-0.1l-2.1-0.1
		c-0.7,0-1.4,0-2.1,0.1c-5.8,0.3-11.4,2.1-16.1,5.4c-5,3.4-9,8.2-11.4,13.8c-1.2,2.9-2,5.9-2.3,9c-0.3,3.1-0.2,6.3-0.3,9.6
		c-0.1,12.9-0.3,26.3-0.4,40c0,1.8,0,3.6-0.1,5.5l-0.2-0.2l9.6,0.1l-0.2,0.2c0.1-10.4,0.2-20.5,0.3-30.3c0.1-4.9,0.1-9.8,0.2-14.5
		c0-2.4,0-4.7,0.1-7.1c0.1-2.3,0.4-4.7,1.2-6.9c1.5-4.3,4.2-8.1,7.9-10.9c0.4-0.3,0.9-0.7,1.4-1l1.4-0.9c1-0.5,2-1,3-1.3
		c1-0.4,2.1-0.7,3.1-0.9c0.5-0.1,1.1-0.2,1.6-0.2l0.8-0.1h0.8c2.1-0.1,4.2,0.1,6.2,0.5c2,0.5,3.9,1.2,5.7,2.2
		c5.1,2.9,9,7.6,10.7,13.2c0.5,1.7,0.8,3.5,0.9,5.4c0,0.4,0,0.9,0,1.3c0,0.4,0,0.9,0,1.3c0,0.9,0,1.7,0,2.6c0,1.7,0,3.4-0.1,5
		c-0.1,6.6-0.2,12.6-0.2,18c-0.2,10.9-0.3,19.4-0.3,25l-0.1-0.1l7.2,0.1h1.8h0.6h-2.3l-7.2,0h-0.1v-0.1c0-5.7,0.1-14.2,0.2-25
		c0.1-5.4,0.1-11.5,0.2-18.1c0-1.6,0-3.3,0.1-5c0-0.9,0-1.7,0-2.6c0-0.4,0-0.9,0-1.3l-0.1-1.3c-0.1-3.7-1.2-7.2-3.1-10.3
		c-2-3.3-4.9-6.1-8.3-8c-1.8-1-3.7-1.7-5.6-2.1c-2-0.5-4.1-0.6-6.2-0.5h-0.8l-0.8,0.1c-0.5,0.1-1.1,0.1-1.6,0.2
		c-2.1,0.4-4.1,1.2-6,2.2l-1.4,0.8c-0.5,0.3-0.9,0.6-1.3,0.9c-3.6,2.7-6.3,6.4-7.8,10.7c-0.7,2.2-1.1,4.5-1.1,6.8
		c0,2.3,0,4.7-0.1,7.1c-0.1,4.8-0.1,9.6-0.2,14.5c-0.1,9.8-0.2,20-0.3,30.3v0.2h-0.2l-9.6-0.1H133v-0.2c0-1.8,0-3.6,0.1-5.5
		c0.2-13.7,0.3-27.1,0.5-40c0.1-3.2,0-6.4,0.3-9.6c0.4-3.1,1.2-6.2,2.4-9.1c1.2-2.8,2.9-5.4,4.8-7.8c2-2.3,4.2-4.3,6.7-6.1
		c4.8-3.3,10.5-5.2,16.3-5.4c0.7,0,1.4-0.1,2.1-0.1l2.4,0.1l1.3,0.2l2,0.3l0.9,0.2c2.5,0.6,4.9,1.5,7.1,2.6c1.2,0.6,2.3,1.2,3.4,2
		c0.6,0.3,1,0.8,1.6,1.2s1,0.8,1.5,1.2c0.9,0.8,1.8,1.7,2.7,2.7l1.2,1.4c0.4,0.5,0.7,1,1.1,1.5c2.8,3.8,4.7,8.2,5.5,12.9
		c0.8,4.5,0.4,8.8,0.4,12.8c0,4-0.1,7.9-0.2,11.4c-0.1,7.1-0.2,13.3-0.3,18.3s-0.1,8.9-0.2,11.5c0,1.3,0,2.3-0.1,3
		C196.6,406,196.7,406.3,196.7,406.3z"/>
	<path class="st0" d="M122.3,371.6l86.6,1c1.8,0,3.3,1.5,3.3,3.4l-0.8,66.9c0,1.7-1.4,3-3.1,3l-86.8-1l0,0L122.3,371.6L122.3,371.6z
		"/>
	<path class="st2" d="M122.3,371.4l76.1,0.8c2,0,3.6,1.7,3.6,3.7l-0.7,65.1c0,2.5-2,4.4-4.5,4.4l-75.2-0.8c-2.1,0-3.7-1.7-3.7-3.8
		l0,0l0.7-65.9C118.7,373,120.3,371.4,122.3,371.4z"/>
	<path class="st0" d="M171.1,402.3c0.1-5.6-4.5-10.3-10.1-10.3c-0.1,0-0.2,0-0.3,0c-5.5,0.2-9.9,4.6-10,10c-0.1,4.6,2.9,8.7,7.3,10
		l-6.8,14l17.6,0.5l-5.2-14.5C168,410.8,171.1,406.9,171.1,402.3z"/>
	<path class="st3" d="M200.9,438.9c-0.1,0,0-12.8,0.2-28.5s0.5-28.5,0.7-28.5s0,12.8-0.2,28.5C201.3,426.1,201,438.9,200.9,438.9z"
		/>
	<path class="st4" d="M182.3,374.5c0,0.1-11.2,0.2-25.1,0.3s-25.1-0.1-25.1-0.2s11.2-0.2,25.1-0.3S182.3,374.4,182.3,374.5z"/>
	<path class="st4" d="M150.3,407.6c-0.2-0.2-0.3-0.4-0.4-0.6c-0.3-0.6-0.6-1.3-0.8-1.9c-1.3-4.6,0.4-9.5,4.2-12.4
		c0.6-0.4,1.2-0.8,1.8-1.1c0.2-0.1,0.5-0.2,0.7-0.2c0,0.1-1,0.5-2.3,1.6c-3.6,2.9-5.2,7.6-4.1,12
		C149.8,406.7,150.4,407.6,150.3,407.6z"/>
	<path class="st4" d="M154.3,412.5c-0.1,0.1-0.7-0.2-1.3-0.6s-1.2-0.8-1.1-1c0.1-0.1,0.7,0.2,1.3,0.6S154.3,412.4,154.3,412.5z"/>
	<path class="st4" d="M162.8,324.7c-0.6,0.1-1.1,0.2-1.7,0.2c-1.6,0.2-3.1,0.5-4.6,1c-10.2,3-17.8,11.6-19.5,22.1
		c-0.3,1.6-0.4,3.1-0.4,4.7c0,1.1,0,1.7,0,1.7c0-0.1-0.1-0.3-0.1-0.4c0-0.3-0.1-0.7-0.1-1.3c-0.1-1.6,0-3.2,0.3-4.7
		c1.5-10.7,9.3-19.5,19.7-22.3c1.5-0.4,3.1-0.7,4.7-0.9c0.6-0.1,1-0.1,1.3-0.1C162.5,324.7,162.7,324.7,162.8,324.7z"/>
	<path class="st4" d="M136.1,362.3c-0.2-0.9-0.3-1.8-0.2-2.7c-0.1-0.9,0-1.8,0.3-2.7C136.5,358.8,136.5,360.6,136.1,362.3z"/>
	<rect x="147.7" y="113.8" class="st1" width="43.4" height="11.5"/>
	<path class="st0" d="M172.8,137.4c0,0,0-0.1,0-0.2v-0.6c0-0.5,0-1.3,0-2.3c0-2,0-4.8-0.1-8.4l0.1,0.1l-43.4,0.1
		c0.1-0.1-0.2,0.2,0.2-0.2l0,0v5.8c0,1.9,0,3.8,0,5.6l-0.2-0.2l30.9,0.1l9.1,0.1h2.5h0.6C172.7,137.3,172.8,137.3,172.8,137.4
		l-0.1-0.1H172h-2.4l-9.1,0.1l-31.1,0.1h-0.2v-0.2c0-1.9,0-3.7,0-5.6v-5.8l0,0l0.2-0.2l43.4,0.1h0.1v0.1c0,3.6-0.1,6.5-0.1,8.5
		c0,1,0,1.7,0,2.2c0,0.2,0,0.4,0,0.6S172.8,137.4,172.8,137.4z"/>
	<rect x="303.8" y="312.1" class="st1" width="43.4" height="11.5"/>
	<path class="st0" d="M328.9,335.7c0-0.1,0-0.1,0-0.2v-0.6c0-0.5,0-1.3,0-2.3c0-2,0-4.8-0.1-8.4l0.1,0.1l-43.4,0.1
		c0.1-0.1-0.2,0.2,0.2-0.2l0,0v11.5l-0.2-0.2l30.9,0.1l9.1,0.1h2.5h0.6L328.9,335.7l-0.1-0.1h-0.6h-2.4l-9.1,0.1l-31.1,0.2h-0.2
		v-11.7l0,0l0.2-0.2l43.4,0.1h0.1v0.1c0,3.6-0.1,6.5-0.1,8.5c0,1,0,1.7,0,2.2c0,0.2,0,0.4,0,0.6
		C328.9,335.6,328.9,335.6,328.9,335.7z"/>
	<path class="st0" d="M62.6,95.8c0-0.1,0-0.1,0-0.2c0-0.2,0-0.3,0-0.6c0-0.5,0-1.3,0-2.3c0-2,0-4.8-0.1-8.4l0.1,0.1l-43.5,0.1
		c0.1-0.1-0.2,0.2,0.2-0.2l0,0v11.5l-0.2-0.2l30.9,0.1l9.1,0.1h2.5h0.6L62.6,95.8c-0.1,0-0.1,0-0.2-0.1h-0.6h-2.4l-9.1,0.1
		l-31.1,0.1H19V84.3l0,0l0.2-0.2l43.4,0.1h0.1v0.1c0,3.6-0.1,6.5-0.1,8.5c0,1,0,1.7,0,2.2c0,0.2,0,0.4,0,0.6
		C62.7,95.7,62.7,95.7,62.6,95.8z"/>
	<path class="st0" d="M495.5,427c0,0,0-0.1,0-0.2v-0.6c0-0.5,0-1.3,0-2.3c0-2,0-4.8-0.1-8.4l0.1,0.1l-43.4,0.1l0.2-0.2l0,0v5.8
		c0,1.9,0,3.8,0,5.6l-0.2-0.2l30.9,0.1l9.1,0.1h2.5h0.7L495.5,427c0.1-0.1,0-0.1-0.1-0.1h-0.6h-2.4l-9.1,0.1l-31.1,0.1H452v-0.2
		c0-1.9,0-3.7,0-5.6v-5.8l0,0l0.2-0.2l43.4,0.1h0.1v0.1c0,3.6-0.1,6.5-0.1,8.5c0,1,0,1.7,0,2.2c0,0.2,0,0.4,0,0.6
		C495.7,426.8,495.6,427,495.5,427z"/>
	<path class="st0" d="M321.5,79.3c0,0,0-0.1,0-0.2v-0.6c0-0.5,0-1.3,0-2.3c0-2,0-4.8-0.1-8.4l0.1,0.1L278.1,68l0.2-0.2l0,0v5.8
		c0,1.9,0,3.8,0,5.6l-0.2-0.2l30.9,0.1l9.1,0.1h2.5h0.7C321.4,79.2,321.5,79.2,321.5,79.3l-0.1-0.1h-0.6h-2.4l-9.1,0.1l-31.1,0.1
		h-0.2v-0.2c0-1.8,0-3.7,0-5.6v-5.7l0,0l0.2-0.2l43.4,0.1h0.1v0.1c0,3.6-0.1,6.5-0.1,8.5c0,1,0,1.7,0,2.2v0.6
		C321.6,79.2,321.6,79.2,321.5,79.3z"/>
	<path class="st0" d="M327.4,67.8c0-0.1,0-0.1,0-0.2c0-0.2,0-0.4,0-0.6c0-0.6,0-1.3,0-2.3c0-2-0.1-4.9-0.1-8.4l0.2,0.2l-26.1,0.1
		l0.2-0.2l0,0v5.9c0,1.9,0,3.8,0,5.6l-0.2-0.2l18.7,0.1l5.4,0.1h1.5L327.4,67.8c-0.1-0.1-0.2-0.1-0.4-0.1h-1.4l-5.4,0.1l-18.8,0.1
		h-0.2v-0.2c0-1.8,0-3.6,0-5.6v-5.8l0,0c-0.1,0,0.4-0.4,0.2-0.2l26.1,0.1h0.2v0.2c0,3.6-0.1,6.4-0.1,8.5c0,1,0,1.7,0,2.3
		S327.4,67.8,327.4,67.8z"/>
	<path class="st0" d="M47.5,353.1c0-0.1,0-0.1,0-0.2c0-0.2,0-0.3,0-0.6c0-0.5,0-1.3,0-2.3c0-2,0-4.8-0.1-8.4l0.1,0.1l-43.4,0.1
		l0.2-0.2l0,0v5.8c0,1.9,0,3.8,0,5.6l-0.2-0.2l30.9,0.1l9.1,0.1h2.5h0.7L47.5,353.1c0.1-0.1,0-0.1-0.1-0.1h-0.6h-2.4l-9.1,0.1
		l-31.1,0.1H4v-0.1c0-1.8,0-3.7,0-5.6v-5.8l0,0c0.4-0.4,0.1-0.1,0.2-0.2l43.4,0.1h0.1v0.1c0,3.6-0.1,6.5-0.1,8.5c0,1,0,1.7,0,2.2
		v0.6C47.6,353.1,47.6,353.1,47.5,353.1z"/>
	<path class="st0" d="M53.5,341.7c0-0.1,0-0.1,0-0.2c0-0.2,0-0.4,0-0.6c0-0.6,0-1.3,0-2.3c0-2-0.1-4.9-0.1-8.4l0.2,0.2l-26.1,0.1
		c-0.2,0.2,0.3-0.3,0.2-0.2l0,0v5.9c0,1.9,0,3.8,0,5.6l-0.2-0.2l18.7,0.1l5.4,0.1H53L53.5,341.7c-0.1,0-0.2,0-0.4-0.1h-1.4l-5.4,0.1
		l-18.8,0.1h-0.2v-0.2c0-1.8,0-3.6,0-5.6v-5.9l0,0l0.2-0.2l26,0.2h0.2v0.2c0,3.6-0.1,6.4-0.1,8.5c0,1,0,1.7,0,2.3
		C53.5,341.5,53.5,341.7,53.5,341.7z"/>
	<path class="st0" d="M184.3,258.7c0-0.1,0-0.1,0-0.2v-0.6c0-0.5,0-1.3,0-2.3c0-2,0-4.8-0.1-8.4l0.1,0.1l-43.4,0.1
		c0.1-0.1-0.2,0.2,0.2-0.2l0,0v11.5l-0.2-0.2l30.9,0.1l9.1,0.1h2.5h0.6L184.3,258.7l-0.1-0.1h-0.6h-2.4l-9.1,0.1l-31.1,0.1h-0.2
		v-11.7l0,0l0.2-0.2l43.4,0.1h0.1v0.1c0,3.6-0.1,6.5-0.1,8.5c0,0.9,0,1.7,0,2.2v0.6C184.4,258.5,184.3,258.6,184.3,258.7z"/>
	<path class="st0" d="M190.1,247.2c0-0.1,0-0.1,0-0.2c0-0.2,0-0.4,0-0.6l0-2.3c0-2,0-4.9-0.1-8.4l0.2,0.2l-26.1,0.1l0.2-0.2l0,0v5.9
		c0,1.9,0,3.8,0,5.6l-0.2-0.2l18.7,0.1l5.4,0.1h1.5L190.1,247.2c-0.1-0.1-0.3-0.1-0.4-0.1h-1.4l-5.4,0.1l-18.8,0.1h-0.2v-0.2
		c0-1.8,0-3.6,0-5.6v-5.9l0,0c0,0,0.4-0.4,0.2-0.2l26.1,0.1h0.2v0.2c0,3.6-0.1,6.4-0.1,8.5c0,1,0,1.7,0,2.3
		C190.2,246.9,190.2,247.2,190.1,247.2z"/>
</g>
<g id="freepik--Floor--inject-134">
	<path class="st5" d="M473.9,445.8c0,0.1-11.9,0.2-168.7,0.2S21,445.9,21,445.8s127.2-0.2,284.1-0.2S473.9,445.7,473.9,445.8z"/>
</g>
<path class="st6" d="M23.5,396.5l-16,21.8l27,20.1c1.8-2.7-8.4-18.3-8.4-18.3L37,406.6L23.5,396.5z"/>
<path class="st4" d="M18.7,412.7c-0.7-0.2-1.4,0.1-1.7,0.7c-0.3,0.7,0,1.4,0.7,1.7c0.7,0.2,1.5-0.1,1.8-0.7c0.2-0.7-0.2-1.5-0.9-1.7
	"/>
<path class="st5" d="M7.4,418.3l1.7-2.3l25.2,20.3c0,0,0.8,1.4,0,2.2L7.4,418.3z"/>
<path class="st5" d="M26.7,420.3c-0.1,0.1-0.8-0.3-1.8-0.4c-1-0.1-1.7,0.2-1.8,0.1c-0.1-0.1,0.7-0.8,1.8-0.7
	C26.1,419.4,26.8,420.2,26.7,420.3z"/>
<path class="st5" d="M28.6,423.6c-0.1,0.2-0.8-0.1-1.7,0.2c-0.9,0.2-1.4,0.7-1.6,0.6c-0.1-0.1,0.3-0.9,1.4-1.2
	C27.9,422.9,28.7,423.4,28.6,423.6z"/>
<path class="st5" d="M27.7,428.2c-0.1-0.1,0.2-0.9,1-1.3c0.9-0.4,1.7-0.3,1.7-0.1c0,0.2-0.7,0.2-1.4,0.7
	C28.3,427.7,27.8,428.2,27.7,428.2z"/>
<path class="st5" d="M28.8,416.9c-0.2,0.1-0.6-0.6-1.4-1.1c-0.8-0.5-1.5-0.7-1.5-0.9c0-0.2,0.9-0.2,1.8,0.4
	C28.6,416,28.9,416.9,28.8,416.9z"/>
<path class="st5" d="M88.8,305.4c0.5,2.7,1.2,26,1.7,38.2s-0.7,18.3-2.1,21s-54.2,41.7-58.3,51l-13.4-10.8c0,0,19.6-35.2,28-41.6
	s24.5-12.3,24.5-12.3l-4.6-67.1l21.9-1.2L88.8,305.4z"/>
<path class="st6" d="M39.7,418l-0.2,27l33.7,0.5c-0.2-3.2-17.5-9.9-17.5-9.9l0.9-17.3L39.7,418z"/>
<path class="st4" d="M45.2,434c-0.7,0.2-1.1,0.9-1,1.6c0.2,0.7,0.8,1.1,1.5,1c0.7-0.2,1.1-0.9,1-1.7c-0.2-0.7-1-1.1-1.7-0.8"/>
<path class="st5" d="M39.4,445.1v-2.9l32.3,1.7c0,0,1.5,0.7,1.3,1.7L39.4,445.1z"/>
<path class="st5" d="M56.1,435.5c0,0.2-0.8,0.2-1.6,0.7c-0.8,0.5-1.3,1.2-1.4,1.1c-0.2-0.1,0.1-1,1.1-1.6
	C55.2,435.1,56.2,435.3,56.1,435.5z"/>
<path class="st5" d="M59.7,437c0,0.2-0.7,0.4-1.2,1.1c-0.6,0.7-0.7,1.4-0.9,1.4c-0.2,0-0.3-0.9,0.5-1.8
	C58.8,436.9,59.7,436.8,59.7,437z"/>
<path class="st5" d="M61.6,441.2c-0.2,0-0.4-0.8,0.1-1.7c0.4-0.9,1.2-1.2,1.3-1.1c0.1,0.1-0.4,0.6-0.8,1.4S61.8,441.2,61.6,441.2z"
	/>
<path class="st5" d="M55.9,431.5c-0.1,0.2-0.8-0.1-1.8,0c-1,0.1-1.7,0.3-1.8,0.2c-0.1-0.1,0.6-0.7,1.7-0.8
	C55.2,430.9,56,431.4,55.9,431.5z"/>
<path class="st5" d="M91.2,279.8c0,1.6,2.6,41.6-10.5,70.5c0,0-4.5,9-5.4,13c-0.8,4-17.7,69.5-17.7,69.5l-19.5-0.7
	c0,0-3.1-32.8,0-51.9c3.1-19,8.9-16.8,8.9-29.1s-2.9-37.7-2.9-37.7s-4.3-7-5.7-20.4c-1.2-10.9,4-22.7,4-22.7l5.1-9l43.1-2.3
	L91.2,279.8z"/>
<path class="st6" d="M91.2,279.8c0,0,0-0.5,0-1.4s-0.1-2.2-0.1-4c-0.1-3.5-0.2-8.7-0.4-15.4v-0.1h-0.1l-43.1,2.2h-0.1l-0.1,0.1
	c-1.6,2.8-3.3,5.9-5.1,9l0,0c-1.3,3.2-2.4,6.5-3.1,9.9c-0.8,3.6-1.2,7.2-1.1,10.9c0.3,3.8,0.9,7.6,1.8,11.3
	c0.9,3.9,2.3,7.7,4.1,11.2v-0.1c0.7,6.7,1.4,13.6,2,20.7c0.3,3.6,0.5,7.1,0.7,10.8c0.1,1.8,0.2,3.7,0.2,5.5c0,0.9,0,1.8-0.1,2.8
	c-0.1,0.9-0.2,1.8-0.3,2.7c-0.4,1.8-1,3.6-1.9,5.2c-0.9,1.7-1.8,3.3-2.7,5.1c-1.6,3.5-2.8,7.2-3.5,11.1c-1.6,7.7-1.9,15.7-2,23.7
	c0,10.6,0.5,21,1.4,31.1v0.2h0.2l19.5,0.7h0.2l0-0.2c5.7-22,10.9-42.5,15.6-60.9l1.7-6.8c0.3-1.1,0.5-2.3,0.8-3.3
	c0.3-1.1,0.7-2.1,1.2-3.2c0.8-2.1,1.8-4.1,2.7-6l0.7-1.5c0.2-0.5,0.5-1,0.7-1.5c0.4-1,0.8-2,1.2-2.9c2.8-7.2,4.8-14.6,6.2-22.2
	c1.9-10.8,2.9-21.8,2.9-32.8C91.5,284,91.2,279.8,91.2,279.8c0,0,0,0.2,0,0.7c0,0.5,0,1.3,0.1,2.3c0.1,2,0.1,5,0,8.8
	c-0.1,11-1.1,21.9-3,32.8c-1.4,7.6-3.4,15-6.2,22.2l-1.2,2.9c-0.2,0.5-0.4,1-0.7,1.5s-0.5,1-0.7,1.5c-0.9,2-1.8,4-2.7,6
	c-0.4,1-0.8,2.1-1.2,3.2s-0.6,2.2-0.8,3.3c-0.6,2.2-1.1,4.5-1.7,6.8c-4.7,18.4-10,39-15.7,60.9l0.2-0.2l-19.5-0.7l0.2,0.2
	C37.4,422,36.9,411.6,37,401c0.1-8,0.4-16,1.9-23.6c0.7-3.8,1.9-7.5,3.5-11c0.8-1.7,1.8-3.4,2.7-5.1c0.9-1.7,1.5-3.5,1.9-5.4
	c0.2-0.9,0.3-1.9,0.3-2.8c0-0.9,0.1-1.9,0.1-2.8c0-1.9-0.1-3.7-0.2-5.5c-0.2-3.7-0.4-7.3-0.7-10.8c-0.6-7.1-1.3-14-2-20.7l0,0v-0.1
	c-1.9-3.5-3.3-7.2-4.1-11.1c-0.9-3.7-1.5-7.5-1.8-11.2c-0.1-3.6,0.3-7.2,1.1-10.8c0.7-3.4,1.7-6.6,3-9.8l0,0l5.1-9l-0.1,0.1
	l43.1-2.3l-0.1-0.1c0.2,6.7,0.4,11.9,0.5,15.4c0.1,1.8,0.1,3.1,0.1,4C91.2,279.4,91.2,279.8,91.2,279.8z"/>
<path class="st6" d="M77.2,197.9c0,0-11.6-2.1-10.5,12.9c0.7,8.9,3.3,24.2,4.8,34c0.5,3.4,1.6,9.4,6.1,13l32,22.2l10.1-12.1
	L91,240.6l-4.5-26.9L77.2,197.9z"/>
<path class="st5" d="M78.6,144.1c3.7,3,5.8,7.6,5.4,12.4c-0.2,2.3-0.8,4.9,0.7,6.6s4.3,1.7,5.8,3.4c1.7,2.1,0.3,5.2,0.9,7.8
	c0.7,2.5,3,4.2,5.6,3.9c-2.9,2.4-6.5,3.9-10.2,4.5l-2.9-3.6c1.1,1.3,0.8,3.3-0.2,4.6c-1.1,1.2-2.6,2.1-4.2,2.5
	c-7.8,2.4-16.3,1-22.9-3.7"/>
<path class="st5" d="M35.7,164.3c0.6-1.8,1.5-3.4,1.9-5.2c0.8-3.9-1.1-8.2,0.8-11.7c1.3-2.5,4.2-3.7,6.9-4.5
	c2.7-0.8,5.6-1.5,7.6-3.5c1.5-1.4,2.3-3.4,3.8-4.9c2.1-2.1,5.2-2.8,8.1-3c3-0.3,6.1,0.2,8.8,1.4c2.8,1.3,4.8,3.8,5.4,6.8
	c0.2,1.4,0.1,3,0.5,4.4c0.5,1.5,1.7,2.7,2.5,4.2c1.5,3.2,0.7,7-1.9,9.3l-20.7,26.7c-4.3,1.6-14.9-0.3-18.2-3.6
	C37.8,177.5,34.3,168.7,35.7,164.3z"/>
<path class="st7" d="M79.5,154.2c-0.9-6.1-5.5-13.2-11.5-12.1l-18.6,6.2c-1.8,0.3-0.5,3.3-0.3,5.2l4,41.9c0,0-2.5,1.8-3.4,1.4
	c-0.1,0-0.3,0-0.3,0.2c0,0.1,0,0.2,0,0.2c2.3,3.3,12.8,17.4,23.7,13.1c2.4-1-0.3-8.6,0-11.4l-0.3-7.2c-0.2-3.7-0.4-5.2-0.4-5.2
	s7.7-1.9,8.5-12.2C81.4,169.2,80.5,161,79.5,154.2z"/>
<path class="st5" d="M78.2,163.6c0.1,0.7-0.5,1.3-1.2,1.4c-0.7,0.1-1.3-0.4-1.4-1c0,0,0,0,0,0c-0.1-0.7,0.5-1.3,1.2-1.4
	C77.5,162.4,78.1,162.8,78.2,163.6C78.2,163.5,78.2,163.5,78.2,163.6z"/>
<path class="st5" d="M65.6,164.3c0.1,0.7-0.4,1.3-1.2,1.4c-0.7,0.1-1.3-0.4-1.4-1.1c0,0,0,0,0,0c-0.1-0.7,0.5-1.3,1.2-1.4
	C64.8,163.2,65.4,163.6,65.6,164.3C65.6,164.3,65.6,164.3,65.6,164.3z"/>
<path class="st5" d="M78.7,159.3c-0.1,0.2-1.4-0.5-2.9-0.3c-1.5,0.2-2.5,1.3-2.7,1.1c-0.2-0.2,0-0.5,0.4-1c1.1-1.3,3-1.5,4.5-0.6
	C78.5,158.8,78.8,159.1,78.7,159.3z"/>
<path class="st5" d="M65.1,160.4c-0.2,0.2-1.4-0.6-3-0.6c-1.6,0.1-2.8,1-3,0.8c-0.2-0.2,0.1-0.5,0.6-0.9c0.7-0.6,1.5-0.9,2.4-0.9
	c0.9,0,1.7,0.2,2.4,0.7C65,159.9,65.2,160.3,65.1,160.4z"/>
<path class="st5" d="M70.2,170c0.7-0.3,1.5-0.5,2.2-0.6c0.3-0.1,0.7-0.2,0.7-0.4c0-0.4-0.1-0.7-0.3-1c-0.4-0.8-0.8-1.7-1.3-2.7
	c-1.8-3.8-3.1-6.9-2.9-7c0.2-0.1,1.7,2.9,3.5,6.7c0.4,0.9,0.8,1.8,1.2,2.7c0.3,0.4,0.4,0.9,0.3,1.4c-0.1,0.3-0.3,0.5-0.5,0.6
	c-0.2,0.1-0.4,0.1-0.6,0.1C71.7,169.9,71,170,70.2,170z"/>
<path class="st8" d="M72.4,186.5c-4.8,0.4-9.6-0.5-13.9-2.6c0,0,4,6.9,14.1,5.1L72.4,186.5z"/>
<path class="st8" d="M65.9,174.1c0.2-0.4,0.4-0.7,0.7-0.9c0.4-0.2,0.8-0.2,1.2-0.1c0.6,0.1,1.2,0.4,1.6,0.8c0.4,0.4,0.6,1.1,0.4,1.7
	l0,0c-0.2,0.6-1,0.9-1.6,1c-0.6,0.1-1.3,0-1.8-0.4c-0.5-0.2-0.8-0.6-0.9-1.2C65.6,174.7,65.7,174.4,65.9,174.1z"/>
<path class="st5" d="M66.2,172.1c0.2,0,0.3,1.5,1.7,2.5c1.4,1,3,0.7,3,0.9c0,0.2-0.3,0.3-1,0.4c-0.9,0.1-1.8-0.2-2.5-0.7
	c-0.7-0.5-1.2-1.2-1.4-2.1C66,172.5,66.1,172.1,66.2,172.1z"/>
<path class="st5" d="M64.9,154.9c-0.1,0.4-1.5,0.3-3.2,0.6c-1.6,0.3-2.9,0.9-3.2,0.5c-0.1-0.2,0.1-0.5,0.6-0.9
	c1.4-1,3.2-1.4,4.8-0.9C64.7,154.4,65,154.7,64.9,154.9z"/>
<path class="st5" d="M77.8,154.1c-0.3,0.3-1.4,0.1-2.7,0.2c-1.3,0.1-2.4,0.4-2.7,0.1c-0.1-0.2,0-0.5,0.5-0.8
	c0.6-0.4,1.4-0.7,2.2-0.7c0.8-0.1,1.5,0.1,2.2,0.5C77.8,153.6,77.9,154,77.8,154.1z"/>
<path class="st5" d="M45.3,149.8c0.9-1.4,2.6-2.2,4.2-2.8c6.9-2.7,14.2-4.5,21.5-5.5c0.9,1.5,0.1,3.6-1.3,4.7
	c-1.4,1.1-3.2,1.5-4.8,2.2c-1.7,0.6-3.4,1.6-4,3.2c-0.7,1.6-0.1,3.8-0.7,5.6c-1.1,3.1-5.4,4-6.4,7.1c-0.8,2.3,0.5,4.8,0.9,7.2
	c0.7,4.8-2.7,9.2-7.5,9.9c-0.4,0.1-0.8,0.1-1.1,0.1c-0.5-8.7-1-17.5-1.5-26.2C44.4,153.3,44.3,151.3,45.3,149.8z"/>
<path class="st5" d="M27.7,171.9c1.4-1.2,3.1-2.3,3.7-4.1c0.8-2.6-1.3-5.6,0.1-8c1.2-2.1,4.8-2,5.9-4.2c0.9-1.7-0.1-3.2,0.2-4.7
	s2.5-2.8,4-2.6l11.9,17.3c1.1,5.8,2.2,8.9,1,12.3c-0.8,1.8-1.4,3.7-1.8,5.6c-0.3,2,0.2,4.2,1.8,5.4c-7.1,0.6-13.8-3.2-20-6.8
	l-6.5-3.8c-0.7-0.3-1.3-0.9-1.8-1.5C25.2,175.1,26.4,173.1,27.7,171.9z"/>
<path class="st6" d="M34.3,180.3c0.2,0.1,0.5,0.1,0.8,0.2c0.7,0.1,1.5,0,2.2-0.2c1.2-0.3,2.2-0.9,3.1-1.7c1.1-1.1,1.9-2.6,2-4.2
	c0.1-0.9,0-1.9-0.2-2.7c-0.3-0.9-0.8-1.8-1.3-2.7c-0.6-0.8-1.1-1.8-1.4-2.7c-0.3-1-0.2-2.1,0.4-3c0.6-0.9,1.8-1.1,3-1.5
	c0.6-0.2,1.1-0.6,1.5-1.1c0.4-0.6,0.5-1.2,0.5-1.9c-0.2-1.3-0.4-2.5-0.8-3.7c-0.1-0.6-0.1-1.2,0-1.8c0.2-0.6,0.5-1.1,1-1.5
	c1.1-0.6,2.3-1,3.6-1c1.3,0,2.6-0.4,3.7-1.1c1.1-0.7,2-1.6,2.5-2.7c0.5-1.1,0.8-2.2,0.9-3.4c0.1-1.1,0.4-2.2,0.7-3.2
	c0.4-1,0.9-1.8,1.7-2.5c1.3-1.3,3.1-2.1,4.9-2.2c1.5-0.1,3.1,0.2,4.5,0.9c1,0.5,2,1.2,2.7,2.1c0.7,0.7,1.2,1.6,1.7,2.4
	c0,0,0-0.1-0.1-0.2c-0.1-0.2-0.2-0.4-0.2-0.5c-0.3-0.6-0.8-1.3-1.2-1.8c-0.8-0.9-1.7-1.6-2.8-2.2c-1.4-0.8-3-1.1-4.5-1
	c-1.9,0.1-3.8,0.9-5.2,2.3c-0.8,0.8-1.4,1.7-1.8,2.7c-0.4,1.1-0.6,2.2-0.7,3.3c-0.1,1.1-0.4,2.3-0.9,3.3c-0.5,1.1-1.4,1.9-2.4,2.6
	c-1.1,0.6-2.3,1-3.5,1c-1.3,0-2.7,0.4-3.8,1c-0.6,0.4-1,1-1.2,1.7c-0.2,0.7-0.2,1.3,0,2c0.4,1.2,0.6,2.4,0.8,3.6
	c0,0.6-0.1,1.1-0.4,1.6c-0.3,0.5-0.8,0.8-1.3,1c-0.5,0.2-1.1,0.4-1.7,0.6c-0.6,0.2-1.1,0.6-1.5,1.1c-0.6,1-0.8,2.2-0.4,3.4
	c0.3,1,0.8,2,1.4,2.8c0.5,0.8,1,1.6,1.3,2.6c0.3,0.8,0.3,1.7,0.2,2.6c-0.1,1.5-0.8,3-1.9,4c-0.8,0.8-1.9,1.4-3,1.7
	C36.3,180.4,35.3,180.4,34.3,180.3z"/>
<path class="st5" d="M24.8,168c-0.1,0.2-0.2,0.4-0.2,0.6c-0.1,0.6,0,1.2,0.3,1.8c0.2,0.4,0.5,0.7,0.9,1c0.5,0.3,1,0.4,1.5,0.4
	c1.3,0,2.5-0.8,3.1-2c0.3-0.7,0.5-1.4,0.5-2.2c0-0.8-0.2-1.6-0.5-2.4c-0.6-1.5-1.6-3.1-1.6-4.9c-0.1-0.9,0.2-1.8,0.8-2.5
	c0.7-0.6,1.7-0.9,2.6-0.8c1,0.1,2.1,0,3.1-0.3c0.5-0.2,1-0.6,1.3-1.1c0.3-0.5,0.5-1,0.5-1.6c0.1-1.1,0-2.1-0.3-3.2
	c-0.2-1-0.1-2,0.2-2.9c0.5-1.8,1.7-3.4,3.3-4.4c1.5-0.8,3.2-1.2,5-1.1c1.5,0,3.1-0.2,4.5-0.7c1.2-0.4,2.3-1.1,3.2-2
	c0.7-0.7,1.3-1.4,1.8-2.2c0.4-0.7,0.7-1.5,0.8-2.3c-0.3,0.8-0.6,1.5-1,2.2c-1.1,1.9-2.9,3.3-4.9,4.1c-1.4,0.4-3,0.7-4.5,0.6
	c-1.8-0.1-3.5,0.3-5.1,1.1c-1.7,1-3,2.6-3.5,4.5c-0.3,1-0.3,2.1-0.2,3.1c0.2,1,0.3,2,0.3,3.1c0,1-0.6,1.9-1.5,2.3
	c-1,0.3-1.9,0.4-2.9,0.3c-1-0.1-2.1,0.2-2.9,0.9c-0.7,0.8-1,1.7-0.9,2.7c0,0.9,0.3,1.8,0.7,2.7c0.3,0.8,0.7,1.6,1,2.3
	c0.3,0.7,0.5,1.5,0.5,2.2c0,0.7-0.1,1.4-0.4,2c-0.5,1.1-1.6,1.8-2.9,1.9c-0.5,0-1-0.1-1.4-0.3c-0.4-0.2-0.7-0.5-0.9-0.9
	c-0.3-0.5-0.4-1.1-0.4-1.7C24.7,168.2,24.8,168,24.8,168z"/>
<path class="st5" d="M100,172.3c0.2,0.6,0.2,1.3,0,1.9c-0.2,0.7-0.8,1.3-1.5,1.5c-0.9,0.3-1.9,0-2.6-0.7c-0.4-0.4-0.6-0.9-0.6-1.5
	c0-0.6,0.1-1.2,0.3-1.8c0.4-1.2,1.2-2.5,1-4.1c-0.1-1.6-0.9-3.1-2.2-4.1c-0.7-0.5-1.4-0.9-2.2-1.2c-0.8-0.2-1.7-0.4-2.5-0.4
	c-0.8,0-1.7-0.1-2.5-0.3c-0.8-0.2-1.4-0.6-1.9-1.2c-0.4-0.6-0.7-1.4-0.7-2.1c0-0.7,0-1.5,0.2-2.2c0.4-1.4,0.6-2.8,0.6-4.2
	c-0.1-1.3-0.5-2.5-1.3-3.5c-0.6-0.8-1.4-1.5-2.3-2c-0.7-0.4-1.3-0.8-1.9-1.3c-0.5-0.4-0.9-0.9-1.2-1.5c0,0,0,0,0,0.1
	c0,0.1,0.1,0.2,0.1,0.3c0.2,0.4,0.5,0.8,0.9,1.1c0.6,0.5,1.2,1,1.8,1.4c0.9,0.5,1.6,1.2,2.2,1.9c0.7,1,1.1,2.1,1.2,3.3
	c-0.1,1.4-0.3,2.8-0.7,4.1c-0.2,0.8-0.2,1.5-0.2,2.3c0,0.8,0.3,1.6,0.8,2.3c0.5,0.7,1.3,1.2,2.1,1.3c0.8,0.2,1.7,0.3,2.5,0.3
	c0.8,0,1.6,0.1,2.4,0.3c0.8,0.2,1.5,0.6,2.1,1.1c1.2,0.9,1.9,2.3,2,3.8c0.1,1.4-0.6,2.7-1,4c-0.2,0.6-0.3,1.3-0.3,1.9
	c0,0.6,0.3,1.2,0.7,1.7c0.7,0.8,1.9,1.1,2.9,0.7c0.7-0.3,1.3-0.9,1.6-1.7c0.2-0.5,0.2-1,0.1-1.4C100.1,172.6,100,172.4,100,172.3z"
	/>
<path class="st6" d="M91.4,242.2v-9.9c1.1-5.5,0.6-12.1-2-17.2c-1.9-3.3-3.9-6.4-6.2-9.4L73.4,193c-5.4,3.9-13.9,1.1-21.1-1.6
	c0,0-7.1,4-10.5,7.7c-3.5,3.9,8.5,53,8.5,53c-5.4,10.9-12.4,20.5-13.5,30.4l56.8,2.2l-2.4-26L91.4,242.2z"/>
<path class="st5" d="M90.6,259c-0.1-0.4-0.1-0.7,0-1.1c0-0.8,0-1.8,0-3c0-2.7,0.1-6.1,0.2-10c0.1-3.8,0.2-7.4,0.3-10
	c0.1-1.3,0.1-2.3,0.2-3c0-0.4,0.1-0.7,0.1-1.1c0,0.4,0,0.7,0,1.1c0,0.8,0,1.8,0,3c0,2.7-0.1,6.1-0.2,10c-0.1,3.8-0.2,7.4-0.3,10
	c-0.1,1.3-0.1,2.3-0.2,3C90.7,258.3,90.7,258.7,90.6,259z"/>
<path class="st7" d="M116.6,268c0,0,5.5,0.3,8.9,2.4c3.4,2.1,8.9,5.5,11.2,9.6c1,1.9-1.9,2.3-3.4,1.2s-3.7-3.2-4.8-3.4l-1.1-0.3
	c1,2.3,2.2,4.6,3.4,6.7c1.2,1.8,2.2,4.7-1.3,4.9c0,0-2.3,3-4.7,0.8c0,0-1.8,2.8-4.8-1.1c0,0-1.7,2.2-2.4,1.3
	c-0.7-0.8-3.1-2.2-3.8-4.9c-1-3.2-2.2-6.3-3.6-9.4L116.6,268z"/>
<path class="st7" d="M240.4,191.3c0.6,0,25.9-2.7,25.9-2.7s2.2-10.3,2-13c-0.1-2.7-1.9-20.4-1.9-20.4l9.5-4.5
	c0,0,12.7,42.8,9.9,46.3c-2.8,3.6-8,6.7-8.4,6.8c-0.4,0-24.5,10.7-41.3,5.1S240.4,191.3,240.4,191.3z"/>
<path class="st6" d="M218.2,214.4c3.7,3.7,10.2,6.8,20.9,4.1c21.2-5.3,37.1-9.8,43.4-13.2c6.3-3.4,3.9-18.5,4.4-19.2
	c1.6-2.1-0.2-6.5-2.4-7.2c-6.5-2-17.8-1.2-18.3-0.6c-3.3,3.5-0.3,7.7-0.3,7.7l-28,3.7c-3.4-0.2-6.9,0.1-10.3,0.7"/>
<path class="st5" d="M227.6,190.3l0.7-0.1c0.4-0.1,1.1-0.2,2-0.3c2.5-0.3,5.1-0.4,7.6-0.3l0,0l27.9-3.7l-0.1,0.3
	c-0.9-1.4-1.4-3-1.3-4.6c0.1-0.8,0.4-1.7,0.8-2.4c0.2-0.4,0.5-0.7,0.8-1c0.1-0.1,0.2-0.1,0.4-0.2l0.3-0.1c0.2-0.1,0.4-0.1,0.6-0.1
	c3.5-0.4,7-0.5,10.4-0.2c1.8,0.1,3.6,0.4,5.4,0.7c0.4,0.1,0.9,0.2,1.4,0.3c0.5,0.2,0.9,0.4,1.3,0.7c0.7,0.7,1.3,1.5,1.6,2.4
	c0.4,0.9,0.5,1.9,0.4,2.9c-0.1,0.5-0.3,1-0.6,1.4c-0.1,0.1-0.1,0.3-0.1,0.6v0.7c0.1,1.9,0.2,3.9,0.1,5.8c0,2.8-0.4,5.6-1.3,8.2
	c-0.5,1.3-1.3,2.5-2.3,3.4c-0.5,0.4-1.1,0.8-1.8,1.1c-0.6,0.3-1.2,0.6-1.8,0.8c-2.4,1-4.9,1.9-7.3,2.7s-4.8,1.5-7.1,2.2
	c-9.3,2.7-17.8,4.8-24.9,6.6c-1.7,0.4-3.4,0.8-5.1,1.1c-1.6,0.2-3.1,0.3-4.7,0.2c-2.5-0.1-5-0.6-7.3-1.6c-1.4-0.6-2.8-1.5-4-2.5
	c-0.4-0.3-0.8-0.7-1.2-1.1c0,0,0.4,0.4,1.3,1.1c1.2,1,2.6,1.8,4,2.4c2.3,0.9,4.8,1.5,7.2,1.5c1.5,0,3.1-0.1,4.6-0.3
	c1.7-0.3,3.4-0.6,5.1-1.1c7.1-1.8,15.6-4,24.9-6.7c2.3-0.7,4.7-1.4,7.1-2.2s4.9-1.7,7.3-2.7c0.6-0.3,1.2-0.5,1.8-0.8
	c0.6-0.3,1.2-0.6,1.7-1c1-0.9,1.7-2,2.2-3.2c0.9-2.6,1.3-5.3,1.3-8.1c0.1-2,0-3.9-0.1-5.8v-0.7c0-0.1,0-0.2,0-0.4c0-0.1,0-0.1,0-0.2
	c0-0.1,0-0.1,0.1-0.2l0-0.1c0.3-0.4,0.4-0.8,0.5-1.2c0.1-0.9,0-1.8-0.3-2.7c-0.3-0.9-0.8-1.6-1.4-2.2c-0.3-0.3-0.7-0.5-1.1-0.7
	c-0.4-0.1-0.9-0.2-1.3-0.3c-1.8-0.4-3.6-0.6-5.4-0.7c-3.4-0.3-6.9-0.2-10.3,0.2c-0.2,0-0.4,0.1-0.6,0.1l-0.3,0.1
	c-0.1,0-0.1,0.1-0.2,0.1c-0.3,0.3-0.5,0.6-0.7,0.9c-0.4,0.7-0.7,1.4-0.7,2.2c-0.1,1.5,0.3,3.1,1.2,4.3l0.2,0.3h-0.3l-28,3.6l0,0
	c-2.5-0.1-5.1-0.1-7.6,0.2c-0.9,0.1-1.5,0.2-2,0.2C227.8,190.2,227.6,190.3,227.6,190.3z"/>
<path class="st9" d="M151.9,219.4l-11.4-20.5l0,0L355.9,79c5.2-2.9,11.7-1,14.6,4.1l1,1.8c2.9,5.2,1,11.7-4.1,14.6L151.9,219.4
	L151.9,219.4L151.9,219.4z"/>
<path class="st9" d="M332.5,111.2l-26.4-47.4c-0.5-1-0.2-2.2,0.8-2.7l12.1-6.7c1-0.5,2.2-0.2,2.7,0.8l26.4,47.4l0,0
	C348.1,102.5,332.5,111.2,332.5,111.2z"/>
<path class="st9" d="M299.9,123.7l-19.2-34.5c-0.8-1.4-0.3-3.2,1.1-3.9l10.5-5.9c1.4-0.8,3.2-0.3,3.9,1.1l19.2,34.5
	c0.8,1.4,0.3,3.2-1.1,3.9l-10.5,5.9C302.4,125.5,300.6,125,299.9,123.7z"/>
<rect x="301.8" y="78.8" transform="matrix(0.8738 -0.4863 0.4863 0.8738 -4.4355 165.0126)" class="st9" width="27.7" height="24.5"/>
<path class="st5" d="M352.8,80.8c0.1,0.1-42.2,23.8-94.4,52.8s-94.6,52.5-94.6,52.4c0-0.1,42.2-23.8,94.4-52.8
	S352.7,80.7,352.8,80.8z"/>
<path class="st9" d="M64.7,258.9c15.9,28.6,49.4,40.2,74.8,26s33.2-48.8,17.3-77.3s-49.4-40.2-74.8-26
	C56.5,195.8,48.8,230.4,64.7,258.9z M143,215.3c11.1,20,5.7,44.2-12.1,54.1c-17.8,9.9-41.3,1.8-52.4-18.2s-5.7-44.2,12.1-54.2
	C108.4,187.2,131.9,195.3,143,215.3z"/>
<path class="st9" d="M188.5,199.6l-11.8-21.1c-1.6-2.8-0.6-6.4,2.3-7.9l1-0.5c2.8-1.6,6.4-0.6,7.9,2.3l11.8,21.1
	c1.6,2.8,0.6,6.4-2.3,7.9l-1,0.5C193.6,203.4,190.1,202.4,188.5,199.6z"/>
<path class="st9" d="M211.1,187l-11.8-21.1c-1.6-2.8-0.6-6.4,2.3-7.9l1-0.5c2.8-1.6,6.4-0.6,7.9,2.3l11.8,21.1
	c1.6,2.8,0.6,6.4-2.3,7.9l-1,0.5C216.2,190.9,212.7,189.9,211.1,187z"/>
<path class="st5" d="M187.6,172c0.1-0.1,2.8,4.7,6.1,10.7c3.3,6,5.8,10.9,5.7,10.9s-2.8-4.7-6.1-10.7
	C190.1,176.9,187.5,172,187.6,172z"/>
<path class="st5" d="M177.3,179.3c0.1-0.1,2.8,4.5,6,10.2c3.2,5.7,5.6,10.4,5.5,10.4c-0.1,0.1-2.8-4.5-5.9-10.2
	C179.7,184.2,177.2,179.4,177.3,179.3z"/>
<path class="st5" d="M210.4,159.6c0.1-0.1,2.9,4.7,6.2,10.6c3.3,5.9,5.9,10.8,5.8,10.9s-2.9-4.7-6.2-10.7S210.2,159.6,210.4,159.6z"
	/>
<path class="st5" d="M199.5,166.1c0.1-0.1,2.8,4.7,6.1,10.6c3.2,5.9,5.8,10.7,5.7,10.8c-0.1,0.1-2.8-4.7-6.1-10.6
	C201.9,171,199.3,166.2,199.5,166.1z"/>
<path class="st5" d="M264.2,133.9c2.3,0.3,4.4-1.4,4.7-3.7c0.2-2-1-3.9-2.9-4.5c1.7-1.7,1.7-4.5-0.1-6.2c-1-1-2.4-1.4-3.7-1.2
	c-0.1-2.9-2.6-5.2-5.5-5c-0.9,0-1.7,0.3-2.4,0.7c-2.1-1.7-5.1-1.8-7.3-0.2c-2.3-0.4-4.5,1.1-4.9,3.3c-0.3,1.4,0.2,2.8,1.2,3.8"/>
<path class="st7" d="M246.1,118h0.9c9.3,0,17.1,7.2,17.8,16.5c0.7,8.6,1.3,18.2,1.2,22.8c-0.2,9.6-9.8,11.1-9.8,11.1L257,180
	l-23.3-0.8l-1.9-41.9C231,127.4,236.1,118.6,246.1,118z"/>
<path class="st8" d="M256.3,168.4c-4.5,0-8.8-1.3-12.6-3.7c0,0,3.1,7.3,12.7,6.4L256.3,168.4z"/>
<path class="st5" d="M259.5,143.6c0,0.7-0.6,1.4-1.3,1.4c-0.7,0.1-1.4-0.5-1.4-1.2c0,0,0,0,0,0c0-0.7,0.6-1.4,1.3-1.4
	C258.8,142.3,259.5,142.8,259.5,143.6C259.5,143.5,259.5,143.6,259.5,143.6z"/>
<path class="st5" d="M262.7,139.2c-0.2,0.2-1.2-0.6-2.7-0.6c-1.5,0-2.6,0.7-2.7,0.6s0.1-0.4,0.6-0.7c0.6-0.4,1.4-0.7,2.2-0.7
	c0.8,0,1.5,0.2,2.1,0.7C262.6,138.8,262.8,139.2,262.7,139.2z"/>
<path class="st5" d="M246.2,142.9c0,0.8-0.6,1.4-1.3,1.4c-0.7,0.1-1.4-0.5-1.4-1.2c0,0,0,0,0,0c0-0.7,0.6-1.4,1.3-1.4
	C245.5,141.6,246.2,142.2,246.2,142.9C246.2,142.9,246.2,142.9,246.2,142.9z"/>
<path class="st5" d="M248.2,139.5c-0.2,0.2-1.2-0.6-2.7-0.6c-1.5,0-2.6,0.7-2.7,0.6s0.1-0.4,0.6-0.7c0.6-0.4,1.4-0.7,2.2-0.7
	c0.8,0,1.5,0.2,2.1,0.7C248.1,139.1,248.3,139.4,248.2,139.5z"/>
<path class="st5" d="M253.5,150.4c0.8-0.2,1.6-0.4,2.4-0.4c0.4,0,0.7-0.1,0.8-0.4c0-0.4-0.1-0.8-0.2-1.1l-1.1-2.9
	c-1.5-4.1-2.7-7.5-2.5-7.5c0.2-0.1,1.5,3.2,3.1,7.3c0.4,1,0.7,2,1.1,2.9c0.2,0.5,0.3,1,0.2,1.5c-0.1,0.3-0.3,0.5-0.6,0.5
	c-0.2,0.1-0.4,0.1-0.6,0.1C255.2,150.5,254.3,150.5,253.5,150.4z"/>
<path class="st5" d="M249.5,133.8c-0.2,0.4-1.5,0-3-0.1s-2.9,0.2-3-0.2c-0.1-0.2,0.2-0.5,0.8-0.8c0.7-0.4,1.5-0.5,2.3-0.5
	c0.8,0,1.6,0.3,2.3,0.7C249.4,133.2,249.6,133.6,249.5,133.8z"/>
<path class="st5" d="M262.8,133.1c-0.3,0.3-1.5,0-3,0c-1.5,0-2.7,0.2-3-0.1c-0.1-0.2,0.1-0.5,0.6-0.8c0.7-0.4,1.6-0.6,2.4-0.5
	c0.8,0,1.7,0.2,2.4,0.7C262.8,132.6,262.9,133,262.8,133.1z"/>
<path class="st5" d="M263.9,130.1c0,0-2.5-6-5.4-7.4c-3.5-1.7-5,2.1-8.4,1.2c-3.3-0.9-6.7-2.6-10.1,0c-3.7,2.8-2,4.8-2.2,9.1
	c-1,17.3-4.2,22.1-5,14c-0.1-0.9-2.6-1.6-2.9-5.4c-0.5-4.9-0.6-10.8,0.5-14.3c0.9-2.9,2.6-4.9,5.6-7.1c4.7-3.5,11.2-3.6,15.6-3.1
	C255.8,117.6,264.3,122.6,263.9,130.1z"/>
<path class="st7" d="M233.3,146.7c0-1.4-1.2-2.6-2.7-2.5c0,0-0.1,0-0.1,0c-1.8,0.2-3.8,1.2-3.7,4.9c0.2,6.6,6.7,5,6.8,4.8
	C233.6,153.7,233.4,149.5,233.3,146.7z"/>
<path class="st8" d="M232.1,151.5c0,0-0.1,0.1-0.3,0.2c-0.3,0.1-0.6,0.1-0.8,0c-0.9-0.5-1.4-1.5-1.4-2.5c0-0.6,0.1-1.1,0.3-1.6
	c0.1-0.4,0.4-0.8,0.8-0.9c0.3-0.1,0.6,0,0.7,0.3c0.1,0.2,0.1,0.3,0.1,0.3c0,0,0.1-0.1,0.1-0.4c0-0.2-0.1-0.3-0.3-0.4
	c-0.2-0.1-0.4-0.2-0.6-0.2c-0.5,0.1-1,0.5-1.2,1.1c-0.3,0.6-0.4,1.2-0.3,1.8c0.1,1.3,0.8,2.5,1.8,2.8c0.4,0.1,0.7,0,1-0.2
	C232.1,151.6,232.1,151.5,232.1,151.5z"/>
<path class="st5" d="M233.5,134c0.8,0.7,1.8,1.1,2.8,1.3c1.1,0.2,2.1-0.5,2.4-1.5c0.1-0.5,0-1,0.3-1.3c0.3-0.3,1-0.3,1.6-0.2
	c1.9,0.2,4.1-1.9,4.6-3.8c0.5,0.7,1.5,0.9,2.3,0.5c0.6-0.4,1.1-0.8,1.6-1.4c0.5-0.7,1.4-1.1,2.3-1.1c0.5,0.2,0.9,0.3,1.4,0.3
	c0.9-0.1,1.3-1.1,1.4-1.9s0.2-1.8,1-2.3c0.8-0.3,1.6-0.3,2.3-0.1c0.8,0.1,1.8-0.1,2-0.8c0.1-0.4,0-0.8-0.3-1.2
	c-1.1-1.6-3.2-2.3-5-1.6c-0.9-3.1-4.1-4.8-7.1-3.9c-1.5,0.4-2.7,1.4-3.5,2.8c-2.4-2.2-6.1-2-8.3,0.4c-0.5,0.5-0.8,1.1-1.1,1.7
	c-2.3-0.6-4.6,0.7-5.2,3c-0.3,1.1-0.1,2.2,0.4,3.1c-1.2,0.6-2.1,1.8-2.2,3.2c0,1.4,1.3,2.7,2.6,2.4c-0.6,1.2-0.1,2.6,1,3.2
	c1.1,0.5,2.4,0.2,3-0.8"/>
<path class="st6" d="M254.6,120.7c0,0,0,0,0,0.1c0,0.1,0,0.2,0,0.3c-0.1,0.4-0.3,0.9-0.5,1.3c-0.4,0.6-0.9,1.1-1.5,1.5
	c-0.8,0.5-1.7,0.8-2.7,0.8l0.1-0.1c0.2,0.6,0.1,1.2-0.1,1.8c-0.3,0.6-0.7,1.1-1.1,1.6c-0.2,0.3-0.5,0.5-0.7,0.8
	c-1,0.7-2.3,0.5-3.1-0.4l0.2-0.1c-0.2,1.4-0.9,2.6-2.1,3.4c-0.6,0.5-1.4,0.7-2.2,0.7c-0.7,0-1.4-0.2-2.1-0.5l0.2-0.1
	c-0.3,0.8-0.9,1.5-1.6,2c-0.6,0.5-1.5,0.8-2.3,0.6c-1.4-0.3-2.5-1.4-2.8-2.8l0.2,0.1c-0.7,0.4-1.5,0.5-2.3,0.3
	c-0.6-0.1-1.1-0.4-1.6-0.7c-0.3-0.2-0.5-0.5-0.7-0.8c-0.1-0.1-0.1-0.2-0.2-0.3c0.2,0.4,0.6,0.8,1,1.1c0.5,0.3,1,0.5,1.5,0.6
	c0.7,0.1,1.5,0,2.1-0.3l0.1-0.1v0.1c0.3,1.3,1.3,2.3,2.6,2.6c0.7,0.1,1.5-0.1,2.1-0.6c0.6-0.5,1.1-1.2,1.5-1.9l0.1-0.1h0.1
	c0.6,0.3,1.3,0.4,2,0.4c0.7,0,1.4-0.2,2-0.7c1.1-0.7,1.8-1.9,2-3.2v-0.3l0.2,0.2c0.5,0.5,1.2,0.8,1.9,0.7c0.3,0,0.6-0.2,0.9-0.3
	c0.3-0.2,0.5-0.4,0.7-0.7c0.4-0.5,0.8-1,1.1-1.5c0.3-0.5,0.3-1.1,0.1-1.6l-0.1-0.2h0.2c0.9,0.1,1.8-0.2,2.6-0.7
	c0.6-0.4,1.1-0.9,1.4-1.5C254.2,121.8,254.5,121.3,254.6,120.7z"/>
<path class="st5" d="M253.5,155.3c-0.1-0.2-1.7,0.2-3.1-0.9c-1.5-1.1-1.7-2.8-1.9-2.8c-0.2,0-0.2,0.5-0.1,1.2
	c0.2,0.9,0.8,1.8,1.5,2.4c0.7,0.6,1.7,0.8,2.6,0.7C253.2,155.7,253.5,155.4,253.5,155.3z"/>
<path class="st6" d="M303,405l6.3,21.6c0,0,24.1,0.8,25.6,4.7L293.5,445l-11.3-33.2L303,405z"/>
<path class="st0" d="M295.9,429.1c-0.7,0.5-1,1.5-0.5,2.3c0.5,0.8,1.5,1,2.3,0.5c0.8-0.6,1-1.6,0.5-2.5c-0.6-0.7-1.7-0.9-2.5-0.3"/>
<path class="st5" d="M332.6,429.7c0,0,2.1,0.2,2.3,1.6L293.5,445l-1-3.4L332.6,429.7"/>
<path class="st4" d="M309.9,426.1c0.1,0.2-0.9,0.6-1.7,1.6c-0.8,1-1,2-1.2,2c-0.2,0-0.3-1.3,0.7-2.5S309.9,425.9,309.9,426.1z"/>
<path class="st4" d="M314.9,426.5c0.1,0.2-0.6,0.8-1.1,1.9c-0.4,1.1-0.3,2.1-0.5,2.1c-0.2,0.1-0.7-1-0.2-2.4
	C313.7,426.8,314.8,426.3,314.9,426.5z"/>
<path class="st4" d="M319.1,430.9c-0.2,0.1-0.8-0.8-0.6-2.1c0.2-1.3,0.9-2,1.1-1.9c0.1,0.1-0.2,0.9-0.4,2
	C319.1,430,319.3,430.8,319.1,430.9z"/>
<path class="st4" d="M307.9,421.4c0,0.2-1,0.2-2.2,0.7c-1.1,0.5-1.9,1.1-2.1,1c-0.2-0.1,0.5-1.1,1.8-1.7
	C306.8,420.9,308,421.2,307.9,421.4z"/>
<path class="st6" d="M206.3,405.2l-9,20.6c0,0,17.9,16.1,16.6,20.1l-40.6-16.1l12.7-32.7L206.3,405.2z"/>
<path class="st0" d="M185.4,419.1c-0.9-0.1-1.7,0.5-1.9,1.4c-0.1,0.9,0.5,1.7,1.4,1.9c1,0.1,1.8-0.6,2-1.5c0-0.9-0.8-1.9-1.7-1.8"/>
<path class="st5" d="M213.1,443.2c0,0,1.5,1.5,0.8,2.7l-40.6-16.1l1.4-3.2L213.1,443.2"/>
<path class="st4" d="M198,425.8c-0.1,0.2-1.1-0.1-2.3,0.1c-1.2,0.2-2.1,0.9-2.2,0.7c-0.2-0.2,0.6-1.2,2.1-1.5
	C197,425,198.2,425.7,198,425.8z"/>
<path class="st4" d="M201.6,429.3c0,0.2-1,0.2-2,0.8c-1,0.6-1.5,1.4-1.8,1.3c-0.2-0.1,0.1-1.3,1.4-1.9
	C200.4,428.7,201.7,429.1,201.6,429.3z"/>
<path class="st4" d="M202,435.3c-0.2,0-0.1-1.1,0.9-2c1-0.9,2-1,2.1-0.8s-0.8,0.6-1.5,1.3C202.7,434.6,202.2,435.4,202,435.3z"/>
<path class="st4" d="M199.6,420.9c-0.2,0.1-1-0.5-2.1-0.9c-1.2-0.4-2.2-0.4-2.2-0.6c0-0.2,1.1-0.6,2.4-0.1
	C199,419.8,199.7,420.8,199.6,420.9z"/>
<path class="st5" d="M221.5,291.9l-14.2,57.7c0,0-25.7,43.2-30,64.8l23.5,9.2c0,0,17.1-41.6,22.1-49.3c2.3-3.4,4.8-6.6,7.7-9.5
	c1.9-1.9,3.2-4.2,3.9-6.7l10.8-41.2L221.5,291.9z"/>
<path class="st5" d="M215.5,282.7c0,0,2,15.5,16.9,22.3l31.3,51c0,0,2.5,16.6,7.1,30.6c4.7,14,14.2,40.9,14.2,40.9l25.8-9.6
	l-16.4-56.2l-2.7-19.5L266,277.2l-22-13.2L215.5,282.7z"/>
<path class="st6" d="M215.5,282.7l0.5-0.3l1.4-0.9l5.6-3.7l21.1-13.9l0.1,0l0.1,0l22,13.1l0,0v0.1l25.6,65.1v0
	c0.8,6.2,1.8,12.8,2.7,19.5l0,0c4.5,15.2,9.2,31.4,14.1,48.1c0.8,2.7,1.6,5.4,2.4,8l0.1,0.2l-0.2,0.1l-25.8,9.6l-0.2,0.1l-0.1-0.2
	c-4.5-12.9-8.8-25.4-12.9-37.2c-1-3-2-5.9-2.9-8.8s-1.6-5.8-2.3-8.7c-1.4-5.7-2.4-11.4-3.3-16.8v0.1l-31.2-51.1l0.1,0
	c-3.8-1.8-7.1-4.3-9.8-7.5c-2-2.3-3.6-4.9-4.8-7.7c-0.8-1.7-1.3-3.5-1.8-5.4c-0.2-0.6-0.2-1.1-0.3-1.4S215.5,282.7,215.5,282.7
	c0,0,0,0.1,0.1,0.4c0.1,0.3,0.2,0.8,0.3,1.4c0.5,1.8,1.1,3.6,1.8,5.3c1.2,2.8,2.9,5.3,4.8,7.6c2.7,3.1,6.1,5.7,9.8,7.4l0,0l0,0
	l31.4,51l0,0v0c0.9,5.4,2,11,3.3,16.8c0.7,2.9,1.4,5.8,2.3,8.7c0.8,2.9,1.8,5.8,2.9,8.8c4.1,11.8,8.4,24.3,12.9,37.2l-0.3-0.1
	l25.8-9.6l-0.1,0.3c-0.8-2.7-1.6-5.3-2.4-8l-14.1-48.1l0,0c-0.9-6.7-1.8-13.3-2.7-19.5v0.1l-25.5-65.1l0.1,0.1L244,264h0.1
	L223,277.9l-5.6,3.6l-1.4,0.9L215.5,282.7z"/>
<path class="st6" d="M229.3,172.4c0,0-7.5,5.8-11.2,12.2c-4.4,7.7-4.8,19.2-5,37c-0.1,16.5,2.3,21.1,1.4,27.3
	c-1.9,12.1-3.2,52.8-3.2,52.8s24.1-9.3,28.8-13.4l4.7-4.1l30.2,10l-6.1-37.1l-4.2-46.2l-5.4-24.5l-0.9-9.6l-25.9-10.4L229.3,172.4z"
	/>
<path class="st5" d="M257.4,176.4c0.3,0.1-0.7,2.2-2.6,5.3l-0.1,0.1l-0.1-0.1c-2.6-1-6.1-2.3-9.9-3.7c-4.3-1.6-8.1-3-10.9-4.1
	c-1.4-0.6-2.5-1-3.2-1.4c-0.4-0.2-0.8-0.3-1.2-0.6c0.4,0.1,0.8,0.2,1.2,0.4l3.3,1.2l10.9,4c3.8,1.4,7.2,2.7,9.8,3.8l-0.2,0.1
	C256.4,178.5,257.6,176.5,257.4,176.4z"/>
<path class="st7" d="M288.6,157.2c0,0-1.9-3-3.7-5.7s-4.5-4.1-5-5.5c-0.4-1.4-2.8-7.8-3.2-9.4c-0.3-1.5-0.5-3.1-0.5-4.7
	c0,0,2-0.8,2.9,2c0.6,1.7,2.4,7.5,2.8,7.7c0.4,0.3,0.9-0.1,0.9-0.1c-0.8-2.2-1.5-4.4-2.1-6.6c-0.1-1,0.3-8,0.3-8
	c1-0.2,2,0.4,2.4,1.3c0.9,1.8,1,6.2,1,6.2l1.4,5l-0.5-4.9l0.7-9.1c1.4,0.2,2.6,1.3,2.9,2.7c0.6,2.4-0.2,5.9,0.2,6.6
	c0.4,0.7,0.8,5.1,0.8,5.1s0.5-10.6,1.6-10.9c1.1-0.3,2.1,0.8,1.9,3c-0.2,2.1-0.2,6.7,0.4,8.7c0.6,2,6.6,9.8,6.1,13.2
	c-0.3,2.1-0.5,4.2-0.6,6.2H289L288.6,157.2z"/>
<path class="st7" d="M252.2,184c0.6,0.2,25.3,6.3,25.3,6.3s5.5-8.9,6.3-11.5c0.8-2.6,5.2-19.8,5.2-19.8l10.4-1
	c0,0-2.7,44.5-6.5,46.9c-3.8,2.4-9.8,3.6-10.2,3.5c-0.4-0.1-26.7,1.7-40.6-9.2C228.4,188.2,252.2,184,252.2,184z"/>
<g class="st10">
	<path d="M234.5,207.5c2.7,3,6.2,5.1,10.1,5.9c6.6,1.4,20.5,4,20.5,4l-0.7-6.9l-30.3-3.2"/>
</g>
<path class="st6" d="M223.5,198.1c2.2,4.7,7.2,9.8,18.2,11c21.7,2.2,38.2,3.4,45.3,2.4c7.1-1.1,9.9-16.1,10.7-16.6
	c2.2-1.4,2.1-6.2,0.2-7.6c-5.4-4.1-16.3-7.1-17-6.8c-4.3,2.2-2.9,7.2-2.9,7.2l-27.6-6.1c-3.2-1.3-6.5-2.3-9.9-2.9"/>
<path class="st5" d="M240.5,178.7c0,0,0.2,0,0.7,0.1c0.4,0.1,1.1,0.2,2,0.4c2.5,0.6,4.9,1.3,7.3,2.3l0,0l27.6,6l-0.2,0.2
	c-0.4-1.6-0.3-3.3,0.4-4.8c0.4-0.8,0.9-1.4,1.6-2c0.3-0.3,0.7-0.5,1.1-0.7c0.1,0,0.3-0.1,0.4-0.1h0.3c0.2,0,0.4,0.1,0.6,0.1
	c3.4,0.8,6.7,1.9,9.9,3.3c1.7,0.7,3.3,1.6,4.8,2.6c0.4,0.2,0.8,0.5,1.2,0.8c0.4,0.3,0.7,0.7,0.9,1.1c0.4,0.9,0.7,1.8,0.7,2.8
	c0,1-0.2,2-0.6,2.9c-0.2,0.5-0.6,0.9-1,1.2c-0.1,0.1-0.2,0.3-0.3,0.5l-0.2,0.7c-0.6,1.8-1.2,3.7-1.9,5.5c-0.9,2.6-2.3,5.1-4.1,7.3
	c-1.3,1.7-3.2,2.7-5.4,2.8c-0.7,0.1-1.3,0.1-2,0.2c-2.7,0.2-5.2,0.1-7.8,0.1c-2.5-0.1-5-0.2-7.5-0.4c-9.7-0.6-18.4-1.5-25.7-2.3
	c-1.7-0.2-3.5-0.4-5.2-0.7c-1.5-0.3-3-0.8-4.5-1.4c-2.3-0.9-4.5-2.3-6.3-4c-1.1-1.1-2.1-2.3-2.9-3.7c-0.3-0.5-0.5-1-0.7-1.5
	c0,0,0.2,0.5,0.8,1.4c0.8,1.3,1.8,2.6,3,3.6c1.8,1.7,4,3,6.3,3.9c1.4,0.6,2.9,1,4.5,1.3c1.7,0.3,3.4,0.6,5.2,0.7
	c7.3,0.7,16,1.6,25.7,2.2c2.4,0.1,4.9,0.3,7.4,0.3s5.1,0.1,7.8-0.1c0.7-0.1,1.3-0.1,2-0.2c0.7,0,1.3-0.2,1.9-0.4
	c1.2-0.5,2.3-1.3,3.2-2.3c1.7-2.1,3-4.6,4-7.1c0.7-1.8,1.3-3.7,1.9-5.5l0.2-0.7c0-0.1,0.1-0.2,0.1-0.3c0-0.1,0.1-0.1,0.1-0.2
	c0,0,0.1-0.1,0.1-0.1l0.1-0.1c0.4-0.3,0.7-0.6,0.9-1c0.4-0.8,0.6-1.7,0.6-2.7c0-0.9-0.2-1.8-0.6-2.6c-0.2-0.4-0.5-0.7-0.8-1
	c-0.4-0.3-0.7-0.5-1.1-0.8c-1.5-1-3.1-1.8-4.8-2.5c-3.1-1.4-6.4-2.5-9.8-3.3c-0.2,0-0.4-0.1-0.6-0.1h-0.3H281
	c-0.4,0.2-0.7,0.4-1,0.7c-0.6,0.5-1.1,1.1-1.5,1.8c-0.6,1.4-0.7,3-0.3,4.5l0.1,0.3l-0.3-0.1l-27.5-6.2l0,0c-2.3-1-4.7-1.8-7.2-2.4
	c-0.9-0.2-1.5-0.3-2-0.4C240.9,178.6,240.5,178.7,240.5,178.7z"/>
<path class="st5" d="M287.1,196.2c-0.6-0.2-1.2-0.4-1.8-0.8c-1.4-0.8-2.6-1.7-3.7-2.8c-1.1-1.1-2.1-2.3-2.9-3.7
	c-0.4-0.5-0.7-1.1-0.8-1.8c1.2,1.8,2.6,3.5,4.1,5.1C283.5,193.8,285.2,195.1,287.1,196.2z"/>
<path class="st7" d="M92.9,269.7c0,0,5.5,0.3,8.9,2.4c3.4,2.2,8.9,5.5,11.2,9.6c1,1.9-1.9,2.3-3.4,1.2s-3.7-3.2-4.8-3.4l-1.1-0.2
	c1,2.3,2.2,4.6,3.4,6.7c1.2,1.8,2.2,4.7-1.3,4.9c0,0-2.3,3-4.7,0.8c0,0-1.8,2.7-4.8-1.1c0,0-1.7,2.2-2.4,1.3
	c-0.7-0.8-3.1-2.2-3.8-4.9c-1-3.2-2.2-6.3-3.6-9.4L92.9,269.7z"/>
<path class="st6" d="M45.8,197c-2.8,0.9-5.3,2.8-7,5.2c-2.1,3.3-2.8,8.9-2.2,13.1c1.3,8.9,5.4,23.9,7.6,33.5
	c0.8,3.3,2.4,9.3,7.1,12.4l33.8,20.3l9-13.4L63.5,243l-6.1-34.4L45.8,197z"/>
<path class="st5" d="M40,230.8c0,0.1,0.1,0.2,0.1,0.3l0.3,1c0.2,0.9,0.6,2.3,1,4c0.9,3.6,2.2,8.6,3.7,14.9c0.9,3.4,2.9,6.5,5.6,8.8
	c1.5,1.2,3.2,2.3,4.9,3.3l5.4,3.3l24.4,14.7l-0.3,0.1l3.3-4.8l5.8-8.6l0,0.3l-30.5-25.2h-0.1V243c-2-8.5-3.5-15.4-4.4-20.3
	c-0.5-2.4-0.8-4.3-1-5.6c-0.1-0.6-0.2-1.1-0.2-1.5c-0.1-0.3-0.1-0.5-0.1-0.5c0,0.2,0.1,0.3,0.1,0.5c0.1,0.3,0.2,0.8,0.3,1.5
	c0.2,1.3,0.6,3.2,1.1,5.6c1,4.8,2.5,11.8,4.6,20.2l-0.1-0.1l30.6,25l0.2,0.1l-0.1,0.2l-5.8,8.6l-3.3,4.8l-0.1,0.2l-0.2-0.1
	l-24.3-14.8l-5.4-3.3c-1.8-1-3.4-2.1-5-3.3c-2.8-2.4-4.7-5.5-5.6-9c-1.5-6.3-2.7-11.4-3.6-15c-0.4-1.8-0.7-3.1-0.9-4.1l-0.3-1.1
	C40,231,40,230.9,40,230.8z"/>
<path class="st5" d="M40.6,201.7c0.2-0.1,0.4-0.2,0.7-0.3c0.6-0.2,1.3-0.3,2-0.4c2.2-0.3,4.5,0,6.6,0.9c2,1,3.7,2.6,4.9,4.5
	c0.4,0.6,0.7,1.2,0.9,1.8c0.1,0.2,0.2,0.5,0.2,0.7c-0.4-0.8-0.8-1.6-1.3-2.4c-1.3-1.8-2.9-3.2-4.9-4.2c-2-0.9-4.2-1.2-6.4-1
	C41.6,201.5,40.6,201.8,40.6,201.7z"/>
</svg>
