<?xml version="1.0" encoding="utf-8"?>
<!-- Generator: Adobe Illustrator 26.0.3, SVG Export Plug-In . SVG Version: 6.00 Build 0)  -->
<svg version="1.1" id="Layer_1" xmlns="http://www.w3.org/2000/svg" xmlns:xlink="http://www.w3.org/1999/xlink" x="0px" y="0px"
	 viewBox="0 0 500 500" style="enable-background:new 0 0 500 500;" xml:space="preserve">
<style type="text/css">
	.st0{fill:#EBEBEB;}
	.st1{fill:#DBDBDB;}
	.st2{fill:#803EFF;}
	.st3{fill:#263238;}
	.st4{fill:#37474F;}
	.st5{fill:#FFFFFF;}
	.st6{fill:#C7C7C7;}
	.st7{fill:#455A64;}
	.st8{opacity:0.1;enable-background:new    ;}
	.st9{fill:#AD6359;}
	.st10{fill:#A6A6A6;}
	.st11{fill:#FF9CBD;}
</style>
<g>
	<g id="freepik--background-complete--inject-2">
		<rect x="401.8" y="345.1" class="st0" width="35.2" height="11.2"/>
		<rect x="188.1" y="164.7" class="st0" width="35.2" height="11.2"/>
		<path class="st0" d="M421.4,370.4l17.7-0.3l8.8-0.1h8.7l-0.5,0.5v-11.2l0.5,0.5l-17.6-0.1l-8.8-0.1l-8.8-0.1l0.2-0.2L421.4,370.4z
			 M421.4,370.4l-0.2-11.2V359h0.2l8.8-0.1l8.8-0.1l17.6-0.1h0.5v0.5v11.2v0.5h-0.5h-8.9l-8.8-0.1L421.4,370.4z"/>
		<path class="st0" d="M254.2,287l17.7-0.3l8.8-0.1l8.7,0l-0.5,0.5v-11.2l0.5,0.5l-17.6-0.1l-8.8-0.1l-8.8-0.1l0.2-0.2L254.2,287z
			 M254.2,287l-0.2-11.2v-0.2h0.2l8.8-0.1l8.8-0.1l17.6-0.1h0.5v0.5l-0.1,11.2v0.5h-0.5l-8.9,0l-8.8-0.1L254.2,287z"/>
		<path class="st0" d="M273.9,301.1l17.7-0.3l8.8-0.1l8.7,0l-0.5,0.5v-11.2l0.5,0.5l-17.6-0.1l-8.8-0.1l-8.8-0.1l0.2-0.2
			L273.9,301.1z M273.9,301.1l-0.2-11.1v-0.2h0.2l8.8-0.1l8.8-0.1l17.6-0.1h0.5v0.5v11.2v0.5h-0.5l-8.9,0l-8.8-0.1L273.9,301.1z"/>
		<rect x="293.4" y="275.8" class="st0" width="35.2" height="11.2"/>
		<rect x="42.9" y="359.2" class="st0" width="35.2" height="11.2"/>
		<polygon class="st0" points="331.8,396.4 448.5,396.4 452.3,322.3 328,322.3 		"/>
		<path class="st1" d="M440,356.3H337.1l-1.4-25.8h106L440,356.3z M338,355.3h101l1.5-23.8H336.7L338,355.3z"/>
		<path class="st1" d="M438.6,385.8h-98.6l-1.1-23.3h101.2L438.6,385.8z M341,384.8h96.7l1.3-21.3H340L341,384.8z"/>
		<path class="st1" d="M400.4,346.2h-21.9l-0.8-6.3h23.5L400.4,346.2z M379.4,345.2h20.1l0.6-4.3h-21.2L379.4,345.2z"/>
		<path class="st1" d="M400.4,377.3h-21.9l-0.8-6.3h23.5L400.4,377.3z M379.4,376.3h20.1l0.6-4.3h-21.2L379.4,376.3z"/>
		<polygon class="st0" points="348,396.4 346.8,404.5 344.6,420.7 340.1,420.7 340.1,396.4 		"/>
		<polygon class="st1" points="348,396.4 346.8,404.5 340.1,404.5 340.1,396.4 		"/>
		<polygon class="st0" points="432.4,396.4 433.5,404.5 435.8,420.7 440.2,420.7 440.2,396.4 		"/>
		<polygon class="st1" points="432.4,396.4 433.5,404.5 440.2,404.5 440.2,396.4 		"/>
	</g>
	<g id="freepik--Plant--inject-2">
		<path class="st2" d="M401.6,309.7c0.8,5.6,0.5,11.3-0.8,16.9c-0.6,2.6-1.5,5-2.6,7.5c-1.3,3.1-2.7,6.1-2.4,9.5
			c0.3,0.2-0.8,0.2-0.8-0.1c-9-5.1-20.6-6.1-27.5-14.5c-3.3-4-5-9-5.7-14c-0.8-5.5-1.1-11.6,0.3-17c1.2-4.6,3.9-9,8.2-11.2
			c4.4-2.3,10.2-2.1,14.9-0.7C395.1,289.1,400.2,300,401.6,309.7z"/>
		<path class="st3" d="M406.2,376.5c-1.2-4.1-2.5-8.2-3.7-12.3c-2.5-8-5-16-7.9-23.9c-1.7-4.7-3.5-9.4-5.4-14
			c0.2-2.9,0.6-5.8,1.1-8.7c0.8-3.5,1.8-6.9,2.9-10.3c0.1-0.2-0.3-0.3-0.4-0.1c-2,4.7-4.7,10.7-4.7,16.3c-2.2-5.2-4.5-10.4-7.1-15.5
			c-0.3-4.3-0.2-8.6,0.4-12.9c0-0.2-0.3-0.3-0.3-0.1c-0.8,3.8-1.1,7.6-0.9,11.4c-1.9-3.8-4-7.6-6.2-11.3c-0.2-0.3-0.7,0-0.5,0.3
			c3.4,6.5,6.6,13.2,9.5,19.9c-4.2-3.6-9-6.4-14.1-8.2c-0.2-0.1-0.4,0.2-0.2,0.3c5.7,2.4,10.8,5.9,15.3,10.1c2.1,5,4.1,10,6.1,15
			c-5.6-5.5-13.4-9.2-20.8-11.1c-0.2-0.1-0.3,0.3-0.1,0.4c8.7,2.6,15.4,7.5,21.9,13.4c0.8,2,1.5,4.1,2.2,6.1
			c2.8,7.7,5.4,15.5,8,23.3c1.2,3.8,2.4,7.5,3.6,11.3c1.3,4,2.2,8.3,3.9,12.2c0.1,0.4,0.8,0.3,0.7-0.1
			C408.6,384.1,407.5,380.2,406.2,376.5z"/>
		<path class="st3" d="M391.2,301.8c-1.6,2.5-2.7,5.2-3.2,8.1c0,0.1,0.1,0.1,0.1,0c1-2.7,2.2-5.4,3.5-7.9
			C391.7,301.7,391.4,301.6,391.2,301.8z"/>
		<path class="st3" d="M375.2,320.6c-2.5-1.4-5.3-2.3-8.1-2.7c-0.1,0-0.1,0.1,0,0.1c1.3,0.5,2.7,0.9,4,1.4c1.3,0.5,2.6,1.1,4,1.6
			c0.1,0.1,0.3,0,0.3-0.1C375.3,320.8,375.3,320.6,375.2,320.6z"/>
		<path class="st3" d="M370.6,298c-0.8-0.6-1.7-1.2-2.6-1.6c-0.1,0-0.2,0-0.2,0.1c0,0.1,0,0.1,0,0.2c0.8,0.6,1.7,1.2,2.6,1.7
			C370.6,298.4,370.7,298.1,370.6,298z"/>
		<path class="st2" d="M432,340.3c-6.5,1.9-13,3.7-19.5,5.6c-0.6,0.2-11.5-20.9-7.6-31.7c3.7-10,12.1-17.5,22.1-21
			c4.6-1.6,10.3-2.9,15.2-1.8c4.3,1,7.4,4.5,8.8,8.6c1.9,5.6,1.3,12.2,0.2,17.9c-0.8,5.3-3,10.4-6.4,14.6
			C441.5,336.7,437.1,338.8,432,340.3z"/>
		<path class="st3" d="M441.4,320.3c-4.1,2-8.4,3.7-12.7,5c-2.9,0.8-5.8,1.8-8.5,3.1c2.7-6.1,5.8-12.1,9-18
			c4.2-1.2,8.6-3.1,11.8-6.1c0.1-0.1,0.1-0.2,0-0.3c-0.1-0.1-0.2-0.1-0.3,0c-3.5,2.5-7.3,3.9-11.1,5.6c0.9-1.6,1.7-3.2,2.6-4.8
			c0.2-0.4-0.4-0.9-0.7-0.5c-3.4,5-6.5,10.1-9.2,15.5c-0.7-4.7-0.9-9.5-0.7-14.2c0-0.1-0.1-0.1-0.1-0.1c0,0-0.1,0-0.1,0.1
			c-0.8,5.2-0.8,10.5,0.2,15.6c-2.3,4.5-4.4,9.2-6.2,13.9c-0.7-2.8-1.7-5.6-2.4-8.5c-1-4.1-1.3-8.3-0.9-12.5c0-0.1-0.1-0.1-0.1-0.1
			c0,0-0.1,0-0.1,0.1c-1.2,7.8-0.2,15.7,2.7,23c-1.1,2.8-2.1,5.7-3.1,8.5c-4.9,14.6-7.8,29.7-8.6,45.1c0,0.1,0.1,0.3,0.3,0.3
			c0.1,0,0.3-0.1,0.3-0.3c1.7-15.1,5-30.1,9.7-44.5c1.9-5.7,4-11.2,6.4-16.6c3.8-1.1,7.7-2.7,11.4-4c3.8-1.3,7.4-2.8,10.5-5.2
			C441.7,320.5,441.5,320.3,441.4,320.3z"/>
		<path class="st3" d="M447.5,314.2c-4,1.4-7.7,3.4-11.7,4.8c-0.2,0.1-0.1,0.4,0.1,0.3c4.2-0.9,8.4-2.2,11.8-4.9
			C447.7,314.3,447.6,314.2,447.5,314.2z"/>
		<path class="st3" d="M415,305.6c0-0.2-0.3-0.3-0.3-0.1c-1.1,3.7-1.8,7.5-0.8,11.3c0,0.1,0.3,0.2,0.3,0
			C414.4,313,414.2,309.4,415,305.6z"/>
		<path class="st3" d="M431.4,297.2c-1.3,1.8-1.9,4-1.7,6.2c0,0.1,0.2,0.2,0.3,0.1c0.5-2.1,1.3-4,1.9-6c0.1-0.1,0-0.3-0.1-0.4
			C431.7,297,431.5,297,431.4,297.2z"/>
		<path class="st2" d="M354.7,349.6c1.9,6,6.4,14.4,13.6,14.5c4.6,0,9.3-0.5,14-0.6c5-0.1,10-0.1,15,0.2c0.4,0-0.6-14.9-12.6-22.2
			c-3.4-2-7.5-2.7-11.3-3.5c-4.4-1-8.8-1.5-13.3-1.4c-2.8,0.1-5,0.7-6,3.5S353.8,346.7,354.7,349.6z"/>
		<path class="st3" d="M359.9,342c2.9,0.8,5.9,1.6,8.8,2.5c-0.8-0.8-1.6-1.6-2.4-2.4c-1.3-1-2.6-1.9-4-2.8c-0.1-0.1,0-0.3,0.1-0.2
			c2.8,1.2,5.3,3.1,7.1,5.6c3.6,1.2,7.2,2.5,10.7,3.9c2.4,1,4.7,2.2,6.9,3.6c-0.7-1.5-1.5-3-2.5-4.3c-1.6-2.1-3.8-3.2-5.8-4.7
			c-0.1-0.1-0.1-0.2,0-0.3c0.1-0.1,0.1-0.1,0.2-0.1c4.4,1.9,7.8,5.6,9.4,10.1c2.5,1.8,4.8,3.9,6.8,6.2c7.9,9,14.2,21,14.2,33.2
			c0,0.3-0.5,0.4-0.5,0.1c-2-12-7.3-23.2-15.1-32.5c-0.6-0.7-1.1-1.3-1.8-1.9c-2.2-0.3-4.4-0.5-6.5-0.5c-2.5,0-5.1,0.4-7.6,0.6
			c-4.2,0.3-8.8,0.4-12.6-1.7c-0.2-0.1,0-0.4,0.1-0.3c8.4,3.1,17.2-0.8,25.7,1c-3.6-3.4-7.8-6.1-12.4-8l-0.8-0.3
			c-5.4,0.6-11.1,2-16.4,0.3c-0.1,0-0.1-0.1-0.1-0.2c0-0.1,0.1-0.1,0.1-0.1c5.1,1.3,10-0.3,15-0.6c-5.5-2.1-11-3.8-16.5-5.9
			C359.4,342.3,359.4,342,359.9,342z"/>
		<path class="st3" d="M357.5,347.4c2.6,0.3,5.2,0.5,7.9,0.6c0.1,0,0.1,0.1,0,0.1c-2.6,0.5-5.4,0.3-7.9-0.5c-0.1,0-0.1-0.1-0.1-0.1
			C357.4,347.4,357.4,347.3,357.5,347.4L357.5,347.4z"/>
		<path class="st3" d="M375.2,342.2c1.5,0.7,2.8,1.6,3.9,2.7c0.1,0.1,0,0.4-0.2,0.2c-0.7-0.5-1.3-0.9-2-1.4
			c-0.7-0.4-1.3-0.8-1.9-1.2C374.8,342.4,375,342.1,375.2,342.2z"/>
		<path class="st2" d="M417.6,361.6c-0.1,0.2,0.2,0.4,0.3,0.2l0,0c0,0.1,0.1,0.1,0.2,0.1c4.8,1.2,9.7,2,14.7,2.5
			c4,0.4,8.5,0.6,12-1.7c4.7-3.1,7.8-11.5,5.2-16.8c-3-6.3-12.1-2.9-16.6-0.6C426.4,348.8,420.8,354.5,417.6,361.6z"/>
		<path class="st3" d="M414,364.5c2.6-2.6,5.6-4.8,8.8-6.7c2.3-3.6,5.3-6.7,8.9-9c0.2-0.1,0.3,0.1,0.2,0.3c-2.8,2.3-5.3,4.9-7.5,7.8
			c3.5-1.9,7.2-3.6,11-5c1.4-2.5,3.4-4.5,5.9-5.9c0,0,0.1,0,0.1,0.1c-2.1,1.6-3.9,3.4-5.3,5.6c2.2-0.8,4.5-1.6,6.7-2.4
			c0.2-0.1,0.3,0.2,0.1,0.3c-4,1.6-8.1,3.2-12.1,5.1c4.8,0.8,9.8,0.7,14.6,0c0.1,0,0.2,0.2,0.1,0.2c-5.1,1.5-10.4,1.6-15.5,0.2
			c-2.5,1.2-5,2.6-7.4,4.1c2-0.2,4,0,6,0.5c3.4,0.8,6.9,1.2,10.5,1.2c0.1,0,0.1,0.1,0.1,0.1c0,0.1-0.1,0.1-0.1,0.1
			c-6.1,1-11.8-1.7-17.8-1c-2.2,1.5-4.3,3.2-6.2,5.1c-3.8,3.8-6.8,8.1-9.1,12.9c-2.5,5.1-3.9,10.6-5.9,15.9c0,0.1-0.1,0.2-0.2,0.1
			c-0.1,0-0.2-0.1-0.1-0.2C401.2,383.6,406.4,372,414,364.5z"/>
		<path class="st3" d="M432.3,350.2c0.4-0.7,0.9-1.4,1.5-1.9c0.5-0.6,1.1-1,1.8-1.3c0,0,0.1,0,0.1,0c0,0,0,0,0,0.1
			c-0.5,0.6-1.2,1-1.7,1.5c-0.5,0.5-1,1.2-1.5,1.7C432.4,350.4,432.3,350.3,432.3,350.2z"/>
		<path class="st3" d="M442.3,353.4c0.9-0.2,1.8-0.2,2.8-0.4c0.9-0.2,1.8-0.5,2.7-0.8c0.1,0,0.1,0,0.1,0.1c0,0,0,0.1,0,0.1
			c-1.7,1-3.6,1.5-5.5,1.3c-0.1,0-0.1-0.1-0.1-0.1S442.2,353.4,442.3,353.4z"/>
		<polygon class="st4" points="389.1,381.1 389.9,390.2 392.6,420.7 416.5,420.7 419.8,390.2 420.8,381.1 		"/>
		<polygon class="st3" points="389.1,381.1 389.9,390.2 419.8,390.2 420.8,381.1 		"/>
		<rect x="386.7" y="378.7" class="st4" width="36.5" height="7.3"/>
	</g>
	<g id="freepik--Floor--inject-2">
		<polygon class="st3" points="47.2,420.7 97.8,420.4 148.5,420.3 249.7,420.2 351,420.3 401.7,420.4 452.3,420.7 401.7,420.9 
			351,421 249.7,421.2 148.5,421 97.8,420.9 		"/>
	</g>
	<g id="freepik--Screen--inject-2">
		<rect x="139" y="133.3" class="st0" width="38.1" height="49.9"/>
		<rect x="184.9" y="133.3" class="st0" width="38.1" height="49.9"/>
		<rect x="230.7" y="133.3" class="st0" width="38.1" height="49.9"/>
		<rect x="276.6" y="133.3" class="st0" width="38.1" height="49.9"/>
		<rect x="322.4" y="133.3" class="st0" width="38.1" height="49.9"/>
		<rect x="222.7" y="200.7" class="st2" width="54.1" height="17"/>
		<path class="st5" d="M234.2,210.5c0.2-0.2,0.4-0.2,0.6-0.1c0,0,0,0,0,0c0.5,0.4,1,0.6,1.6,0.7c0.4,0,0.7-0.1,1-0.3
			c0.2-0.1,0.3-0.4,0.4-0.6c0-0.1,0-0.2-0.1-0.3c-0.1-0.1-0.2-0.2-0.2-0.2c-0.4-0.2-0.7-0.3-1.1-0.4l0,0c-0.4-0.1-0.7-0.2-1.1-0.3
			c-0.3-0.1-0.6-0.4-0.8-0.6c-0.1-0.2-0.2-0.4-0.2-0.7c0-0.5,0.3-0.9,0.7-1.2c0.4-0.3,0.9-0.5,1.4-0.4c0.7,0,1.3,0.3,1.8,0.7
			c0.2,0.1,0.2,0.4,0.1,0.6c0,0,0,0,0,0c-0.1,0.2-0.4,0.3-0.6,0.1c0,0,0,0,0,0c-0.4-0.3-0.9-0.5-1.4-0.5c-0.3,0-0.7,0.1-0.9,0.3
			c-0.2,0.1-0.3,0.3-0.3,0.5c0,0.1,0,0.2,0.1,0.2c0.1,0.1,0.1,0.2,0.2,0.2c0.3,0.2,0.6,0.3,1,0.4l0,0c0.4,0.1,0.8,0.2,1.2,0.4
			c0.3,0.2,0.6,0.4,0.8,0.7c0.1,0.2,0.2,0.5,0.2,0.7c0,0.5-0.3,1-0.7,1.3c-0.5,0.3-1,0.5-1.6,0.5c-0.8,0-1.5-0.3-2.1-0.8
			C234,210.9,234.1,210.6,234.2,210.5z"/>
		<path class="st5" d="M242.4,212c-1.3,0-2.4-1.1-2.4-2.4c0,0,0,0,0,0v-3c0-0.2,0.2-0.5,0.4-0.5c0,0,0,0,0,0c0.3,0,0.5,0.2,0.5,0.5
			v3c0,0.8,0.7,1.5,1.5,1.5s1.5-0.7,1.5-1.5v-3c0-0.3,0.3-0.4,0.5-0.4c0.2,0,0.4,0.2,0.4,0.4v3C244.9,210.9,243.8,212,242.4,212
			C242.4,212,242.4,212,242.4,212z"/>
		<path class="st5" d="M246.8,211.5v-4.9c0-0.3,0.2-0.5,0.5-0.5h0h1.2c0.9,0,1.6,0.7,1.6,1.6c0,0.4-0.1,0.7-0.3,1
			c0.8,0.5,1.1,1.6,0.6,2.5c-0.3,0.5-0.9,0.9-1.6,0.8h-1.5l0,0l0,0C247,211.9,246.8,211.7,246.8,211.5
			C246.8,211.5,246.8,211.5,246.8,211.5z M247.7,208.3h0.7c0.4,0,0.7-0.3,0.7-0.7c0,0,0,0,0,0c0-0.4-0.3-0.7-0.7-0.7l0,0h-0.7
			L247.7,208.3z M247.7,211h1c0.5,0,0.9-0.4,0.9-0.9c0-0.5-0.4-0.9-0.9-0.9l0,0h-1V211z"/>
		<path class="st5" d="M256.8,206.5v5c0,0.3-0.2,0.5-0.5,0.5c-0.3,0-0.5-0.2-0.5-0.5V208l-1.2,1.7c-0.1,0.1-0.2,0.2-0.4,0.2l0,0
			c-0.2,0-0.3-0.1-0.4-0.2l-1.2-1.7v3.5c0,0.3-0.3,0.4-0.5,0.4c-0.2,0-0.4-0.2-0.4-0.4v-4.9c0-0.3,0.2-0.5,0.5-0.5l0,0
			c0.1,0,0.3,0.1,0.4,0.2l1.7,2.3l1.7-2.3c0.1-0.1,0.2-0.2,0.4-0.2l0,0C256.6,206.1,256.8,206.3,256.8,206.5z"/>
		<path class="st5" d="M258.9,206.5c0-0.2,0.2-0.5,0.4-0.5c0,0,0,0,0,0c0.3,0,0.5,0.2,0.5,0.5v5c0,0.3-0.2,0.5-0.5,0.5
			c-0.2,0-0.5-0.2-0.5-0.4c0,0,0,0,0,0V206.5z"/>
		<path class="st5" d="M265,207h-1.3v4.5c0,0.2-0.2,0.5-0.4,0.5c0,0,0,0,0,0c-0.3,0-0.5-0.2-0.5-0.5V207h-1.3
			c-0.3,0-0.5-0.2-0.5-0.5c0-0.2,0.2-0.5,0.4-0.5c0,0,0,0,0,0h3.6c0.2,0,0.5,0.2,0.5,0.4c0,0,0,0,0,0
			C265.4,206.7,265.2,206.9,265,207z"/>
	</g>
	<g id="freepik--speech-bubble--inject-2">
		<polygon class="st5" points="212,171 212,187.8 216.4,187.8 216.4,195.5 224.1,187.8 276.1,187.8 276.1,171 		"/>
		<path class="st3" d="M212,171c0,5.7,0.2,11.3,0.2,16.8l-0.2-0.2h4.6v0.2v7.7l-0.4-0.2l7.6-7.7l0.1-0.1h0.1l26-0.1h26l-0.4,0.4V171
			l0.3,0.3l-32-0.1L212,171z M212,171l32-0.2l32.2-0.1h0.3v0.3l0,16.8v0.4h-0.4h-26l-26-0.1l0.2-0.1l-7.7,7.6l-0.4,0.4v-0.6v-7.7
			l0.2,0.2h-4.7v-0.2C211.7,182.1,211.9,176.5,212,171z"/>
		<path class="st3" d="M223.2,177v2.3h-0.6V177c0.1-0.8-0.5-1.5-1.3-1.6c-0.8-0.1-1.5,0.5-1.6,1.3c0,0.1,0,0.2,0,0.2v2.3H219V177
			c-0.1-1.2,0.8-2.2,2-2.2c1.2-0.1,2.2,0.8,2.2,2C223.2,176.8,223.2,176.9,223.2,177z"/>
		<polygon class="st3" points="219,177.6 219.6,177.7 219.6,179.3 219,179.3 		"/>
		<polygon class="st3" points="223.2,177.8 223.2,179.3 222.5,179.3 222.5,177.8 		"/>
		<rect x="218.2" y="178.5" class="st3" width="5.8" height="4.8"/>
		<path class="st3" d="M233.3,177.4c-0.4,0.8-0.9,1.5-1.5,2.1c-0.6,0.6-1.3,1.1-2.1,1.5c0.4-0.8,0.9-1.5,1.6-2.1
			C231.8,178.3,232.5,177.8,233.3,177.4z"/>
		<path class="st3" d="M229.6,177.4c0.8,0.4,1.5,0.9,2.1,1.6c0.6,0.6,1.1,1.3,1.5,2.1c-0.8-0.4-1.5-0.9-2.1-1.5
			C230.6,178.9,230,178.2,229.6,177.4z"/>
		<path class="st3" d="M234,179.2c-0.8,0.3-1.7,0.4-2.6,0.4c-0.9,0-1.7-0.1-2.6-0.4c0.8-0.3,1.7-0.4,2.6-0.4
			C232.3,178.8,233.2,178.9,234,179.2z"/>
		<path class="st3" d="M231.5,176.6c0.5,1.7,0.5,3.4,0,5.1c-0.3-0.8-0.4-1.7-0.4-2.6C231.1,178.3,231.2,177.5,231.5,176.6z"/>
		<path class="st3" d="M242.1,177.4c-0.4,0.8-0.9,1.5-1.5,2.1c-0.6,0.6-1.3,1.1-2.1,1.5c0.4-0.8,0.9-1.5,1.5-2.1
			C240.6,178.3,241.3,177.8,242.1,177.4z"/>
		<path class="st3" d="M238.5,177.4c1.5,0.8,2.8,2.1,3.6,3.6C240.5,180.2,239.3,178.9,238.5,177.4z"/>
		<path class="st3" d="M242.8,179.2c-0.8,0.3-1.7,0.4-2.6,0.4c-0.9,0-1.7-0.1-2.6-0.4c0.8-0.3,1.7-0.4,2.6-0.4
			C241.1,178.8,242,178.9,242.8,179.2z"/>
		<path class="st3" d="M240.3,176.6c0.3,0.8,0.4,1.7,0.4,2.6c0,0.9-0.1,1.7-0.4,2.6c-0.3-0.8-0.4-1.7-0.4-2.6
			C239.9,178.3,240,177.5,240.3,176.6z"/>
		<path class="st3" d="M250.9,177.4c-0.4,0.8-0.9,1.5-1.5,2.1c-0.6,0.6-1.3,1.1-2.1,1.5c0.4-0.8,0.9-1.5,1.5-2.1
			C249.4,178.3,250.1,177.8,250.9,177.4z"/>
		<path class="st3" d="M247.3,177.4c1.5,0.8,2.8,2.1,3.6,3.6C249.3,180.2,248.1,178.9,247.3,177.4z"/>
		<path class="st3" d="M251.6,179.2c-0.8,0.3-1.7,0.4-2.6,0.4c-0.9,0-1.7-0.1-2.6-0.4c0.8-0.3,1.7-0.4,2.6-0.4
			C249.9,178.8,250.8,178.9,251.6,179.2z"/>
		<path class="st3" d="M249.1,176.6c0.5,1.7,0.5,3.4,0,5.1C248.6,180.1,248.6,178.3,249.1,176.6z"/>
		<path class="st3" d="M259.7,177.4c-0.4,0.8-0.9,1.5-1.5,2.1c-0.6,0.6-1.3,1.1-2.1,1.5c0.4-0.8,0.9-1.5,1.5-2.1
			C258.2,178.3,258.9,177.8,259.7,177.4z"/>
		<path class="st3" d="M256.1,177.4c1.5,0.8,2.8,2.1,3.6,3.6c-0.8-0.4-1.5-0.9-2.1-1.5C257,178.8,256.5,178.1,256.1,177.4z"/>
		<path class="st3" d="M260.4,179.2c-0.8,0.3-1.7,0.4-2.5,0.4c-0.9,0-1.7-0.1-2.6-0.4c0.8-0.3,1.7-0.4,2.6-0.4
			C258.7,178.8,259.6,178.9,260.4,179.2z"/>
		<path class="st3" d="M257.9,176.6c0.5,1.7,0.5,3.4,0,5.1C257.4,180.1,257.4,178.3,257.9,176.6z"/>
		<path class="st3" d="M268.5,177.4c-0.4,0.8-0.9,1.5-1.5,2.1c-0.6,0.6-1.3,1.1-2.1,1.5c0.4-0.8,0.9-1.5,1.5-2.1
			C267,178.3,267.7,177.8,268.5,177.4z"/>
		<path class="st3" d="M264.9,177.4c0.8,0.4,1.5,0.9,2.1,1.5c0.6,0.6,1.1,1.3,1.5,2.1c-0.8-0.4-1.5-0.9-2.1-1.5
			C265.8,178.8,265.3,178.1,264.9,177.4z"/>
		<path class="st3" d="M269.2,179.2c-0.8,0.3-1.7,0.4-2.6,0.4c-0.9,0-1.7-0.1-2.5-0.4c0.8-0.3,1.7-0.4,2.5-0.4
			C267.6,178.8,268.4,178.9,269.2,179.2z"/>
		<path class="st3" d="M266.7,176.6c0.5,1.7,0.5,3.4,0,5.1C266.2,180.1,266.2,178.3,266.7,176.6z"/>
	</g>
	<g id="freepik--Character--inject-2">
		<polygon class="st6" points="141.7,374.1 83.9,420.7 87.2,420.7 153.9,374.1 		"/>
		<polygon class="st6" points="147.1,374.1 118.5,420.7 121.8,420.7 156.8,374.1 		"/>
		<polygon class="st6" points="161.1,374.1 189.6,420.7 186.3,420.7 151.4,374.1 		"/>
		<polygon class="st6" points="166.1,374.1 223.8,420.7 220.5,420.7 153.9,374.1 		"/>
		<polygon class="st7" points="262.4,357 262.4,343.4 183.1,340.2 141.2,228.3 45.3,228.3 79.2,357 160.4,379.8 165.4,379.8 		"/>
		<polygon class="st8" points="45.3,228.3 56.3,228.3 91.6,345.7 163.4,366 262.4,343.4 262.4,357 165.4,379.8 160.4,379.8 
			79.2,357 		"/>
		<path class="st9" d="M219.3,441.9c-2.4-0.9-56.8-45.5-57.8-48.5c-0.4-1.1,5.6-9.5,13.2-19.3c1.6-2.1,3.3-4.3,5.1-6.5
			c11.3-14.3,23.6-29.3,23.6-29.3l36.5,29.7l-24.6,28.5l-5.4,6.2c0,0,13.2,26.4,13.9,29.8S221.7,442.8,219.3,441.9z"/>
		<path class="st0" d="M219.3,441.9c-2.4-0.9-56.8-45.5-57.8-48.5c-0.5-1.4,8.5-13.4,18.3-25.8l35.5,28.9l-5.4,6.2
			c0,0,13.2,26.4,13.9,29.8S221.7,442.8,219.3,441.9z"/>
		<path class="st2" d="M219.3,441.9c-2.4-0.9-56.8-45.5-57.8-48.5c-0.4-1.1,5.6-9.5,13.2-19.3l35.2,28.6c0,0,13.2,26.4,13.9,29.8
			S221.7,442.8,219.3,441.9z"/>
		<path class="st3" d="M220.3,439c-9-7.7-45.7-37.9-55.2-44.8c-0.1-0.1-0.1,0,0,0c8.6,7.8,45.6,37.7,55,44.9
			C220.3,439.3,220.4,439.2,220.3,439z"/>
		<path class="st3" d="M221.8,427.7c-2-1.7-4.6-2.5-7.3-2.2c-2.3,0.3-4.5,1.4-6,3.2c0,0,0.1,0.1,0.1,0.1c3.7-3.2,9-3.6,13.1-0.9
			c0,0,0.1,0,0.1,0C221.9,427.8,221.9,427.7,221.8,427.7C221.9,427.7,221.9,427.7,221.8,427.7z"/>
		<path class="st3" d="M212.6,406.5c-3.6-3-8.9-5.2-13.6-4.1c-0.2,0-0.1,0.3,0,0.3c4.6,0.9,9,2.4,13.3,4.3c0.1,0.1,0.3,0.1,0.4-0.1
			C212.8,406.8,212.7,406.6,212.6,406.5z"/>
		<path class="st3" d="M214.5,410c-3.6-3-8.9-5.2-13.6-4.1c-0.2,0-0.1,0.3,0,0.3c4.6,0.9,9,2.4,13.3,4.3c0.1,0.1,0.3,0.1,0.4-0.1
			C214.7,410.2,214.7,410,214.5,410z"/>
		<path class="st3" d="M216.4,413.3c-3.6-3-8.9-5.2-13.6-4.1c-0.2,0-0.1,0.3,0,0.3c4.6,0.9,9,2.4,13.3,4.3c0.1,0.1,0.3,0.1,0.4-0.1
			C216.6,413.6,216.6,413.4,216.4,413.3z"/>
		<path class="st3" d="M218.4,416.7c-3.6-3-8.9-5.2-13.6-4.1c-0.2,0-0.1,0.3,0,0.3c4.6,0.9,9,2.4,13.3,4.3c0.1,0.1,0.3,0.1,0.4-0.1
			C218.5,417,218.5,416.8,218.4,416.7z"/>
		<path class="st5" d="M174.5,387.4c-4.1-3.3-9.3,3-5.2,6.4S178.6,390.8,174.5,387.4z"/>
		<path class="st3" d="M224.5,400c-0.6-3-4.1-3.5-6.6-2.8c-4.2,1.2-8,3.5-11,6.6c-0.1,0-0.1,0.1,0,0.2c0,0,0,0,0,0
			c-0.1,0.3,0,0.6,0.2,0.8c0.1,0,0.1,0,0.2,0.1c4.1,0.3,8.4,1.2,12.4,0.3C222.2,404.6,225.1,402.9,224.5,400z M213.7,404
			c-2-0.1-4-0.3-6-0.4c2.1-1.4,4.3-2.6,6.5-3.7c1.1-0.5,2.2-1,3.4-1.4c1.8-0.5,7.9-0.7,5,3.6C220.9,404.6,216.1,404.2,213.7,404
			L213.7,404z"/>
		<path class="st3" d="M196.7,397.7c2.8,3.1,6.8,4.9,10.3,7c0.3,0.1,0.6,0,0.8-0.3c0-0.1,0-0.1,0-0.2c0.1,0,0.1,0,0.1-0.1
			c-0.7-4.3-2.4-8.3-5.1-11.7c-1.6-2-4.8-3.7-7-1.5S195.2,396,196.7,397.7z M196.2,393.8c0.1-5.2,5-1.6,6.1-0.1c0.7,1,1.4,2,2,3.1
			c1.2,2.2,2.1,4.5,3.2,6.8c-1.7-1.1-3.4-2.1-5.1-3.2C200.4,399.2,196.2,396.7,196.2,393.8L196.2,393.8z"/>
		<path class="st3" d="M277.7,312.1c-2.8,19.1-50.6,73.8-56.1,80.1c-0.8,0.9-1.3,1.4-1.3,1.4l-38.7-30.5l0.5-0.6l34.9-44.6
			l-102.5-1.9l39.3-29.8c0,0,3.1,1.9,9.7,1c22.7-3,73.8-9.8,85.8-9.1C264.8,279.1,280.2,294.6,277.7,312.1z"/>
		<path class="st4" d="M229.5,301.4c-1.3,1.4-2.5,2.9-3.6,4.5c-1.2,1.6-2.5,3.1-3.7,4.7v0c0.2-0.5,0.4-0.9,0.7-1.4
			c0.8-1.6,1.4-3.2,2.3-4.7c0,0,0-0.1,0-0.1c0,0-0.1,0-0.1,0c-0.9,1.5-2,2.9-2.9,4.5c-0.4,0.7-0.8,1.5-1.1,2.2
			c-0.2,0.4-0.4,0.8-0.5,1.3c-0.1,0.2-0.2,0.4-0.2,0.6c-0.6,0.7-1.1,1.5-1.6,2.2c-1.2,1.7-2.2,3.4-3.4,5.1c-0.1,0.1,0.1,0.2,0.1,0.1
			c1.2-1.5,2.6-3,3.8-4.5s2.4-3.2,3.6-4.8s2.3-3.2,3.4-4.8c1.2-1.6,2.4-3.2,3.4-4.9c0,0,0-0.1,0-0.1S229.6,301.4,229.5,301.4
			L229.5,301.4z"/>
		<path class="st4" d="M225.6,384.7c-2.2-1.9-4.6-3.7-6.9-5.5s-4.7-3.6-7-5.3c-4.7-3.5-9.4-7.1-14.1-10.5c-2.6-1.9-5.2-3.8-7.9-5.5
			c-0.1-0.1-0.2,0.1-0.1,0.2c4.5,3.8,9.2,7.3,13.9,10.8s9.4,7,14.2,10.5c2.6,1.9,5.2,3.8,7.9,5.6C225.6,385,225.7,384.7,225.6,384.7
			z"/>
		<path class="st9" d="M142.4,235.9c10.6,20.2,23.3,41.7,35.2,44.9c11.4,3,38.4-25.4,43-34.8c1.6-3.2-19.8-17.5-22.9-15.1
			c-5.7,4.5-18.2,18.8-20,18.4s-17-13.9-30.7-25.2C138.7,217.1,135,221.8,142.4,235.9z"/>
		<path class="st10" d="M201.6,198l-8.2,28.7c-0.3,0.5-0.2,1.1,0.2,1.4c0.2,0.1,0.4,0.2,0.7,0.2l14.9,0.5c0.9,0,1.8-0.6,2.1-1.5
			l8.2-28.7c0.3-0.8-0.1-1.5-0.9-1.6l-14.9-0.5C202.8,196.5,202,197.1,201.6,198z"/>
		<path class="st1" d="M203.4,198l-8.2,28.7c-0.3,0.8,0.1,1.5,0.9,1.6l14.9,0.5c0.9,0,1.7-0.6,2.1-1.5l8.2-28.7
			c0.3-0.8-0.1-1.5-0.9-1.6l-14.9-0.5C204.6,196.6,203.8,197.1,203.4,198z"/>
		<path class="st7" d="M207.5,199.5c0,0.7-0.6,1.3-1.3,1.3c-0.7,0-1.3-0.6-1.3-1.3c0-0.1,0-0.1,0-0.2c0-0.7,0.6-1.3,1.3-1.3
			c0.7,0,1.3,0.6,1.3,1.3C207.5,199.3,207.5,199.4,207.5,199.5z"/>
		<path class="st9" d="M227.6,229.7c1.3-8.3,0.3-10.7,5.1-17.1c3.1-4.2,1.8-8.1-3.2-5.7c-8.1,3.9-12,14.3-12.3,18.3L227.6,229.7z"/>
		<path class="st9" d="M216.8,251.5c0,0,7.8-9.1,10-17.8c1.5-6,3.4-19.6-9.8-32.7c-3.1-3.1-9.8-5.3-6.5,1.6
			c2.3,4.9,5.3,7.4,6.1,10.5c0,0-8.8-1.8-11.8,1.5c-2.6,2.9-5,5.9-7.2,9.1c0.5,0.5,1,1,1.6,1.5c0,0-2.5,3.3-2,9.6L216.8,251.5z"/>
		<path class="st9" d="M227.3,227.7c-1.5-2.9-4.7-9-9.1-13.1c-4.9-4.5-15.5-12-18.8-8.4c-2.4,2.7,1.4,5.9,1.4,5.9s-5-2.1-6.7,0.7
			c-1.5,2.6,1.6,4.9,1.6,4.9s-3.3-0.8-4.3,2c-1.2,3.4,5.9,4.5,7.7,8.9C199.4,229.7,227.3,227.7,227.3,227.7z"/>
		<path class="st3" d="M214.3,220.5c-3.5-4.1-8.2-7.1-13.4-8.5c-0.1,0-0.2,0.1-0.1,0.1C205.6,214.4,210.1,217.2,214.3,220.5
			C214.2,220.6,214.3,220.5,214.3,220.5z"/>
		<path class="st3" d="M209.6,225.3c-1.8-2-7.9-6.5-13.9-7.7c-0.1,0-0.2,0.1-0.1,0.1C200.5,219.7,205.2,222.3,209.6,225.3
			C209.5,225.4,209.6,225.3,209.6,225.3z"/>
		<path class="st2" d="M190.4,234.5l22.4,23.7c0,0-23.6,26.4-34.6,23.7s-32-32.7-38.7-51.8c-4.6-13.2,2.7-11.1,10.4-4.6
			s27.8,22.5,28.7,22.2S190.4,234.5,190.4,234.5z"/>
		<path class="st8" d="M182.8,281.6c-1.5,0.5-3.2,0.6-4.8,0.2c-11.1-2.8-32-32.7-38.7-51.8c-3.1-8.7-0.9-10.7,3.1-9.2
			C154.5,238.8,170.6,262.8,182.8,281.6z"/>
		<path class="st3" d="M205.5,262.2c-3.2-3.3-16-17.1-18.5-20.3c-0.2-0.2-0.1-0.4,0.1-0.2c9.9,9.5,15.5,17,18.5,20.3
			C205.7,262.1,205.6,262.2,205.5,262.2z"/>
		<path class="st2" d="M167.2,300c0,0-73.3,13.4-73.7,13s8.1-79.7,32.9-93.1c4-2.1,13.5-3.4,17.5,0.8
			C155.6,232.4,168.2,298.9,167.2,300z"/>
		<path class="st0" d="M166.5,293.4l-72.2,12.4c0.3-2.2,0.6-4.8,1.1-7.7l69.8-12C165.7,288.9,166.1,291.3,166.5,293.4z"/>
		<path class="st0" d="M164.4,282.2L96,294c0.2-1.3,0.4-2.6,0.7-4l66.9-11.5C163.9,279.7,164.1,281,164.4,282.2z"/>
		<path class="st9" d="M140.8,232.7c-4.1,0-9.3-7.5-10.8-13c-0.1-0.4,1.2-3.7,2.7-7.9c0.9-2.5,1.8-5.3,2.4-8l15.5,8
			c-1.7,3.1-3.1,6.3-4,9.7c-0.1,0.4-0.1,0.7-0.1,1.1c0,0,0,0.1,0,0.2C146.3,225,144.7,232.7,140.8,232.7z"/>
		<path class="st3" d="M150.7,212c-1.7,3.1-3.1,6.3-4,9.7c-0.1,0.4-0.1,0.7-0.1,1.1c0,0.1,0,0.1,0,0.2c-0.6,0-1.2-0.1-1.7-0.3
			c-9.6-2.5-9.4-15.1-9.2-18.5L150.7,212z"/>
		<path class="st9" d="M134.4,185.8c-2.5,5.8-1.2,23.4,2.6,27.8c5.6,6.3,15.6,7.9,21.2,1c5.4-6.7,3.4-29.6-1-33.7
			C150.7,175,138.1,177.2,134.4,185.8z"/>
		<path class="st3" d="M150.5,198.5c0-0.1-0.1,0.1-0.1,0.1c0.1,1.2,0.1,2.6-0.9,3c0,0,0,0.1,0,0.1
			C150.8,201.4,150.9,199.6,150.5,198.5z"/>
		<path class="st3" d="M149.4,197.3c-1.9,0-1.7,3.8,0.1,3.8S151,197.3,149.4,197.3z"/>
		<path class="st3" d="M157.5,198.1c0,0,0.1,0.1,0.1,0.1c0,1.2,0.2,2.5,1.3,2.9v0.1C157.6,201,157.3,199.2,157.5,198.1z"/>
		<path class="st3" d="M158.5,196.8c1.9-0.2,2.2,3.6,0.5,3.8S156.9,197,158.5,196.8z"/>
		<path class="st3" d="M147.7,195.7c0.5-0.2,1-0.4,1.4-0.6c0.5-0.1,1-0.4,1.4-0.9c0.2-0.3,0.1-0.8-0.2-1c-0.6-0.4-1.4-0.4-2-0.1
			c-0.7,0.2-1.3,0.7-1.6,1.4c-0.2,0.4-0.1,0.9,0.4,1.2C147.3,195.7,147.5,195.7,147.7,195.7z"/>
		<path class="st3" d="M159.8,194.8c-0.5-0.1-1-0.2-1.5-0.3c-0.6,0-1.1-0.3-1.5-0.6c-0.2-0.3-0.2-0.7,0-1c0.5-0.5,1.3-0.7,2-0.5
			c0.7,0.1,1.4,0.5,1.9,1c0.3,0.4,0.3,0.9-0.1,1.2C160.4,194.8,160.1,194.9,159.8,194.8z"/>
		<path class="st3" d="M149.8,209c0.2,0.3,0.5,0.7,0.9,0.8c0.4,0.1,0.9,0,1.3-0.1 M152.1,209.7c-0.4,0.4-1,0.6-1.6,0.4
			c-0.5-0.2-0.8-0.7-0.8-1.2c0,0,0.1,0,0.1,0L152.1,209.7z"/>
		<path class="st3" d="M151.1,205.5c0.7,0.9,1.7,1.5,2.8,1.6c0.5,0.1,1,0.1,1.4,0c0.2,0,0.4-0.1,0.5-0.1c0.1,0,0.2-0.1,0.2-0.3l0,0
			l-0.2-2.5c0.3,0.1,2.1,0.8,2,0.3c-0.3-4.1-1.1-8.1-2.2-12.1c0-0.1-0.1-0.1-0.1-0.1c-0.1,0-0.1,0.1-0.1,0.1
			c0.3,3.8,1.2,7.5,1.6,11.3c-0.6-0.2-1.3-0.4-1.9-0.5c-0.1,0,0.3,3.1,0.3,3.1c-1.5,0.2-3-0.2-4.2-1.1
			C151.2,205.3,151.1,205.4,151.1,205.5z"/>
		<path class="st3" d="M155,207c-0.5,0.7-1.2,1.2-2,1.6c-0.4,0.2-0.9,0.2-1.4,0.1c-1-0.2-1-1.2-0.8-1.9c0.1-0.4,0.2-0.8,0.4-1.2
			C152.3,206.3,153.6,206.9,155,207z"/>
		<path class="st11" d="M153,208.5c-0.4,0.2-0.9,0.2-1.4,0.1c-1-0.2-1-1.2-0.8-1.9C151.9,206.7,152.8,207.5,153,208.5z"/>
		<path class="st3" d="M132.8,201.7c4.6,0.4,7-5.1,6-9.5c0,0,12.2,1.7,12.9-8.1c2,2.7,5.1,4.5,8.4,4.6l0.8,3.4
			c1.3-0.4,2.6-3.9-0.4-6.7c0,0-0.2-4.9-3.8-7.9c-2-1.7-4.8-2.2-7.2-1.1c-2.1-1.6-4.8-2.2-7.4-1.9c-2.8,0.4-5.1,2.1-6.4,4.6
			c0,0-6.1,1.1-7.1,5.4c-0.7,2.5-0.3,5.1,1.1,7.2c0,0-1.5,1.7-0.8,5.4C129.5,199.6,131.4,201.6,132.8,201.7z"/>
		<path class="st3" d="M151.4,183.2c0.1,0.8,0.1,1.6,0,2.4c-0.1,0.8-0.2,1.6-0.5,2.3c-0.5,1.5-1.5,2.7-2.9,3.5
			c-1.4,0.7-2.9,1.1-4.5,1.1c-0.8,0-1.6,0-2.4-0.1s-1.6-0.2-2.4-0.3c0.8,0.2,1.6,0.4,2.4,0.5s1.6,0.1,2.4,0.2c1.7,0.1,3.3-0.3,4.8-1
			c1.5-0.8,2.5-2.2,3-3.9C151.8,186.5,151.8,184.8,151.4,183.2z"/>
		<path class="st3" d="M157.7,189c-1.3-0.5-2.6-1.1-3.7-2c-0.5-0.4-1-0.9-1.4-1.5c-0.4-0.6-0.7-1.2-1-1.9c0.1,0.7,0.3,1.5,0.6,2.1
			c0.4,0.7,0.8,1.2,1.4,1.7c0.6,0.5,1.2,0.8,1.9,1.1C156.2,188.8,157,188.9,157.7,189z"/>
		<path class="st2" d="M148.2,204.4c-2.8-0.1-5-2.6-4.9-5.4c0.1-2.8,2.6-5,5.4-4.9c2.3,0.1,4.3,1.8,4.8,4.1l0,0
			c0.6,2.8-1.2,5.5-4,6.1C149.1,204.4,148.6,204.5,148.2,204.4z M148.7,194.8c-0.4,0-0.7,0-1.1,0.1c-2.4,0.5-3.9,2.9-3.4,5.3
			c0.5,2.4,2.9,3.9,5.3,3.4c2.4-0.5,3.9-2.9,3.4-5.3C152.4,196.4,150.7,194.9,148.7,194.8z"/>
		<path class="st2" d="M160,203.6c-2-0.1-3.6-2.2-3.8-4.9c-0.1-1.3,0.2-2.6,0.8-3.7c0.8-1.6,2.8-2.2,4.3-1.4c0.5,0.2,0.8,0.6,1.1,1
			c0.8,1,1.3,2.2,1.3,3.5c0.2,2.8-1.4,5.2-3.5,5.4L160,203.6z M159.9,194h-0.3c-0.9,0.1-1.7,0.6-2.1,1.4c-0.6,1-0.8,2.1-0.7,3.2
			c0.2,2.4,1.7,4.4,3.4,4.2s3-2.2,2.8-4.7c-0.1-1.1-0.5-2.2-1.2-3.1C161.5,194.4,160.7,194,159.9,194L159.9,194z"/>
		<path class="st2" d="M153.4,198.9l-0.5-0.5c0.7-0.7,2.5-1.7,3.8-0.5l-0.5,0.5C155,197.3,153.4,198.8,153.4,198.9z"/>
		<path class="st2" d="M131.6,201.9l-0.6-0.3c0.1-0.3,1.3-2.9,2.8-3.2s9.6-0.2,10-0.2v0.7c-3.3-0.1-6.6-0.1-9.9,0.2
			C133,199.3,131.9,201.2,131.6,201.9z"/>
		<path class="st9" d="M137.2,201.4c0,0-3.4-6-6.1-4.8s-0.4,9.6,2.4,10.9c1.4,0.8,3.3,0.4,4.1-1.1c0-0.1,0.1-0.1,0.1-0.2
			L137.2,201.4z"/>
		<path class="st3" d="M131.7,199C131.7,199,131.7,199.1,131.7,199c2,1.1,2.9,3.2,3.5,5.2c-0.4-0.8-1.4-1.2-2.2-0.8
			c-0.1,0-0.2,0.1-0.2,0.1c0,0,0,0.1,0,0.1c0,0,0,0,0,0c0.8-0.2,1.6,0.2,2,0.8c0.3,0.6,0.6,1.1,0.8,1.8c0.1,0.2,0.4,0.1,0.4-0.1
			v-0.1C136.3,203.5,134.6,199.5,131.7,199z"/>
		<path class="st3" d="M146.6,224.8c-0.2,3.3-0.8,11-6.1,10c-2.1-0.6-4-1.8-5.5-3.4c-2.9-3.1-5.3-6.5-7.2-10.3
			c-0.1-0.1-0.2,0-0.1,0.1c0.6,2,1.5,3.8,2.6,5.6c1.2,2,2.7,3.9,4.4,5.5c1.6,1.5,3.6,3,5.9,3.4c2,0.3,4-0.8,4.8-2.7
			C146.4,230.4,146.9,227.6,146.6,224.8L146.6,224.8z"/>
		<path class="st9" d="M118.3,226.2c-11.4,10-40.8,49.5-33.6,58s52.5,2.6,65.5-2.1c3.9-1.4-7.9-25.8-12.1-26.8
			c-3.6-0.8-22.9,5.8-23.3,4.7s3.3-9.8,9.4-25.5C131.1,216.4,123.3,221.7,118.3,226.2z"/>
		<path class="st9" d="M157.2,249.6c9.1-0.4,11.5,1,19-3.4c4.9-2.9,8.9-1,5.7,4.1c-5.2,8.2-16.8,11.1-21.2,11L157.2,249.6z"/>
		<path class="st9" d="M132.4,255.9c0,0,10.6-4.6,20.3-5.9c6.7-0.9,21.5-1.3,34,14.5c3,3.8,4.5,11.2-2.5,6.8
			c-5-3.1-7.3-6.6-10.5-7.8c0,0,0.9,9.7-3,12.5c-3.4,2.5-6.9,4.7-10.6,6.7c-0.5-0.6-1-1.2-1.4-1.9c0,0-3.9,2.3-10.6,1L132.4,255.9z"
			/>
		<path class="st9" d="M159.3,250.1c3,1.9,9.2,6.2,13,11.4c4.3,5.8,11,18.1,6.7,21.2c-3.2,2.3-6.1-2.2-6.1-2.2s1.7,5.7-1.6,7.1
			c-3,1.3-5.1-2.3-5.1-2.3s0.4,3.6-2.7,4.3c-3.8,0.9-4.1-6.9-8.7-9.3C153.7,279.8,159.3,250.1,159.3,250.1z"/>
		<path class="st3" d="M165.4,265c4,4.2,6.6,9.6,7.5,15.4c0,0.1-0.1,0.2-0.1,0.1C171,275,168.5,269.8,165.4,265
			C165.4,265,165.4,265,165.4,265z"/>
		<path class="st3" d="M159.7,269.5c1.9,2.2,6.1,9.2,6.6,15.8c0,0.1-0.1,0.2-0.1,0.1C164.6,279.9,162.5,274.6,159.7,269.5
			C159.7,269.5,159.7,269.5,159.7,269.5z"/>
		<path class="st3" d="M173.7,263.4c2.8,1.2,4.6,2.8,6.9,4.8c1.1,1,2.3,1.9,3.5,2.8c1.1,0.8,2.8,1.9,4.2,1c0.7-0.6,1-1.5,0.8-2.3
			c-0.2-1.2-0.7-2.4-1.3-3.5c0,0,0.1-0.1,0.1,0c0.6,1,1.1,2,1.5,3.1c0.2,0.8,0.2,1.6,0,2.3c-0.6,1.6-2.5,1.6-3.8,1
			c-0.8-0.4-1.5-0.8-2.2-1.3c-0.7-0.5-1.3-1-2-1.5c-1.3-1.1-2.5-2.2-3.8-3.3c-1.3-1-2.6-2-4-2.9c0-0.1,0-0.1,0-0.1
			C173.6,263.3,173.7,263.3,173.7,263.4z"/>
		<path class="st3" d="M178.7,274.3c-1.5-3.7-3.2-7.4-5.2-10.9 M173.7,263.4c2.4,3.2,4.3,6.7,5.8,10.4c0.8,2,1.2,4.2,1.2,6.4
			c-0.3,3.1-2.4,3.4-3.2,3.5c-0.9,0.1-1.8-0.2-2.6-0.7c-0.9-0.7-1.6-1.5-2.1-2.5c0,0,0-0.1,0.1-0.1c0.9,1.3,2.6,2.7,4.3,2.6
			c0.8,0,1.5-0.3,2-0.8c0.5-0.7,0.8-1.6,0.7-2.4c-0.1-1.9-0.4-3.8-1.1-5.6L173.7,263.4z"/>
		<path class="st2" d="M132.4,255.9l11.2,31.2c0,0-56.6,6.9-60.4-3.2s21.5-45.7,32.3-55.7c12.5-11.6,13.5-7.1,9.9,3.9
			c-3.8,11.6-10.5,28.1-10.5,28.1L132.4,255.9z"/>
		<path class="st3" d="M97.2,266.4c2.8-1.5,5.6-2.8,8.6-3.9c2.9-1.1,5.9-1.9,9-2.6c1.7-0.4,3.5-0.7,5.2-1c0,0,0.1,0.1,0,0.1
			c-3,0.7-6.1,1.5-9,2.5c-3,1-5.9,2-8.8,3.1c-1.7,0.6-3.3,1.3-4.9,2c0,0-0.1,0-0.1,0C97.2,266.5,97.2,266.5,97.2,266.4L97.2,266.4z"
			/>
		<path class="st3" d="M132.3,255.8c-0.3,0-15.9,3.5-16.4,3.7c0.1-0.2,3.6-8,4.1-9.1l0.2-0.3c0.3-0.5,0.7-1,1-1.5s0.8-1.3,1.2-2l0,0
			l-1.3,1.9c-0.2,0.3-0.4,0.6-0.6,0.9c0.3-0.8,0.7-1.6,1-2.4c0.5-1.3,1-2.6,1.5-3.9 M123,243c-1,2.3-2.2,4.5-3.2,6.8s-5,10.6-5,10.6
			s17.3-4.2,17.6-4.3c0.1,0,0.1-0.1,0.1-0.2c0-0.1-0.1-0.1-0.2-0.1l0,0L123,243z"/>
		<path class="st3" d="M131.4,275.3c-1.2-3.5-2.4-7-3.8-10.4c-0.8-2-1.5-3.9-2.3-5.9c0-0.1-0.2,0-0.1,0c1.1,3.5,2.2,7.1,3.4,10.6
			s2.5,7,3.8,10.4c0.7,2,1.5,3.9,2.4,5.8c1.3,2.9,0.1,0,0.1,0C133.8,282.3,132.6,278.8,131.4,275.3z"/>
		<path class="st3" d="M144.3,287.6c-0.5-1-1-2.4-1.5-3.3c-0.1-0.3-0.3-0.2-0.2,0c0.3,0.9,0.6,1.8,0.9,2.7c-0.8,0.1-1.6,0.1-2.4,0.2
			l-2.8,0.3c-1.8,0.2-3.6,0.4-5.4,0.5c-3.6,0.3-7.3,0.5-10.9,0.7c-7.3,0.3-14.7,0.3-22-0.1c-2-0.1-4.1-0.3-6.1-0.5s-4.3-0.5-6-0.9
			c-0.1,0-0.1,0.1,0,0.1c1.7,0.5,3.4,0.9,5.2,1.2c1.8,0.3,3.7,0.5,5.5,0.7c3.7,0.3,7.4,0.5,11.1,0.5c7.3,0.1,14.7-0.2,22-0.7
			c2.1-0.1,4.1-0.3,6.1-0.5l3.1-0.3C141.9,288,144.3,287.8,144.3,287.6z"/>
		<rect x="145.9" y="286.9" class="st6" width="71.3" height="3.2"/>
		<polygon class="st10" points="217.2,286.9 217.2,290.1 168.8,290.1 171.2,286.9 		"/>
		<polygon class="st10" points="178.6,290.1 240.9,290.1 250,246.1 187.6,246.1 		"/>
		<polygon class="st6" points="181.5,290.1 243.9,290.1 252.9,246.1 190.5,246.1 		"/>
		<path class="st5" d="M222.8,266.5c0.1,2-1.1,3.9-3.1,4.5c-1.8,0.4-3.3-1-3.3-3.1c-0.1-2,1.2-3.9,3.1-4.4
			C221.2,263,222.7,264.4,222.8,266.5z"/>
		<path class="st9" d="M362.5,381.5c-0.9,2.4-45.7,56.7-48.7,57.7c-1.1,0.4-9.4-5.7-19.2-13.3c-2.1-1.6-4.3-3.4-6.5-5.1
			c-14.3-11.3-29.2-23.7-29.2-23.7l29.9-36.4l28.4,24.7l6.2,5.4c0,0,26.4-13.1,29.8-13.9S363.4,379.1,362.5,381.5z"/>
		<path class="st0" d="M362.5,381.5c-0.9,2.4-45.7,56.7-48.7,57.7c-1.4,0.5-13.3-8.6-25.7-18.4l29-35.4l6.2,5.4
			c0,0,26.5-13.1,29.9-13.9S363.4,379.1,362.5,381.5z"/>
		<path class="st2" d="M362.5,381.5c-0.9,2.4-45.7,56.7-48.7,57.7c-1.1,0.4-9.4-5.7-19.2-13.3l28.8-35.1c0,0,26.4-13.1,29.9-13.9
			S363.4,379.1,362.5,381.5z"/>
		<path class="st3" d="M359.7,380.5c-7.7,8.9-38,45.6-45,55c0,0.1,0,0.1,0.1,0c7.9-8.7,37.9-45.6,45.1-54.9
			C360,380.4,359.9,380.3,359.7,380.5z"/>
		<path class="st3" d="M348.3,378.9c-1.7,2-2.6,4.6-2.3,7.3c0.3,2.3,1.4,4.5,3.2,6c0.1,0,0.1-0.1,0.1-0.1c-3.2-3.7-3.5-9-0.9-13.1
			C348.5,378.9,348.4,378.8,348.3,378.9z"/>
		<path class="st3" d="M327.1,388.1c-3.1,3.6-5.2,8.9-4.1,13.6c0,0.2,0.3,0.1,0.3,0c1-4.6,2.4-9,4.3-13.3c0.1-0.1,0.1-0.3-0.1-0.4
			S327.2,387.9,327.1,388.1L327.1,388.1z"/>
		<path class="st3" d="M330.5,386.1c-3,3.6-5.2,8.9-4.1,13.6c0,0.2,0.3,0.1,0.3,0c1-4.6,2.4-9,4.3-13.3c0.1-0.1,0.1-0.3-0.1-0.4
			S330.6,386,330.5,386.1z"/>
		<path class="st3" d="M334,384.2c-3.1,3.6-5.2,8.9-4.1,13.6c0,0.2,0.3,0.1,0.3,0c1-4.6,2.4-9,4.3-13.3c0.1-0.1,0.1-0.3-0.1-0.4
			S334.1,384.1,334,384.2z"/>
		<path class="st3" d="M337.4,382.3c-3,3.6-5.2,8.9-4.1,13.6c0,0.2,0.3,0.1,0.3,0c1-4.6,2.4-9,4.3-13.3c0.1-0.1,0.1-0.3-0.1-0.4
			C337.7,382.1,337.5,382.2,337.4,382.3z"/>
		<path class="st5" d="M307.9,426.1c-3.4,4.1,3,9.3,6.4,5.2S311.3,422,307.9,426.1z"/>
		<path class="st3" d="M320.7,376.1c-3,0.6-3.5,4.1-2.8,6.6c1.2,4.2,3.5,8,6.6,11c0.1,0.1,0.2,0,0.2,0c0.3,0.1,0.6,0,0.8-0.2
			c0-0.1,0-0.1,0.1-0.2c0.3-4.1,1.2-8.4,0.3-12.4C325.2,378.4,323.5,375.5,320.7,376.1z M324.7,387c-0.1,2-0.3,4-0.4,6
			c-1.3-2.1-2.6-4.3-3.7-6.5c-0.5-1.1-1-2.2-1.4-3.4c-0.5-1.8-0.6-7.9,3.6-5C325.2,379.7,324.9,384.6,324.7,387z"/>
		<path class="st3" d="M318.3,403.8c3.1-2.8,4.9-6.8,7-10.3c0.2-0.4-0.1-0.7-0.4-0.8c0-0.1,0-0.1-0.1-0.1c0,0,0,0,0,0
			c-4.3,0.6-8.3,2.4-11.8,5.1c-2,1.6-3.7,4.8-1.5,7S316.5,405.5,318.3,403.8z M314.4,404.3c-5.2-0.1-1.5-5-0.1-6.1
			c1-0.7,2-1.4,3.1-1.9c2.2-1.2,4.5-2.2,6.8-3.1c-1.1,1.7-2.1,3.4-3.2,5.1C319.7,400.2,317.3,404.4,314.4,404.3z"/>
		<path class="st3" d="M315.6,379.9l-33.2,39.4l-100.2-71.4l-9.9-7c0,0-2.8,1.9-7.1,4.2c-5.9,3.2-14.6,7.2-22.3,8.2
			c-12.8,1.7-32.2,1.3-42.8-13.3c-9-12.3-5.9-28.1-5.9-28.1l14.1-5.9c0,0,33.6-27.3,55.2-27.9c9.2-0.3,22.4,6.9,34.7,14.2
			S315.6,379.9,315.6,379.9z"/>
		<path class="st4" d="M172.3,340.8c0,0-2.8,1.9-7.1,4.2c-7.4-9.1-23.1-25.6-23.6-26.2L172.3,340.8z"/>
		<path class="st4" d="M120.7,296.8c-2,1.4-4,2.8-5.9,4.2s-4,2.7-5.8,4.2s-3.7,3.2-5.5,4.8c-0.9,0.8-1.7,1.6-2.5,2.4
			c-0.9,0.8-1.7,1.7-2.4,2.6c-0.1,0.1,0.1,0.2,0.2,0.1c0.9-0.7,1.8-1.4,2.7-2.1l2.8-2.3c1.8-1.5,3.7-3,5.5-4.5s3.4-3.1,5.2-4.6
			s3.9-3.1,5.9-4.6C120.7,296.9,120.7,296.8,120.7,296.8z"/>
		<path class="st4" d="M305.4,376.1c-2,2.1-3.9,4.4-5.8,6.6s-3.8,4.5-5.6,6.8c-3.7,4.5-7.5,9.1-11.1,13.6c-2,2.5-4,5.1-5.9,7.7
			c-0.1,0.1,0.1,0.2,0.2,0.1c4-4.3,7.7-8.9,11.4-13.4c3.7-4.5,7.4-9.1,11.1-13.7c2-2.5,4.1-5,5.9-7.7
			C305.6,376.1,305.4,376,305.4,376.1z"/>
		<path class="st4" d="M230,381.8c-5.1-4.1-16.7-12.1-21.9-16s-10.5-7.7-15.8-11.4c-1.5-1.1-3.1-2.1-4.6-3.2s-3.1-2-4.6-3.1
			c-0.1-0.1-0.2,0.1-0.1,0.1c1.4,1,2.7,2.2,4.1,3.2s2.6,2,3.9,3c2.6,1.9,5.1,3.8,7.7,5.8c5.2,3.9,10.5,7.7,15.8,11.5
			c3,2.1,12.3,8.4,15.4,10.4C230,382.3,230.2,382,230,381.8z"/>
		<path class="st4" d="M262.9,339.6c-4.7-4-15.4-11.7-20.3-15.4s-10-7.5-15-11.2l-14.8-11c-4.8-3.6-9.6-7.2-14.7-10.4
			c-2.8-1.7-5.6-3.4-8.6-4.8c-2.9-1.5-5.8-2.8-8.9-3.8c-0.1,0-0.1,0.1-0.1,0.1c2.5,1.4,5.1,2.7,7.7,4.1s5,2.8,7.4,4.3
			c5.1,3.1,9.8,6.7,14.6,10.2c9.9,7.3,19.9,14.7,29.9,22c5.6,4,16.8,12.4,22.6,16.1C262.9,340,263.1,339.7,262.9,339.6z"/>
	</g>
</g>
</svg>
