<?xml version="1.0" encoding="utf-8"?>
<!-- Generator: Adobe Illustrator 26.0.3, SVG Export Plug-In . SVG Version: 6.00 Build 0)  -->
<svg version="1.1" id="Layer_1" xmlns="http://www.w3.org/2000/svg" xmlns:xlink="http://www.w3.org/1999/xlink" x="0px" y="0px"
	 viewBox="0 0 500 500" style="enable-background:new 0 0 500 500;" xml:space="preserve">
<style type="text/css">
	.st0{fill:#EBEBEB;}
	.st1{fill:#DBDBDB;}
	.st2{fill:#FFFFFF;}
	.st3{opacity:0.5;fill:#EBEBEB;enable-background:new    ;}
	.st4{fill:#C7C7C7;}
	.st5{fill:#A6A6A6;}
	.st6{fill:#263238;}
	.st7{fill:#455A64;}
	.st8{fill:#7680FF;}
	.st9{opacity:0.3;enable-background:new    ;}
	.st10{opacity:0.2;enable-background:new    ;}
	.st11{opacity:0.1;enable-background:new    ;}
	.st12{fill:#37474F;}
	.st13{fill:#D3766A;}
</style>
<g>
	<g id="freepik--background-complete--inject-135">
		<rect x="402.1" y="336.5" class="st0" width="35.2" height="11.2"/>
		<rect x="421.7" y="143.5" class="st0" width="35.2" height="11.2"/>
		<path class="st0" d="M421.7,361.8l17.7-0.3l8.8-0.1h8.7l-0.5,0.5v-11.2l0.5,0.5l-17.6-0.1l-8.8-0.1l-8.8-0.1l0.2-0.2L421.7,361.8z
			 M421.7,361.8l-0.2-11.2v-0.2h0.2l8.8-0.1l8.8-0.1l17.6-0.1h0.5v0.5v11.2v0.5h-0.5H448l-8.8-0.1L421.7,361.8z"/>
		<path class="st0" d="M129.9,333.9l17.7-0.3l8.8-0.1l8.7,0l-0.5,0.5v-11.2l0.5,0.5l-17.6-0.1l-8.8-0.1l-8.8-0.1l0.2-0.2
			L129.9,333.9z M129.9,333.9l-0.2-11.1v-0.2h0.2l8.8-0.1l8.8-0.1l17.6-0.1h0.5v0.5v11.2v0.5H165h-8.9l-8.8-0.1L129.9,333.9z"/>
		<path class="st0" d="M149.5,348l17.7-0.3l8.8-0.1l8.7,0l-0.5,0.5v-11.2l0.5,0.5l-17.7-0.1l-8.8-0.1l-8.8-0.1l0.2-0.2L149.5,348z
			 M149.5,348l-0.2-11.2v-0.2h0.2l8.8-0.1l8.8-0.1l17.6-0.1h0.5v0.5V348v0.5h-0.4h-8.9l-8.8-0.1L149.5,348z"/>
		<rect x="169" y="322.7" class="st0" width="35.2" height="11.2"/>
		<rect x="43.2" y="350.6" class="st0" width="35.2" height="11.2"/>
		<rect x="70" y="77.4" class="st0" width="35.2" height="11.2"/>
		<path class="st0" d="M50.4,102.7l17.7-0.3l8.8-0.1h8.7l-0.5,0.4V91.6l0.5,0.5L68,92l-8.8-0.1l-8.8-0.1l0.2-0.3L50.4,102.7z
			 M50.4,102.7l-0.2-11.2v-0.2h0.2l8.8-0.1l8.8-0.1L85.6,91h0.5v0.5v11.2v0.5h-0.4h-8.9l-8.8-0.1L50.4,102.7z"/>
		<path class="st0" d="M353.8,79.6l17.7-0.3l8.8-0.1h8.7l-0.5,0.4V68.4l0.5,0.5l-17.6-0.1l-8.8-0.1l-8.8-0.1l0.2-0.2L353.8,79.6z
			 M353.8,79.6l-0.2-11.2v-0.2h0.2l8.8-0.1l8.8-0.1l17.6-0.1h0.5v0.5l0,11.2V80H389h-8.9l-8.8-0.1L353.8,79.6z"/>
		<circle class="st0" cx="368.7" cy="104.9" r="43.1"/>
		
			<ellipse transform="matrix(0.4761 -0.8794 0.8794 0.4761 101.0438 381.4081)" class="st1" cx="370.6" cy="105.9" rx="41.1" ry="41.1"/>
		
			<ellipse transform="matrix(0.9494 -0.314 0.314 0.9494 -14.5152 121.7294)" class="st2" cx="370.6" cy="105.9" rx="38.5" ry="38.5"/>
		<path class="st3" d="M408.3,97.7c-17.5,10.6-46.4,28.1-62.5,37.6c-4.6-3.8-8.2-8.7-10.5-14.1l53.3-49.4
			C398.6,77.1,405.8,86.6,408.3,97.7z"/>
		<path class="st3" d="M409.1,107.2c-0.1,4.3-1,8.5-2.5,12.5l-48,22.7c-2.1-0.7-4.1-1.6-6.1-2.6C367,131.5,393.5,116.2,409.1,107.2z
			"/>
		<rect x="370.3" y="70.2" class="st4" width="0.7" height="5.8"/>
		<rect x="353.8" y="74.6" transform="matrix(0.866 -0.5 0.5 0.866 8.7194 187.4877)" class="st4" width="0.8" height="5.8"/>
		<rect x="341.8" y="86.6" transform="matrix(0.5 -0.866 0.866 0.5 93.609 341.0982)" class="st4" width="0.7" height="5.8"/>
		<rect x="334.9" y="105.5" class="st4" width="5.8" height="0.7"/>
		
			<rect x="340.9" y="122.4" transform="matrix(0.867 -0.4983 0.4983 0.867 -15.443 187.6268)" class="st4" width="5.9" height="0.7"/>
		
			<rect x="351.3" y="133.9" transform="matrix(0.4994 -0.8664 0.8664 0.4994 60.9651 374.1355)" class="st4" width="5.8" height="0.7"/>
		<rect x="370.3" y="135.8" class="st4" width="0.7" height="5.8"/>
		<rect x="386.7" y="131.4" transform="matrix(0.866 -0.5 0.5 0.866 -15.3011 211.5048)" class="st4" width="0.7" height="5.8"/>
		
			<rect x="398.7" y="119.4" transform="matrix(0.5002 -0.8659 0.8659 0.5002 93.5445 406.7093)" class="st4" width="0.7" height="5.8"/>
		<rect x="400.5" y="105.5" class="st4" width="5.8" height="0.7"/>
		
			<rect x="396.1" y="89.2" transform="matrix(0.8659 -0.5002 0.5002 0.8659 8.7177 211.5827)" class="st4" width="5.8" height="0.7"/>
		
			<rect x="384.1" y="77.1" transform="matrix(0.4995 -0.8663 0.8663 0.4995 126.5619 374.0419)" class="st4" width="5.8" height="0.7"/>
		<polygon class="st4" points="371.2,72.8 372.5,108.5 368.8,108.5 370.2,72.8 		"/>
		<polygon class="st5" points="393.4,93.5 369.4,108.8 367.7,105.6 392.9,92.6 		"/>
		<path class="st4" d="M371.9,105.9c0,0.7-0.6,1.2-1.2,1.2s-1.2-0.6-1.2-1.2s0.6-1.2,1.2-1.2C371.3,104.6,371.9,105.2,371.9,105.9
			C371.9,105.9,371.9,105.9,371.9,105.9z"/>
	</g>
	<g id="freepik--Table--inject-135">
		<polygon class="st6" points="36.7,457.5 90,457.2 143.4,457.2 250,457 356.6,457.1 410,457.2 463.3,457.5 410,457.7 356.6,457.8 
			250,458 143.4,457.8 90,457.7 		"/>
	</g>
	<g id="freepik--Plant--inject-135">
		<path class="st7" d="M71,330.4c0,0,0.9,0,2,4c0.6,2.2-2.8,20.8-2.5,40.5c0.2,14.8,1,31,2.1,40.2c0,0,1.1,2.2,4.6,1.5
			c-2.8-13.9-4.4-28.1-4.6-42.3c-0.1-13.9,2.7-29.7,2.6-40.5c0-1.3,0.3-2.6,0.9-3.8L71,330.4z"/>
		<path class="st8" d="M74.3,325.2c0,0-4.2-3.1-4-7.8c0.1-4.7,1.8-8.4,4.1-10.6s3.1-2.1,3.1-2.1s2.6-0.3,4.2,5.1
			c1.6,5.4,3.1,10,1.2,12.8C79.3,327.9,74.3,325.2,74.3,325.2z"/>
		<path class="st9" d="M74.3,325.2c0,0-4.2-3.1-4-7.8c0.1-4.7,1.8-8.4,4.1-10.6s3.1-2.1,3.1-2.1s2.6-0.3,4.2,5.1
			c1.6,5.4,3.1,10,1.2,12.8C79.3,327.9,74.3,325.2,74.3,325.2z"/>
		<path class="st8" d="M67.4,318.2c0,0-1.8-4.6-0.2-8.1c1.6-3.5,2.8-3.5,3.1-3.6c0.3-0.1,2.6,0.6,3.5,3.9s0.8,5.7,0.3,7.1
			c-0.5,1.4-2.7,2.4-2.7,2.4C69.8,320.1,68.3,319.4,67.4,318.2z"/>
		<path class="st10" d="M67.4,318.2c0,0-1.8-4.6-0.2-8.1c1.6-3.5,2.8-3.5,3.1-3.6c0.3-0.1,2.6,0.6,3.5,3.9s0.8,5.7,0.3,7.1
			c-0.5,1.4-2.7,2.4-2.7,2.4C69.8,320.1,68.3,319.4,67.4,318.2z"/>
		<path class="st8" d="M67.6,308.6c0,0-1.9,0.5-2.4,3.7c-0.3,2.6-0.2,5.2,0.3,7.7c0.2,0.7,0.7,7.3,4.2,9.9c3.5,2.6,4.1,1,4.1,1
			c1.8-1.3,2.9-3.3,3-5.6c0.3-3.3,0-6.7-1-9.9c-0.9-2.8-1.3-4.4-3.2-5.4C70.6,309,68.2,308.3,67.6,308.6z"/>
		<path class="st11" d="M67.6,308.6c0,0-1.9,0.5-2.4,3.7c-0.3,2.6-0.2,5.2,0.3,7.7c0.2,0.7,0.7,7.3,4.2,9.9c3.5,2.6,4.1,1,4.1,1
			c1.8-1.3,2.9-3.3,3-5.6c0.3-3.3,0-6.7-1-9.9c-0.9-2.8-1.3-4.4-3.2-5.4C70.6,309,68.2,308.3,67.6,308.6z"/>
		<path class="st8" d="M76.3,331.7c0,0-4.2,0.7-5.4-5.3s0.2-7.9,0.5-8.8s-0.1-1.8,0.6-2.8c0.7-1,1.1-0.8,1.9-2.2s1.1-3.4,1.8-4
			c0.6-0.6,1.4-0.9,2.3-0.8c1.2,0.4,2.4,0.9,3.5,1.5c1,0.4,0.7,2.3,1.4,3.1s2.6,3.2,1.8,7.7s-1.4,7.6-3.4,9.3
			C79.3,331.2,77.6,331.7,76.3,331.7z"/>
		<path class="st8" d="M70.4,331.4c-0.7,0.1-2.4,0.2-4.6-2.4c-2.6-3.1-2.3-7.6-2.5-8.8c-0.2-2.2-0.5-4.4-1.1-6.5
			c-0.6-1.7-0.5-2.7-0.3-2.8s1.8,0.5,2.6,2.5c0.8,2,2.6,3.9,2.9,6.9c0.3,3,0.2,7.2,1.8,9s3.4,1.3,3,2.1
			C71.6,331.4,71,331.4,70.4,331.4z"/>
		<path class="st7" d="M71.8,378.5c0,0-2.5-8,5.3-22.6s14.8-19,14.8-19s-0.1,8.1-6.9,21.6S72.9,377.9,71.8,378.5z"/>
		<path class="st12" d="M88.1,343.2c0.2-0.4,0.3,0,0.1,0.4c-2.8,5.2-12.2,20.8-15.3,31.6c-0.1,0.5-0.5,0-0.3-0.5
			C78.5,356.5,85.3,348.4,88.1,343.2z"/>
		<path class="st8" d="M91.3,365.3c0,0,0.5-10.2-2.3-12.8s-3.4-1.9-4.2-2.1c-1,0-2,0.2-2.9,0.5c0,0,4.2,1,5.2,3.8L91.3,365.3z"/>
		<path class="st10" d="M91.3,365.3c0,0,0.5-10.2-2.3-12.8s-3.4-1.9-4.2-2.1c-1,0-2,0.2-2.9,0.5c0,0,4.2,1,5.2,3.8L91.3,365.3z"/>
		<path class="st7" d="M95.8,368.4c0.9,1.4,1.2,3,0.9,4.6c-2.3,22-7.9,33.7-17,48c0,0-1.8,4.6,0.4,3.6c0,0,14.5-15.3,18.2-50.5
			c0,0,0.2-4,2.8-5.7C101.1,368.4,96.2,367.2,95.8,368.4z"/>
		<path class="st8" d="M95,346.4c1.3-0.1,2.4,0.9,2.6,2.1c0.5,2.4,4.8,15.2,3,18.8s-2.6,2.1-4.2,2.3c-1.8,0.3-5.6-2.3-6.2-4.4
			c-0.6-2.1-1.8-6.4-1.4-8.8S88.3,346.5,95,346.4z"/>
		<path class="st11" d="M95,346.4c1.3-0.1,2.4,0.9,2.6,2.1c0.5,2.4,4.8,15.2,3,18.8s-2.6,2.1-4.2,2.3c-1.8,0.3-5.6-2.3-6.2-4.4
			c-0.6-2.1-1.8-6.4-1.4-8.8S88.3,346.5,95,346.4z"/>
		<path class="st8" d="M106.2,345.2c0,0,2.1,1.8,2.2,3.8s1.1,11-1.2,15.4c-2.3,4.4-4.3,5.6-7.5,5.6s2.5-22.6,2.5-22.6
			S105,343.9,106.2,345.2z"/>
		<path class="st10" d="M106.2,345.2c0,0,2.1,1.8,2.2,3.8s1.1,11-1.2,15.4c-2.3,4.4-4.3,5.6-7.5,5.6s2.5-22.6,2.5-22.6
			S105,343.9,106.2,345.2z"/>
		<path class="st8" d="M101.6,346.5c0,0,3.2,0.1,4.4,2.5c1.5,3.2,2.1,6.7,1.7,10.2c-0.5,3.4-1.3,11.8-8.6,10.8
			c-5.6-0.8-6.8-8.3-6.5-14.5c0.2-4.5,3-5.2,4.6-6.9C98.3,347.4,99.9,346.6,101.6,346.5z"/>
		<path class="st8" d="M98.9,369.9c0,0-6.1,0.9-8.8-2.9s-1.8-6.4-2.2-9c-0.3-1.6-0.8-3.1-1.4-4.6c0,0,1.7,0.8,3,5.9
			C90.8,364.4,95,369.4,98.9,369.9z"/>
		<path class="st7" d="M80.1,423.9c0,0,2.7-11.3,14-21.9c10.8-10.2,17.6-10.5,19.6-11.5l0.2-0.1c1.6-1.1-7.2,11-14.8,17.9
			S85.3,421.5,80.1,423.9z"/>
		<path class="st12" d="M105.5,397.1c-9.5,6.1-16.4,13.9-22.2,22.5c-0.3,0.4-0.6,1.2-0.3,0.8c6.2-8.7,13.7-16.5,22.3-22.8
			C105.7,397.3,105.9,396.8,105.5,397.1z"/>
		<path class="st8" d="M57.8,350.3c0,0,4.9-1.7,6.1-6.3c1.2-4.6,0.7-8.5-0.8-11.4c-1.5-2.8-2.3-3-2.3-3s-2.4-1.1-5.5,3.6
			s-5.9,8.6-5,11.9C52.2,351.3,57.8,350.3,57.8,350.3z"/>
		<path class="st9" d="M57.8,350.3c0,0,4.9-1.7,6.1-6.3c1.2-4.6,0.7-8.5-0.8-11.4c-1.5-2.8-2.3-3-2.3-3s-2.4-1.1-5.5,3.6
			s-5.9,8.6-5,11.9C52.2,351.3,57.8,350.3,57.8,350.3z"/>
		<path class="st7" d="M59.5,355c0,0-0.9,0-2,4c-1,3.8-5.4,30.8,4.8,53.4c0,0,0.9,3.9-2.6,3.2c0,0-10.9-26.3-4.5-57.1
			c0.2-1.3-0.2-2.7-0.9-3.8L59.5,355z"/>
		<path class="st8" d="M66.5,345.5c0,0,3.1-3.8,2.5-7.7s-1.6-4.2-2-4.4s-2.7-0.2-4.5,2.7c-1.8,3-2.5,5.2-2.4,6.7s1.9,3.1,1.9,3.1
			C63.5,346.7,65.2,346.5,66.5,345.5z"/>
		<path class="st10" d="M66.5,345.5c0,0,3.1-3.8,2.5-7.7s-1.6-4.2-2-4.4s-2.7-0.2-4.5,2.7c-1.8,3-2.5,5.2-2.4,6.7s1.9,3.1,1.9,3.1
			C63.5,346.7,65.2,346.5,66.5,345.5z"/>
		<path class="st8" d="M69.1,336.4c0,0,1.6,1,1.2,4.3c-0.4,2.5-1.3,5-2.6,7.2c-0.4,0.6-2.9,6.8-6.9,8.3s-4.2-0.3-4.2-0.3
			c-1.4-1.8-1.8-4.1-1.3-6.2c0.7-3.3,2-6.4,3.9-9.2c1.7-2.4,2.6-3.8,4.7-4.2C66,335.8,68.6,335.8,69.1,336.4z"/>
		<path class="st11" d="M69.1,336.4c0,0,1.6,1,1.2,4.3c-0.4,2.5-1.3,5-2.6,7.2c-0.4,0.6-2.9,6.8-6.9,8.3s-4.2-0.3-4.2-0.3
			c-1.4-1.8-1.8-4.1-1.3-6.2c0.7-3.3,2-6.4,3.9-9.2c1.7-2.4,2.6-3.8,4.7-4.2C66,335.8,68.6,335.8,69.1,336.4z"/>
		<path class="st8" d="M54,355.9c0,0,3.8,1.9,6.7-3.5s2.1-7.6,2.1-8.5s0.6-1.7,0.3-2.8s-0.8-1.1-1.2-2.6s0-3.6-0.5-4.3
			c-0.4-0.8-1.1-1.3-1.9-1.5c-1.3,0-2.6,0.1-3.8,0.4c-1.1,0.1-1.3,2-2.2,2.6s-3.4,2.3-4,6.9s-0.9,7.6,0.5,9.9S52.7,355.5,54,355.9z"
			/>
		<path class="st8" d="M59.7,357.3c0.7,0.3,2.3,0.9,5-0.9c3.4-2.2,4.4-6.6,4.9-7.6c0.8-2.1,1.8-4.1,3-6c1.1-1.5,1.2-2.4,1.1-2.6
			c-0.1-0.2-1.8-0.1-3.2,1.6s-3.6,3-4.8,5.7s-2.3,6.9-4.4,8.1s-3.7,0.3-3.5,1.2C58.5,356.9,59.1,357.1,59.7,357.3z"/>
		<path class="st7" d="M56.7,400.9c0,0,2.5-8-5.3-22.6s-14.8-19-14.8-19s0.1,8.1,6.9,21.6S55.7,400.3,56.7,400.9z"/>
		<path class="st12" d="M40.5,365.6c-0.2-0.4-0.3,0-0.1,0.4c2.7,5.2,12.2,20.8,15.3,31.6c0.1,0.5,0.5,0,0.4-0.5
			C50,378.9,43.3,370.8,40.5,365.6z"/>
		<polygon class="st8" points="42.6,457.5 112.8,457.5 109.7,424 109,416.6 46.4,416.6 45.7,424 		"/>
		<polygon class="st11" points="45.9,421.7 109.7,424 109,416.6 46.4,416.6 		"/>
		<rect x="42.3" y="410.4" class="st8" width="70.7" height="8.9"/>
	</g>
	<g id="freepik--Character--inject-135">
		<path class="st13" d="M359,326.4c-2.6,31.5-23,100.2-37.2,111.9c-9.2,7.5-48.5,15.9-69.1,15.9c-8.5,0-14.7-58-2-58.8
			c21.9-1.4,37.4-3.4,43.2-6.4c4.5-2.4,15.9-24.2,46.8-65.9C352,307.7,360.4,308.7,359,326.4z"/>
		<path class="st13" d="M263.8,453.1c-1.1,0.3-16.2,4.1-25.2,4.6c-6.7,0.4-26,1.1-27.2-6.2c-0.8-5,10.5-6.7,18.5-8.1
			c4.2-0.7,9.8-3.7,9.3-6.4c-1-4.8-11.9-2.6-19.2-0.3c-14.2,4.5-33.9,13.9-40.1,5.8c-2.4-3.1,2-6.7,7.9-9.9
			c-9.1,3.2-18.6,5.4-21.3,2.1c-1.6-1.9-1.2-3.9,0.4-5.9c-2.6,0.2-4.8-0.4-6-2.4c-2-3.3,0.2-7,3.9-10.5c-1-0.3-1.7-1.1-2-2.1
			c-3.6-9.6,29.4-27.5,39.4-27.7c29.5-0.4,58.8,8.8,58.8,8.8C269.8,406.1,263.8,453.1,263.8,453.1z"/>
		<path class="st6" d="M228.3,418c-6.9-0.4-13.8,0.6-20.3,3c-8.2,3.1-14.1,7.5-21.3,11.7c-0.1,0.1-0.1,0.2,0,0.2
			c0,0.1,0.1,0.1,0.2,0.1c3.4-2,17.4-9.2,21-10.8c6.4-2.9,13.4-4.3,20.5-4.1C228.4,418.1,228.4,418,228.3,418z"/>
		<path class="st6" d="M225.8,404.9c-7.8,0.4-15.8,0.7-23.4,2.7c-8.3,2.1-15.6,7-22.7,11.7c-4.3,2.8-8.5,5.7-12.6,8.7
			c-0.2,0.1,0,0.4,0.2,0.3c7.2-4.9,14.6-9.5,22.1-14c7-4.2,14.7-6.9,22.7-8.1c4.6-0.7,9.2-1,13.8-1.3
			C225.9,405.1,225.9,404.9,225.8,404.9z"/>
		<path class="st6" d="M220.2,392.8c-7.5-0.1-14-0.3-21.2,2.1c-9.5,3.2-19.6,9.9-23.1,12.3c-3.9,2.6-7.7,5.4-11.5,8.2
			c-0.1,0.1,0.1,0.4,0.2,0.3c8.5-6.1,17.4-11.7,26.7-16.7c4.4-2.4,9.1-4.2,14-5.2C210.3,393.1,215.3,392.7,220.2,392.8L220.2,392.8z
			"/>
		<path class="st8" d="M347.9,399.5l-39.5-38.7c0,0,23.5-33.4,39.4-48c8.9-8.2,15.4-1.4,15.3,9.5
			C362.9,360.5,347.9,399.5,347.9,399.5z"/>
		<path class="st8" d="M347.9,399.5l-39.5-38.7c0,0,23.5-33.4,39.4-48c8.9-8.2,15.4-1.4,15.3,9.5
			C362.9,360.5,347.9,399.5,347.9,399.5z"/>
		<path class="st11" d="M350.4,347.4c1.1-1.1,2.3-2.1,3.5-3.1c-0.8,0.6-1.6,1.4-2.3,2L350.4,347.4z M362.9,330.1
			c-0.8-0.4-1.7-0.7-2.6-1v0.2c0,0,0,0,0,0.1c0,0.1,0,0.2,0,0.2c0.1,0.6,0.2,1.2,0.3,1.9c0.3,2.4,0.8,4.8,1.5,7.2l0,0
			c-0.1,0.9-0.2,1.8-0.3,2.7c-1.1-2.4-1.9-4.9-2.2-7.5c-0.5,10.3-3.1,20.5-7.5,29.9c0,0.1,0.1,0.1,0.1,0.2c3.1,11-0.3,20-9.3,26.6
			c0,0.1,0,0.2-0.1,0.3c-0.1,0.3-0.5,0.1-0.5-0.1c0.8-9.4-1.6-20.3,8.1-25.4c2.1-5.9,3.9-11.8,5.2-17.9c-4.3,8.5-10.3,14-20.2,17.3
			c-0.1,0.2-0.3,0.2-0.4,0.2c-0.1,0-0.1-0.1-0.2-0.2c0-0.1,0-0.1,0-0.2l0,0c1-7,4.1-13.4,8.9-18.5c3.6-3.7,8.1-4.5,13-4.1
			c1.9-10.7,1.9-21.6,0.1-32.3c-13.1,16.4-21.5,35.7-30.3,54.8v0.1c0.2,4.8,1.6,10.1,0.6,15l-1.3-1.3c0.7-3.9,0-8.2-0.3-12.1
			c-0.2,3.5-0.7,7.1-1.3,10.5l-0.2-0.2c0.6-3.3,1-6.7,1.3-10c-1.3,2.5-2.6,5.1-3.8,7.6l-0.1-0.1c1.2-2.6,2.5-5.2,3.9-7.7l0.1-0.5
			c-0.3,0.4-0.6,0.8-0.9,1.1c-1.4,2.1-2.7,4.2-3.8,6.4l-0.2-0.2c0.9-1.5,1.8-3.1,2.7-4.6c-1.1,1.3-2.3,2.5-3.5,3.9l-1.1-1.1
			c2.1-2.4,4.5-4.7,7-6.8c0,0,0-0.1,0-0.1c0-0.1,0.1-0.1,0.1-0.1c0,0,0,0,0,0l0.6-0.5c1.7-4.7,3.5-9.4,5.4-14
			c-3.3,3.5-6.7,7.4-10.9,9.6c-2.7,1.4-7.4,2.4-11.3,3.1l-0.8-0.7c3.4-0.6,6.8-1.6,10-2.9c4.5-2.1,8.9-6.2,12.6-9.8
			c-2.2,1.8-4.6,3.5-7.1,5 M324.5,353.7c2.6-1.7,5-3.6,7.4-5.6c-5,1.7-10.1,2.9-14.9,5.3c-2.1,1.1-4.1,2.3-6,3.6l0.3-0.4
			c1.8-1.3,3.7-2.4,5.6-3.4c4.9-2.4,10.1-4.2,15.4-5.4c-5.2-0.6-10.5,0.4-15.2,2.9c-0.9,0.5-1.8,1.1-2.7,1.7l0.5-0.6l0,0
			c1-0.7,2-1.3,3.1-1.8c4.5-2.2,9.5-2.9,14.4-2.3l0.2-0.2c-6.1-1.5-11.3-1.1-16.2,2.1c0.6-0.8,1.3-1.7,2-2.6
			c4.1-2.2,8.8-2.7,14.6,0.2l0,0c5.9-13.6,13.4-26.4,22.6-38.1c1,0.1,1.9,0.4,2.8,0.9c1,5.8,1.5,11.6,1.5,17.4
			c0,0.2,0.1,0.5,0.1,0.7c1,0.1,1.9,0.2,2.9,0.5c0,0.5,0,1-0.1,1.5L324.5,353.7z M351.5,365.8v-0.1l-0.2,0.1h-0.1l0,0
			c-0.2,0.1-0.3,0.2-0.5,0.3c-0.1,0-0.1,0.1-0.2,0.1c-4.4,3.3-6.4,7.8-6.6,13.5c0,1.4,0,2.8-0.1,4.1c0,1.9-0.2,3.9-0.6,5.8l0,0
			c3-3.8,6.6-6.5,8-11.4C352.4,374.2,352.5,369.9,351.5,365.8L351.5,365.8z M336.3,363c2.7-5,4.2-10.6,8.4-14.6
			c2.7-2.6,6-4.4,9.6-5.3c-5.4,0.5-8.9,2.2-12.5,7.6C339.2,354.7,337.8,358.7,336.3,363z M336.3,363.5c2.7-4.2,5.9-8.1,9.4-11.6
			c1.5-1.6,3.1-3,4.8-4.5c-1.6,1.6-3.1,3.2-4.5,4.7c-3.3,3.4-6.3,7-9,10.8c3.5-2.9,7.5-5.2,10.7-8.6c3.2-3.5,6.2-7.3,8.7-11.4H356
			c-0.7,0.4-1.4,0.9-2.1,1.4c0.6-0.5,1.2-0.9,1.8-1.3c-4.4,0.8-8.5,3-11.6,6.3c-3.9,4.1-5.2,9.6-8,14.3L336.3,363.5z M356.7,343
			h-0.2c-2.5,4-5.3,7.8-8.4,11.3c-3.5,3.4-7.3,6.5-11.4,9.1l-0.1,0.2c3.6-2.1,7.5-3.7,10.7-6.3C351.7,353.5,354,348,356.7,343
			L356.7,343z M323.3,354.5c-4.2,3.1-9.4,5-14.5,6.6l-0.4-0.4l0,0l0,0C313.5,359.1,318.7,357.8,323.3,354.5L323.3,354.5z
			 M351.7,365.5l-0.1,0.3c-0.1,0.2-0.2,0.5-0.3,0.7c-0.2,3.9-0.4,7.7-1.8,11.5c-1.6,4-3.6,7.9-6.1,11.4c0,0.1,0,0.2-0.1,0.3
			c0,0.1,0,0.1,0,0.2c0,0.1-0.1,0-0.1,0c0-0.1,0-0.2,0-0.2c0,0-0.1,0-0.1-0.1c0,0,0,0,0,0c0,0,0,0,0-0.1c0.1-0.3,0.2-0.5,0.2-0.8
			c0.2-1.6,0.4-3.2,0.6-4.7c1-6.3,2.9-12.4,6.7-17.6c0.2-0.3,0.4-0.6,0.7-0.9c0-0.2,0-0.4,0-0.6h0c0,0.2,0,0.4,0,0.6
			c0.2-0.2,0.4-0.5,0.5-0.7c0,0,0.1,0,0.1,0c-0.2,0.2-0.4,0.5-0.6,0.8v0.4v0.1l0.1-0.1c0.1-0.1,0.2-0.3,0.2-0.4
			S351.7,365.4,351.7,365.5L351.7,365.5z M351.2,366.7c-3.1,7-5,14.4-7.6,21.5c0,0.2-0.1,0.4-0.1,0.6c2.2-3.4,4.2-7.1,5.7-10.9
			C350.4,374.3,351.1,370.5,351.2,366.7L351.2,366.7z M351.2,365.9c0-0.1,0-0.2,0-0.3c-0.2,0.2-0.3,0.5-0.5,0.7
			c-2.4,3.1-4.1,6.7-5.1,10.4c-0.8,3.2-1.2,6.5-1.7,9.8c1-3.4,2.2-6.7,3.3-10C348.1,372.9,349.5,369.4,351.2,365.9
			C351.2,366,351.2,366,351.2,365.9L351.2,365.9z M360.3,329.3L360.3,329.3C360.2,329.3,360.2,329.4,360.3,329.3l0,0.3
			c0.7,1.5,1.5,3,2.3,4.5c0,0.1,0,0.2,0,0.3c-0.8-1.4-1.5-2.8-2.1-4.2c0.6,1.9,1.3,3.8,2,5.6l0,0l-0.1,0.7c-0.7-1.6-1.3-3.3-1.8-5
			c-0.2-0.7-0.4-1.5-0.6-2.2l-0.7-0.3l0,0l0.6,0.3v-0.1c0-0.1-0.1-0.2-0.1-0.3s0-0.1,0,0l0,0c0,0,0.1-0.1,0.1,0
			S360.2,329.2,360.3,329.3L360.3,329.3c0.9,0.4,1.8,0.8,2.6,1.3c0,0,0,0.1,0,0.1C362.1,330.2,361.2,329.7,360.3,329.3L360.3,329.3z
			"/>
		<path class="st11" d="M312.2,364.4l35.7,35c0,0,15-38.9,15.2-77.2c0-4.1-0.9-7.6-2.5-10L312.2,364.4z"/>
		<path class="st6" d="M315.9,355.9c6.6,5.5,24,20.8,34,32.2c0.1,0.1-0.2,0.3-0.2,0.3c-9.8-8.2-28-26.1-34.1-32.1
			C315.4,356.1,315.7,355.7,315.9,355.9z"/>
		<path class="st8" d="M453.3,458.3l-136-0.4l8.2-51.2c0,0-11.8-14.3-9.5-29.8c2.4-17,33-60,35.6-62.5c10.4-9.7,21.2-12.3,31.1-7.2
			C416.7,324.7,453.3,458.3,453.3,458.3z"/>
		<path class="st11" d="M402.9,396.9c0.2,1.5,0.3,3.1,0.3,4.6c0-1-0.1-2.1-0.2-3.1L402.9,396.9z M412.5,458.2h-1.7
			c-0.7-0.5-1.4-0.9-2.1-1.3c-4.9-2.6-8.9-1.9-13.7-1.6l0,0l-0.9,0l0.5,0.6v0.1c0.7,0.8,1.3,1.5,2,2.2h-1.4c-0.9-1-1.6-2.2-2-3.5
			c5.2-0.9,9.7-1.5,14.6,0.7C409.5,456.1,411.1,457,412.5,458.2L412.5,458.2z M416.6,458.2h-1.5c-1.4-3.3-2.6-6.7-3.6-10.2h-0.1
			c-4.3-1.9-9.1-4.5-11.3-9s-1.3-10.8-0.8-15.6c0-0.1,0.1-0.2,0.2-0.2c0.1,0,0.2,0,0.2,0.1c7.5,6.3,13.8,13.3,12.2,23.4
			C413.2,450.7,414.7,454.5,416.6,458.2L416.6,458.2z M410.9,446.7l0.3,0.1c0-0.1,0-0.2,0-0.2c0-0.1,0.1-0.1,0.1-0.1
			c-0.1-5.1-0.4-9.2-3.8-13.6c-2.2-2.8-4.6-5.4-7-8l-0.4-0.4l-0.2-0.2l-0.1-0.1l-0.1-0.1v0.1c0,0,0,0.1,0,0.1
			c0.2,4.2-0.2,8.5,1,12.5C402.2,441.7,406.5,444.7,410.9,446.7z M417.2,356.5c-1.7,4.7-3.5,9.3-3.6,14.5l0,0
			c0-5.1,1.6-10.2,3.3-15.1C417,356,417.1,356.2,417.2,356.5L417.2,356.5z M446.5,435.3c-1.1,0.3-2.2,0.6-3.2,0.9h-0.1
			c-1.5,7.4-4.5,14.4-9,20.5c0,0.5,0,1-0.1,1.5h-1.8c0.5-8.8-0.1-17.7-1.7-26.3c-0.4-1.8-0.8-3.6-1.2-5.4c-0.1,0-0.2,0-0.3-0.1
			c-5.7-2.8-11.1-6.1-16.1-9.9l-0.6-0.3c-7.9,9.3-20,3.2-28.7-1.3l0,0c-0.2-0.1-0.4-0.4-0.3-0.6c0-0.1,0.1-0.2,0.3-0.3h0.1l0.1-0.1
			c5.2-2.2,9.9-5.1,15.8-4.4c3,0.5,5.9,1.5,8.5,3c-7.9-6.7-14.5-14.8-19.3-24c-0.1,0-0.1,0-0.2,0c-10.6-4.1-15.8-12.3-15.7-23.5
			l-0.2-0.2c-0.2-0.2,0.2-0.5,0.4-0.3c7.1,6.3,17.2,10.9,15.4,21.8c3.4,5.2,7.1,10.2,11.2,15c-4.1-8.5-5-16.7-1.6-26.5
			c-0.1-0.2,0-0.4,0.1-0.4c0.1,0,0.1,0,0.2,0c0.1,0,0.1,0,0.2,0.1l0,0c5,4.9,8.2,11.3,9.4,18.2c0.8,5.1-1.3,9.1-4.5,12.9
			c7.4,7.9,16.1,14.5,25.7,19.5c-5.2-20.4-15.6-38.7-25.5-57.1c0,0-0.1,0-0.1,0c-4.6-3.1-10.8-5.5-13.8-10.6
			c-3.2-5.5-2.7-13.1-2.7-19.2c0,0,0.3-0.2,0.3-0.1c5,3.8,10.4,8.1,13.5,13.6c2.7,4.8,3.1,10.2,3.5,15.5l0.1,0.1c0,0,0.1,0.1,0,0.2
			c0,0,0,0,0,0c0,0.3,0,0.5,0,0.8c2.8,4.2,5.4,8.4,7.9,12.8c-0.8-4.8-1.9-9.8-1.1-14.5c0.5-3.4,3.1-8.5,5-12.2l0.5,1
			c-1.6,3.1-2.9,6.5-3.8,9.9c-1.1,4.9-0.4,10.8,0.3,16c-0.1-2.9,0-5.8,0.3-8.7h0.1c-0.2,3.1-0.1,6.2,0,9.2c1.6-5,3.8-9.8,4.7-15
			c0.4-2.1,0.6-4.3,0.7-6.4l0.1,0.3c-0.1,2.1-0.3,4.1-0.6,6.1c-1.1,5.3-2.7,10.6-4.9,15.5c3.6-3.8,6-8.6,6.9-13.9
			c0.2-1.4,0.3-2.9,0.2-4.4c0.1,0.2,0.2,0.4,0.3,0.6c0,1.6-0.2,3.2-0.5,4.8c-1,4.9-3.4,9.4-6.9,12.9c0,0.1,0,0.2,0,0.3
			c5.5-4.4,8.3-9.3,8.1-16.3c0.4,0.9,0.7,1.7,1.1,2.6c-0.1,5.7-2.2,10.8-9.1,14.2l0,0c12.5,22.4,21,47.1,20.7,72
			c4.7-9.7,7.7-20.2,8.7-31c0.5,1.5,1,2.9,1.4,4.3c-0.2,2-0.5,3.9-0.8,5.8c0.5-1.5,0.8-3,1.3-4.5c0.1,0.4,0.2,0.8,0.4,1.2
			c-0.3,1-0.7,2.1-1.1,3.1c0,0,0,0,0,0c-0.1,0.3-0.2,0.6-0.4,0.9l0.1,0c0.8-0.3,1.6-0.5,2.4-0.8
			C446.3,434.6,446.4,434.9,446.5,435.3L446.5,435.3z M388.2,339.1c6.3,6.9,11.1,15,14.3,23.8c-0.8-3.9-1.2-7.8-3.3-11.4
			C396.3,346.4,392.4,342.8,388.2,339.1L388.2,339.1z M402.8,366.2c-3.9-3.5-8-7.1-10.5-11.6c-2.6-4.8-3.7-10.7-5-16
			c0.6,5.5,1,13.2,3.7,17.9C393.6,360.9,398.6,363.3,402.8,366.2L402.8,366.2z M392.4,354c2.4,4.7,6.6,8.2,10.5,11.8
			c-4.5-9.3-9.6-18.3-15.2-27C389,343.8,389.9,349.3,392.4,354L392.4,354z M403.3,366.2c-0.1-0.5-0.3-0.9-0.4-1.4
			c-3.3-9.3-8.3-17.9-14.8-25.4c5.6,8.4,10.5,17.3,14.8,26.4L403.3,366.2z M387.5,386.7l0.1,0.1c0-0.1,0-0.2,0-0.2c0,0,0,0,0-0.1v0
			c0-0.2,0-0.4,0-0.6c0-0.1,0-0.2,0-0.2c0-5.6-2.3-9.8-6.8-13.4c-1.1-0.9-2.2-1.7-3.2-2.5c-1.5-1.2-2.9-2.5-4.2-3.9l0,0
			c1.2,4.6,1.3,9.2,4.3,13.2C380.3,382.3,383.7,384.9,387.5,386.7z M398.9,376.2c2.4,5.2,5.9,9.7,6.6,15.5c0.5,3.7-0.1,7.4-1.6,10.9
			c2.9-4.6,3.6-8.5,1.4-14.6C403.9,383.6,401.5,380,398.9,376.2L398.9,376.2z M402.8,404.4c-1.7-4.4-3.1-8.9-4-13.5
			c-0.7-4.8-0.8-9.7-0.4-14.6c0-0.1,0-0.2-0.1-0.2c-0.5,4.1-1.6,8.3-1.4,12.4c0.2,5.9,3.2,11,5.7,16.2L402.8,404.4z M403.2,403.8
			c2-4,2.7-8.6,2-13c-1-5.6-4.5-9.9-6.6-15c0,0.1,0,0.1,0,0.2c1.7,4.7,2.9,9.5,3.6,14.5c0.3,2.1,0.5,4.3,0.7,6.5
			c-0.3-2.2-0.7-4.4-1-6.5c-0.7-4.7-1.8-9.3-3.3-13.8c0.2,4.6-0.3,9.1,0.4,13.7c0.9,4.7,2.1,9.3,3.9,13.8l0.2-0.2
			c0.1-0.8,0.2-1.7,0.1-2.5C403.2,402.2,403.2,403,403.2,403.8L403.2,403.8z M411.6,415.8l-0.2-0.1h0l-0.2-0.1
			c-0.5-0.3-1.1-0.5-1.6-0.8c-3.2-1.7-6.4-3.4-10.1-3.9c-4.4-0.6-8.1,1.2-12,2.8l0,0c-0.7,0.3-1.4,0.6-2.2,0.8l0.1,0.1l0.2,0.1
			l2.4,1.3c3.5,1.9,7.1,3.7,11,4C403.8,420.3,407.7,418.4,411.6,415.8L411.6,415.8z M388.4,387.1
			C388.4,387.1,388.4,387.2,388.4,387.1l-0.4-0.4c0.1,0.3,0.1,0.6,0.2,0.9c0,0-0.1,0.1-0.1,0c-0.1-0.3-0.1-0.6-0.2-1l-0.3-0.2
			l-0.1,0l0,0.1c0.1,0.1,0.1,0.3,0.2,0.4c0,0.1-0.1,0.1-0.1,0.1l-0.2-0.3l-0.4-0.7c-3-2.5-6-4.9-8.1-8.3c-2.3-3.7-4.1-7.6-5.4-11.7
			l-0.2-0.2l-0.1-0.2c0,0,0-0.1,0.1-0.1l0.2,0.2c0,0,0.1-0.1,0.1,0c0,0,0,0,0,0 M373.8,365.6l0.5,0.7c1.2,1.1,2.3,2.2,3.4,3.3
			c4.4,4.6,8.2,9.8,10,16c0.1,0.4,0.2,0.7,0.3,1.1L373.8,365.6z M387,385.9c-3.7-6.7-8.4-12.6-12.6-19l-0.4-0.5
			c1.4,3.9,3.2,7.6,5.3,11.1C381.4,380.7,384.1,383.5,387,385.9L387,385.9z M387.9,386.6c-0.1-0.3-0.1-0.5-0.2-0.8
			c-1.1-3.8-2.9-7.3-5.3-10.4c-2.1-2.6-4.5-4.9-6.8-7.3c2.1,2.9,4,5.8,6.1,8.6c2.1,3.1,4.4,6.1,5.9,9.5l0.1,0.1L387.9,386.6z
			 M412.1,415.8C412.1,415.8,412.1,415.9,412.1,415.8l-0.5-0.1h-0.1c-3.8,2.2-8.1,3.3-12.5,3.1c-2.3-0.1-4.7-0.6-6.9-1.4
			c-1.3-0.5-2.8-0.9-4.2-1.5c-0.8-0.3-1.6-0.8-2.4-1.3l-0.2-0.1l0,0l-1.1,0.3c-0.1,0-0.2-0.2-0.1-0.2l0.7-0.2c0,0,0,0,0,0h0l0,0
			l-0.1-0.1c0,0,0,0,0,0l0.2,0.1c0.7-0.2,1.4-0.5,2.2-0.7l0,0c3.4-1.1,7-1.6,10.5-1.6c4,0.3,7.9,1.2,11.6,2.7
			c0.7,0.2,1.4,0.5,2.1,0.8l0.6-0.4l0,0l-0.6,0.4l0.1,0l0.3,0.1L412.1,415.8z M386.4,414.2c8.1-1,16.3-0.6,24.3,1.2
			c-4.1-1.4-8.4-2.8-12.7-3C394,412.3,390.1,412.9,386.4,414.2L386.4,414.2z M411.5,415.7L411.5,415.7l-0.3,0
			c-8.4-1.7-17.1-2.1-25.6-1.1h-0.1C393.6,418.9,403.1,420.3,411.5,415.7L411.5,415.7z M411.8,447.4l-0.5-0.5c0,0.2,0,0.4,0,0.6
			c0,0.1-0.1,0.1-0.1,0.1c0,0-0.1,0-0.1-0.1c0-0.3-0.1-0.5-0.1-0.8l0,0c0,0,0,0.1,0,0.1c0,0,0,0.1-0.1,0l-0.1-0.2l0,0
			c-3.1-2.7-6.1-5.6-8-9.3c-2-4-2.5-8.5-3-12.9l-0.1-0.1c0,0-0.1-0.1-0.1-0.2s0-0.1,0.1-0.1l0,0.1l0.1,0.1c0,0,0-0.1,0-0.1l0,0l0,0
			c0,0,0,0.1,0,0.1s0,0.1,0,0.1l0.3,0.4l-0.2-0.3l-0.3-0.5 M399.8,424c0.2,0.3,0.4,0.6,0.6,0.9c0.1,0.1,0.2,0.3,0.3,0.4
			c5.5,6,9.7,13.1,10.4,21.4c0,0,0,0.1,0,0.1l0.6,0.6c0.2,0,0.1,0.1,0.1,0L399.8,424z M411,446.5c-0.5-3.9-1.6-7.8-3.3-11.4
			c-1.7-3.3-3.9-6.3-6.3-9.1c1.5,2.5,2.8,5.1,4,7.7l0,0c-1.5-2.9-3.1-5.7-4.7-8.5c-0.2-0.2-0.4-0.5-0.6-0.7c0.6,4,1.2,8.2,2.8,12
			c1.8,4,4.8,7,8,9.8c-1-3.3-2.4-6.5-4-9.6l0,0c1.7,3.1,3.1,6.3,4,9.7L411,446.5z M409.2,458.2h-0.8c-0.7-0.3-1.4-0.6-2.1-0.8
			c-3.1-0.9-6.3-1.5-9.6-1.6c2.9,0.7,5.7,1.5,8.5,2.5h-1.4c-2.9-1-5.8-1.8-8.7-2.6h-0.6c1,0.9,2.1,1.8,3.3,2.6h-0.4
			c-0.9-0.7-1.8-1.4-2.6-2.2V456l-0.4-0.4H394c-0.1,0-0.1-0.2,0-0.2c0,0,0-0.1,0-0.1c0,0,0,0,0,0l-0.2-0.2c0,0,0-0.1,0-0.1
			c0,0,0.1,0,0.1,0l0.3,0.3l0.5,0.1c0.2,0,0.3,0,0.5,0l0,0c3.9,0.1,7.7,0.7,11.4,1.8C407.4,457.4,408.3,457.8,409.2,458.2
			L409.2,458.2z M446.1,434.1c-0.7,0.3-1.5,0.6-2.2,0.8l-0.1,0.2c0,0.1-0.1,0.1-0.1,0.2c-0.1,0.1-0.3,0-0.2-0.1l0.1-0.2l-0.2,0.1
			l-0.2,0.1c-0.1,0-0.1,0-0.1-0.1c-0.4,0.1-0.7,0.2-1.1,0.2s-0.2-0.3,0-0.3c0.5-0.1,1.1-0.2,1.6-0.4l0.4-0.3c0,0,0-0.1,0-0.1
			c0,0,0,0,0,0c0.5-0.8,0.9-1.7,1.3-2.5l0.1,0.4c-0.3,0.6-0.7,1.2-1,1.8l1.2-1.1c0,0.1,0.1,0.2,0.1,0.3c-0.5,0.5-1.1,0.9-1.6,1.4
			l-0.1,0.1c0.6-0.2,1.3-0.5,1.9-0.8C446,433.8,446.1,434,446.1,434.1L446.1,434.1z M351.6,346.4c0.8-0.7,1.5-1.4,2.3-2
			c-1.2,0.9-2.4,2-3.5,3.1L351.6,346.4z M326.9,364.4c0.3,5.6,2.1,12-0.2,17.4c-1.7,4.1-5.4,7.4-9.1,10.2c-0.1-0.3-0.2-0.7-0.3-1
			c3.2-3,6.4-6.5,7.9-9.8c2.1-4.7,1-10.2,0.6-15.2c-0.5,5.2-0.8,10.7-2.9,15.4c-1.6,3.2-3.5,6.1-5.8,8.8c0-0.1-0.1-0.2-0.1-0.4
			c2.1-2.5,4-5.2,5.5-8.2c2.3-4.7,2.5-10.2,3.1-15.5c-3.4,6.7-6.5,13.5-9.3,20.5l-0.1-0.5c2.8-6.9,6-13.5,9.4-20.1l0.1-0.5
			c-0.3,0.4-0.6,0.8-0.9,1.1c-3.7,5.6-6.7,11.6-8.8,18c0-0.4-0.1-0.7-0.1-1.1c1.9-5.4,4.5-10.5,7.6-15.3c-2.6,2.9-5.5,5.6-7.1,9.5
			c-0.2,0.4-0.3,0.8-0.5,1.2c0-0.7,0.1-1.4,0.2-2.1c0.1-0.9,0.3-1.9,0.6-2.8c2.3-3.9,5.7-6.9,9.2-9.9c0,0,0-0.1,0-0.1
			c0-0.1,0.1-0.1,0.1-0.1c0,0,0,0,0,0l0.6-0.5c1.7-4.7,3.5-9.4,5.4-14c-2.5,2.9-5.3,5.6-8.4,8c0.5-1,1.1-2,1.6-3
			c2.3-1.8,4.4-3.9,6.4-5.8c-1.7,1.4-3.5,2.7-5.3,3.9l0.2-0.4c1.8-1.3,3.6-2.7,5.4-4.1c-1.2,0.4-2.4,0.8-3.6,1.2
			c0.1-0.2,0.2-0.3,0.3-0.5c1.3-0.4,2.5-0.7,3.8-1c-1-0.1-2.1-0.1-3.1-0.1l0.1-0.2c1,0,2.1,0.1,3.1,0.2l0.2-0.2c-1-0.3-2-0.5-3-0.6
			c0.2-0.3,0.3-0.6,0.5-0.9c1,0.3,1.9,0.7,2.8,1.2l0,0c5-11.5,11.1-22.4,18.4-32.6c0.1-0.1,0.2-0.2,0.3-0.3c1.5-1.4,3-2.7,4.7-3.9
			C343.6,326.7,335.4,345.7,326.9,364.4L326.9,364.4z M375.7,352.4L375.7,352.4c-0.1,0-0.2,0-0.2-0.1c-4.9-2.8-10.1-4.8-13-10
			c-1.4-2.6-2.4-5.5-2.7-8.5c-0.5,10.4-3.1,20.5-7.5,29.9c0,0.1,0.1,0.1,0.1,0.2c3.1,11-0.3,20-9.3,26.6c0,0.1,0,0.2-0.1,0.3
			c-0.1,0.3-0.5,0.1-0.5-0.1c0.8-9.4-1.6-20.3,8.1-25.4c2.1-5.9,3.9-11.8,5.2-17.9c-4.3,8.5-10.3,14-20.2,17.3
			c-0.1,0.2-0.3,0.2-0.4,0.2c-0.1,0-0.1-0.1-0.2-0.2c0-0.1,0-0.1,0-0.2l0,0c1-7,4.1-13.4,8.9-18.5c3.6-3.7,8.1-4.5,13-4.1
			c1.9-10.5,1.9-21.3,0.2-31.9c0.4-0.3,0.7-0.5,1.1-0.7c1.1,6,1.7,12.1,1.7,18.2c0,0.2,0.1,0.5,0.1,0.7c12.2,0.7,14.6,14,16.2,23.7
			v0.1c0.1,0.2,0,0.5-0.3,0.6C375.9,352.6,375.8,352.5,375.7,352.4L375.7,352.4z M351.5,365.8v-0.1l-0.2,0.1h-0.1l0,0
			c-0.2,0.1-0.3,0.2-0.5,0.3c-0.1,0-0.1,0.1-0.2,0.1c-4.4,3.3-6.4,7.8-6.6,13.5c0,1.4,0,2.8-0.1,4.1c0,1.9-0.2,3.9-0.6,5.8l0,0
			c3-3.8,6.6-6.5,8-11.4C352.4,374.1,352.4,369.9,351.5,365.8L351.5,365.8z M336.3,363c2.7-5,4.2-10.6,8.4-14.6
			c2.7-2.6,6-4.4,9.6-5.3c-5.4,0.5-8.9,2.2-12.5,7.6C339.2,354.7,337.8,358.7,336.3,363L336.3,363z M336.3,363.5
			c2.7-4.2,5.9-8.1,9.4-11.6c1.5-1.6,3.1-3,4.8-4.5c-1.6,1.6-3.1,3.2-4.5,4.7c-3.3,3.4-6.3,7-9,10.8c3.5-2.9,7.5-5.2,10.7-8.6
			c3.2-3.5,6.2-7.3,8.7-11.4H356c-0.7,0.4-1.4,0.9-2.1,1.4c0.6-0.5,1.2-0.9,1.8-1.3c-4.4,0.8-8.5,3-11.6,6.3
			c-3.9,4.1-5.2,9.6-8,14.3L336.3,363.5z M356.7,342.9h-0.2c-2.5,4-5.3,7.8-8.4,11.3c-3.5,3.4-7.3,6.5-11.4,9.1l-0.1,0.2
			c3.6-2.1,7.5-3.7,10.7-6.3C351.7,353.5,354,348,356.7,342.9L356.7,342.9z M373.2,349.7c0.6,0.4,1.3,0.8,1.9,1.2c0,0,0-0.1,0-0.1
			s0-0.1,0-0.1c-0.2-1-0.3-1.9-0.4-2.9c-0.6-3.9-1.3-7.8-3.4-11c-2.7-4.2-6.5-6.2-11-7.8v0.2c0,0,0,0,0,0.1c0,0.1,0,0.2,0,0.2
			c0.1,0.6,0.2,1.2,0.3,1.9c0.6,3.6,1.1,7.1,3,10.4C365.9,345.7,369.6,347.6,373.2,349.7L373.2,349.7z M385.7,324.2
			c-2.3,4.5-7.8,7.6-12,10.1c-0.1,0.1-0.3,0.1-0.3-0.1c0,0,0-0.1,0-0.1c0,0,0-0.1,0-0.1c0.5-9.8,2.3-19,11.4-23.8l0.9-1.2
			c0.2,0.1,0.4,0.3,0.7,0.5l-0.2,0.3c0,0,0,0.1,0,0.1C387.1,314.4,387.9,319.9,385.7,324.2L385.7,324.2z M385.3,311
			c0-0.1,0-0.2-0.1-0.3c0,0.1-0.1,0.1-0.2,0.1c-0.1,0-0.2,0-0.2,0c-4,3.2-7.1,5.9-8.5,11.2c-0.9,3.4-1.6,6.9-2.2,10.4L374,333
			c0,0.1,0,0.2,0,0.3v0.1c0,0,0,0.1,0,0.1l0.1-0.1l0.1-0.1c3.2-2.7,6.9-5,9.4-8.3C386.6,321,386.4,315.8,385.3,311L385.3,311z
			 M351.7,365.5l-0.1,0.3c-0.1,0.2-0.2,0.5-0.3,0.7c-0.2,3.9-0.4,7.7-1.8,11.5c-1.6,4-3.6,7.9-6.1,11.4c0,0.1,0,0.2-0.1,0.3
			c0,0.1,0,0.1,0,0.2c0,0.1-0.1,0-0.1,0c0-0.1,0-0.2,0-0.2c0,0-0.1,0-0.1-0.1c0,0,0,0,0,0c0,0,0,0,0-0.1c0.1-0.3,0.2-0.5,0.2-0.8
			c0.2-1.6,0.4-3.2,0.6-4.7c1-6.3,2.9-12.4,6.7-17.6c0.2-0.3,0.4-0.6,0.7-0.9c0-0.2,0-0.4,0-0.6h0c0,0.2,0,0.4,0,0.6
			c0.2-0.2,0.4-0.5,0.5-0.7c0,0,0.1,0,0.1,0c-0.2,0.2-0.4,0.5-0.6,0.8v0.4v0.1l0.1-0.1c0.1-0.1,0.2-0.3,0.2-0.4
			S351.7,365.4,351.7,365.5L351.7,365.5z M351.2,366.6c-3.1,7-5,14.4-7.6,21.5c0,0.2-0.1,0.4-0.1,0.6c2.2-3.4,4.2-7.1,5.7-10.9
			C350.4,374.3,351.1,370.5,351.2,366.6L351.2,366.6z M351.2,365.9c0-0.1,0-0.2,0-0.3c-0.2,0.2-0.3,0.5-0.5,0.7
			c-2.4,3.1-4.1,6.7-5.1,10.5c-0.8,3.2-1.2,6.5-1.7,9.8c1-3.4,2.2-6.7,3.3-10c1-3.6,2.3-7.1,4-10.5C351.2,366,351.2,366,351.2,365.9
			L351.2,365.9z M375.9,351.7l-0.6-0.4c0,0,0,0,0,0l-0.1-0.1l0,0v0.2c0,0,0,0,0,0v-0.2c-0.6-0.4-1.2-0.8-1.8-1.3
			c-3-2.1-5.6-4.6-7.7-7.5c-2.2-3.3-3.8-7-4.8-10.8c-0.2-0.7-0.4-1.5-0.6-2.2l-0.7-0.3l0,0l0.6,0.3v-0.1c0-0.1-0.1-0.2-0.1-0.3
			s0-0.1,0,0l0,0c0,0,0.1-0.1,0.1,0s0.1,0.4,0.2,0.5h0.1c4,1.7,7.5,4.5,10,8.1c1.3,2,2.3,4.1,3,6.4c0.4,1.3,1,2.7,1.3,4.1
			c0.2,0.9,0.4,1.9,0.4,2.9v0.1l0,0l0.9,0.6C376.1,351.6,376,351.7,375.9,351.7z M360.4,329.6c3.7,7.7,8.6,14.9,14.5,21.1l0.1,0.1
			c-1.4-9.2-6-17.5-14.6-21.4h-0.1c0,0,0,0,0,0.1L360.4,329.6z M374.2,350.2c-5.7-5.9-10.3-12.7-13.7-20.1c1.4,4.1,2.8,8.4,5.2,12
			C368.1,345.3,370.9,348,374.2,350.2L374.2,350.2z M385.3,310.9L385.3,310.9L385.3,310.9c0.1,0,0.2,0,0.1,0l-0.1,0.2l0,0
			c-0.3,4.1-0.8,8.3-2.6,12c-2,4-5.2,7.1-8.5,10.1c0,0.1,0,0.1,0,0.2c0,0.1,0,0.1,0,0.2c0,0-0.1,0-0.1,0c0,0,0-0.1,0-0.1
			c0,0,0-0.1,0-0.1l-0.1,0.1l0,0l0,0l0.1-0.1c0,0,0.1-0.1,0.1-0.1l0.1-0.5l-0.1,0.3c-0.1,0.2-0.1,0.3-0.2,0.5s-0.1,0-0.1,0
			c0.1-0.3,0.2-0.7,0.4-1l0.2-0.5c1.5-8,4.6-15.6,10.8-21.1l0.1-0.1c0-0.3,0-0.6,0.1-0.9c0,0,0.1-0.1,0.1,0c0,0,0,0,0,0
			c0,0.2,0,0.5,0,0.7l0.4-0.4c0.1-0.1,0.2,0.1,0.1,0.1L385.3,310.9z M385.1,311.1c-2.9,2.8-5.3,6-7.1,9.5c-1.6,3.3-2.7,6.9-3.4,10.5
			c1.1-2.7,2.4-5.3,3.7-7.9c0,0,0,0,0,0c-1.4,2.9-2.7,5.9-4,8.9c-0.1,0.3-0.1,0.6-0.2,0.9c2.9-2.9,5.9-5.9,7.9-9.4
			c2.1-3.8,2.7-8,3.1-12.3c-2,2.8-3.8,5.8-5.2,8.9l0,0c1.4-3.2,3.2-6.2,5.3-9C385.1,311.3,385.1,311.1,385.1,311.1L385.1,311.1z
			 M328.4,447c-0.8,0.7-1.5,1.4-2.3,2.1c1.2-1,2.4-2,3.4-3.1L328.4,447z M320.1,458h-1.4c-0.2-1-0.5-2-0.9-3l0.4-2.5
			C319.1,454.2,319.7,456.1,320.1,458L320.1,458z M344.6,428.7L344.6,428.7c-0.8,7-3.9,13.5-8.6,18.6c-3.6,3.8-8,4.6-13,4.4
			c-0.3,2.1-0.6,4.2-0.8,6.3h-1.7c0.5-9.8,2.9-19.3,6.9-28.3c0-0.1-0.1-0.1-0.1-0.2c-3.3-10.9,0-20,8.8-26.8c0-0.1,0-0.2,0.1-0.3
			c0.1-0.3,0.5-0.1,0.5,0.1c-0.6,9.5,2,20.3-7.7,25.5c-2,5.9-3.7,11.9-4.9,18c4.2-8.5,10-14.2,19.9-17.6c0.1-0.2,0.3-0.2,0.4-0.2
			c0.1,0,0.1,0.1,0.2,0.2C344.6,428.5,344.6,428.6,344.6,428.7L344.6,428.7z M328.1,427.6v0.1l0.2-0.1c0,0,0,0,0.1,0l0,0
			c0.2-0.1,0.3-0.2,0.5-0.4c0.1,0,0.1-0.1,0.2-0.1c4.4-3.4,6.3-7.9,6.4-13.6c0-1.4,0-2.8,0-4.1l0,0c0-1.9,0.1-3.8,0.5-5.7l0,0
			c-2.9,3.8-6.5,6.7-7.8,11.5C327.1,419.3,327.1,423.5,328.1,427.6L328.1,427.6z M323.5,450.6c2.4-4,5.2-7.9,8.2-11.5
			c3.4-3.5,7.2-6.6,11.3-9.3c0-0.1,0.1-0.1,0.1-0.2c-3.5,2.1-7.5,3.9-10.6,6.5c-4.5,3.8-6.7,9.3-9.2,14.4L323.5,450.6z M343.4,430.2
			c-2.6,5.1-4,10.6-8.2,14.8c-2.6,2.6-5.9,4.5-9.5,5.5c5.4-0.5,8.9-2.4,12.4-7.9C340.6,438.5,341.9,434.5,343.4,430.2L343.4,430.2z
			 M343.5,429.6l-0.2,0.1c-2.6,4.2-5.7,8.2-9.2,11.7c-1.5,1.6-3.1,3.1-4.7,4.5c1.6-1.6,3-3.3,4.5-4.8c3.2-3.4,6.1-7.1,8.8-11
			c-3.5,3-7.4,5.4-10.5,8.8c-3.2,3.6-6,7.4-8.5,11.5h0.3c0.7-0.4,1.4-0.9,2.1-1.4c-0.6,0.5-1.2,0.9-1.8,1.4
			c4.4-0.9,8.4-3.2,11.5-6.5C339.5,439.8,340.8,434.3,343.5,429.6L343.5,429.6z M376.4,429.7L376.4,429.7c-0.1,0.1-0.4,0.5-0.4,0.5
			c-7.5,9.8-15,22.4-29,15.6l0,0c-1.7,4.1-3.6,8.2-5.6,12.1h-1.9c4.8-9.6,9.1-19.5,13.4-29.3c0,0,0-0.1,0-0.1
			c-0.4-5.6-2.3-11.9-0.1-17.4c2.4-5.9,8.7-10.2,13.5-13.9c0,0,0.3,0.1,0.3,0.2c0,6.3,0,13.1-2.4,19c-2.1,5.1-6.1,8.7-10.1,12.3
			c0,0,0,0.1,0,0.1c0,0.1-0.1,0.1-0.1,0.1c0,0,0,0,0,0l-0.6,0.5c-1.6,4.7-3.3,9.4-5.2,14.1c3.3-3.6,6.5-7.5,10.7-9.8
			c5.1-2.8,17.7-4.3,17.8-4.2S376.4,429.6,376.4,429.7L376.4,429.7z M354.8,426.3c5.3-8.3,9-17.6,10.9-27.3
			c-3.2,9.6-7.1,18.9-11.8,27.9c0,0.2,0,0.3,0,0.5C354.2,427,354.5,426.6,354.8,426.3L354.8,426.3z M365.9,398.2
			c-3.1,4.2-6.8,8.3-9,13.1s-2.4,10.2-2.9,15.4C358.5,417.4,362.5,407.9,365.9,398.2L365.9,398.2z M366.1,398.9
			c-1.6,9.2-5,18-9.9,25.8c2.6-3,5.4-5.7,7-9.7C365.3,409.7,365.7,404.4,366.1,398.9L366.1,398.9z M353.8,427.1
			c0.4-5.2,0.6-10.7,2.7-15.4c2.2-5,6.1-9.5,9.6-13.8c-4,3.8-9.7,8.9-11.9,14C352.2,416.5,353.3,422,353.8,427.1L353.8,427.1z
			 M370.3,436.4c-2.4,2.7-5.3,4.9-8.4,6.5c-4.4,2.2-9.5,3.1-14.4,2.5l-0.2,0.2c7.1,1.7,13,0.8,18.5-4.3
			C367.4,439.8,368.9,438.1,370.3,436.4L370.3,436.4z M373.5,432.4c-1.3,1.1-2.7,2-4.1,3c-2.1,1.6-4.3,3-6.6,4.2
			c-4.9,2.4-10,4.3-15.3,5.7c5.2,0.5,10.5-0.6,15.1-3.1C367,439.7,370.3,436,373.5,432.4L373.5,432.4z M375.5,430
			c-5,1.5-10,2-14.9,4.3c-4.5,2.2-8.8,6.4-12.4,10c2.2-1.9,4.6-3.6,7.1-5.2c0,0,0.1,0,0,0c-2.5,1.8-4.9,3.7-7.3,5.7
			c5-1.8,10.1-3,14.8-5.5c4.4-2.3,8.5-5.3,12.1-8.7c-6.2,2.5-12.8,3.6-18.3,7.8l0,0c5.4-4.1,12.4-6.2,18.8-8.2L375.5,430z
			 M336.2,403.8c-0.1,0.3-0.1,0.5-0.2,0.8c-0.1,1.6-0.3,3.1-0.5,4.7l0,0c-0.9,6.3-2.7,12.5-6.4,17.7c-0.2,0.3-0.5,0.6-0.7,0.9v0.6
			c0,0,0,0,0,0V428c-0.2,0.2-0.4,0.5-0.5,0.7 M327.8,428.7c0.2-0.2,0.4-0.5,0.6-0.8c0-0.1,0-0.2,0-0.4v-0.1l-0.1,0.1l-0.2,0.4
			c0,0.1-0.2,0-0.1-0.1c0.1-0.1,0.1-0.2,0.1-0.3c0.1-0.2,0.2-0.5,0.3-0.7c0.2-3.9,0.2-7.7,1.6-11.5c1.5-4.1,3.5-7.9,5.9-11.5
			c0-0.1,0-0.2,0.1-0.3c0-0.1,0-0.1,0-0.2c0-0.1,0.1,0,0.1,0c0,0.1,0,0.2,0,0.2c0,0,0.1,0,0.1,0.1c0,0,0,0,0,0L327.8,428.7z
			 M335.4,406.8c-1,3.4-2.1,6.7-3.1,10.1c-1.1,3.5-2.1,7.2-3.9,10.5c0,0,0,0.1,0,0.1s0,0.2,0,0.3c0.2-0.2,0.3-0.5,0.5-0.7
			c2.3-3.2,4-6.7,4.9-10.5c0.7-3.3,1-6.6,1.5-9.9L335.4,406.8z M335.7,405.1c0-0.2,0.1-0.4,0.1-0.6c-2.2,3.5-4,7.2-5.5,11
			c-1.1,3.6-1.7,7.4-1.8,11.2C331.4,419.7,333.2,412.3,335.7,405.1L335.7,405.1z M318,457.9h-0.4c-0.1-0.2-0.1-0.4-0.2-0.5l0.1-0.6
			C317.7,457.2,317.9,457.6,318,457.9z"/>
		<path class="st6" d="M349.1,402.8c6.1,0.6,12.1,1.6,18.1,3c2.9,0.8,5.8,1.6,8.7,2.6c1.4,0.5,2.9,0.9,4.3,1.3
			c1.5,0.5,3.1,0.8,4.6,0.9c0.1,0,0.1,0,0.1,0.1c0,0.1,0,0.1-0.1,0.1c-1.5,0.1-3,0-4.5-0.1c-1.4-0.2-2.9-0.4-4.3-0.8
			c-3-0.7-6-1.6-8.9-2.4c-6-1.5-12-3.1-18.1-4.2c-0.1,0-0.2-0.2-0.2-0.3S348.9,402.8,349.1,402.8z"/>
		<path class="st6" d="M334.1,408.2c5-0.5,10-0.8,15.1-0.7c2.5,0,5,0.2,7.5,0.5c1.2,0.1,2.4,0.2,3.6,0.4s2.6,0.5,3.9,0.7
			c0.1,0,0.1,0.2,0,0.2c-1.2-0.1-2.5,0-3.8,0l-3.8-0.1c-2.5-0.1-5-0.1-7.5-0.2c-5-0.2-10-0.3-15.1-0.3
			C333.8,408.6,333.8,408.2,334.1,408.2z"/>
		<path class="st13" d="M399.2,321.8c33.9,43.2,72.4,123.5,61.5,139.1c-12.1,17.3-60.2-37-58.2-39.5c1.7-2.1-12.7-54.1-22.9-91.9
			S390.9,311.1,399.2,321.8z"/>
		<path class="st8" d="M440.9,373.7l-55.1,4.5c0,0-9.8-39.7-10.5-61.3c-0.4-12.1,6.7-11.9,14.9-4.7
			C419,337.5,440.9,373.7,440.9,373.7z"/>
		<path class="st11" d="M419,350.6c0,0-0.1-0.5-0.2-0.6l0,0c0-0.1,0-0.1-0.1,0s-6.7,10.8-7.6,16.6c-0.4,3.2-0.3,6.5,0.3,9.7l1.1-0.1
			c-0.4-3.6-0.3-7.3,0.3-10.9c1.2-5.3,3.9-9.5,5.8-14.4v0.2c-2.3,6.3-5,13.1-5.1,19.9l0,0c0.2-6.9,3.3-12.8,5.1-19.2
			c0.5,5,0.3,10-0.6,14.9c-0.6,3.1-1.5,6.2-2.6,9.2h0.4c1.1-3,1.9-6,2.5-9.1c0.4-2.6,0.6-5.2,0.7-7.8c0.1-1.7,0.2-3.4,0.1-5.1
			c0.9,4.8,1.8,9.7,1.1,14.6c-0.4,2.5-1.1,5-2.3,7.2h0.2c0.9-2,1.6-4,2.1-6.1c0.6-3.5,0.7-7.1,0.1-10.7c0.5,2.2,0.9,4.4,1.1,6.6
			c0.4,3.5-0.3,7-1.9,10.1l1.8-0.1C424.5,368.2,421.2,359,419,350.6z M413.4,372.4c-0.1,1.2-0.2,2.4-0.3,3.6h0.2
			C413.3,374.8,413.4,373.7,413.4,372.4C413.4,372.4,413.4,372.4,413.4,372.4L413.4,372.4z M404.4,368.2c0-0.3,0-0.5,0-0.8
			c0,0,0.1-0.1,0-0.2c0,0,0,0,0,0l-0.1-0.1c-0.4-5.4-0.7-10.7-3.5-15.5c-3.1-5.5-8.5-9.8-13.5-13.6c0-0.1-0.3,0.1-0.3,0.1
			c0,6.1-0.5,13.7,2.7,19.2c3,5.1,9.1,7.4,13.8,10.6c0,0,0.1,0,0.1,0l4.6,8.5l1.3-0.1C407.8,373.6,406.1,370.9,404.4,368.2
			L404.4,368.2z M399.2,351.4c2.1,3.7,2.6,7.6,3.3,11.4c-3.1-8.8-8-16.9-14.3-23.8C392.4,342.8,396.3,346.4,399.2,351.4L399.2,351.4
			z M391.1,356.4c-2.7-4.8-3.1-12.5-3.7-17.9c1.2,5.3,2.3,11.2,5,16c2.5,4.5,6.7,8.1,10.5,11.6C398.6,363.3,393.6,360.9,391.1,356.4
			L391.1,356.4z M387.6,338.7c5.6,8.7,10.7,17.7,15.2,27c-3.8-3.6-8-7.1-10.5-11.8S389,343.8,387.6,338.7L387.6,338.7z M403,365.8
			c-4.3-9.2-9.2-18-14.8-26.4c6.4,7.5,11.5,16.1,14.8,25.4c0.1,0.5,0.2,0.9,0.4,1.4L403,365.8z M401,377c-0.7-0.9-1.6-1.8-2.4-2.6
			l0,0c0,0-0.1-0.1-0.2-0.1c-0.2,0-0.4,0.1-0.4,0.3c0,0.1,0,0.1,0,0.2c-0.3,0.9-0.6,1.7-0.8,2.5l1-0.1c0.1-0.4,0.1-0.8,0.2-1.2
			c0,0.1,0,0.2,0.1,0.2c0,0.3,0,0.6,0,0.9h0.2c0-0.1,0-0.3,0-0.5c0,0.1,0.1,0.3,0.1,0.4h0.3c-0.1-0.4-0.3-0.8-0.5-1.2
			c0-0.1,0-0.1,0-0.2c0.2,0.5,0.4,1,0.6,1.5h0.2c-0.2-0.3-0.3-0.6-0.5-0.9l0.6,0.9L401,377z M385,374.6c0.3,1.4,0.6,2.4,0.7,3
			c0.1,0.2,0.2,0.4,0.3,0.6l1.3-0.1C386.7,376.8,385.9,375.7,385,374.6L385,374.6z M386.1,309.8
			C386.1,309.8,386.1,309.7,386.1,309.8c0.1-0.2,0.2-0.4,0.3-0.5c-0.2-0.1-0.5-0.3-0.7-0.4l-0.9,1.3c-4.3,2.3-7.6,6.2-9.2,10.8
			c0.1,1,0.1,2,0.2,3c0.2-0.7,0.3-1.3,0.5-2c1.4-5.4,4.5-8.1,8.5-11.2c0.1,0,0.2,0,0.2,0c0.1,0,0.1-0.1,0.2-0.1c0,0.1,0,0.2,0.1,0.3
			c1,4.7,1.2,10-1.8,14c-2,2.4-4.3,4.5-6.9,6.3c0,0.4,0.1,0.8,0.2,1.1c3.5-2.2,7.2-4.8,8.9-8.2C387.9,319.9,387.1,314.4,386.1,309.8
			L386.1,309.8z M386,310.3c0.1-0.1,0-0.2-0.1-0.1l-0.4,0.4c0-0.2,0-0.5,0-0.7c0,0-0.1-0.1-0.1,0c0,0,0,0,0,0c0,0.3,0,0.6-0.1,0.9
			l-0.1,0.1c-4.3,4-7.4,9-9.1,14.6c0,0.1,0,0.3,0,0.4c0.5-1.8,1.2-3.6,2.1-5.2c1.8-3.5,4.2-6.8,7.1-9.5c0,0,0,0.1,0,0.2
			c-2.1,2.8-3.8,5.8-5.3,9l0,0c1.5-3.1,3.2-6.1,5.2-8.9c-0.4,4.3-0.9,8.5-3.1,12.3c-1.5,2.6-3.4,4.9-5.5,7c0,0.1,0,0.2,0,0.3
			c2.5-2.3,4.5-4.9,6.1-7.9c1.9-3.7,2.4-7.9,2.6-12l0,0l0.1-0.2c0,0,0-0.1-0.1,0l-0.1,0.1v-0.1L386,310.3z M378.4,323.2
			c-0.7,1.5-1.5,2.9-2.2,4.4c0,0.1,0,0.2,0,0.4C376.9,326.3,377.6,324.8,378.4,323.2C378.4,323.2,378.3,323.2,378.4,323.2
			L378.4,323.2z"/>
		<path class="st6" d="M387,369.4c8.4-1.4,31.4-4.5,46.5-4.6c0.1,0,0.1,0.4,0,0.4c-12.6,2-38,4.1-46.5,4.8
			C386.9,370,386.9,369.4,387,369.4z"/>
		<path class="st6" d="M392.5,377.7c-2.2,0-4.5,0-6.7,0.1l0.4,0.3c-1-6.1-2.3-12.1-3.6-18.1s-2.9-12-4.6-17.9
			c0.8,6.1,2,12.1,3.2,18.2s2.7,12,4.2,18l0.1,0.4l0.3,0C388.1,378.4,390.3,378.1,392.5,377.7z"/>
		<path class="st6" d="M380.4,354.3c-0.4-1.3-0.9-2.5-1.5-3.6c-0.6-1.1-1.3-2.2-2.1-3.3c0.1,0.7,0.2,1.3,0.5,1.9
			c0.2,0.6,0.5,1.2,0.8,1.8C378.6,352.3,379.4,353.3,380.4,354.3z"/>
		<path class="st13" d="M377.2,312.9c-0.3,2.6-10.5,20.5-22.1,21.4c-3.8,0.3-6.2-20.4-6.2-20.4l-0.5-1.5l-7.3-20.8l23.2-19.1
			l3.4-2.6c0,0,1.6,5.8,3.6,13.1c0.1,0.3,0.2,0.7,0.3,1s0.2,0.8,0.3,1.2c0.3,1.1,0.6,2.2,0.9,3.3c0.2,0.8,0.4,1.7,0.6,2.5
			s0.4,1.8,0.6,2.7C376,302.5,377.4,311.8,377.2,312.9z"/>
		<path class="st6" d="M371.3,282.9c-2.9,12.7-11.3,23.4-22.8,29.4l-7.3-20.8l23.2-19.1l3.4-2.6
			C367.7,269.8,369.3,275.7,371.3,282.9z"/>
		<path class="st6" d="M373.5,273.7c0.7,0.8,1.2,1.8,1.5,2.8c1.5,4.6-0.6,9.4-3.2,13.2c-2.8,4-6.7,7.7-8.1,12.5
			c-0.6,1.9-0.5,3.9,0.2,5.8c1,2,3,3,5,3.6s4.9,0.9,6.4,2.8c1.1,1.7,1.3,3.8,0.6,5.7c-1.5,4.8-6.6,7.3-9.7,11
			c-3.3,3.9-5.3,8.7-5.9,13.8c-0.4,4.8,0.5,9.6,2.8,13.8c1.1,2.1,2.4,4,4,5.7c1.8,1.9,4,3.3,5.9,5.1s3.4,3.9,3.3,6.4
			c0,2-4,8-12.3,11c-0.6,0.2-0.2,1.3,0.5,1.3c1.3,0,2.6,0,3.9-0.2c10.9-1.1,20.6-7.4,26-16.9c2.8-5,4.4-10.7,4.5-16.5
			c0.1-3.2-0.1-6.5,0.5-9.6c0.6-2.8,1.9-5.4,3.7-7.5c3.4-4.2,7.7-7.6,10.4-12.5c2.3-4.4,3.5-9.2,3.4-14.1
			c-0.1-10.2-4.7-19.9-12.5-26.5C396.9,277.5,373.1,273.3,373.5,273.7z"/>
		<path class="st6" d="M373.7,274c1.2,1.7,2.1,3.7,2.4,5.8c0.2,1.9-0.1,3.8-0.8,5.6c-1.6,4-4.6,7-7.5,10c-2.7,2.9-5.5,6-6.1,10
			c-0.3,1.7-0.1,3.5,0.5,5.1c0.8,1.7,2.3,3.1,4.1,3.7c3.3,1.3,7.9,2,9.1,5.9s-1.9,7.4-4.2,10c-5.5,6.5-13.6,14-11.4,23.4
			c1.1,4.8,4.2,9.2,7.4,12.9c2.3,2.6,5.2,5.9,4.6,9.7c0,0.1-0.2,0.1-0.2-0.1c0.6-4-2.9-6.8-5.4-9.4c-3-3-5.4-6.6-7-10.5
			c-1.5-4-1.4-8.4,0.2-12.2c1.6-4,4.4-7.4,7.3-10.7c1.5-1.7,3-3.3,4.4-5c1.4-1.5,2.5-3.2,3.1-5.2c0.6-2-0.3-4.1-2-5.2
			c-1.7-1.2-3.8-1.6-5.7-2.4c-1.8-0.6-3.3-1.6-4.5-3c-0.9-1.2-1.4-2.6-1.6-4.1c-0.3-3.4,0.7-6.8,2.7-9.5c2.8-3.9,6.8-6.8,9.5-10.7
			c1.5-2,2.4-4.4,2.6-6.8c0.1-2.6-1-4.8-2.1-7.1c0-0.1,0.1-0.3,0.2-0.3C373.5,273.9,373.6,273.9,373.7,274z"/>
		<path class="st6" d="M409,284c7.9,6.5,11,17.4,9.2,27.3c-1.1,5.5-3.5,10.7-6.9,15.2c-3.2,4.2-7,8-9.3,12.8
			c-2.5,5.3-1.6,11.1-1.6,16.7c0,4.6-1,9.1-2.9,13.3c-3.7,8.1-10.5,14.4-18.9,17.5c-1.1,0.4-2.1,0.7-3.2,1c-0.1,0-0.1,0-0.1-0.1
			c0-0.1,0-0.1,0.1-0.1c0,0,0,0,0,0c8.6-2.3,15.7-8.6,19.8-16.4c2-3.8,3.3-8,3.6-12.4c0.4-5.3-0.8-10.7,0.4-16c1-5,4.3-9,7.5-12.9
			c3.5-4.1,6.9-8.3,8.8-13.4c3.6-9.5,2.4-20.7-4.3-28.6c-7.4-8.9-19.1-11.5-30-12.6l-4.4-0.4c-0.2,0-0.2-0.3,0-0.3
			C388,275.3,400.1,276.6,409,284z"/>
		<path class="st8" d="M375.6,268c1.7,0.4,3.6,2.1,3.6,3.3s-5.5,8.4-7.7,8.6s-3.2-3.9-3.2-3.9L375.6,268z"/>
		<path class="st13" d="M306.5,263.7c4.1,38.5,27.6,40.4,35.9,39.6c7.5-0.8,33.1-4.5,33-43.2s-19.2-49-36.6-48.1
			S302.5,225.2,306.5,263.7z"/>
		<path class="st6" d="M310.8,259.6c0.8-0.3,1.7-0.6,2.5-0.9c0.9-0.2,1.7-0.7,2.4-1.4c0.3-0.5,0.2-1.2-0.2-1.6
			c-1-0.7-2.3-0.8-3.4-0.3c-1.2,0.4-2.2,1.1-2.8,2.2c-0.4,0.7-0.1,1.6,0.6,2C310,259.6,310.4,259.7,310.8,259.6z"/>
		<path class="st6" d="M336.8,255.5c-0.9,0-1.8-0.1-2.7-0.1c-0.9,0.1-1.9-0.2-2.7-0.7c-0.4-0.4-0.5-1.1-0.2-1.7c0.7-1,2-1.5,3.2-1.3
			c1.2,0,2.4,0.5,3.4,1.3c0.6,0.6,0.6,1.5,0,2.1C337.5,255.3,337.2,255.5,336.8,255.5z"/>
		<path class="st6" d="M332.2,265.8c0-0.1,0.2,0.1,0.2,0.2c0.2,2.6,1,5.5,3.4,6.1c0.1,0,0.1,0.1,0,0.1
			C333,272.2,332,268.3,332.2,265.8z"/>
		<path class="st6" d="M334.2,262.7c4.1-0.9,5.5,7.5,1.7,8.3S330.7,263.5,334.2,262.7z"/>
		<path class="st6" d="M335.9,262.9c0.8,0.4,1.7,1.1,2.6,1s1.6-1.1,2.2-2c0-0.1,0.1,0,0.1,0.1c0.3,1.6,0,3.3-1.7,3.9
			s-2.9-0.8-3.6-2.3C335.4,263.3,335.6,262.8,335.9,262.9z"/>
		<path class="st6" d="M317.8,267.6c0-0.1-0.2,0.2-0.2,0.3c0.5,2.6,0.7,5.6-1.5,6.9c-0.1,0,0,0.2,0,0.1
			C319,274,318.7,270,317.8,267.6z"/>
		<path class="st6" d="M315,265.4c-4.2,0.4-3.1,8.8,0.8,8.4S318.5,265,315,265.4z"/>
		<path class="st6" d="M313.3,266.1c-0.6,0.5-1.1,1.4-1.9,1.6s-1.7-0.6-2.4-1.4c-0.1-0.1-0.1,0-0.1,0.1c0.2,1.6,0.9,3.2,2.5,3.3
			s2.3-1.4,2.4-3.1C313.9,266.4,313.6,265.9,313.3,266.1z"/>
		<path class="st6" d="M338.1,284.7c-0.4,0.8-0.8,1.8-1.6,2.1c-0.9,0.3-1.9,0.3-2.9,0.2c-0.1,0-0.1,0.1-0.1,0.2
			c1,0.8,2.4,0.9,3.6,0.4c1-0.6,1.5-1.7,1.3-2.8C338.4,284.6,338.1,284.6,338.1,284.7z"/>
		<path class="st6" d="M325.2,278.9c0,0,0.4,3.9,0.9,5.7c0,0.2,0.5,0.1,1.1,0c0,0,0,0,0.1,0c3.3-0.2,6.2-2.2,7.5-5.2
			c0.1-0.2-0.2-0.3-0.3-0.2c-1.9,2.1-4.4,3.6-7.2,4.2c-0.2-0.5-0.5-6.8-0.8-6.7c-1.4,0.5-2.7,1.1-3.8,1.9
			c-1.1-8.1-0.9-16.4-2.1-24.5c0-0.1-0.1-0.2-0.2-0.2s-0.2,0.1-0.2,0.2c-0.8,8.6,0.3,18.1,1.2,26.5
			C321.3,281.7,324.6,279.4,325.2,278.9z"/>
		<path class="st6" d="M321.5,226.1c0,0,0.1,6.1,3.2,9.6c6.4,7.3,15.9,2.2,20.2,4.6c4.1,2.2,4.8,9,8.6,11.3
			c5.3,3.2,10.3-0.1,11.8,2.6c1.5,2.7,5.9,8.8,10,9s5.2-64.4-44.4-51c-6,1.2-11.5,4-16,8.1c-9.5,9.1-9.1,31.2-9.1,31.2
			s0.2-0.3,1.4-2.3c1.8-2.7,2.1-4.9,3.4-6.7c2.1-2.9,3.8-2.5,6-5.3C320,232.8,321.5,226.1,321.5,226.1z"/>
		<path class="st6" d="M321.5,223.2c-0.1,2.6,0.2,5.2,0.7,7.8c0.4,2.5,1.4,4.9,3.1,6.9c1.8,1.7,4.2,2.7,6.7,2.8
			c2.5,0.2,5.1-0.3,7.9,0c1.4,0.1,2.8,0.7,3.9,1.5c1,0.9,1.9,2.1,2.5,3.3c1.2,2.3,2.4,4.6,4.6,6c2.2,1.4,4.8,1.7,7.2,0.9
			c2.4-0.7,4.9-2.1,7.6-1.7c-2.7-0.2-4.9,1.4-7.4,2.3c-2.6,1-5.5,0.7-7.9-0.6c-2.5-1.4-3.9-4-5.1-6.2c-0.5-1.1-1.3-2.1-2.2-2.9
			c-1-0.7-2.1-1.1-3.3-1.2c-2.5-0.3-5.1,0.1-7.8-0.1c-1.4-0.1-2.7-0.4-4-0.9c-1.3-0.5-2.5-1.3-3.4-2.3c-1.6-2.2-2.7-4.7-3-7.5
			C321.2,228.5,321.2,225.8,321.5,223.2z"/>
		<path class="st6" d="M321.2,225.7c0.2,2.5,0,4.9-0.5,7.3c-0.4,2.5-1.6,4.9-3.3,6.7c-0.9,0.9-1.9,1.6-3,2.2
			c-0.9,0.6-1.7,1.5-2.1,2.5c-0.3,1.2-0.7,2.4-1.3,3.5c-0.6,1.1-1.5,2-2.6,2.7c0.9-0.8,1.5-1.8,2-2.9c0.4-1.1,0.7-2.3,0.9-3.5
			c0.4-1.3,1.2-2.4,2.3-3.1c1-0.6,1.9-1.4,2.8-2.2c1.6-1.7,2.7-3.8,3.2-6.1C320.4,230.4,320.9,228,321.2,225.7z"/>
		<path class="st13" d="M368.8,263.7c0,0,6-13.5,11.9-11.5s3.1,20.3-2.8,23.9c-2.9,2.1-7,1.4-9.1-1.6c-0.1-0.1-0.1-0.2-0.2-0.2
			L368.8,263.7z"/>
		<path class="st6" d="M379.8,257.4c0.1,0,0.1,0.1,0.1,0.2c-4.1,2.6-5.6,7.2-6.4,11.8c1-1.9,2.6-3.1,5.1-2c0.1,0.1,0.1,0.3-0.1,0.3
			c-1.7-0.2-3.3,0.7-4.1,2.2c-0.6,1.2-1.1,2.5-1.4,3.9c-0.1,0.4-0.9,0.4-0.8-0.1c0,0,0-0.1,0-0.1C371,267.9,373.8,259.1,379.8,257.4
			z"/>
		<path class="st13" d="M460.1,462.3c-13,7.8-56.8,2.7-115.3-10.6c-8.1-1.8,11.2-58,20-56.5c11,1.9,53.4,11.8,56.4,12.9
			C446.5,417.5,468.9,457,460.1,462.3z"/>
		<path class="st13" d="M379.7,400.8c0,0-3.5-1.3-21-11.2c-12.1-6.8-45.9-15.8-76.2,8.8c-11.6,9.4-10,21.7,3.7,14
			c9.7-5.4,16-10,19.6-10.8c0,0-6.5,15.7-1.2,24.1c4.6,7.3,9.7,14.3,15.3,20.9c1.4-0.7,2.8-1.6,4.1-2.5c4.8,6.3,12.8,9.3,20.6,7.7
			L379.7,400.8z"/>
		<path class="st13" d="M346.1,384.9c-7.1,1.5-22.1,4.8-33.5,11.8c-12.6,7.8-34.8,26.2-29,35.5c4.3,6.8,13.4,0.5,13.4,0.5
			s-7.6,9.6-2.4,14.8c4.8,4.8,11.5-0.5,11.5-0.5s-3.6,6.6,1.9,10.3c6.6,4.5,13-10,23.7-11.2C334.1,446,346.1,384.9,346.1,384.9z"/>
		<path class="st6" d="M323.1,408.7c-6.5,2.5-19.7,11.9-26.1,23.7c-0.1,0.3,0,0.5,0.2,0.3c7.7-9,16.4-17,26-23.9
			C323.2,408.8,323.1,408.7,323.1,408.7z"/>
		<path class="st6" d="M330.6,421.7c-5.4,2.7-18.6,13-24.6,25.2c-0.1,0.3,0,0.5,0.2,0.3c7.2-9.4,15.4-17.9,24.5-25.4
			C330.7,421.7,330.6,421.6,330.6,421.7z"/>
		<path class="st6" d="M306.2,447.2c-2,1.4-4.3,2.2-6.7,2.4c-2.5,0-4.8-1.3-6.1-3.5c-0.5-1.1-0.8-2.4-0.7-3.6
			c0.1-1.2,0.3-2.4,0.8-3.6c0.8-2.3,2-4.4,3.5-6.4l0.4,0.4c-1.9,1.3-4.1,2.3-6.3,2.7c-1.2,0.2-2.3,0.2-3.5,0
			c-1.2-0.3-2.2-0.9-3.1-1.8c-0.8-0.9-1.4-1.9-1.8-3.1c-0.3-1.2-0.4-2.4-0.2-3.5c0.4-2.3,1.3-4.5,2.6-6.4c1.2-1.9,2.7-3.7,4.3-5.4
			c1.6-1.6,3.2-3.2,4.8-4.8c3.3-3.2,6.7-6.2,10.3-9l0.5,0.9c-3.3,1.5-6.6,3.2-9.7,5c-1.6,0.9-3.1,1.9-4.5,3
			c-1.5,1.1-3.1,2.1-4.8,2.9c-1.7,0.8-3.5,1.4-5.3,1.8c-1,0.2-1.9,0.2-2.9,0c-1-0.2-1.9-0.7-2.5-1.5c-0.6-0.8-0.9-1.8-1-2.8
			c0-1,0.1-1.9,0.5-2.8c0.7-1.8,1.6-3.4,2.8-4.9c2.3-2.9,5.1-5.4,8.1-7.5c3-2.1,6.1-4,9.4-5.7c6.5-3.4,13.5-5.7,20.8-6.8
			c-7.2,1.2-14.2,3.7-20.5,7.2c-3.2,1.7-6.3,3.7-9.2,5.8c-3,2.1-5.6,4.6-7.9,7.4c-1.1,1.4-2,3-2.6,4.7c-0.6,1.6-0.7,3.5,0.4,4.8
			s2.9,1.5,4.6,1.2c1.7-0.3,3.4-0.9,5-1.7c1.6-0.8,3.2-1.7,4.6-2.8c1.5-1.1,3-2.1,4.6-3c3.2-1.9,6.4-3.5,9.8-5l4-1.8l-3.5,2.5
			c-3.6,2.8-7,5.7-10.2,8.8c-1.6,1.5-3.2,3.1-4.8,4.7c-1.6,1.6-3,3.3-4.2,5.2c-1.2,1.8-2.1,3.9-2.5,6.1c-0.2,1.1-0.1,2.1,0.1,3.2
			c0.3,1,0.8,2,1.5,2.8c0.7,0.8,1.7,1.3,2.7,1.6c1.1,0.3,2.2,0.3,3.2,0.1c2.2-0.4,4.3-1.3,6.1-2.5l1.5-1l-1.2,1.4
			c-1.5,1.8-2.7,3.9-3.5,6.1c-0.4,1.1-0.7,2.3-0.8,3.4c-0.1,1.2,0.1,2.3,0.6,3.4c1.1,2.1,3.3,3.5,5.8,3.5
			C301.8,449.3,304.2,448.6,306.2,447.2z"/>
		<path class="st6" d="M441.6,423.6c-2-2.2-7.8-9.4-17-14c-8.1-4-19.5-6.2-25.5-6.9c-0.1,0-0.2,0.1-0.1,0.2c5.2,1.8,15.7,4,24.3,8.2
			c6.6,3.3,12.7,7.6,18.1,12.7C441.5,423.8,441.7,423.7,441.6,423.6z"/>
	</g>
	<g id="freepik--speech-bubble--inject-135">
		<path class="st2" d="M224.6,238.1c0,20,16.2,36.3,36.3,36.3c7.8,0,15.4-2.5,21.7-7.2l17.8,4.5l-7.4-16.6
			c9.5-17.7,2.8-39.7-14.9-49.1c-17.7-9.5-39.7-2.8-49.1,14.9C226,226.3,224.6,232.1,224.6,238.1L224.6,238.1z"/>
		<path class="st6" d="M224.6,238.1c0,6.7,1.9,13.3,5.5,19c0.9,1.4,1.8,2.8,2.9,4.1c1.1,1.3,2.2,2.5,3.5,3.6
			c0.6,0.5,1.2,1.2,1.9,1.6l2,1.5c0.7,0.5,1.4,0.9,2.1,1.3l1.1,0.6c0.4,0.2,0.8,0.4,1.1,0.5c0.8,0.4,1.5,0.7,2.3,1.1l2.3,0.9
			c0.8,0.3,1.6,0.5,2.4,0.7c0.8,0.2,1.6,0.5,2.4,0.6c1.6,0.3,3.3,0.5,4.9,0.5c1.7,0.1,3.3,0.1,5-0.1c3.3-0.3,6.6-1.1,9.7-2.2
			c3.1-1.2,6-2.8,8.6-4.8l0.1-0.1h0.2l17.8,4.5l-0.5,0.6l-7.4-16.5l-0.1-0.2l0.1-0.2c5.2-9.7,5.6-21.3,1.2-31.4
			c-2.2-5-5.5-9.4-9.6-13c-4.2-3.5-9.1-6.1-14.4-7.4c-5.3-1.4-10.9-1.5-16.2-0.4C236.7,206.1,224.6,220.9,224.6,238.1L224.6,238.1z
			 M224.6,238.1c0-11.2,5.2-21.8,14-28.6c8.8-7,20.3-9.4,31.2-6.7c5.4,1.3,10.4,3.8,14.7,7.4c8.7,7.2,13.5,18.1,13.1,29.4
			c-0.2,5.6-1.7,11.1-4.3,16v-0.4l7.4,16.6l0.4,0.8l-0.9-0.2l-17.8-4.6l0.3-0.1c-5.5,4-11.9,6.5-18.7,7c-1.7,0.1-3.3,0.1-5,0
			c-1.7-0.1-3.3-0.3-5-0.6c-0.8-0.1-1.6-0.4-2.4-0.6c-0.8-0.2-1.6-0.4-2.4-0.7l-2.4-0.9c-0.8-0.4-1.5-0.7-2.3-1.1
			c-0.4-0.2-0.8-0.4-1.1-0.6l-1.1-0.7c-0.7-0.5-1.4-0.9-2.1-1.4l-2-1.5c-0.7-0.5-1.3-1.1-1.9-1.6c-1.2-1.1-2.4-2.3-3.5-3.6
			c-1-1.3-2-2.7-2.9-4.1C226.4,251.5,224.6,244.9,224.6,238.1z"/>
		<path class="st8" d="M244.1,221.6c-4.7,4.7-4.7,12.2,0,16.9s12.2,4.7,16.9,0s4.7-12.2,0-16.9c0,0,0,0,0,0
			C256.3,216.9,248.8,216.9,244.1,221.6C244.1,221.6,244.1,221.6,244.1,221.6z M246.5,224c0.9-0.9,2.3-0.9,3.2,0
			c0.9,0.9,0.9,2.3,0,3.2c-0.9,0.9-2.3,0.9-3.1,0C245.7,226.3,245.7,224.9,246.5,224C246.5,224,246.5,224,246.5,224L246.5,224z"/>
		
			<rect x="254.5" y="235.7" transform="matrix(0.7071 -0.7071 0.7071 0.7071 -91.7803 253.4238)" class="st8" width="10.9" height="3.6"/>
		<polygon class="st0" points="263.9,236.1 258.7,241.4 260,242.7 262.1,242 261.5,244.2 263.6,246.3 266.5,245.7 265.9,248.6 
			266.4,249.1 268.5,248.4 267.9,250.6 270.1,249.9 269.4,252.1 271.1,253.8 274,253.2 273.4,256.1 274.8,257.5 280.7,258.1 
			280.1,252.3 		"/>
		
			<rect x="269.5" y="236.2" transform="matrix(0.7071 -0.7071 0.7071 0.7071 -95.5499 263.0236)" class="st1" width="0.5" height="21.3"/>
		<path class="st11" d="M242.2,230c0,2.7,1.1,5.4,3.1,7.3c4,4,10.5,3.9,14.5-0.1c3.9-4,3.9-10.4,0-14.4c-4-4-10.5-4.1-14.5-0.1
			C243.3,224.6,242.2,227.3,242.2,230z M242.2,230c0-5.7,4.6-10.4,10.4-10.5c5.8-0.1,10.5,4.6,10.6,10.4s-4.6,10.5-10.4,10.6
			c-5.8,0.1-10.5-4.6-10.6-10.4C242.2,230.1,242.2,230.1,242.2,230z"/>
	</g>
	<g id="freepik--Device--inject-135">
		<rect x="234.1" y="454" class="st7" width="134.3" height="6"/>
		<rect x="234.1" y="454" class="st12" width="67.6" height="6"/>
		<polygon class="st12" points="297.6,460 166.8,460 149.6,371.1 280.5,371.1 		"/>
		<polygon class="st7" points="292.3,460 161.4,460 144.3,371.1 275.2,371.1 		"/>
		<path class="st2" d="M226.3,415.5c0.4,3.9-2.4,7.5-6.3,8c-0.3,0-0.6,0.1-0.9,0c-4.5-0.1-8.2-3.5-8.7-8c-0.5-3.9,2.4-7.5,6.3-8
			c0.3,0,0.6-0.1,1,0C222.1,407.6,225.8,411.1,226.3,415.5z"/>
	</g>
</g>
</svg>
